%TF.GenerationSoftware,KiCad,Pcbnew,10.0.1*%
%TF.CreationDate,2026-08-09T09:13:06+09:00*%
%TF.ProjectId,pong_pt1_DUT,706f6e67-5f70-4743-915f-4455542e6b69,rev?*%
%TF.SameCoordinates,Original*%
%TF.FileFunction,Soldermask,Bot*%
%TF.FilePolarity,Negative*%
%FSLAX46Y46*%
G04 Gerber Fmt 4.6, Leading zero omitted, Abs format (unit mm)*
G04 Created by KiCad (PCBNEW 10.0.1) date 2026-08-09 09:13:06*
%MOMM*%
%LPD*%
G01*
G04 APERTURE LIST*
G04 Aperture macros list*
%AMRoundRect*
0 Rectangle with rounded corners*
0 $1 Rounding radius*
0 $2 $3 $4 $5 $6 $7 $8 $9 X,Y pos of 4 corners*
0 Add a 4 corners polygon primitive as box body*
4,1,4,$2,$3,$4,$5,$6,$7,$8,$9,$2,$3,0*
0 Add four circle primitives for the rounded corners*
1,1,$1+$1,$2,$3*
1,1,$1+$1,$4,$5*
1,1,$1+$1,$6,$7*
1,1,$1+$1,$8,$9*
0 Add four rect primitives between the rounded corners*
20,1,$1+$1,$2,$3,$4,$5,0*
20,1,$1+$1,$4,$5,$6,$7,0*
20,1,$1+$1,$6,$7,$8,$9,0*
20,1,$1+$1,$8,$9,$2,$3,0*%
G04 Aperture macros list end*
%ADD10C,1.700000*%
%ADD11R,1.700000X1.700000*%
%ADD12C,5.600000*%
%ADD13C,1.600000*%
%ADD14RoundRect,0.150000X-0.875000X-0.150000X0.875000X-0.150000X0.875000X0.150000X-0.875000X0.150000X0*%
G04 APERTURE END LIST*
D10*
%TO.C,J3*%
X125780000Y-86980000D03*
X125780000Y-89520000D03*
X125780000Y-92060000D03*
X125780000Y-94600000D03*
X125780000Y-97140000D03*
X125780000Y-99680000D03*
X125780000Y-102220000D03*
X125780000Y-104760000D03*
X125780000Y-107300000D03*
X125780000Y-109840000D03*
X125780000Y-112380000D03*
X125780000Y-114920000D03*
X125780000Y-117460000D03*
D11*
X125780000Y-120000000D03*
%TD*%
%TO.C,J4*%
X126492000Y-74295000D03*
D10*
X126492000Y-76835000D03*
X123952000Y-74295000D03*
X123952000Y-76835000D03*
X121412000Y-74295000D03*
X121412000Y-76835000D03*
X118872000Y-74295000D03*
X118872000Y-76835000D03*
X116332000Y-74295000D03*
X116332000Y-76835000D03*
X113792000Y-74295000D03*
X113792000Y-76835000D03*
X111252000Y-74295000D03*
X111252000Y-76835000D03*
X108712000Y-74295000D03*
X108712000Y-76835000D03*
X106172000Y-74295000D03*
X106172000Y-76835000D03*
X103632000Y-74295000D03*
X103632000Y-76835000D03*
X101092000Y-74295000D03*
X101092000Y-76835000D03*
X98552000Y-74295000D03*
X98552000Y-76835000D03*
X96012000Y-74295000D03*
X96012000Y-76835000D03*
X93472000Y-74295000D03*
X93472000Y-76835000D03*
X90932000Y-74295000D03*
X90932000Y-76835000D03*
%TD*%
D12*
%TO.C,H6*%
X85000000Y-143500000D03*
%TD*%
%TO.C,H1*%
X132500000Y-143500000D03*
%TD*%
%TO.C,H2*%
X132500000Y-74000000D03*
%TD*%
%TO.C,H5*%
X85000000Y-74000000D03*
%TD*%
D11*
%TO.C,J2*%
X108000000Y-120000000D03*
D10*
X108000000Y-117460000D03*
X108000000Y-114920000D03*
X108000000Y-112380000D03*
X108000000Y-109840000D03*
X108000000Y-107300000D03*
X108000000Y-104760000D03*
X108000000Y-102220000D03*
X108000000Y-99680000D03*
X108000000Y-97140000D03*
X108000000Y-94600000D03*
X108000000Y-92060000D03*
X108000000Y-89520000D03*
X108000000Y-86980000D03*
%TD*%
D13*
%TO.C,R2*%
X122910600Y-126746000D03*
X112750600Y-126746000D03*
%TD*%
%TO.C,R1*%
X122961400Y-130581400D03*
X112801400Y-130581400D03*
%TD*%
D14*
%TO.C,J1*%
X112141000Y-112064800D03*
X112141000Y-110794800D03*
X112141000Y-109524800D03*
X112141000Y-108254800D03*
X112141000Y-106984800D03*
X112141000Y-105714800D03*
X112141000Y-104444800D03*
X112141000Y-103174800D03*
X112141000Y-101904800D03*
X112141000Y-100634800D03*
X112141000Y-99364800D03*
X112141000Y-98094800D03*
X112141000Y-96824800D03*
X112141000Y-95554800D03*
X121441000Y-95554800D03*
X121441000Y-96824800D03*
X121441000Y-98094800D03*
X121441000Y-99364800D03*
X121441000Y-100634800D03*
X121441000Y-101904800D03*
X121441000Y-103174800D03*
X121441000Y-104444800D03*
X121441000Y-105714800D03*
X121441000Y-106984800D03*
X121441000Y-108254800D03*
X121441000Y-109524800D03*
X121441000Y-110794800D03*
X121441000Y-112064800D03*
%TD*%
M02*
