%TF.GenerationSoftware,KiCad,Pcbnew,10.0.1*%
%TF.CreationDate,2026-08-09T09:13:04+09:00*%
%TF.ProjectId,pong_pt1_DUT,706f6e67-5f70-4743-915f-4455542e6b69,rev?*%
%TF.SameCoordinates,Original*%
%TF.FileFunction,Copper,L1,Top*%
%TF.FilePolarity,Positive*%
%FSLAX46Y46*%
G04 Gerber Fmt 4.6, Leading zero omitted, Abs format (unit mm)*
G04 Created by KiCad (PCBNEW 10.0.1) date 2026-08-09 09:13:04*
%MOMM*%
%LPD*%
G01*
G04 APERTURE LIST*
%TA.AperFunction,ComponentPad*%
%ADD10C,1.700000*%
%TD*%
%TA.AperFunction,ComponentPad*%
%ADD11R,1.700000X1.700000*%
%TD*%
%TA.AperFunction,ComponentPad*%
%ADD12C,5.600000*%
%TD*%
%TA.AperFunction,ComponentPad*%
%ADD13C,1.600000*%
%TD*%
%TA.AperFunction,ViaPad*%
%ADD14C,0.600000*%
%TD*%
%TA.AperFunction,Conductor*%
%ADD15C,0.300000*%
%TD*%
G04 APERTURE END LIST*
D10*
%TO.P,J3,14,Pin_14_14*%
%TO.N,unconnected-(J3-Pin_14-Pad14)*%
X125780000Y-86980000D03*
%TO.P,J3,13,Pin_13_13*%
%TO.N,unconnected-(J3-Pin_13-Pad13)*%
X125780000Y-89520000D03*
%TO.P,J3,12,Pin_12_12*%
%TO.N,unconnected-(J3-Pin_12-Pad12)*%
X125780000Y-92060000D03*
%TO.P,J3,11,Pin_11_11*%
%TO.N,unconnected-(J3-Pin_11-Pad11)*%
X125780000Y-94600000D03*
%TO.P,J3,10,Pin_10_10*%
%TO.N,unconnected-(J3-Pin_10-Pad10)*%
X125780000Y-97140000D03*
%TO.P,J3,9,Pin_9_9*%
%TO.N,unconnected-(J3-Pin_9-Pad9)*%
X125780000Y-99680000D03*
%TO.P,J3,8,Pin_8_8*%
%TO.N,unconnected-(J3-Pin_8-Pad8)*%
X125780000Y-102220000D03*
%TO.P,J3,7,Pin_7_7*%
%TO.N,GND*%
X125780000Y-104760000D03*
%TO.P,J3,6,Pin_6_6*%
%TO.N,/up*%
X125780000Y-107300000D03*
%TO.P,J3,5,Pin_5_5*%
%TO.N,/down*%
X125780000Y-109840000D03*
%TO.P,J3,4,Pin_4_4*%
%TO.N,/reset*%
X125780000Y-112380000D03*
%TO.P,J3,3,Pin_3_3*%
%TO.N,/enable*%
X125780000Y-114920000D03*
%TO.P,J3,2,Pin_2_2*%
%TO.N,/clk*%
X125780000Y-117460000D03*
D11*
%TO.P,J3,1,Pin_1_1*%
%TO.N,+3V3*%
X125780000Y-120000000D03*
%TD*%
%TO.P,J4,1,Pin_1_1*%
%TO.N,+3V3*%
X126492000Y-74295000D03*
D10*
%TO.P,J4,2,Pin_2_2*%
%TO.N,+5V*%
X126492000Y-76835000D03*
%TO.P,J4,3,Pin_3_3*%
%TO.N,unconnected-(J4-Pin_3-Pad3)*%
X123952000Y-74295000D03*
%TO.P,J4,4,Pin_4_4*%
%TO.N,unconnected-(J4-Pin_4-Pad4)*%
X123952000Y-76835000D03*
%TO.P,J4,5,Pin_5_5*%
%TO.N,unconnected-(J4-Pin_5-Pad5)*%
X121412000Y-74295000D03*
%TO.P,J4,6,Pin_6_6*%
%TO.N,unconnected-(J4-Pin_6-Pad6)*%
X121412000Y-76835000D03*
%TO.P,J4,7,Pin_7_7*%
%TO.N,unconnected-(J4-Pin_7-Pad7)*%
X118872000Y-74295000D03*
%TO.P,J4,8,Pin_8_8*%
%TO.N,unconnected-(J4-Pin_8-Pad8)*%
X118872000Y-76835000D03*
%TO.P,J4,9,Pin_9_9*%
%TO.N,unconnected-(J4-Pin_9-Pad9)*%
X116332000Y-74295000D03*
%TO.P,J4,10,Pin_10_10*%
%TO.N,/reset*%
X116332000Y-76835000D03*
%TO.P,J4,11,Pin_11_11*%
%TO.N,/enable*%
X113792000Y-74295000D03*
%TO.P,J4,12,Pin_12_12*%
%TO.N,unconnected-(J4-Pin_12-Pad12)*%
X113792000Y-76835000D03*
%TO.P,J4,13,Pin_13_13*%
%TO.N,unconnected-(J4-Pin_13-Pad13)*%
X111252000Y-74295000D03*
%TO.P,J4,14,Pin_14_14*%
%TO.N,unconnected-(J4-Pin_14-Pad14)*%
X111252000Y-76835000D03*
%TO.P,J4,15,Pin_15_15*%
%TO.N,unconnected-(J4-Pin_15-Pad15)*%
X108712000Y-74295000D03*
%TO.P,J4,16,Pin_16_16*%
%TO.N,unconnected-(J4-Pin_16-Pad16)*%
X108712000Y-76835000D03*
%TO.P,J4,17,Pin_17_17*%
%TO.N,/p_tick*%
X106172000Y-74295000D03*
%TO.P,J4,18,Pin_18_18*%
%TO.N,/hsync*%
X106172000Y-76835000D03*
%TO.P,J4,19,Pin_19_19*%
%TO.N,/vsync*%
X103632000Y-74295000D03*
%TO.P,J4,20,Pin_20_20*%
%TO.N,/rgb*%
X103632000Y-76835000D03*
%TO.P,J4,21,Pin_21_21*%
%TO.N,unconnected-(J4-Pin_21-Pad21)*%
X101092000Y-74295000D03*
%TO.P,J4,22,Pin_22_22*%
%TO.N,/clk*%
X101092000Y-76835000D03*
%TO.P,J4,23,Pin_23_23*%
%TO.N,unconnected-(J4-Pin_23-Pad23)*%
X98552000Y-74295000D03*
%TO.P,J4,24,Pin_24_24*%
%TO.N,unconnected-(J4-Pin_24-Pad24)*%
X98552000Y-76835000D03*
%TO.P,J4,25,Pin_25_25*%
%TO.N,/up*%
X96012000Y-74295000D03*
%TO.P,J4,26,Pin_26_26*%
%TO.N,/down*%
X96012000Y-76835000D03*
%TO.P,J4,27,Pin_27_27*%
%TO.N,unconnected-(J4-Pin_27-Pad27)*%
X93472000Y-74295000D03*
%TO.P,J4,28,Pin_28_28*%
%TO.N,unconnected-(J4-Pin_28-Pad28)*%
X93472000Y-76835000D03*
%TO.P,J4,29,Pin_29_29*%
%TO.N,GND*%
X90932000Y-74295000D03*
%TO.P,J4,30,Pin_30_30*%
X90932000Y-76835000D03*
%TD*%
D12*
%TO.P,H6,1,1_1*%
%TO.N,GND*%
X85000000Y-143500000D03*
%TD*%
%TO.P,H1,1,1_1*%
%TO.N,GND*%
X132500000Y-143500000D03*
%TD*%
%TO.P,H2,1,1_1*%
%TO.N,GND*%
X132500000Y-74000000D03*
%TD*%
%TO.P,H5,1,1_1*%
%TO.N,GND*%
X85000000Y-74000000D03*
%TD*%
D11*
%TO.P,J2,1,Pin_1_1*%
%TO.N,unconnected-(J2-Pin_1-Pad1)*%
X108000000Y-120000000D03*
D10*
%TO.P,J2,2,Pin_2_2*%
%TO.N,unconnected-(J2-Pin_2-Pad2)*%
X108000000Y-117460000D03*
%TO.P,J2,3,Pin_3_3*%
%TO.N,unconnected-(J2-Pin_3-Pad3)*%
X108000000Y-114920000D03*
%TO.P,J2,4,Pin_4_4*%
%TO.N,unconnected-(J2-Pin_4-Pad4)*%
X108000000Y-112380000D03*
%TO.P,J2,5,Pin_5_5*%
%TO.N,unconnected-(J2-Pin_5-Pad5)*%
X108000000Y-109840000D03*
%TO.P,J2,6,Pin_6_6*%
%TO.N,unconnected-(J2-Pin_6-Pad6)*%
X108000000Y-107300000D03*
%TO.P,J2,7,Pin_7_7*%
%TO.N,Net-(J1-Pin_7)*%
X108000000Y-104760000D03*
%TO.P,J2,8,Pin_8_8*%
%TO.N,+3V3*%
X108000000Y-102220000D03*
%TO.P,J2,9,Pin_9_9*%
%TO.N,GND*%
X108000000Y-99680000D03*
%TO.P,J2,10,Pin_10_10*%
%TO.N,/rgb*%
X108000000Y-97140000D03*
%TO.P,J2,11,Pin_11_11*%
%TO.N,/vsync*%
X108000000Y-94600000D03*
%TO.P,J2,12,Pin_12_12*%
%TO.N,/hsync*%
X108000000Y-92060000D03*
%TO.P,J2,13,Pin_13_13*%
%TO.N,/p_tick*%
X108000000Y-89520000D03*
%TO.P,J2,14,Pin_14_14*%
%TO.N,GND*%
X108000000Y-86980000D03*
%TD*%
D13*
%TO.P,R2,1*%
%TO.N,/down*%
X122910600Y-126746000D03*
%TO.P,R2,2*%
%TO.N,GND*%
X112750600Y-126746000D03*
%TD*%
%TO.P,R1,1*%
%TO.N,/up*%
X122961400Y-130581400D03*
%TO.P,R1,2*%
%TO.N,GND*%
X112801400Y-130581400D03*
%TD*%
D14*
%TO.N,GND*%
X118567200Y-119964200D03*
X115239800Y-122224800D03*
X115087400Y-118414800D03*
X115239800Y-99085400D03*
X114528600Y-87350600D03*
X113792000Y-81203800D03*
X112268000Y-92202000D03*
%TD*%
%TO.N,+3V3*%
D15*
X126492000Y-74295000D02*
X125152000Y-75635000D01*
X117703600Y-101015800D02*
X115570000Y-103149400D01*
X125152000Y-75635000D02*
X125152000Y-78733800D01*
X125152000Y-78733800D02*
X117703600Y-86182200D01*
X115570000Y-103149400D02*
X110540800Y-103149400D01*
X117703600Y-86182200D02*
X117703600Y-101015800D01*
X110540800Y-103149400D02*
X109611400Y-102220000D01*
X109611400Y-102220000D02*
X108000000Y-102220000D01*
%TO.N,/up*%
X121479400Y-118660000D02*
X127186600Y-118660000D01*
X120904000Y-118084600D02*
X121479400Y-118660000D01*
X127186600Y-118660000D02*
X128778000Y-117068600D01*
X120831894Y-118084600D02*
X120904000Y-118084600D01*
X118926894Y-116179600D02*
X120831894Y-118084600D01*
X104317800Y-113074857D02*
X107422543Y-116179600D01*
X104317800Y-82169000D02*
X104317800Y-113074857D01*
X99872800Y-77724000D02*
X104317800Y-82169000D01*
X107422543Y-116179600D02*
X118926894Y-116179600D01*
X99872800Y-76458743D02*
X99872800Y-77724000D01*
X97282000Y-75565000D02*
X98979057Y-75565000D01*
X98979057Y-75565000D02*
X99872800Y-76458743D01*
X96012000Y-74295000D02*
X97282000Y-75565000D01*
X128778000Y-117068600D02*
X128778000Y-108407200D01*
X128778000Y-108407200D02*
X127670800Y-107300000D01*
X127670800Y-107300000D02*
X125780000Y-107300000D01*
%TO.N,/clk*%
X101092000Y-76835000D02*
X105841800Y-81584800D01*
X105841800Y-81584800D02*
X105841800Y-111937800D01*
X105841800Y-111937800D02*
X107624000Y-113720000D01*
X107624000Y-113720000D02*
X117174400Y-113720000D01*
X117174400Y-113720000D02*
X120914400Y-117460000D01*
X120914400Y-117460000D02*
X125780000Y-117460000D01*
%TO.N,/p_tick*%
X111582200Y-82880200D02*
X111582200Y-88224600D01*
X111582200Y-88224600D02*
X110286800Y-89520000D01*
X108000000Y-89520000D02*
X110286800Y-89520000D01*
X107512000Y-75635000D02*
X106172000Y-74295000D01*
X111582200Y-82880200D02*
X107512000Y-78810000D01*
X107512000Y-78810000D02*
X107512000Y-75635000D01*
%TD*%
%TA.AperFunction,Conductor*%
%TO.N,GND*%
G36*
X122699226Y-77470524D02*
G01*
X122711810Y-77469985D01*
X122731674Y-77481581D01*
X122753444Y-77488999D01*
X122762719Y-77499703D01*
X122772151Y-77505209D01*
X122792486Y-77534056D01*
X122796951Y-77542820D01*
X122921890Y-77714786D01*
X123072213Y-77865109D01*
X123244179Y-77990048D01*
X123244181Y-77990049D01*
X123244184Y-77990051D01*
X123433588Y-78086557D01*
X123635757Y-78152246D01*
X123845713Y-78185500D01*
X123845714Y-78185500D01*
X124058286Y-78185500D01*
X124058287Y-78185500D01*
X124268243Y-78152246D01*
X124339183Y-78129195D01*
X124367301Y-78128392D01*
X124395147Y-78124389D01*
X124401758Y-78127408D01*
X124409023Y-78127201D01*
X124433112Y-78141727D01*
X124458703Y-78153414D01*
X124462632Y-78159527D01*
X124468856Y-78163281D01*
X124481268Y-78188527D01*
X124496477Y-78212192D01*
X124497953Y-78222462D01*
X124499684Y-78225982D01*
X124501500Y-78247127D01*
X124501500Y-78412991D01*
X124481815Y-78480030D01*
X124465181Y-78500672D01*
X117198327Y-85767525D01*
X117198326Y-85767526D01*
X117127134Y-85874074D01*
X117078099Y-85992455D01*
X117078097Y-85992461D01*
X117053100Y-86118128D01*
X117053100Y-100694992D01*
X117033415Y-100762031D01*
X117016781Y-100782673D01*
X115336873Y-102462581D01*
X115275550Y-102496066D01*
X115249192Y-102498900D01*
X110861608Y-102498900D01*
X110794569Y-102479215D01*
X110773927Y-102462581D01*
X110026074Y-101714727D01*
X110026073Y-101714726D01*
X110026069Y-101714723D01*
X109919527Y-101643535D01*
X109801144Y-101594499D01*
X109801142Y-101594498D01*
X109794418Y-101593161D01*
X109789915Y-101592265D01*
X109789913Y-101592264D01*
X109789913Y-101592265D01*
X109675471Y-101569500D01*
X109675469Y-101569500D01*
X109259618Y-101569500D01*
X109192579Y-101549815D01*
X109158900Y-101515408D01*
X109157915Y-101516125D01*
X109030109Y-101340213D01*
X108879786Y-101189890D01*
X108707817Y-101064949D01*
X108698504Y-101060204D01*
X108647707Y-101012230D01*
X108630912Y-100944409D01*
X108653449Y-100878274D01*
X108698507Y-100839232D01*
X108707555Y-100834622D01*
X108761716Y-100795270D01*
X108761717Y-100795270D01*
X108129408Y-100162962D01*
X108192993Y-100145925D01*
X108307007Y-100080099D01*
X108400099Y-99987007D01*
X108465925Y-99872993D01*
X108482962Y-99809409D01*
X109115270Y-100441717D01*
X109115270Y-100441716D01*
X109154622Y-100387554D01*
X109251095Y-100198217D01*
X109316757Y-99996130D01*
X109316757Y-99996127D01*
X109350000Y-99786246D01*
X109350000Y-99573753D01*
X109316757Y-99363872D01*
X109316757Y-99363869D01*
X109251095Y-99161782D01*
X109154624Y-98972449D01*
X109115270Y-98918282D01*
X109115269Y-98918282D01*
X108482962Y-99550590D01*
X108465925Y-99487007D01*
X108400099Y-99372993D01*
X108307007Y-99279901D01*
X108192993Y-99214075D01*
X108129409Y-99197037D01*
X108761716Y-98564728D01*
X108707547Y-98525373D01*
X108707547Y-98525372D01*
X108698500Y-98520763D01*
X108647706Y-98472788D01*
X108630912Y-98404966D01*
X108653451Y-98338832D01*
X108698508Y-98299793D01*
X108707816Y-98295051D01*
X108787007Y-98237515D01*
X108879786Y-98170109D01*
X108879788Y-98170106D01*
X108879792Y-98170104D01*
X109030104Y-98019792D01*
X109030106Y-98019788D01*
X109030109Y-98019786D01*
X109155048Y-97847820D01*
X109155047Y-97847820D01*
X109155051Y-97847816D01*
X109251557Y-97658412D01*
X109317246Y-97456243D01*
X109350500Y-97246287D01*
X109350500Y-97033713D01*
X109317246Y-96823757D01*
X109251557Y-96621588D01*
X109155051Y-96432184D01*
X109155049Y-96432181D01*
X109155048Y-96432179D01*
X109030109Y-96260213D01*
X108879786Y-96109890D01*
X108707820Y-95984951D01*
X108707115Y-95984591D01*
X108699054Y-95980485D01*
X108648259Y-95932512D01*
X108631463Y-95864692D01*
X108653999Y-95798556D01*
X108699054Y-95759515D01*
X108707816Y-95755051D01*
X108729789Y-95739086D01*
X108879786Y-95630109D01*
X108879788Y-95630106D01*
X108879792Y-95630104D01*
X109030104Y-95479792D01*
X109030106Y-95479788D01*
X109030109Y-95479786D01*
X109155048Y-95307820D01*
X109155047Y-95307820D01*
X109155051Y-95307816D01*
X109251557Y-95118412D01*
X109317246Y-94916243D01*
X109350500Y-94706287D01*
X109350500Y-94493713D01*
X109317246Y-94283757D01*
X109251557Y-94081588D01*
X109155051Y-93892184D01*
X109155049Y-93892181D01*
X109155048Y-93892179D01*
X109030109Y-93720213D01*
X108879786Y-93569890D01*
X108707820Y-93444951D01*
X108707115Y-93444591D01*
X108699054Y-93440485D01*
X108648259Y-93392512D01*
X108631463Y-93324692D01*
X108653999Y-93258556D01*
X108699054Y-93219515D01*
X108707816Y-93215051D01*
X108729789Y-93199086D01*
X108879786Y-93090109D01*
X108879788Y-93090106D01*
X108879792Y-93090104D01*
X109030104Y-92939792D01*
X109030106Y-92939788D01*
X109030109Y-92939786D01*
X109155048Y-92767820D01*
X109155047Y-92767820D01*
X109155051Y-92767816D01*
X109251557Y-92578412D01*
X109317246Y-92376243D01*
X109350500Y-92166287D01*
X109350500Y-91953713D01*
X109317246Y-91743757D01*
X109251557Y-91541588D01*
X109155051Y-91352184D01*
X109155049Y-91352181D01*
X109155048Y-91352179D01*
X109030109Y-91180213D01*
X108879786Y-91029890D01*
X108707820Y-90904951D01*
X108707115Y-90904591D01*
X108699054Y-90900485D01*
X108648259Y-90852512D01*
X108631463Y-90784692D01*
X108653999Y-90718556D01*
X108699054Y-90679515D01*
X108707816Y-90675051D01*
X108729789Y-90659086D01*
X108879786Y-90550109D01*
X108879788Y-90550106D01*
X108879792Y-90550104D01*
X109030104Y-90399792D01*
X109030106Y-90399788D01*
X109030109Y-90399786D01*
X109157915Y-90223875D01*
X109159259Y-90224851D01*
X109205705Y-90182834D01*
X109259618Y-90170500D01*
X110350871Y-90170500D01*
X110435415Y-90153682D01*
X110476544Y-90145501D01*
X110594927Y-90096465D01*
X110701469Y-90025277D01*
X112087476Y-88639270D01*
X112158665Y-88532727D01*
X112207701Y-88414344D01*
X112227957Y-88312512D01*
X112232700Y-88288671D01*
X112232700Y-82816128D01*
X112207702Y-82690461D01*
X112207701Y-82690460D01*
X112207701Y-82690456D01*
X112158665Y-82572073D01*
X112087477Y-82465531D01*
X112087475Y-82465529D01*
X112087473Y-82465526D01*
X108198819Y-78576872D01*
X108184115Y-78549944D01*
X108167523Y-78524126D01*
X108166631Y-78517925D01*
X108165334Y-78515549D01*
X108162500Y-78489191D01*
X108162500Y-78247127D01*
X108182185Y-78180088D01*
X108234989Y-78134333D01*
X108304147Y-78124389D01*
X108324813Y-78129194D01*
X108395757Y-78152246D01*
X108605713Y-78185500D01*
X108605714Y-78185500D01*
X108818286Y-78185500D01*
X108818287Y-78185500D01*
X109028243Y-78152246D01*
X109230412Y-78086557D01*
X109419816Y-77990051D01*
X109474572Y-77950269D01*
X109591786Y-77865109D01*
X109591788Y-77865106D01*
X109591792Y-77865104D01*
X109742104Y-77714792D01*
X109742106Y-77714788D01*
X109742109Y-77714786D01*
X109867048Y-77542820D01*
X109867050Y-77542817D01*
X109867051Y-77542816D01*
X109871514Y-77534054D01*
X109919488Y-77483259D01*
X109987308Y-77466463D01*
X110053444Y-77488999D01*
X110092486Y-77534056D01*
X110096951Y-77542820D01*
X110221890Y-77714786D01*
X110372213Y-77865109D01*
X110544179Y-77990048D01*
X110544181Y-77990049D01*
X110544184Y-77990051D01*
X110733588Y-78086557D01*
X110935757Y-78152246D01*
X111145713Y-78185500D01*
X111145714Y-78185500D01*
X111358286Y-78185500D01*
X111358287Y-78185500D01*
X111568243Y-78152246D01*
X111770412Y-78086557D01*
X111959816Y-77990051D01*
X112014572Y-77950269D01*
X112131786Y-77865109D01*
X112131788Y-77865106D01*
X112131792Y-77865104D01*
X112282104Y-77714792D01*
X112282106Y-77714788D01*
X112282109Y-77714786D01*
X112407048Y-77542820D01*
X112407050Y-77542817D01*
X112407051Y-77542816D01*
X112411514Y-77534054D01*
X112459488Y-77483259D01*
X112527308Y-77466463D01*
X112593444Y-77488999D01*
X112632486Y-77534056D01*
X112636951Y-77542820D01*
X112761890Y-77714786D01*
X112912213Y-77865109D01*
X113084179Y-77990048D01*
X113084181Y-77990049D01*
X113084184Y-77990051D01*
X113273588Y-78086557D01*
X113475757Y-78152246D01*
X113685713Y-78185500D01*
X113685714Y-78185500D01*
X113898286Y-78185500D01*
X113898287Y-78185500D01*
X114108243Y-78152246D01*
X114310412Y-78086557D01*
X114499816Y-77990051D01*
X114554572Y-77950269D01*
X114671786Y-77865109D01*
X114671788Y-77865106D01*
X114671792Y-77865104D01*
X114822104Y-77714792D01*
X114822106Y-77714788D01*
X114822109Y-77714786D01*
X114947048Y-77542820D01*
X114947050Y-77542817D01*
X114947051Y-77542816D01*
X114951514Y-77534054D01*
X114999488Y-77483259D01*
X115067308Y-77466463D01*
X115133444Y-77488999D01*
X115172486Y-77534056D01*
X115176951Y-77542820D01*
X115301890Y-77714786D01*
X115452213Y-77865109D01*
X115624179Y-77990048D01*
X115624181Y-77990049D01*
X115624184Y-77990051D01*
X115813588Y-78086557D01*
X116015757Y-78152246D01*
X116225713Y-78185500D01*
X116225714Y-78185500D01*
X116438286Y-78185500D01*
X116438287Y-78185500D01*
X116648243Y-78152246D01*
X116850412Y-78086557D01*
X117039816Y-77990051D01*
X117094572Y-77950269D01*
X117211786Y-77865109D01*
X117211788Y-77865106D01*
X117211792Y-77865104D01*
X117362104Y-77714792D01*
X117362106Y-77714788D01*
X117362109Y-77714786D01*
X117487048Y-77542820D01*
X117487050Y-77542817D01*
X117487051Y-77542816D01*
X117491514Y-77534054D01*
X117539488Y-77483259D01*
X117607308Y-77466463D01*
X117673444Y-77488999D01*
X117712486Y-77534056D01*
X117716951Y-77542820D01*
X117841890Y-77714786D01*
X117992213Y-77865109D01*
X118164179Y-77990048D01*
X118164181Y-77990049D01*
X118164184Y-77990051D01*
X118353588Y-78086557D01*
X118555757Y-78152246D01*
X118765713Y-78185500D01*
X118765714Y-78185500D01*
X118978286Y-78185500D01*
X118978287Y-78185500D01*
X119188243Y-78152246D01*
X119390412Y-78086557D01*
X119579816Y-77990051D01*
X119634572Y-77950269D01*
X119751786Y-77865109D01*
X119751788Y-77865106D01*
X119751792Y-77865104D01*
X119902104Y-77714792D01*
X119902106Y-77714788D01*
X119902109Y-77714786D01*
X120027048Y-77542820D01*
X120027050Y-77542817D01*
X120027051Y-77542816D01*
X120031514Y-77534054D01*
X120079488Y-77483259D01*
X120147308Y-77466463D01*
X120213444Y-77488999D01*
X120252486Y-77534056D01*
X120256951Y-77542820D01*
X120381890Y-77714786D01*
X120532213Y-77865109D01*
X120704179Y-77990048D01*
X120704181Y-77990049D01*
X120704184Y-77990051D01*
X120893588Y-78086557D01*
X121095757Y-78152246D01*
X121305713Y-78185500D01*
X121305714Y-78185500D01*
X121518286Y-78185500D01*
X121518287Y-78185500D01*
X121728243Y-78152246D01*
X121930412Y-78086557D01*
X122119816Y-77990051D01*
X122174572Y-77950269D01*
X122291786Y-77865109D01*
X122291788Y-77865106D01*
X122291792Y-77865104D01*
X122442104Y-77714792D01*
X122442106Y-77714788D01*
X122442109Y-77714786D01*
X122567048Y-77542820D01*
X122567050Y-77542817D01*
X122567051Y-77542816D01*
X122571514Y-77534054D01*
X122580160Y-77524900D01*
X122584897Y-77513232D01*
X122603696Y-77499979D01*
X122619488Y-77483259D01*
X122631710Y-77480231D01*
X122642004Y-77472976D01*
X122664985Y-77471991D01*
X122687308Y-77466463D01*
X122699226Y-77470524D01*
G37*
%TD.AperFunction*%
%TA.AperFunction,Conductor*%
G36*
X107534075Y-99872993D02*
G01*
X107599901Y-99987007D01*
X107692993Y-100080099D01*
X107807007Y-100145925D01*
X107870590Y-100162962D01*
X107238282Y-100795269D01*
X107238282Y-100795270D01*
X107292452Y-100834626D01*
X107292451Y-100834626D01*
X107301495Y-100839234D01*
X107352292Y-100887208D01*
X107369087Y-100955029D01*
X107346550Y-101021164D01*
X107301499Y-101060202D01*
X107292182Y-101064949D01*
X107120213Y-101189890D01*
X107120211Y-101189893D01*
X106969894Y-101340209D01*
X106969890Y-101340213D01*
X106844951Y-101512179D01*
X106748444Y-101701583D01*
X106734231Y-101745329D01*
X106694793Y-101803004D01*
X106630434Y-101830202D01*
X106561588Y-101818287D01*
X106510112Y-101771043D01*
X106492300Y-101707010D01*
X106492300Y-100191374D01*
X106511985Y-100124335D01*
X106564789Y-100078580D01*
X106633947Y-100068636D01*
X106697503Y-100097661D01*
X106734231Y-100153057D01*
X106748903Y-100198215D01*
X106845375Y-100387550D01*
X106884728Y-100441716D01*
X107517037Y-99809408D01*
X107534075Y-99872993D01*
G37*
%TD.AperFunction*%
%TA.AperFunction,Conductor*%
G36*
X106697503Y-97559276D02*
G01*
X106734231Y-97614671D01*
X106748444Y-97658414D01*
X106844951Y-97847820D01*
X106969890Y-98019786D01*
X107120213Y-98170109D01*
X107292179Y-98295048D01*
X107292181Y-98295049D01*
X107292184Y-98295051D01*
X107301493Y-98299794D01*
X107352290Y-98347766D01*
X107369087Y-98415587D01*
X107346552Y-98481722D01*
X107301505Y-98520760D01*
X107292446Y-98525376D01*
X107292440Y-98525380D01*
X107238282Y-98564727D01*
X107238282Y-98564728D01*
X107870591Y-99197037D01*
X107807007Y-99214075D01*
X107692993Y-99279901D01*
X107599901Y-99372993D01*
X107534075Y-99487007D01*
X107517037Y-99550591D01*
X106884728Y-98918282D01*
X106884727Y-98918282D01*
X106845380Y-98972439D01*
X106748904Y-99161783D01*
X106734231Y-99206943D01*
X106694794Y-99264619D01*
X106630435Y-99291817D01*
X106561589Y-99279902D01*
X106510113Y-99232658D01*
X106492300Y-99168625D01*
X106492300Y-97652989D01*
X106511985Y-97585950D01*
X106564789Y-97540195D01*
X106633947Y-97530251D01*
X106697503Y-97559276D01*
G37*
%TD.AperFunction*%
%TA.AperFunction,Conductor*%
G36*
X107534075Y-87172993D02*
G01*
X107599901Y-87287007D01*
X107692993Y-87380099D01*
X107807007Y-87445925D01*
X107870590Y-87462962D01*
X107238282Y-88095269D01*
X107238282Y-88095270D01*
X107292452Y-88134626D01*
X107292451Y-88134626D01*
X107301495Y-88139234D01*
X107352292Y-88187208D01*
X107369087Y-88255029D01*
X107346550Y-88321164D01*
X107301499Y-88360202D01*
X107292182Y-88364949D01*
X107120213Y-88489890D01*
X106969890Y-88640213D01*
X106844951Y-88812179D01*
X106748444Y-89001583D01*
X106734231Y-89045329D01*
X106694793Y-89103004D01*
X106630434Y-89130202D01*
X106561588Y-89118287D01*
X106510112Y-89071043D01*
X106492300Y-89007010D01*
X106492300Y-87491374D01*
X106511985Y-87424335D01*
X106564789Y-87378580D01*
X106633947Y-87368636D01*
X106697503Y-87397661D01*
X106734231Y-87453057D01*
X106748903Y-87498215D01*
X106845375Y-87687550D01*
X106884728Y-87741716D01*
X107517037Y-87109408D01*
X107534075Y-87172993D01*
G37*
%TD.AperFunction*%
%TA.AperFunction,Conductor*%
G36*
X104919226Y-77470524D02*
G01*
X104931810Y-77469985D01*
X104951674Y-77481581D01*
X104973444Y-77488999D01*
X104982719Y-77499703D01*
X104992151Y-77505209D01*
X105012486Y-77534056D01*
X105016951Y-77542820D01*
X105141890Y-77714786D01*
X105292213Y-77865109D01*
X105464179Y-77990048D01*
X105464181Y-77990049D01*
X105464184Y-77990051D01*
X105653588Y-78086557D01*
X105855757Y-78152246D01*
X106065713Y-78185500D01*
X106065714Y-78185500D01*
X106278286Y-78185500D01*
X106278287Y-78185500D01*
X106488243Y-78152246D01*
X106690412Y-78086557D01*
X106690413Y-78086556D01*
X106695046Y-78085051D01*
X106695397Y-78086131D01*
X106759521Y-78079240D01*
X106821999Y-78110517D01*
X106857649Y-78170608D01*
X106861500Y-78201269D01*
X106861500Y-78874069D01*
X106886497Y-78999738D01*
X106886499Y-78999744D01*
X106935535Y-79118127D01*
X106955813Y-79148475D01*
X107006726Y-79224673D01*
X107006727Y-79224674D01*
X110895381Y-83113327D01*
X110928866Y-83174650D01*
X110931700Y-83201008D01*
X110931700Y-87903792D01*
X110912015Y-87970831D01*
X110895381Y-87991473D01*
X110053673Y-88833181D01*
X109992350Y-88866666D01*
X109965992Y-88869500D01*
X109259618Y-88869500D01*
X109192579Y-88849815D01*
X109158900Y-88815408D01*
X109157915Y-88816125D01*
X109030109Y-88640213D01*
X108879786Y-88489890D01*
X108707817Y-88364949D01*
X108698504Y-88360204D01*
X108647707Y-88312230D01*
X108630912Y-88244409D01*
X108653449Y-88178274D01*
X108698507Y-88139232D01*
X108707555Y-88134622D01*
X108761716Y-88095270D01*
X108761717Y-88095270D01*
X108129408Y-87462962D01*
X108192993Y-87445925D01*
X108307007Y-87380099D01*
X108400099Y-87287007D01*
X108465925Y-87172993D01*
X108482962Y-87109409D01*
X109115270Y-87741717D01*
X109115270Y-87741716D01*
X109154622Y-87687554D01*
X109251095Y-87498217D01*
X109316757Y-87296130D01*
X109316757Y-87296127D01*
X109350000Y-87086246D01*
X109350000Y-86873753D01*
X109316757Y-86663872D01*
X109316757Y-86663869D01*
X109251095Y-86461782D01*
X109154624Y-86272449D01*
X109115270Y-86218282D01*
X109115269Y-86218282D01*
X108482962Y-86850590D01*
X108465925Y-86787007D01*
X108400099Y-86672993D01*
X108307007Y-86579901D01*
X108192993Y-86514075D01*
X108129409Y-86497037D01*
X108761716Y-85864728D01*
X108707550Y-85825375D01*
X108518217Y-85728904D01*
X108316129Y-85663242D01*
X108106246Y-85630000D01*
X107893754Y-85630000D01*
X107683872Y-85663242D01*
X107683869Y-85663242D01*
X107481782Y-85728904D01*
X107292439Y-85825380D01*
X107238282Y-85864727D01*
X107238282Y-85864728D01*
X107870591Y-86497037D01*
X107807007Y-86514075D01*
X107692993Y-86579901D01*
X107599901Y-86672993D01*
X107534075Y-86787007D01*
X107517037Y-86850591D01*
X106884728Y-86218282D01*
X106884727Y-86218282D01*
X106845380Y-86272439D01*
X106748904Y-86461783D01*
X106734231Y-86506943D01*
X106694794Y-86564619D01*
X106630435Y-86591817D01*
X106561589Y-86579902D01*
X106510113Y-86532658D01*
X106492300Y-86468625D01*
X106492300Y-81520728D01*
X106467302Y-81395060D01*
X106467300Y-81395054D01*
X106446989Y-81346021D01*
X106446987Y-81346016D01*
X106418268Y-81276678D01*
X106418262Y-81276668D01*
X106347078Y-81170132D01*
X106347072Y-81170125D01*
X103574127Y-78397181D01*
X103540642Y-78335858D01*
X103545626Y-78266166D01*
X103587498Y-78210233D01*
X103652962Y-78185816D01*
X103661808Y-78185500D01*
X103738286Y-78185500D01*
X103738287Y-78185500D01*
X103948243Y-78152246D01*
X104150412Y-78086557D01*
X104339816Y-77990051D01*
X104394572Y-77950269D01*
X104511786Y-77865109D01*
X104511788Y-77865106D01*
X104511792Y-77865104D01*
X104662104Y-77714792D01*
X104662106Y-77714788D01*
X104662109Y-77714786D01*
X104787048Y-77542820D01*
X104787050Y-77542817D01*
X104787051Y-77542816D01*
X104791514Y-77534054D01*
X104800160Y-77524900D01*
X104804897Y-77513232D01*
X104823696Y-77499979D01*
X104839488Y-77483259D01*
X104851710Y-77480231D01*
X104862004Y-77472976D01*
X104884985Y-77471991D01*
X104907308Y-77466463D01*
X104919226Y-77470524D01*
G37*
%TD.AperFunction*%
%TA.AperFunction,Conductor*%
G36*
X92047270Y-75056717D02*
G01*
X92047270Y-75056716D01*
X92086622Y-75002555D01*
X92091232Y-74993507D01*
X92139205Y-74942709D01*
X92207025Y-74925912D01*
X92273161Y-74948447D01*
X92312204Y-74993504D01*
X92316949Y-75002817D01*
X92441890Y-75174786D01*
X92592213Y-75325109D01*
X92764182Y-75450050D01*
X92772946Y-75454516D01*
X92823742Y-75502491D01*
X92840536Y-75570312D01*
X92817998Y-75636447D01*
X92772946Y-75675484D01*
X92764182Y-75679949D01*
X92592213Y-75804890D01*
X92441890Y-75955213D01*
X92316949Y-76127182D01*
X92312202Y-76136499D01*
X92264227Y-76187293D01*
X92196405Y-76204087D01*
X92130271Y-76181548D01*
X92091234Y-76136495D01*
X92086626Y-76127452D01*
X92047270Y-76073282D01*
X92047269Y-76073282D01*
X91414962Y-76705590D01*
X91397925Y-76642007D01*
X91332099Y-76527993D01*
X91239007Y-76434901D01*
X91124993Y-76369075D01*
X91061409Y-76352037D01*
X91693716Y-75719728D01*
X91639550Y-75680375D01*
X91629954Y-75675486D01*
X91579157Y-75627512D01*
X91562361Y-75559692D01*
X91584897Y-75493556D01*
X91629954Y-75454514D01*
X91639554Y-75449622D01*
X91693716Y-75410270D01*
X91693717Y-75410270D01*
X91061408Y-74777962D01*
X91124993Y-74760925D01*
X91239007Y-74695099D01*
X91332099Y-74602007D01*
X91397925Y-74487993D01*
X91414962Y-74424408D01*
X92047270Y-75056717D01*
G37*
%TD.AperFunction*%
%TA.AperFunction,Conductor*%
G36*
X134824539Y-71640185D02*
G01*
X134870294Y-71692989D01*
X134881500Y-71744500D01*
X134881500Y-145806500D01*
X134861815Y-145873539D01*
X134809011Y-145919294D01*
X134757500Y-145930500D01*
X82793500Y-145930500D01*
X82726461Y-145910815D01*
X82680706Y-145858011D01*
X82669500Y-145806500D01*
X82669500Y-130479082D01*
X111501400Y-130479082D01*
X111501400Y-130683717D01*
X111533409Y-130885817D01*
X111596644Y-131080431D01*
X111689541Y-131262750D01*
X111689547Y-131262759D01*
X111721923Y-131307321D01*
X111721924Y-131307322D01*
X112401400Y-130627846D01*
X112401400Y-130634061D01*
X112428659Y-130735794D01*
X112481320Y-130827006D01*
X112555794Y-130901480D01*
X112647006Y-130954141D01*
X112748739Y-130981400D01*
X112754953Y-130981400D01*
X112075476Y-131660874D01*
X112120050Y-131693259D01*
X112302368Y-131786155D01*
X112496982Y-131849390D01*
X112699083Y-131881400D01*
X112903717Y-131881400D01*
X113105817Y-131849390D01*
X113300431Y-131786155D01*
X113482749Y-131693259D01*
X113527321Y-131660874D01*
X112847847Y-130981400D01*
X112854061Y-130981400D01*
X112955794Y-130954141D01*
X113047006Y-130901480D01*
X113121480Y-130827006D01*
X113174141Y-130735794D01*
X113201400Y-130634061D01*
X113201400Y-130627848D01*
X113880874Y-131307322D01*
X113880874Y-131307321D01*
X113913259Y-131262749D01*
X114006155Y-131080431D01*
X114069390Y-130885817D01*
X114101400Y-130683717D01*
X114101400Y-130479082D01*
X114101395Y-130479048D01*
X121660900Y-130479048D01*
X121660900Y-130683751D01*
X121692922Y-130885934D01*
X121756181Y-131080623D01*
X121820091Y-131206053D01*
X121848985Y-131262759D01*
X121849115Y-131263013D01*
X121969428Y-131428613D01*
X122114186Y-131573371D01*
X122234626Y-131660874D01*
X122279790Y-131693687D01*
X122396007Y-131752903D01*
X122462176Y-131786618D01*
X122462178Y-131786618D01*
X122462181Y-131786620D01*
X122566537Y-131820527D01*
X122656865Y-131849877D01*
X122757957Y-131865888D01*
X122859048Y-131881900D01*
X122859049Y-131881900D01*
X123063751Y-131881900D01*
X123063752Y-131881900D01*
X123265934Y-131849877D01*
X123460619Y-131786620D01*
X123643010Y-131693687D01*
X123735990Y-131626132D01*
X123808613Y-131573371D01*
X123808615Y-131573368D01*
X123808619Y-131573366D01*
X123953366Y-131428619D01*
X123953368Y-131428615D01*
X123953371Y-131428613D01*
X124006132Y-131355990D01*
X124073687Y-131263010D01*
X124166620Y-131080619D01*
X124229877Y-130885934D01*
X124261900Y-130683752D01*
X124261900Y-130479048D01*
X124253657Y-130427006D01*
X124229877Y-130276865D01*
X124186508Y-130143391D01*
X124166620Y-130082181D01*
X124166618Y-130082178D01*
X124166618Y-130082176D01*
X124116754Y-129984314D01*
X124073687Y-129899790D01*
X124065956Y-129889149D01*
X123953371Y-129734186D01*
X123808613Y-129589428D01*
X123643013Y-129469115D01*
X123643012Y-129469114D01*
X123643010Y-129469113D01*
X123586053Y-129440091D01*
X123460623Y-129376181D01*
X123265934Y-129312922D01*
X123091395Y-129285278D01*
X123063752Y-129280900D01*
X122859048Y-129280900D01*
X122834729Y-129284751D01*
X122656865Y-129312922D01*
X122462176Y-129376181D01*
X122279786Y-129469115D01*
X122114186Y-129589428D01*
X121969428Y-129734186D01*
X121849115Y-129899786D01*
X121756181Y-130082176D01*
X121692922Y-130276865D01*
X121660900Y-130479048D01*
X114101395Y-130479048D01*
X114069390Y-130276982D01*
X114006155Y-130082368D01*
X113913259Y-129900050D01*
X113880874Y-129855477D01*
X113880874Y-129855476D01*
X113201400Y-130534951D01*
X113201400Y-130528739D01*
X113174141Y-130427006D01*
X113121480Y-130335794D01*
X113047006Y-130261320D01*
X112955794Y-130208659D01*
X112854061Y-130181400D01*
X112847846Y-130181400D01*
X113527322Y-129501924D01*
X113527321Y-129501923D01*
X113482759Y-129469547D01*
X113482750Y-129469541D01*
X113300431Y-129376644D01*
X113105817Y-129313409D01*
X112903717Y-129281400D01*
X112699083Y-129281400D01*
X112496982Y-129313409D01*
X112302368Y-129376644D01*
X112120044Y-129469543D01*
X112075477Y-129501923D01*
X112075477Y-129501924D01*
X112754954Y-130181400D01*
X112748739Y-130181400D01*
X112647006Y-130208659D01*
X112555794Y-130261320D01*
X112481320Y-130335794D01*
X112428659Y-130427006D01*
X112401400Y-130528739D01*
X112401400Y-130534953D01*
X111721924Y-129855477D01*
X111721923Y-129855477D01*
X111689543Y-129900044D01*
X111596644Y-130082368D01*
X111533409Y-130276982D01*
X111501400Y-130479082D01*
X82669500Y-130479082D01*
X82669500Y-79611108D01*
X86113500Y-79611108D01*
X86113500Y-129742891D01*
X86147608Y-129870187D01*
X86164850Y-129900050D01*
X86213500Y-129984314D01*
X86306686Y-130077500D01*
X86420814Y-130143392D01*
X86548108Y-130177500D01*
X86548110Y-130177500D01*
X99679890Y-130177500D01*
X99679892Y-130177500D01*
X99807186Y-130143392D01*
X99921314Y-130077500D01*
X100014500Y-129984314D01*
X100080392Y-129870186D01*
X100114500Y-129742892D01*
X100114500Y-126643682D01*
X111450600Y-126643682D01*
X111450600Y-126848317D01*
X111482609Y-127050417D01*
X111545844Y-127245031D01*
X111638741Y-127427350D01*
X111638747Y-127427359D01*
X111671123Y-127471921D01*
X111671124Y-127471922D01*
X112350600Y-126792446D01*
X112350600Y-126798661D01*
X112377859Y-126900394D01*
X112430520Y-126991606D01*
X112504994Y-127066080D01*
X112596206Y-127118741D01*
X112697939Y-127146000D01*
X112704153Y-127146000D01*
X112024676Y-127825474D01*
X112069250Y-127857859D01*
X112251568Y-127950755D01*
X112446182Y-128013990D01*
X112648283Y-128046000D01*
X112852917Y-128046000D01*
X113055017Y-128013990D01*
X113249631Y-127950755D01*
X113431949Y-127857859D01*
X113476521Y-127825474D01*
X112797047Y-127146000D01*
X112803261Y-127146000D01*
X112904994Y-127118741D01*
X112996206Y-127066080D01*
X113070680Y-126991606D01*
X113123341Y-126900394D01*
X113150600Y-126798661D01*
X113150600Y-126792447D01*
X113830074Y-127471921D01*
X113862459Y-127427349D01*
X113955355Y-127245031D01*
X114018590Y-127050417D01*
X114050600Y-126848317D01*
X114050600Y-126643682D01*
X114050595Y-126643648D01*
X121610100Y-126643648D01*
X121610100Y-126848351D01*
X121642122Y-127050534D01*
X121705381Y-127245223D01*
X121769291Y-127370653D01*
X121798185Y-127427359D01*
X121798315Y-127427613D01*
X121918628Y-127593213D01*
X122063386Y-127737971D01*
X122183826Y-127825474D01*
X122228990Y-127858287D01*
X122345207Y-127917503D01*
X122411376Y-127951218D01*
X122411378Y-127951218D01*
X122411381Y-127951220D01*
X122515737Y-127985127D01*
X122606065Y-128014477D01*
X122707157Y-128030488D01*
X122808248Y-128046500D01*
X122808249Y-128046500D01*
X123012951Y-128046500D01*
X123012952Y-128046500D01*
X123215134Y-128014477D01*
X123409819Y-127951220D01*
X123592210Y-127858287D01*
X123685190Y-127790732D01*
X123757813Y-127737971D01*
X123757815Y-127737968D01*
X123757819Y-127737966D01*
X123902566Y-127593219D01*
X123902568Y-127593215D01*
X123902571Y-127593213D01*
X123955332Y-127520590D01*
X124022887Y-127427610D01*
X124115820Y-127245219D01*
X124179077Y-127050534D01*
X124211100Y-126848352D01*
X124211100Y-126643648D01*
X124202857Y-126591606D01*
X124179077Y-126441465D01*
X124148058Y-126346000D01*
X124115820Y-126246781D01*
X124115818Y-126246778D01*
X124115818Y-126246776D01*
X124023019Y-126064650D01*
X124022887Y-126064390D01*
X123990692Y-126020077D01*
X123902571Y-125898786D01*
X123757813Y-125754028D01*
X123592213Y-125633715D01*
X123592212Y-125633714D01*
X123592210Y-125633713D01*
X123535253Y-125604691D01*
X123409823Y-125540781D01*
X123215134Y-125477522D01*
X123040595Y-125449878D01*
X123012952Y-125445500D01*
X122808248Y-125445500D01*
X122783929Y-125449351D01*
X122606065Y-125477522D01*
X122411376Y-125540781D01*
X122228986Y-125633715D01*
X122063386Y-125754028D01*
X121918628Y-125898786D01*
X121798315Y-126064386D01*
X121705381Y-126246776D01*
X121642122Y-126441465D01*
X121610100Y-126643648D01*
X114050595Y-126643648D01*
X114018590Y-126441582D01*
X113955355Y-126246968D01*
X113862459Y-126064650D01*
X113830074Y-126020077D01*
X113830074Y-126020076D01*
X113150600Y-126699551D01*
X113150600Y-126693339D01*
X113123341Y-126591606D01*
X113070680Y-126500394D01*
X112996206Y-126425920D01*
X112904994Y-126373259D01*
X112803261Y-126346000D01*
X112797046Y-126346000D01*
X113476522Y-125666524D01*
X113476521Y-125666523D01*
X113431959Y-125634147D01*
X113431950Y-125634141D01*
X113249631Y-125541244D01*
X113055017Y-125478009D01*
X112852917Y-125446000D01*
X112648283Y-125446000D01*
X112446182Y-125478009D01*
X112251568Y-125541244D01*
X112069244Y-125634143D01*
X112024677Y-125666523D01*
X112024677Y-125666524D01*
X112704154Y-126346000D01*
X112697939Y-126346000D01*
X112596206Y-126373259D01*
X112504994Y-126425920D01*
X112430520Y-126500394D01*
X112377859Y-126591606D01*
X112350600Y-126693339D01*
X112350600Y-126699553D01*
X111671124Y-126020077D01*
X111671123Y-126020077D01*
X111638743Y-126064644D01*
X111545844Y-126246968D01*
X111482609Y-126441582D01*
X111450600Y-126643682D01*
X100114500Y-126643682D01*
X100114500Y-79611108D01*
X100080392Y-79483814D01*
X100014500Y-79369686D01*
X99921314Y-79276500D01*
X99864250Y-79243554D01*
X99807187Y-79210608D01*
X99743539Y-79193554D01*
X99679892Y-79176500D01*
X86679892Y-79176500D01*
X86548108Y-79176500D01*
X86420812Y-79210608D01*
X86306686Y-79276500D01*
X86306683Y-79276502D01*
X86213502Y-79369683D01*
X86213500Y-79369686D01*
X86147608Y-79483812D01*
X86113500Y-79611108D01*
X82669500Y-79611108D01*
X82669500Y-74188753D01*
X89582000Y-74188753D01*
X89582000Y-74401246D01*
X89615242Y-74611127D01*
X89615242Y-74611130D01*
X89680904Y-74813217D01*
X89777375Y-75002550D01*
X89816728Y-75056716D01*
X90449037Y-74424408D01*
X90466075Y-74487993D01*
X90531901Y-74602007D01*
X90624993Y-74695099D01*
X90739007Y-74760925D01*
X90802591Y-74777962D01*
X90201971Y-75378581D01*
X90280711Y-75495895D01*
X90281920Y-75499729D01*
X90284844Y-75502491D01*
X90292343Y-75532778D01*
X90301727Y-75562529D01*
X90300671Y-75566408D01*
X90301638Y-75570312D01*
X90291573Y-75599844D01*
X90283383Y-75629947D01*
X90280397Y-75632640D01*
X90279100Y-75636447D01*
X90234051Y-75675483D01*
X90224440Y-75680380D01*
X90170282Y-75719727D01*
X90170282Y-75719728D01*
X90802591Y-76352037D01*
X90739007Y-76369075D01*
X90624993Y-76434901D01*
X90531901Y-76527993D01*
X90466075Y-76642007D01*
X90449037Y-76705591D01*
X89816728Y-76073282D01*
X89816727Y-76073282D01*
X89777380Y-76127439D01*
X89680904Y-76316782D01*
X89615242Y-76518869D01*
X89615242Y-76518872D01*
X89582000Y-76728753D01*
X89582000Y-76941246D01*
X89615242Y-77151127D01*
X89615242Y-77151130D01*
X89680904Y-77353217D01*
X89777375Y-77542550D01*
X89816728Y-77596716D01*
X90449037Y-76964408D01*
X90466075Y-77027993D01*
X90531901Y-77142007D01*
X90624993Y-77235099D01*
X90739007Y-77300925D01*
X90802590Y-77317962D01*
X90170282Y-77950269D01*
X90170282Y-77950270D01*
X90224449Y-77989624D01*
X90413782Y-78086095D01*
X90615870Y-78151757D01*
X90825754Y-78185000D01*
X91038246Y-78185000D01*
X91248127Y-78151757D01*
X91248130Y-78151757D01*
X91450217Y-78086095D01*
X91639554Y-77989622D01*
X91693716Y-77950270D01*
X91693717Y-77950270D01*
X91061408Y-77317962D01*
X91124993Y-77300925D01*
X91239007Y-77235099D01*
X91332099Y-77142007D01*
X91397925Y-77027993D01*
X91414962Y-76964408D01*
X92047270Y-77596717D01*
X92047270Y-77596716D01*
X92086622Y-77542555D01*
X92091232Y-77533507D01*
X92139205Y-77482709D01*
X92207025Y-77465912D01*
X92273161Y-77488447D01*
X92312204Y-77533504D01*
X92316949Y-77542817D01*
X92441890Y-77714786D01*
X92592213Y-77865109D01*
X92764179Y-77990048D01*
X92764181Y-77990049D01*
X92764184Y-77990051D01*
X92953588Y-78086557D01*
X93155757Y-78152246D01*
X93365713Y-78185500D01*
X93365714Y-78185500D01*
X93578286Y-78185500D01*
X93578287Y-78185500D01*
X93788243Y-78152246D01*
X93990412Y-78086557D01*
X94179816Y-77990051D01*
X94234572Y-77950269D01*
X94351786Y-77865109D01*
X94351788Y-77865106D01*
X94351792Y-77865104D01*
X94502104Y-77714792D01*
X94502106Y-77714788D01*
X94502109Y-77714786D01*
X94627048Y-77542820D01*
X94627050Y-77542817D01*
X94627051Y-77542816D01*
X94631514Y-77534054D01*
X94679488Y-77483259D01*
X94747308Y-77466463D01*
X94813444Y-77488999D01*
X94852486Y-77534056D01*
X94856951Y-77542820D01*
X94981890Y-77714786D01*
X95132213Y-77865109D01*
X95304179Y-77990048D01*
X95304181Y-77990049D01*
X95304184Y-77990051D01*
X95493588Y-78086557D01*
X95695757Y-78152246D01*
X95905713Y-78185500D01*
X95905714Y-78185500D01*
X96118286Y-78185500D01*
X96118287Y-78185500D01*
X96328243Y-78152246D01*
X96530412Y-78086557D01*
X96719816Y-77990051D01*
X96774572Y-77950269D01*
X96891786Y-77865109D01*
X96891788Y-77865106D01*
X96891792Y-77865104D01*
X97042104Y-77714792D01*
X97042106Y-77714788D01*
X97042109Y-77714786D01*
X97167048Y-77542820D01*
X97167050Y-77542817D01*
X97167051Y-77542816D01*
X97171514Y-77534054D01*
X97219488Y-77483259D01*
X97287308Y-77466463D01*
X97353444Y-77488999D01*
X97392486Y-77534056D01*
X97396951Y-77542820D01*
X97521890Y-77714786D01*
X97672213Y-77865109D01*
X97844179Y-77990048D01*
X97844181Y-77990049D01*
X97844184Y-77990051D01*
X98033588Y-78086557D01*
X98235757Y-78152246D01*
X98445713Y-78185500D01*
X98445714Y-78185500D01*
X98658286Y-78185500D01*
X98658287Y-78185500D01*
X98868243Y-78152246D01*
X99070412Y-78086557D01*
X99167907Y-78036880D01*
X99236575Y-78023985D01*
X99301315Y-78050261D01*
X99327303Y-78078475D01*
X99367524Y-78138671D01*
X99367527Y-78138674D01*
X103630981Y-82402127D01*
X103664466Y-82463450D01*
X103667300Y-82489808D01*
X103667300Y-113138927D01*
X103668217Y-113143535D01*
X103682378Y-113214724D01*
X103692299Y-113264601D01*
X103741334Y-113382982D01*
X103812526Y-113489530D01*
X103812527Y-113489531D01*
X106866945Y-116543948D01*
X106900430Y-116605271D01*
X106895446Y-116674963D01*
X106879583Y-116704514D01*
X106844948Y-116752184D01*
X106748444Y-116941585D01*
X106682753Y-117143760D01*
X106682753Y-117143762D01*
X106649500Y-117353713D01*
X106649500Y-117566287D01*
X106652380Y-117584472D01*
X106682753Y-117776239D01*
X106748444Y-117978414D01*
X106844951Y-118167820D01*
X106969890Y-118339786D01*
X107083430Y-118453326D01*
X107116915Y-118514649D01*
X107111931Y-118584341D01*
X107070059Y-118640274D01*
X107039083Y-118657189D01*
X106907669Y-118706203D01*
X106907664Y-118706206D01*
X106792455Y-118792452D01*
X106792452Y-118792455D01*
X106706206Y-118907664D01*
X106706202Y-118907671D01*
X106655908Y-119042517D01*
X106649501Y-119102116D01*
X106649501Y-119102123D01*
X106649500Y-119102135D01*
X106649500Y-120897870D01*
X106649501Y-120897876D01*
X106655908Y-120957483D01*
X106706202Y-121092328D01*
X106706206Y-121092335D01*
X106792452Y-121207544D01*
X106792455Y-121207547D01*
X106907664Y-121293793D01*
X106907671Y-121293797D01*
X107042517Y-121344091D01*
X107042516Y-121344091D01*
X107049444Y-121344835D01*
X107102127Y-121350500D01*
X108897872Y-121350499D01*
X108957483Y-121344091D01*
X109092331Y-121293796D01*
X109207546Y-121207546D01*
X109293796Y-121092331D01*
X109344091Y-120957483D01*
X109350500Y-120897873D01*
X109350499Y-119102128D01*
X109344091Y-119042517D01*
X109293796Y-118907669D01*
X109293795Y-118907668D01*
X109293793Y-118907664D01*
X109207547Y-118792455D01*
X109207544Y-118792452D01*
X109092335Y-118706206D01*
X109092328Y-118706202D01*
X108960917Y-118657189D01*
X108904983Y-118615318D01*
X108880566Y-118549853D01*
X108895418Y-118481580D01*
X108916563Y-118453332D01*
X109030104Y-118339792D01*
X109155051Y-118167816D01*
X109251557Y-117978412D01*
X109317246Y-117776243D01*
X109350500Y-117566287D01*
X109350500Y-117353713D01*
X109317246Y-117143757D01*
X109268071Y-116992415D01*
X109266077Y-116922577D01*
X109302157Y-116862744D01*
X109364858Y-116831916D01*
X109386003Y-116830100D01*
X118606086Y-116830100D01*
X118673125Y-116849785D01*
X118693767Y-116866419D01*
X120417219Y-118589872D01*
X120417222Y-118589875D01*
X120506461Y-118649502D01*
X120506460Y-118649502D01*
X120516050Y-118655909D01*
X120523767Y-118661065D01*
X120523770Y-118661066D01*
X120523773Y-118661068D01*
X120563718Y-118677613D01*
X120603947Y-118704493D01*
X121064724Y-119165271D01*
X121064727Y-119165274D01*
X121150914Y-119222862D01*
X121150913Y-119222862D01*
X121166199Y-119233075D01*
X121171273Y-119236465D01*
X121289656Y-119285501D01*
X121289660Y-119285501D01*
X121289661Y-119285502D01*
X121415328Y-119310500D01*
X121415331Y-119310500D01*
X124305500Y-119310500D01*
X124372539Y-119330185D01*
X124418294Y-119382989D01*
X124429500Y-119434500D01*
X124429500Y-120897870D01*
X124429501Y-120897876D01*
X124435908Y-120957483D01*
X124486202Y-121092328D01*
X124486206Y-121092335D01*
X124572452Y-121207544D01*
X124572455Y-121207547D01*
X124687664Y-121293793D01*
X124687671Y-121293797D01*
X124822517Y-121344091D01*
X124822516Y-121344091D01*
X124829444Y-121344835D01*
X124882127Y-121350500D01*
X126677872Y-121350499D01*
X126737483Y-121344091D01*
X126872331Y-121293796D01*
X126987546Y-121207546D01*
X127073796Y-121092331D01*
X127124091Y-120957483D01*
X127130500Y-120897873D01*
X127130499Y-119434499D01*
X127150184Y-119367461D01*
X127202987Y-119321706D01*
X127244758Y-119312618D01*
X127244609Y-119311097D01*
X127250671Y-119310500D01*
X127335215Y-119293682D01*
X127376344Y-119285501D01*
X127494727Y-119236465D01*
X127506932Y-119228309D01*
X127515088Y-119222861D01*
X127572411Y-119184558D01*
X127601269Y-119165277D01*
X129283276Y-117483270D01*
X129354465Y-117376727D01*
X129403501Y-117258344D01*
X129411682Y-117217215D01*
X129428500Y-117132671D01*
X129428500Y-108343128D01*
X129403502Y-108217461D01*
X129403501Y-108217460D01*
X129403501Y-108217456D01*
X129354465Y-108099073D01*
X129339809Y-108077139D01*
X129283276Y-107992530D01*
X129283274Y-107992528D01*
X129283272Y-107992525D01*
X128085473Y-106794726D01*
X128085469Y-106794723D01*
X127978927Y-106723535D01*
X127860544Y-106674499D01*
X127860538Y-106674497D01*
X127734871Y-106649500D01*
X127734869Y-106649500D01*
X127039618Y-106649500D01*
X126972579Y-106629815D01*
X126938900Y-106595408D01*
X126937915Y-106596125D01*
X126810109Y-106420213D01*
X126659786Y-106269890D01*
X126487817Y-106144949D01*
X126478504Y-106140204D01*
X126427707Y-106092230D01*
X126410912Y-106024409D01*
X126433449Y-105958274D01*
X126478507Y-105919232D01*
X126487555Y-105914622D01*
X126541716Y-105875270D01*
X126541717Y-105875270D01*
X125909408Y-105242962D01*
X125972993Y-105225925D01*
X126087007Y-105160099D01*
X126180099Y-105067007D01*
X126245925Y-104952993D01*
X126262962Y-104889409D01*
X126895270Y-105521717D01*
X126895270Y-105521716D01*
X126934622Y-105467554D01*
X127031095Y-105278217D01*
X127096757Y-105076130D01*
X127096757Y-105076127D01*
X127130000Y-104866246D01*
X127130000Y-104653753D01*
X127096757Y-104443872D01*
X127096757Y-104443869D01*
X127031095Y-104241782D01*
X126934624Y-104052449D01*
X126895270Y-103998282D01*
X126895269Y-103998282D01*
X126262962Y-104630590D01*
X126245925Y-104567007D01*
X126180099Y-104452993D01*
X126087007Y-104359901D01*
X125972993Y-104294075D01*
X125909409Y-104277037D01*
X126541716Y-103644728D01*
X126487547Y-103605373D01*
X126487547Y-103605372D01*
X126478500Y-103600763D01*
X126427706Y-103552788D01*
X126410912Y-103484966D01*
X126433451Y-103418832D01*
X126478508Y-103379793D01*
X126487816Y-103375051D01*
X126567007Y-103317515D01*
X126659786Y-103250109D01*
X126659788Y-103250106D01*
X126659792Y-103250104D01*
X126810104Y-103099792D01*
X126810106Y-103099788D01*
X126810109Y-103099786D01*
X126935048Y-102927820D01*
X126935047Y-102927820D01*
X126935051Y-102927816D01*
X127031557Y-102738412D01*
X127097246Y-102536243D01*
X127130500Y-102326287D01*
X127130500Y-102113713D01*
X127097246Y-101903757D01*
X127031557Y-101701588D01*
X126935051Y-101512184D01*
X126935049Y-101512181D01*
X126935048Y-101512179D01*
X126810109Y-101340213D01*
X126659786Y-101189890D01*
X126487820Y-101064951D01*
X126487115Y-101064591D01*
X126479054Y-101060485D01*
X126428259Y-101012512D01*
X126411463Y-100944692D01*
X126433999Y-100878556D01*
X126479054Y-100839515D01*
X126487816Y-100835051D01*
X126559909Y-100782673D01*
X126659786Y-100710109D01*
X126659788Y-100710106D01*
X126659792Y-100710104D01*
X126810104Y-100559792D01*
X126810106Y-100559788D01*
X126810109Y-100559786D01*
X126935048Y-100387820D01*
X126935047Y-100387820D01*
X126935051Y-100387816D01*
X127031557Y-100198412D01*
X127097246Y-99996243D01*
X127130500Y-99786287D01*
X127130500Y-99573713D01*
X127097246Y-99363757D01*
X127031557Y-99161588D01*
X126935051Y-98972184D01*
X126935049Y-98972181D01*
X126935048Y-98972179D01*
X126810109Y-98800213D01*
X126659786Y-98649890D01*
X126487820Y-98524951D01*
X126479600Y-98520763D01*
X126479054Y-98520485D01*
X126428259Y-98472512D01*
X126411463Y-98404692D01*
X126433999Y-98338556D01*
X126479054Y-98299515D01*
X126487816Y-98295051D01*
X126509789Y-98279086D01*
X126659786Y-98170109D01*
X126659788Y-98170106D01*
X126659792Y-98170104D01*
X126810104Y-98019792D01*
X126810106Y-98019788D01*
X126810109Y-98019786D01*
X126935048Y-97847820D01*
X126935047Y-97847820D01*
X126935051Y-97847816D01*
X127031557Y-97658412D01*
X127097246Y-97456243D01*
X127130500Y-97246287D01*
X127130500Y-97033713D01*
X127097246Y-96823757D01*
X127031557Y-96621588D01*
X126935051Y-96432184D01*
X126935049Y-96432181D01*
X126935048Y-96432179D01*
X126810109Y-96260213D01*
X126659786Y-96109890D01*
X126487820Y-95984951D01*
X126487115Y-95984591D01*
X126479054Y-95980485D01*
X126428259Y-95932512D01*
X126411463Y-95864692D01*
X126433999Y-95798556D01*
X126479054Y-95759515D01*
X126487816Y-95755051D01*
X126509789Y-95739086D01*
X126659786Y-95630109D01*
X126659788Y-95630106D01*
X126659792Y-95630104D01*
X126810104Y-95479792D01*
X126810106Y-95479788D01*
X126810109Y-95479786D01*
X126935048Y-95307820D01*
X126935047Y-95307820D01*
X126935051Y-95307816D01*
X127031557Y-95118412D01*
X127097246Y-94916243D01*
X127130500Y-94706287D01*
X127130500Y-94493713D01*
X127097246Y-94283757D01*
X127031557Y-94081588D01*
X126935051Y-93892184D01*
X126935049Y-93892181D01*
X126935048Y-93892179D01*
X126810109Y-93720213D01*
X126659786Y-93569890D01*
X126487820Y-93444951D01*
X126487115Y-93444591D01*
X126479054Y-93440485D01*
X126428259Y-93392512D01*
X126411463Y-93324692D01*
X126433999Y-93258556D01*
X126479054Y-93219515D01*
X126487816Y-93215051D01*
X126509789Y-93199086D01*
X126659786Y-93090109D01*
X126659788Y-93090106D01*
X126659792Y-93090104D01*
X126810104Y-92939792D01*
X126810106Y-92939788D01*
X126810109Y-92939786D01*
X126935048Y-92767820D01*
X126935047Y-92767820D01*
X126935051Y-92767816D01*
X127031557Y-92578412D01*
X127097246Y-92376243D01*
X127130500Y-92166287D01*
X127130500Y-91953713D01*
X127097246Y-91743757D01*
X127031557Y-91541588D01*
X126935051Y-91352184D01*
X126935049Y-91352181D01*
X126935048Y-91352179D01*
X126810109Y-91180213D01*
X126659786Y-91029890D01*
X126487820Y-90904951D01*
X126487115Y-90904591D01*
X126479054Y-90900485D01*
X126428259Y-90852512D01*
X126411463Y-90784692D01*
X126433999Y-90718556D01*
X126479054Y-90679515D01*
X126487816Y-90675051D01*
X126509789Y-90659086D01*
X126659786Y-90550109D01*
X126659788Y-90550106D01*
X126659792Y-90550104D01*
X126810104Y-90399792D01*
X126810106Y-90399788D01*
X126810109Y-90399786D01*
X126935048Y-90227820D01*
X126935047Y-90227820D01*
X126935051Y-90227816D01*
X127031557Y-90038412D01*
X127097246Y-89836243D01*
X127130500Y-89626287D01*
X127130500Y-89413713D01*
X127097246Y-89203757D01*
X127031557Y-89001588D01*
X126935051Y-88812184D01*
X126935049Y-88812181D01*
X126935048Y-88812179D01*
X126810109Y-88640213D01*
X126659786Y-88489890D01*
X126487820Y-88364951D01*
X126487115Y-88364591D01*
X126479054Y-88360485D01*
X126428259Y-88312512D01*
X126411463Y-88244692D01*
X126433999Y-88178556D01*
X126479054Y-88139515D01*
X126487816Y-88135051D01*
X126542572Y-88095269D01*
X126659786Y-88010109D01*
X126659788Y-88010106D01*
X126659792Y-88010104D01*
X126810104Y-87859792D01*
X126810106Y-87859788D01*
X126810109Y-87859786D01*
X126935048Y-87687820D01*
X126935047Y-87687820D01*
X126935051Y-87687816D01*
X127031557Y-87498412D01*
X127097246Y-87296243D01*
X127130500Y-87086287D01*
X127130500Y-86873713D01*
X127097246Y-86663757D01*
X127031557Y-86461588D01*
X126935051Y-86272184D01*
X126935049Y-86272181D01*
X126935048Y-86272179D01*
X126810109Y-86100213D01*
X126659786Y-85949890D01*
X126487820Y-85824951D01*
X126298414Y-85728444D01*
X126298413Y-85728443D01*
X126298412Y-85728443D01*
X126096243Y-85662754D01*
X126096241Y-85662753D01*
X126096240Y-85662753D01*
X125934957Y-85637208D01*
X125886287Y-85629500D01*
X125673713Y-85629500D01*
X125625042Y-85637208D01*
X125463760Y-85662753D01*
X125261585Y-85728444D01*
X125072179Y-85824951D01*
X124900213Y-85949890D01*
X124749890Y-86100213D01*
X124624951Y-86272179D01*
X124528444Y-86461585D01*
X124462753Y-86663760D01*
X124429500Y-86873713D01*
X124429500Y-87086286D01*
X124462735Y-87296127D01*
X124462754Y-87296243D01*
X124526156Y-87491374D01*
X124528444Y-87498414D01*
X124624951Y-87687820D01*
X124749890Y-87859786D01*
X124900213Y-88010109D01*
X125072182Y-88135050D01*
X125080946Y-88139516D01*
X125131742Y-88187491D01*
X125148536Y-88255312D01*
X125125998Y-88321447D01*
X125080946Y-88360484D01*
X125072182Y-88364949D01*
X124900213Y-88489890D01*
X124749890Y-88640213D01*
X124624951Y-88812179D01*
X124528444Y-89001585D01*
X124462753Y-89203760D01*
X124429500Y-89413713D01*
X124429500Y-89626287D01*
X124462754Y-89836243D01*
X124524175Y-90025277D01*
X124528444Y-90038414D01*
X124624951Y-90227820D01*
X124749890Y-90399786D01*
X124900213Y-90550109D01*
X125072182Y-90675050D01*
X125080946Y-90679516D01*
X125131742Y-90727491D01*
X125148536Y-90795312D01*
X125125998Y-90861447D01*
X125080946Y-90900484D01*
X125072182Y-90904949D01*
X124900213Y-91029890D01*
X124749890Y-91180213D01*
X124624951Y-91352179D01*
X124528444Y-91541585D01*
X124462753Y-91743760D01*
X124429500Y-91953713D01*
X124429500Y-92166287D01*
X124462754Y-92376243D01*
X124521664Y-92557549D01*
X124528444Y-92578414D01*
X124624951Y-92767820D01*
X124749890Y-92939786D01*
X124900213Y-93090109D01*
X125072182Y-93215050D01*
X125080946Y-93219516D01*
X125131742Y-93267491D01*
X125148536Y-93335312D01*
X125125998Y-93401447D01*
X125080946Y-93440484D01*
X125072182Y-93444949D01*
X124900213Y-93569890D01*
X124749890Y-93720213D01*
X124624951Y-93892179D01*
X124528444Y-94081585D01*
X124462753Y-94283760D01*
X124429500Y-94493713D01*
X124429500Y-94706286D01*
X124462753Y-94916239D01*
X124528444Y-95118414D01*
X124624951Y-95307820D01*
X124749890Y-95479786D01*
X124900213Y-95630109D01*
X125072182Y-95755050D01*
X125080946Y-95759516D01*
X125131742Y-95807491D01*
X125148536Y-95875312D01*
X125125998Y-95941447D01*
X125080946Y-95980484D01*
X125072182Y-95984949D01*
X124900213Y-96109890D01*
X124749890Y-96260213D01*
X124624951Y-96432179D01*
X124528444Y-96621585D01*
X124462753Y-96823760D01*
X124429500Y-97033713D01*
X124429500Y-97246286D01*
X124462753Y-97456239D01*
X124528444Y-97658414D01*
X124624951Y-97847820D01*
X124749890Y-98019786D01*
X124900213Y-98170109D01*
X125072182Y-98295050D01*
X125080946Y-98299516D01*
X125131742Y-98347491D01*
X125148536Y-98415312D01*
X125125998Y-98481447D01*
X125080946Y-98520484D01*
X125072182Y-98524949D01*
X124900213Y-98649890D01*
X124749890Y-98800213D01*
X124624951Y-98972179D01*
X124528444Y-99161585D01*
X124462753Y-99363760D01*
X124429500Y-99573713D01*
X124429500Y-99786286D01*
X124462735Y-99996127D01*
X124462754Y-99996243D01*
X124526156Y-100191374D01*
X124528444Y-100198414D01*
X124624951Y-100387820D01*
X124749890Y-100559786D01*
X124900213Y-100710109D01*
X125072182Y-100835050D01*
X125080946Y-100839516D01*
X125131742Y-100887491D01*
X125148536Y-100955312D01*
X125125998Y-101021447D01*
X125080946Y-101060484D01*
X125072182Y-101064949D01*
X124900213Y-101189890D01*
X124900211Y-101189893D01*
X124749894Y-101340209D01*
X124749890Y-101340213D01*
X124624951Y-101512179D01*
X124528444Y-101701585D01*
X124462753Y-101903760D01*
X124429500Y-102113713D01*
X124429500Y-102326286D01*
X124462753Y-102536239D01*
X124528444Y-102738414D01*
X124624951Y-102927820D01*
X124749890Y-103099786D01*
X124900213Y-103250109D01*
X125072179Y-103375048D01*
X125072181Y-103375049D01*
X125072184Y-103375051D01*
X125081493Y-103379794D01*
X125132290Y-103427766D01*
X125149087Y-103495587D01*
X125126552Y-103561722D01*
X125081505Y-103600760D01*
X125072446Y-103605376D01*
X125072440Y-103605380D01*
X125018282Y-103644727D01*
X125018282Y-103644728D01*
X125650591Y-104277037D01*
X125587007Y-104294075D01*
X125472993Y-104359901D01*
X125379901Y-104452993D01*
X125314075Y-104567007D01*
X125297037Y-104630591D01*
X124664728Y-103998282D01*
X124664727Y-103998282D01*
X124625380Y-104052439D01*
X124528904Y-104241782D01*
X124463242Y-104443869D01*
X124463242Y-104443872D01*
X124430000Y-104653753D01*
X124430000Y-104866246D01*
X124463242Y-105076127D01*
X124463242Y-105076130D01*
X124528904Y-105278217D01*
X124625375Y-105467550D01*
X124664728Y-105521716D01*
X125297037Y-104889408D01*
X125314075Y-104952993D01*
X125379901Y-105067007D01*
X125472993Y-105160099D01*
X125587007Y-105225925D01*
X125650590Y-105242962D01*
X125018282Y-105875269D01*
X125018282Y-105875270D01*
X125072452Y-105914626D01*
X125072451Y-105914626D01*
X125081495Y-105919234D01*
X125132292Y-105967208D01*
X125149087Y-106035029D01*
X125126550Y-106101164D01*
X125081499Y-106140202D01*
X125072182Y-106144949D01*
X124900213Y-106269890D01*
X124749890Y-106420213D01*
X124624951Y-106592179D01*
X124528444Y-106781585D01*
X124462753Y-106983760D01*
X124429500Y-107193713D01*
X124429500Y-107406286D01*
X124462753Y-107616239D01*
X124528444Y-107818414D01*
X124624951Y-108007820D01*
X124749890Y-108179786D01*
X124900213Y-108330109D01*
X125072182Y-108455050D01*
X125080946Y-108459516D01*
X125131742Y-108507491D01*
X125148536Y-108575312D01*
X125125998Y-108641447D01*
X125080946Y-108680484D01*
X125072182Y-108684949D01*
X124900213Y-108809890D01*
X124749890Y-108960213D01*
X124624951Y-109132179D01*
X124528444Y-109321585D01*
X124462753Y-109523760D01*
X124429500Y-109733713D01*
X124429500Y-109946287D01*
X124462754Y-110156243D01*
X124521664Y-110337549D01*
X124528444Y-110358414D01*
X124624951Y-110547820D01*
X124749890Y-110719786D01*
X124900213Y-110870109D01*
X125072182Y-110995050D01*
X125080946Y-110999516D01*
X125131742Y-111047491D01*
X125148536Y-111115312D01*
X125125998Y-111181447D01*
X125080946Y-111220484D01*
X125072182Y-111224949D01*
X124900213Y-111349890D01*
X124749890Y-111500213D01*
X124624951Y-111672179D01*
X124528444Y-111861585D01*
X124462753Y-112063760D01*
X124461334Y-112072722D01*
X124429500Y-112273713D01*
X124429500Y-112486287D01*
X124462754Y-112696243D01*
X124481536Y-112754049D01*
X124528444Y-112898414D01*
X124624951Y-113087820D01*
X124749890Y-113259786D01*
X124900213Y-113410109D01*
X125072182Y-113535050D01*
X125080946Y-113539516D01*
X125131742Y-113587491D01*
X125148536Y-113655312D01*
X125125998Y-113721447D01*
X125080946Y-113760484D01*
X125072182Y-113764949D01*
X124900213Y-113889890D01*
X124749890Y-114040213D01*
X124624951Y-114212179D01*
X124528444Y-114401585D01*
X124462753Y-114603760D01*
X124429500Y-114813713D01*
X124429500Y-115026286D01*
X124462753Y-115236239D01*
X124462753Y-115236241D01*
X124462754Y-115236243D01*
X124511885Y-115387453D01*
X124528444Y-115438414D01*
X124624951Y-115627820D01*
X124749890Y-115799786D01*
X124900213Y-115950109D01*
X125072182Y-116075050D01*
X125080946Y-116079516D01*
X125131742Y-116127491D01*
X125148536Y-116195312D01*
X125125998Y-116261447D01*
X125080946Y-116300484D01*
X125072182Y-116304949D01*
X124900213Y-116429890D01*
X124749890Y-116580213D01*
X124622085Y-116756125D01*
X124620740Y-116755148D01*
X124574295Y-116797166D01*
X124520382Y-116809500D01*
X121235208Y-116809500D01*
X121168169Y-116789815D01*
X121147527Y-116773181D01*
X117589074Y-113214727D01*
X117589070Y-113214724D01*
X117589069Y-113214723D01*
X117482527Y-113143535D01*
X117471402Y-113138927D01*
X117364144Y-113094499D01*
X117364138Y-113094497D01*
X117238471Y-113069500D01*
X117238469Y-113069500D01*
X109366269Y-113069500D01*
X109299230Y-113049815D01*
X109253475Y-112997011D01*
X109243531Y-112927853D01*
X109250312Y-112903131D01*
X109250051Y-112903046D01*
X109269974Y-112841730D01*
X109317246Y-112696243D01*
X109350500Y-112486287D01*
X109350500Y-112273713D01*
X109317246Y-112063757D01*
X109251557Y-111861588D01*
X109155051Y-111672184D01*
X109155049Y-111672181D01*
X109155048Y-111672179D01*
X109030109Y-111500213D01*
X108879786Y-111349890D01*
X108707820Y-111224951D01*
X108707115Y-111224591D01*
X108699054Y-111220485D01*
X108648259Y-111172512D01*
X108631463Y-111104692D01*
X108653999Y-111038556D01*
X108699054Y-110999515D01*
X108707816Y-110995051D01*
X108729789Y-110979086D01*
X108879786Y-110870109D01*
X108879788Y-110870106D01*
X108879792Y-110870104D01*
X109030104Y-110719792D01*
X109030106Y-110719788D01*
X109030109Y-110719786D01*
X109155048Y-110547820D01*
X109155047Y-110547820D01*
X109155051Y-110547816D01*
X109251557Y-110358412D01*
X109317246Y-110156243D01*
X109350500Y-109946287D01*
X109350500Y-109733713D01*
X109317246Y-109523757D01*
X109251557Y-109321588D01*
X109155051Y-109132184D01*
X109155049Y-109132181D01*
X109155048Y-109132179D01*
X109030109Y-108960213D01*
X108879786Y-108809890D01*
X108707820Y-108684951D01*
X108707115Y-108684591D01*
X108699054Y-108680485D01*
X108648259Y-108632512D01*
X108631463Y-108564692D01*
X108653999Y-108498556D01*
X108699054Y-108459515D01*
X108707816Y-108455051D01*
X108729789Y-108439086D01*
X108879786Y-108330109D01*
X108879788Y-108330106D01*
X108879792Y-108330104D01*
X109030104Y-108179792D01*
X109030106Y-108179788D01*
X109030109Y-108179786D01*
X109155048Y-108007820D01*
X109155047Y-108007820D01*
X109155051Y-108007816D01*
X109251557Y-107818412D01*
X109317246Y-107616243D01*
X109350500Y-107406287D01*
X109350500Y-107193713D01*
X109317246Y-106983757D01*
X109251557Y-106781588D01*
X109155051Y-106592184D01*
X109155049Y-106592181D01*
X109155048Y-106592179D01*
X109030109Y-106420213D01*
X108879786Y-106269890D01*
X108707820Y-106144951D01*
X108707115Y-106144591D01*
X108699054Y-106140485D01*
X108648259Y-106092512D01*
X108631463Y-106024692D01*
X108653999Y-105958556D01*
X108699054Y-105919515D01*
X108707816Y-105915051D01*
X108762572Y-105875269D01*
X108879786Y-105790109D01*
X108879788Y-105790106D01*
X108879792Y-105790104D01*
X109030104Y-105639792D01*
X109030106Y-105639788D01*
X109030109Y-105639786D01*
X109155048Y-105467820D01*
X109155047Y-105467820D01*
X109155051Y-105467816D01*
X109251557Y-105278412D01*
X109317246Y-105076243D01*
X109350500Y-104866287D01*
X109350500Y-104653713D01*
X109317246Y-104443757D01*
X109251557Y-104241588D01*
X109155051Y-104052184D01*
X109155049Y-104052181D01*
X109155048Y-104052179D01*
X109030109Y-103880213D01*
X108879786Y-103729890D01*
X108707820Y-103604951D01*
X108699600Y-103600763D01*
X108699054Y-103600485D01*
X108648259Y-103552512D01*
X108631463Y-103484692D01*
X108653999Y-103418556D01*
X108699054Y-103379515D01*
X108707816Y-103375051D01*
X108729789Y-103359086D01*
X108879786Y-103250109D01*
X108879788Y-103250106D01*
X108879792Y-103250104D01*
X109030104Y-103099792D01*
X109030106Y-103099788D01*
X109030109Y-103099786D01*
X109157915Y-102923875D01*
X109159259Y-102924851D01*
X109161591Y-102922742D01*
X109165905Y-102913297D01*
X109187060Y-102899701D01*
X109205705Y-102882834D01*
X109217508Y-102880133D01*
X109224683Y-102875523D01*
X109259618Y-102870500D01*
X109290592Y-102870500D01*
X109357631Y-102890185D01*
X109378273Y-102906819D01*
X110126125Y-103654672D01*
X110126126Y-103654673D01*
X110126129Y-103654675D01*
X110126131Y-103654677D01*
X110232673Y-103725865D01*
X110351056Y-103774901D01*
X110351060Y-103774901D01*
X110351061Y-103774902D01*
X110476728Y-103799900D01*
X110476731Y-103799900D01*
X115634071Y-103799900D01*
X115718615Y-103783082D01*
X115759744Y-103774901D01*
X115878127Y-103725865D01*
X115984669Y-103654677D01*
X118208877Y-101430469D01*
X118280065Y-101323927D01*
X118329101Y-101205544D01*
X118332214Y-101189896D01*
X118332216Y-101189890D01*
X118354100Y-101079871D01*
X118354100Y-86503008D01*
X118373785Y-86435969D01*
X118390419Y-86415327D01*
X125657271Y-79148475D01*
X125657276Y-79148470D01*
X125728465Y-79041927D01*
X125777501Y-78923544D01*
X125787342Y-78874069D01*
X125802500Y-78797869D01*
X125802500Y-78201269D01*
X125822185Y-78134230D01*
X125874989Y-78088475D01*
X125944147Y-78078531D01*
X125968868Y-78085312D01*
X125968954Y-78085051D01*
X125973586Y-78086556D01*
X125973588Y-78086557D01*
X126175757Y-78152246D01*
X126385713Y-78185500D01*
X126385714Y-78185500D01*
X126598286Y-78185500D01*
X126598287Y-78185500D01*
X126808243Y-78152246D01*
X127010412Y-78086557D01*
X127199816Y-77990051D01*
X127254572Y-77950269D01*
X127371786Y-77865109D01*
X127371788Y-77865106D01*
X127371792Y-77865104D01*
X127522104Y-77714792D01*
X127522106Y-77714788D01*
X127522109Y-77714786D01*
X127647048Y-77542820D01*
X127647050Y-77542817D01*
X127647051Y-77542816D01*
X127743557Y-77353412D01*
X127809246Y-77151243D01*
X127842500Y-76941287D01*
X127842500Y-76728713D01*
X127809246Y-76518757D01*
X127743557Y-76316588D01*
X127647051Y-76127184D01*
X127647049Y-76127181D01*
X127647048Y-76127179D01*
X127522109Y-75955213D01*
X127408569Y-75841673D01*
X127375084Y-75780350D01*
X127380068Y-75710658D01*
X127421940Y-75654725D01*
X127452915Y-75637810D01*
X127584331Y-75588796D01*
X127699546Y-75502546D01*
X127785796Y-75387331D01*
X127836091Y-75252483D01*
X127842500Y-75192873D01*
X127842499Y-73397128D01*
X127836091Y-73337517D01*
X127834810Y-73334083D01*
X127785797Y-73202671D01*
X127785793Y-73202664D01*
X127699547Y-73087455D01*
X127699544Y-73087452D01*
X127584335Y-73001206D01*
X127584328Y-73001202D01*
X127449482Y-72950908D01*
X127449483Y-72950908D01*
X127389883Y-72944501D01*
X127389881Y-72944500D01*
X127389873Y-72944500D01*
X127389864Y-72944500D01*
X125594129Y-72944500D01*
X125594123Y-72944501D01*
X125534516Y-72950908D01*
X125399671Y-73001202D01*
X125399664Y-73001206D01*
X125284455Y-73087452D01*
X125284452Y-73087455D01*
X125198206Y-73202664D01*
X125198203Y-73202669D01*
X125149189Y-73334083D01*
X125107317Y-73390016D01*
X125041853Y-73414433D01*
X124973580Y-73399581D01*
X124945326Y-73378430D01*
X124831786Y-73264890D01*
X124659820Y-73139951D01*
X124470414Y-73043444D01*
X124470413Y-73043443D01*
X124470412Y-73043443D01*
X124268243Y-72977754D01*
X124268241Y-72977753D01*
X124268240Y-72977753D01*
X124106957Y-72952208D01*
X124058287Y-72944500D01*
X123845713Y-72944500D01*
X123797042Y-72952208D01*
X123635760Y-72977753D01*
X123433585Y-73043444D01*
X123244179Y-73139951D01*
X123072213Y-73264890D01*
X122921890Y-73415213D01*
X122796949Y-73587182D01*
X122792484Y-73595946D01*
X122744509Y-73646742D01*
X122676688Y-73663536D01*
X122610553Y-73640998D01*
X122571516Y-73595946D01*
X122567050Y-73587182D01*
X122442109Y-73415213D01*
X122291786Y-73264890D01*
X122119820Y-73139951D01*
X121930414Y-73043444D01*
X121930413Y-73043443D01*
X121930412Y-73043443D01*
X121728243Y-72977754D01*
X121728241Y-72977753D01*
X121728240Y-72977753D01*
X121566957Y-72952208D01*
X121518287Y-72944500D01*
X121305713Y-72944500D01*
X121257042Y-72952208D01*
X121095760Y-72977753D01*
X120893585Y-73043444D01*
X120704179Y-73139951D01*
X120532213Y-73264890D01*
X120381890Y-73415213D01*
X120256949Y-73587182D01*
X120252484Y-73595946D01*
X120204509Y-73646742D01*
X120136688Y-73663536D01*
X120070553Y-73640998D01*
X120031516Y-73595946D01*
X120027050Y-73587182D01*
X119902109Y-73415213D01*
X119751786Y-73264890D01*
X119579820Y-73139951D01*
X119390414Y-73043444D01*
X119390413Y-73043443D01*
X119390412Y-73043443D01*
X119188243Y-72977754D01*
X119188241Y-72977753D01*
X119188240Y-72977753D01*
X119026957Y-72952208D01*
X118978287Y-72944500D01*
X118765713Y-72944500D01*
X118717042Y-72952208D01*
X118555760Y-72977753D01*
X118353585Y-73043444D01*
X118164179Y-73139951D01*
X117992213Y-73264890D01*
X117841890Y-73415213D01*
X117716949Y-73587182D01*
X117712484Y-73595946D01*
X117664509Y-73646742D01*
X117596688Y-73663536D01*
X117530553Y-73640998D01*
X117491516Y-73595946D01*
X117487050Y-73587182D01*
X117362109Y-73415213D01*
X117211786Y-73264890D01*
X117039820Y-73139951D01*
X116850414Y-73043444D01*
X116850413Y-73043443D01*
X116850412Y-73043443D01*
X116648243Y-72977754D01*
X116648241Y-72977753D01*
X116648240Y-72977753D01*
X116486957Y-72952208D01*
X116438287Y-72944500D01*
X116225713Y-72944500D01*
X116177042Y-72952208D01*
X116015760Y-72977753D01*
X115813585Y-73043444D01*
X115624179Y-73139951D01*
X115452213Y-73264890D01*
X115301890Y-73415213D01*
X115176949Y-73587182D01*
X115172484Y-73595946D01*
X115124509Y-73646742D01*
X115056688Y-73663536D01*
X114990553Y-73640998D01*
X114951516Y-73595946D01*
X114947050Y-73587182D01*
X114822109Y-73415213D01*
X114671786Y-73264890D01*
X114499820Y-73139951D01*
X114310414Y-73043444D01*
X114310413Y-73043443D01*
X114310412Y-73043443D01*
X114108243Y-72977754D01*
X114108241Y-72977753D01*
X114108240Y-72977753D01*
X113946957Y-72952208D01*
X113898287Y-72944500D01*
X113685713Y-72944500D01*
X113637042Y-72952208D01*
X113475760Y-72977753D01*
X113273585Y-73043444D01*
X113084179Y-73139951D01*
X112912213Y-73264890D01*
X112761890Y-73415213D01*
X112636949Y-73587182D01*
X112632484Y-73595946D01*
X112584509Y-73646742D01*
X112516688Y-73663536D01*
X112450553Y-73640998D01*
X112411516Y-73595946D01*
X112407050Y-73587182D01*
X112282109Y-73415213D01*
X112131786Y-73264890D01*
X111959820Y-73139951D01*
X111770414Y-73043444D01*
X111770413Y-73043443D01*
X111770412Y-73043443D01*
X111568243Y-72977754D01*
X111568241Y-72977753D01*
X111568240Y-72977753D01*
X111406957Y-72952208D01*
X111358287Y-72944500D01*
X111145713Y-72944500D01*
X111097042Y-72952208D01*
X110935760Y-72977753D01*
X110733585Y-73043444D01*
X110544179Y-73139951D01*
X110372213Y-73264890D01*
X110221890Y-73415213D01*
X110096949Y-73587182D01*
X110092484Y-73595946D01*
X110044509Y-73646742D01*
X109976688Y-73663536D01*
X109910553Y-73640998D01*
X109871516Y-73595946D01*
X109867050Y-73587182D01*
X109742109Y-73415213D01*
X109591786Y-73264890D01*
X109419820Y-73139951D01*
X109230414Y-73043444D01*
X109230413Y-73043443D01*
X109230412Y-73043443D01*
X109028243Y-72977754D01*
X109028241Y-72977753D01*
X109028240Y-72977753D01*
X108866957Y-72952208D01*
X108818287Y-72944500D01*
X108605713Y-72944500D01*
X108557042Y-72952208D01*
X108395760Y-72977753D01*
X108193585Y-73043444D01*
X108004179Y-73139951D01*
X107832213Y-73264890D01*
X107681890Y-73415213D01*
X107556949Y-73587182D01*
X107552484Y-73595946D01*
X107504509Y-73646742D01*
X107436688Y-73663536D01*
X107370553Y-73640998D01*
X107331516Y-73595946D01*
X107327050Y-73587182D01*
X107202109Y-73415213D01*
X107051786Y-73264890D01*
X106879820Y-73139951D01*
X106690414Y-73043444D01*
X106690413Y-73043443D01*
X106690412Y-73043443D01*
X106488243Y-72977754D01*
X106488241Y-72977753D01*
X106488240Y-72977753D01*
X106326957Y-72952208D01*
X106278287Y-72944500D01*
X106065713Y-72944500D01*
X106017042Y-72952208D01*
X105855760Y-72977753D01*
X105653585Y-73043444D01*
X105464179Y-73139951D01*
X105292213Y-73264890D01*
X105141890Y-73415213D01*
X105016949Y-73587182D01*
X105012484Y-73595946D01*
X104964509Y-73646742D01*
X104896688Y-73663536D01*
X104830553Y-73640998D01*
X104791516Y-73595946D01*
X104787050Y-73587182D01*
X104662109Y-73415213D01*
X104511786Y-73264890D01*
X104339820Y-73139951D01*
X104150414Y-73043444D01*
X104150413Y-73043443D01*
X104150412Y-73043443D01*
X103948243Y-72977754D01*
X103948241Y-72977753D01*
X103948240Y-72977753D01*
X103786957Y-72952208D01*
X103738287Y-72944500D01*
X103525713Y-72944500D01*
X103477042Y-72952208D01*
X103315760Y-72977753D01*
X103113585Y-73043444D01*
X102924179Y-73139951D01*
X102752213Y-73264890D01*
X102601890Y-73415213D01*
X102476949Y-73587182D01*
X102472484Y-73595946D01*
X102424509Y-73646742D01*
X102356688Y-73663536D01*
X102290553Y-73640998D01*
X102251516Y-73595946D01*
X102247050Y-73587182D01*
X102122109Y-73415213D01*
X101971786Y-73264890D01*
X101799820Y-73139951D01*
X101610414Y-73043444D01*
X101610413Y-73043443D01*
X101610412Y-73043443D01*
X101408243Y-72977754D01*
X101408241Y-72977753D01*
X101408240Y-72977753D01*
X101246957Y-72952208D01*
X101198287Y-72944500D01*
X100985713Y-72944500D01*
X100937042Y-72952208D01*
X100775760Y-72977753D01*
X100573585Y-73043444D01*
X100384179Y-73139951D01*
X100212213Y-73264890D01*
X100061890Y-73415213D01*
X99936949Y-73587182D01*
X99932484Y-73595946D01*
X99884509Y-73646742D01*
X99816688Y-73663536D01*
X99750553Y-73640998D01*
X99711516Y-73595946D01*
X99707050Y-73587182D01*
X99582109Y-73415213D01*
X99431786Y-73264890D01*
X99259820Y-73139951D01*
X99070414Y-73043444D01*
X99070413Y-73043443D01*
X99070412Y-73043443D01*
X98868243Y-72977754D01*
X98868241Y-72977753D01*
X98868240Y-72977753D01*
X98706957Y-72952208D01*
X98658287Y-72944500D01*
X98445713Y-72944500D01*
X98397042Y-72952208D01*
X98235760Y-72977753D01*
X98033585Y-73043444D01*
X97844179Y-73139951D01*
X97672213Y-73264890D01*
X97521890Y-73415213D01*
X97396949Y-73587182D01*
X97392484Y-73595946D01*
X97344509Y-73646742D01*
X97276688Y-73663536D01*
X97210553Y-73640998D01*
X97171516Y-73595946D01*
X97167050Y-73587182D01*
X97042109Y-73415213D01*
X96891786Y-73264890D01*
X96719820Y-73139951D01*
X96530414Y-73043444D01*
X96530413Y-73043443D01*
X96530412Y-73043443D01*
X96328243Y-72977754D01*
X96328241Y-72977753D01*
X96328240Y-72977753D01*
X96166957Y-72952208D01*
X96118287Y-72944500D01*
X95905713Y-72944500D01*
X95857042Y-72952208D01*
X95695760Y-72977753D01*
X95493585Y-73043444D01*
X95304179Y-73139951D01*
X95132213Y-73264890D01*
X94981890Y-73415213D01*
X94856949Y-73587182D01*
X94852484Y-73595946D01*
X94804509Y-73646742D01*
X94736688Y-73663536D01*
X94670553Y-73640998D01*
X94631516Y-73595946D01*
X94627050Y-73587182D01*
X94502109Y-73415213D01*
X94351786Y-73264890D01*
X94179820Y-73139951D01*
X93990414Y-73043444D01*
X93990413Y-73043443D01*
X93990412Y-73043443D01*
X93788243Y-72977754D01*
X93788241Y-72977753D01*
X93788240Y-72977753D01*
X93626957Y-72952208D01*
X93578287Y-72944500D01*
X93365713Y-72944500D01*
X93317042Y-72952208D01*
X93155760Y-72977753D01*
X92953585Y-73043444D01*
X92764179Y-73139951D01*
X92592213Y-73264890D01*
X92441890Y-73415213D01*
X92316949Y-73587182D01*
X92312202Y-73596499D01*
X92264227Y-73647293D01*
X92196405Y-73664087D01*
X92130271Y-73641548D01*
X92091234Y-73596495D01*
X92086626Y-73587452D01*
X92047270Y-73533282D01*
X92047269Y-73533282D01*
X91414962Y-74165590D01*
X91397925Y-74102007D01*
X91332099Y-73987993D01*
X91239007Y-73894901D01*
X91124993Y-73829075D01*
X91061409Y-73812037D01*
X91693716Y-73179728D01*
X91639550Y-73140375D01*
X91450217Y-73043904D01*
X91248129Y-72978242D01*
X91038246Y-72945000D01*
X90825754Y-72945000D01*
X90615872Y-72978242D01*
X90615869Y-72978242D01*
X90413782Y-73043904D01*
X90224439Y-73140380D01*
X90170282Y-73179727D01*
X90170282Y-73179728D01*
X90802591Y-73812037D01*
X90739007Y-73829075D01*
X90624993Y-73894901D01*
X90531901Y-73987993D01*
X90466075Y-74102007D01*
X90449037Y-74165591D01*
X89816728Y-73533282D01*
X89816727Y-73533282D01*
X89777380Y-73587439D01*
X89680904Y-73776782D01*
X89615242Y-73978869D01*
X89615242Y-73978872D01*
X89582000Y-74188753D01*
X82669500Y-74188753D01*
X82669500Y-71744500D01*
X82689185Y-71677461D01*
X82741989Y-71631706D01*
X82793500Y-71620500D01*
X134757500Y-71620500D01*
X134824539Y-71640185D01*
G37*
%TD.AperFunction*%
%TD*%
%TA.AperFunction,NonConductor*%
G36*
X99893444Y-74948999D02*
G01*
X99932486Y-74994056D01*
X99936951Y-75002820D01*
X100061890Y-75174786D01*
X100212213Y-75325109D01*
X100384182Y-75450050D01*
X100392946Y-75454516D01*
X100395698Y-75457115D01*
X100399375Y-75458034D01*
X100420905Y-75480922D01*
X100443742Y-75502491D01*
X100444652Y-75506167D01*
X100447247Y-75508926D01*
X100452983Y-75539813D01*
X100460536Y-75570312D01*
X100459314Y-75573896D01*
X100460006Y-75577621D01*
X100448133Y-75606705D01*
X100437998Y-75636447D01*
X100434614Y-75639823D01*
X100433600Y-75642309D01*
X100425502Y-75648917D01*
X100407892Y-75666491D01*
X100400730Y-75671518D01*
X100384184Y-75679949D01*
X100254657Y-75774054D01*
X100253784Y-75774668D01*
X100221614Y-75785559D01*
X100189621Y-75796975D01*
X100188599Y-75796737D01*
X100187605Y-75797074D01*
X100154617Y-75788834D01*
X100121567Y-75781149D01*
X100120451Y-75780301D01*
X100119817Y-75780143D01*
X100118749Y-75779008D01*
X100094861Y-75760858D01*
X99626141Y-75292138D01*
X99592656Y-75230815D01*
X99597640Y-75161123D01*
X99613499Y-75131579D01*
X99707051Y-75002816D01*
X99711514Y-74994054D01*
X99759488Y-74943259D01*
X99827308Y-74926463D01*
X99893444Y-74948999D01*
G37*
%TD.AperFunction*%
%TA.AperFunction,NonConductor*%
G36*
X122753444Y-74948999D02*
G01*
X122792486Y-74994056D01*
X122796951Y-75002820D01*
X122921890Y-75174786D01*
X123072213Y-75325109D01*
X123244182Y-75450050D01*
X123252946Y-75454516D01*
X123303742Y-75502491D01*
X123320536Y-75570312D01*
X123297998Y-75636447D01*
X123252946Y-75675484D01*
X123244182Y-75679949D01*
X123072213Y-75804890D01*
X122921890Y-75955213D01*
X122796949Y-76127182D01*
X122792484Y-76135946D01*
X122744509Y-76186742D01*
X122676688Y-76203536D01*
X122610553Y-76180998D01*
X122571516Y-76135946D01*
X122567050Y-76127182D01*
X122442109Y-75955213D01*
X122291786Y-75804890D01*
X122119820Y-75679951D01*
X122119115Y-75679591D01*
X122111054Y-75675485D01*
X122060259Y-75627512D01*
X122043463Y-75559692D01*
X122065999Y-75493556D01*
X122111054Y-75454515D01*
X122119816Y-75450051D01*
X122206138Y-75387335D01*
X122291786Y-75325109D01*
X122291788Y-75325106D01*
X122291792Y-75325104D01*
X122442104Y-75174792D01*
X122442106Y-75174788D01*
X122442109Y-75174786D01*
X122567048Y-75002820D01*
X122567050Y-75002817D01*
X122567051Y-75002816D01*
X122571514Y-74994054D01*
X122619488Y-74943259D01*
X122687308Y-74926463D01*
X122753444Y-74948999D01*
G37*
%TD.AperFunction*%
%TA.AperFunction,NonConductor*%
G36*
X120213444Y-74948999D02*
G01*
X120252486Y-74994056D01*
X120256951Y-75002820D01*
X120381890Y-75174786D01*
X120532213Y-75325109D01*
X120704182Y-75450050D01*
X120712946Y-75454516D01*
X120763742Y-75502491D01*
X120780536Y-75570312D01*
X120757998Y-75636447D01*
X120712946Y-75675484D01*
X120704182Y-75679949D01*
X120532213Y-75804890D01*
X120381890Y-75955213D01*
X120256949Y-76127182D01*
X120252484Y-76135946D01*
X120204509Y-76186742D01*
X120136688Y-76203536D01*
X120070553Y-76180998D01*
X120031516Y-76135946D01*
X120027050Y-76127182D01*
X119902109Y-75955213D01*
X119751786Y-75804890D01*
X119579820Y-75679951D01*
X119579115Y-75679591D01*
X119571054Y-75675485D01*
X119520259Y-75627512D01*
X119503463Y-75559692D01*
X119525999Y-75493556D01*
X119571054Y-75454515D01*
X119579816Y-75450051D01*
X119666138Y-75387335D01*
X119751786Y-75325109D01*
X119751788Y-75325106D01*
X119751792Y-75325104D01*
X119902104Y-75174792D01*
X119902106Y-75174788D01*
X119902109Y-75174786D01*
X120027048Y-75002820D01*
X120027050Y-75002817D01*
X120027051Y-75002816D01*
X120031514Y-74994054D01*
X120079488Y-74943259D01*
X120147308Y-74926463D01*
X120213444Y-74948999D01*
G37*
%TD.AperFunction*%
%TA.AperFunction,NonConductor*%
G36*
X117673444Y-74948999D02*
G01*
X117712486Y-74994056D01*
X117716951Y-75002820D01*
X117841890Y-75174786D01*
X117992213Y-75325109D01*
X118164182Y-75450050D01*
X118172946Y-75454516D01*
X118223742Y-75502491D01*
X118240536Y-75570312D01*
X118217998Y-75636447D01*
X118172946Y-75675484D01*
X118164182Y-75679949D01*
X117992213Y-75804890D01*
X117841890Y-75955213D01*
X117716949Y-76127182D01*
X117712484Y-76135946D01*
X117664509Y-76186742D01*
X117596688Y-76203536D01*
X117530553Y-76180998D01*
X117491516Y-76135946D01*
X117487050Y-76127182D01*
X117362109Y-75955213D01*
X117211786Y-75804890D01*
X117039820Y-75679951D01*
X117039115Y-75679591D01*
X117031054Y-75675485D01*
X116980259Y-75627512D01*
X116963463Y-75559692D01*
X116985999Y-75493556D01*
X117031054Y-75454515D01*
X117039816Y-75450051D01*
X117126138Y-75387335D01*
X117211786Y-75325109D01*
X117211788Y-75325106D01*
X117211792Y-75325104D01*
X117362104Y-75174792D01*
X117362106Y-75174788D01*
X117362109Y-75174786D01*
X117487048Y-75002820D01*
X117487050Y-75002817D01*
X117487051Y-75002816D01*
X117491514Y-74994054D01*
X117539488Y-74943259D01*
X117607308Y-74926463D01*
X117673444Y-74948999D01*
G37*
%TD.AperFunction*%
%TA.AperFunction,NonConductor*%
G36*
X115133444Y-74948999D02*
G01*
X115172486Y-74994056D01*
X115176951Y-75002820D01*
X115301890Y-75174786D01*
X115452213Y-75325109D01*
X115624182Y-75450050D01*
X115632946Y-75454516D01*
X115683742Y-75502491D01*
X115700536Y-75570312D01*
X115677998Y-75636447D01*
X115632946Y-75675484D01*
X115624182Y-75679949D01*
X115452213Y-75804890D01*
X115301890Y-75955213D01*
X115176949Y-76127182D01*
X115172484Y-76135946D01*
X115124509Y-76186742D01*
X115056688Y-76203536D01*
X114990553Y-76180998D01*
X114951516Y-76135946D01*
X114947050Y-76127182D01*
X114822109Y-75955213D01*
X114671786Y-75804890D01*
X114499820Y-75679951D01*
X114499115Y-75679591D01*
X114491054Y-75675485D01*
X114440259Y-75627512D01*
X114423463Y-75559692D01*
X114445999Y-75493556D01*
X114491054Y-75454515D01*
X114499816Y-75450051D01*
X114586138Y-75387335D01*
X114671786Y-75325109D01*
X114671788Y-75325106D01*
X114671792Y-75325104D01*
X114822104Y-75174792D01*
X114822106Y-75174788D01*
X114822109Y-75174786D01*
X114947048Y-75002820D01*
X114947050Y-75002817D01*
X114947051Y-75002816D01*
X114951514Y-74994054D01*
X114999488Y-74943259D01*
X115067308Y-74926463D01*
X115133444Y-74948999D01*
G37*
%TD.AperFunction*%
%TA.AperFunction,NonConductor*%
G36*
X112593444Y-74948999D02*
G01*
X112632486Y-74994056D01*
X112636951Y-75002820D01*
X112761890Y-75174786D01*
X112912213Y-75325109D01*
X113084182Y-75450050D01*
X113092946Y-75454516D01*
X113143742Y-75502491D01*
X113160536Y-75570312D01*
X113137998Y-75636447D01*
X113092946Y-75675484D01*
X113084182Y-75679949D01*
X112912213Y-75804890D01*
X112761890Y-75955213D01*
X112636949Y-76127182D01*
X112632484Y-76135946D01*
X112584509Y-76186742D01*
X112516688Y-76203536D01*
X112450553Y-76180998D01*
X112411516Y-76135946D01*
X112407050Y-76127182D01*
X112282109Y-75955213D01*
X112131786Y-75804890D01*
X111959820Y-75679951D01*
X111959115Y-75679591D01*
X111951054Y-75675485D01*
X111900259Y-75627512D01*
X111883463Y-75559692D01*
X111905999Y-75493556D01*
X111951054Y-75454515D01*
X111959816Y-75450051D01*
X112046138Y-75387335D01*
X112131786Y-75325109D01*
X112131788Y-75325106D01*
X112131792Y-75325104D01*
X112282104Y-75174792D01*
X112282106Y-75174788D01*
X112282109Y-75174786D01*
X112407048Y-75002820D01*
X112407050Y-75002817D01*
X112407051Y-75002816D01*
X112411514Y-74994054D01*
X112459488Y-74943259D01*
X112527308Y-74926463D01*
X112593444Y-74948999D01*
G37*
%TD.AperFunction*%
%TA.AperFunction,NonConductor*%
G36*
X110053444Y-74948999D02*
G01*
X110092486Y-74994056D01*
X110096951Y-75002820D01*
X110221890Y-75174786D01*
X110372213Y-75325109D01*
X110544182Y-75450050D01*
X110552946Y-75454516D01*
X110603742Y-75502491D01*
X110620536Y-75570312D01*
X110597998Y-75636447D01*
X110552946Y-75675484D01*
X110544182Y-75679949D01*
X110372213Y-75804890D01*
X110221890Y-75955213D01*
X110096949Y-76127182D01*
X110092484Y-76135946D01*
X110044509Y-76186742D01*
X109976688Y-76203536D01*
X109910553Y-76180998D01*
X109871516Y-76135946D01*
X109867050Y-76127182D01*
X109742109Y-75955213D01*
X109591786Y-75804890D01*
X109419820Y-75679951D01*
X109419115Y-75679591D01*
X109411054Y-75675485D01*
X109360259Y-75627512D01*
X109343463Y-75559692D01*
X109365999Y-75493556D01*
X109411054Y-75454515D01*
X109419816Y-75450051D01*
X109506138Y-75387335D01*
X109591786Y-75325109D01*
X109591788Y-75325106D01*
X109591792Y-75325104D01*
X109742104Y-75174792D01*
X109742106Y-75174788D01*
X109742109Y-75174786D01*
X109867048Y-75002820D01*
X109867050Y-75002817D01*
X109867051Y-75002816D01*
X109871514Y-74994054D01*
X109919488Y-74943259D01*
X109987308Y-74926463D01*
X110053444Y-74948999D01*
G37*
%TD.AperFunction*%
%TA.AperFunction,NonConductor*%
G36*
X104973444Y-74948999D02*
G01*
X105012486Y-74994056D01*
X105016951Y-75002820D01*
X105141890Y-75174786D01*
X105292213Y-75325109D01*
X105464182Y-75450050D01*
X105472946Y-75454516D01*
X105523742Y-75502491D01*
X105540536Y-75570312D01*
X105517998Y-75636447D01*
X105472946Y-75675484D01*
X105464182Y-75679949D01*
X105292213Y-75804890D01*
X105141890Y-75955213D01*
X105016949Y-76127182D01*
X105012484Y-76135946D01*
X104964509Y-76186742D01*
X104896688Y-76203536D01*
X104830553Y-76180998D01*
X104791516Y-76135946D01*
X104787050Y-76127182D01*
X104662109Y-75955213D01*
X104511786Y-75804890D01*
X104339820Y-75679951D01*
X104339115Y-75679591D01*
X104331054Y-75675485D01*
X104280259Y-75627512D01*
X104263463Y-75559692D01*
X104285999Y-75493556D01*
X104331054Y-75454515D01*
X104339816Y-75450051D01*
X104426138Y-75387335D01*
X104511786Y-75325109D01*
X104511788Y-75325106D01*
X104511792Y-75325104D01*
X104662104Y-75174792D01*
X104662106Y-75174788D01*
X104662109Y-75174786D01*
X104787048Y-75002820D01*
X104787050Y-75002817D01*
X104787051Y-75002816D01*
X104791514Y-74994054D01*
X104839488Y-74943259D01*
X104907308Y-74926463D01*
X104973444Y-74948999D01*
G37*
%TD.AperFunction*%
%TA.AperFunction,NonConductor*%
G36*
X102433444Y-74948999D02*
G01*
X102472486Y-74994056D01*
X102476951Y-75002820D01*
X102601890Y-75174786D01*
X102752213Y-75325109D01*
X102924182Y-75450050D01*
X102932946Y-75454516D01*
X102983742Y-75502491D01*
X103000536Y-75570312D01*
X102977998Y-75636447D01*
X102932946Y-75675484D01*
X102924182Y-75679949D01*
X102752213Y-75804890D01*
X102601890Y-75955213D01*
X102476949Y-76127182D01*
X102472484Y-76135946D01*
X102424509Y-76186742D01*
X102356688Y-76203536D01*
X102290553Y-76180998D01*
X102251516Y-76135946D01*
X102247050Y-76127182D01*
X102122109Y-75955213D01*
X101971786Y-75804890D01*
X101799820Y-75679951D01*
X101799115Y-75679591D01*
X101791054Y-75675485D01*
X101740259Y-75627512D01*
X101723463Y-75559692D01*
X101745999Y-75493556D01*
X101791054Y-75454515D01*
X101799816Y-75450051D01*
X101886138Y-75387335D01*
X101971786Y-75325109D01*
X101971788Y-75325106D01*
X101971792Y-75325104D01*
X102122104Y-75174792D01*
X102122106Y-75174788D01*
X102122109Y-75174786D01*
X102247048Y-75002820D01*
X102247050Y-75002817D01*
X102247051Y-75002816D01*
X102251514Y-74994054D01*
X102299488Y-74943259D01*
X102367308Y-74926463D01*
X102433444Y-74948999D01*
G37*
%TD.AperFunction*%
%TA.AperFunction,NonConductor*%
G36*
X94813444Y-74948999D02*
G01*
X94852486Y-74994056D01*
X94856951Y-75002820D01*
X94981890Y-75174786D01*
X95132213Y-75325109D01*
X95304182Y-75450050D01*
X95312946Y-75454516D01*
X95363742Y-75502491D01*
X95380536Y-75570312D01*
X95357998Y-75636447D01*
X95312946Y-75675484D01*
X95304182Y-75679949D01*
X95132213Y-75804890D01*
X94981890Y-75955213D01*
X94856949Y-76127182D01*
X94852484Y-76135946D01*
X94804509Y-76186742D01*
X94736688Y-76203536D01*
X94670553Y-76180998D01*
X94631516Y-76135946D01*
X94627050Y-76127182D01*
X94502109Y-75955213D01*
X94351786Y-75804890D01*
X94179820Y-75679951D01*
X94179115Y-75679591D01*
X94171054Y-75675485D01*
X94120259Y-75627512D01*
X94103463Y-75559692D01*
X94125999Y-75493556D01*
X94171054Y-75454515D01*
X94179816Y-75450051D01*
X94266138Y-75387335D01*
X94351786Y-75325109D01*
X94351788Y-75325106D01*
X94351792Y-75325104D01*
X94502104Y-75174792D01*
X94502106Y-75174788D01*
X94502109Y-75174786D01*
X94627048Y-75002820D01*
X94627050Y-75002817D01*
X94627051Y-75002816D01*
X94631514Y-74994054D01*
X94679488Y-74943259D01*
X94747308Y-74926463D01*
X94813444Y-74948999D01*
G37*
%TD.AperFunction*%
%TA.AperFunction,NonConductor*%
G36*
X106697503Y-89939276D02*
G01*
X106734230Y-89994669D01*
X106746681Y-90032989D01*
X106748444Y-90038414D01*
X106844951Y-90227820D01*
X106969890Y-90399786D01*
X107120213Y-90550109D01*
X107292182Y-90675050D01*
X107300946Y-90679516D01*
X107351742Y-90727491D01*
X107368536Y-90795312D01*
X107345998Y-90861447D01*
X107300946Y-90900484D01*
X107292182Y-90904949D01*
X107120213Y-91029890D01*
X106969890Y-91180213D01*
X106844951Y-91352179D01*
X106748444Y-91541583D01*
X106734231Y-91585329D01*
X106694793Y-91643004D01*
X106630434Y-91670202D01*
X106561588Y-91658287D01*
X106510112Y-91611043D01*
X106492300Y-91547010D01*
X106492300Y-90032989D01*
X106511985Y-89965950D01*
X106564789Y-89920195D01*
X106633947Y-89910251D01*
X106697503Y-89939276D01*
G37*
%TD.AperFunction*%
%TA.AperFunction,NonConductor*%
G36*
X106648584Y-92456935D02*
G01*
X106664569Y-92458770D01*
X106679709Y-92471149D01*
X106697503Y-92479276D01*
X106706804Y-92493304D01*
X106718659Y-92502998D01*
X106734229Y-92534668D01*
X106746681Y-92572989D01*
X106748444Y-92578414D01*
X106844951Y-92767820D01*
X106969890Y-92939786D01*
X107120213Y-93090109D01*
X107292182Y-93215050D01*
X107300946Y-93219516D01*
X107351742Y-93267491D01*
X107368536Y-93335312D01*
X107345998Y-93401447D01*
X107300946Y-93440484D01*
X107292182Y-93444949D01*
X107120213Y-93569890D01*
X106969890Y-93720213D01*
X106844951Y-93892179D01*
X106748444Y-94081583D01*
X106734231Y-94125329D01*
X106694793Y-94183004D01*
X106630434Y-94210202D01*
X106561588Y-94198287D01*
X106510112Y-94151043D01*
X106492300Y-94087010D01*
X106492300Y-92572989D01*
X106496833Y-92557549D01*
X106496374Y-92541466D01*
X106506474Y-92524715D01*
X106511985Y-92505950D01*
X106524143Y-92495414D01*
X106532454Y-92481633D01*
X106550009Y-92473001D01*
X106564789Y-92460195D01*
X106580713Y-92457905D01*
X106595155Y-92450805D01*
X106614586Y-92453034D01*
X106633947Y-92450251D01*
X106648584Y-92456935D01*
G37*
%TD.AperFunction*%
%TA.AperFunction,NonConductor*%
G36*
X106697503Y-95019276D02*
G01*
X106734231Y-95074671D01*
X106748444Y-95118414D01*
X106844951Y-95307820D01*
X106969890Y-95479786D01*
X107120213Y-95630109D01*
X107292182Y-95755050D01*
X107300946Y-95759516D01*
X107351742Y-95807491D01*
X107368536Y-95875312D01*
X107345998Y-95941447D01*
X107300946Y-95980484D01*
X107292182Y-95984949D01*
X107120213Y-96109890D01*
X106969890Y-96260213D01*
X106844951Y-96432179D01*
X106748444Y-96621583D01*
X106734231Y-96665329D01*
X106694793Y-96723004D01*
X106630434Y-96750202D01*
X106561588Y-96738287D01*
X106510112Y-96691043D01*
X106492300Y-96627010D01*
X106492300Y-95112989D01*
X106511985Y-95045950D01*
X106564789Y-95000195D01*
X106633947Y-94990251D01*
X106697503Y-95019276D01*
G37*
%TD.AperFunction*%
%TA.AperFunction,NonConductor*%
G36*
X106697503Y-102639276D02*
G01*
X106734231Y-102694671D01*
X106748444Y-102738414D01*
X106844951Y-102927820D01*
X106969890Y-103099786D01*
X107120213Y-103250109D01*
X107292182Y-103375050D01*
X107300946Y-103379516D01*
X107351742Y-103427491D01*
X107368536Y-103495312D01*
X107345998Y-103561447D01*
X107300946Y-103600484D01*
X107292182Y-103604949D01*
X107120213Y-103729890D01*
X106969890Y-103880213D01*
X106844951Y-104052179D01*
X106748444Y-104241583D01*
X106734231Y-104285329D01*
X106694793Y-104343004D01*
X106630434Y-104370202D01*
X106561588Y-104358287D01*
X106510112Y-104311043D01*
X106492300Y-104247010D01*
X106492300Y-102732989D01*
X106511985Y-102665950D01*
X106564789Y-102620195D01*
X106633947Y-102610251D01*
X106697503Y-102639276D01*
G37*
%TD.AperFunction*%
%TA.AperFunction,NonConductor*%
G36*
X106648584Y-105156935D02*
G01*
X106664569Y-105158770D01*
X106679709Y-105171149D01*
X106697503Y-105179276D01*
X106706804Y-105193304D01*
X106718659Y-105202998D01*
X106734229Y-105234668D01*
X106742461Y-105260000D01*
X106748444Y-105278414D01*
X106844951Y-105467820D01*
X106969890Y-105639786D01*
X107120213Y-105790109D01*
X107292182Y-105915050D01*
X107300946Y-105919516D01*
X107351742Y-105967491D01*
X107368536Y-106035312D01*
X107345998Y-106101447D01*
X107300946Y-106140484D01*
X107292182Y-106144949D01*
X107120213Y-106269890D01*
X106969890Y-106420213D01*
X106844951Y-106592179D01*
X106748444Y-106781583D01*
X106734231Y-106825329D01*
X106694793Y-106883004D01*
X106630434Y-106910202D01*
X106561588Y-106898287D01*
X106510112Y-106851043D01*
X106492300Y-106787010D01*
X106492300Y-105272989D01*
X106496833Y-105257549D01*
X106496374Y-105241466D01*
X106506474Y-105224715D01*
X106511985Y-105205950D01*
X106524143Y-105195414D01*
X106532454Y-105181633D01*
X106550009Y-105173001D01*
X106564789Y-105160195D01*
X106580713Y-105157905D01*
X106595155Y-105150805D01*
X106614586Y-105153034D01*
X106633947Y-105150251D01*
X106648584Y-105156935D01*
G37*
%TD.AperFunction*%
%TA.AperFunction,NonConductor*%
G36*
X106697503Y-107719276D02*
G01*
X106734231Y-107774671D01*
X106748444Y-107818414D01*
X106844951Y-108007820D01*
X106969890Y-108179786D01*
X107120213Y-108330109D01*
X107292182Y-108455050D01*
X107300946Y-108459516D01*
X107351742Y-108507491D01*
X107368536Y-108575312D01*
X107345998Y-108641447D01*
X107300946Y-108680484D01*
X107292182Y-108684949D01*
X107120213Y-108809890D01*
X106969890Y-108960213D01*
X106844951Y-109132179D01*
X106748444Y-109321583D01*
X106734231Y-109365329D01*
X106694793Y-109423004D01*
X106630434Y-109450202D01*
X106561588Y-109438287D01*
X106510112Y-109391043D01*
X106492300Y-109327010D01*
X106492300Y-107812989D01*
X106511985Y-107745950D01*
X106564789Y-107700195D01*
X106633947Y-107690251D01*
X106697503Y-107719276D01*
G37*
%TD.AperFunction*%
%TA.AperFunction,NonConductor*%
G36*
X106648584Y-110236935D02*
G01*
X106664569Y-110238770D01*
X106679709Y-110251149D01*
X106697503Y-110259276D01*
X106706804Y-110273304D01*
X106718659Y-110282998D01*
X106734229Y-110314668D01*
X106746681Y-110352989D01*
X106748444Y-110358414D01*
X106844951Y-110547820D01*
X106969890Y-110719786D01*
X107120213Y-110870109D01*
X107292182Y-110995050D01*
X107300946Y-110999516D01*
X107351742Y-111047491D01*
X107368536Y-111115312D01*
X107345998Y-111181447D01*
X107300946Y-111220484D01*
X107292182Y-111224949D01*
X107120213Y-111349890D01*
X106969890Y-111500213D01*
X106844949Y-111672182D01*
X106804690Y-111751194D01*
X106756715Y-111801989D01*
X106688894Y-111818784D01*
X106622760Y-111796246D01*
X106606525Y-111782579D01*
X106528619Y-111704673D01*
X106495134Y-111643350D01*
X106492300Y-111616992D01*
X106492300Y-110352989D01*
X106496833Y-110337549D01*
X106496374Y-110321466D01*
X106506474Y-110304715D01*
X106511985Y-110285950D01*
X106524143Y-110275414D01*
X106532454Y-110261633D01*
X106550009Y-110253001D01*
X106564789Y-110240195D01*
X106580713Y-110237905D01*
X106595155Y-110230805D01*
X106614586Y-110233034D01*
X106633947Y-110230251D01*
X106648584Y-110236935D01*
G37*
%TD.AperFunction*%
%TA.AperFunction,NonConductor*%
G36*
X105173503Y-112046048D02*
G01*
X105211277Y-112104826D01*
X105213918Y-112115572D01*
X105216299Y-112127543D01*
X105216299Y-112127544D01*
X105265334Y-112245925D01*
X105336526Y-112352473D01*
X105336527Y-112352474D01*
X106917886Y-113933832D01*
X106951371Y-113995155D01*
X106946387Y-114064847D01*
X106930524Y-114094397D01*
X106844950Y-114212181D01*
X106763830Y-114371389D01*
X106715855Y-114422185D01*
X106648034Y-114438980D01*
X106581899Y-114416443D01*
X106565664Y-114402775D01*
X105004619Y-112841730D01*
X104971134Y-112780407D01*
X104968300Y-112754049D01*
X104968300Y-112139761D01*
X104987985Y-112072722D01*
X105040789Y-112026967D01*
X105109947Y-112017023D01*
X105173503Y-112046048D01*
G37*
%TD.AperFunction*%
%TA.AperFunction,NonConductor*%
G36*
X116920631Y-114390185D02*
G01*
X116941273Y-114406819D01*
X117851873Y-115317419D01*
X117885358Y-115378742D01*
X117880374Y-115448434D01*
X117838502Y-115504367D01*
X117773038Y-115528784D01*
X117764192Y-115529100D01*
X109392762Y-115529100D01*
X109325723Y-115509415D01*
X109279968Y-115456611D01*
X109270024Y-115387453D01*
X109274831Y-115366782D01*
X109290870Y-115317419D01*
X109317246Y-115236243D01*
X109350500Y-115026287D01*
X109350500Y-114813713D01*
X109317246Y-114603757D01*
X109294195Y-114532816D01*
X109292201Y-114462977D01*
X109328281Y-114403144D01*
X109390982Y-114372316D01*
X109412127Y-114370500D01*
X116853592Y-114370500D01*
X116920631Y-114390185D01*
G37*
%TD.AperFunction*%
%TA.AperFunction,NonConductor*%
G36*
X127417031Y-107970185D02*
G01*
X127437673Y-107986819D01*
X128091181Y-108640327D01*
X128124666Y-108701650D01*
X128127500Y-108728008D01*
X128127500Y-116747791D01*
X128107815Y-116814830D01*
X128091181Y-116835472D01*
X127342181Y-117584472D01*
X127280858Y-117617957D01*
X127211166Y-117612973D01*
X127155233Y-117571101D01*
X127130816Y-117505637D01*
X127130500Y-117496791D01*
X127130500Y-117353713D01*
X127115394Y-117258338D01*
X127097246Y-117143757D01*
X127031557Y-116941588D01*
X126935051Y-116752184D01*
X126935049Y-116752181D01*
X126935048Y-116752179D01*
X126810109Y-116580213D01*
X126659786Y-116429890D01*
X126487820Y-116304951D01*
X126487115Y-116304591D01*
X126479054Y-116300485D01*
X126428259Y-116252512D01*
X126411463Y-116184692D01*
X126433999Y-116118556D01*
X126479054Y-116079515D01*
X126487816Y-116075051D01*
X126509789Y-116059086D01*
X126659786Y-115950109D01*
X126659788Y-115950106D01*
X126659792Y-115950104D01*
X126810104Y-115799792D01*
X126810106Y-115799788D01*
X126810109Y-115799786D01*
X126935048Y-115627820D01*
X126935047Y-115627820D01*
X126935051Y-115627816D01*
X127031557Y-115438412D01*
X127097246Y-115236243D01*
X127130500Y-115026287D01*
X127130500Y-114813713D01*
X127097246Y-114603757D01*
X127031557Y-114401588D01*
X126935051Y-114212184D01*
X126935049Y-114212181D01*
X126935048Y-114212179D01*
X126810109Y-114040213D01*
X126659786Y-113889890D01*
X126487820Y-113764951D01*
X126487115Y-113764591D01*
X126479054Y-113760485D01*
X126428259Y-113712512D01*
X126411463Y-113644692D01*
X126433999Y-113578556D01*
X126479054Y-113539515D01*
X126487816Y-113535051D01*
X126509789Y-113519086D01*
X126659786Y-113410109D01*
X126659788Y-113410106D01*
X126659792Y-113410104D01*
X126810104Y-113259792D01*
X126810106Y-113259788D01*
X126810109Y-113259786D01*
X126919086Y-113109789D01*
X126935051Y-113087816D01*
X127031557Y-112898412D01*
X127097246Y-112696243D01*
X127130500Y-112486287D01*
X127130500Y-112273713D01*
X127097246Y-112063757D01*
X127031557Y-111861588D01*
X126935051Y-111672184D01*
X126935049Y-111672181D01*
X126935048Y-111672179D01*
X126810109Y-111500213D01*
X126659786Y-111349890D01*
X126487820Y-111224951D01*
X126487115Y-111224591D01*
X126479054Y-111220485D01*
X126428259Y-111172512D01*
X126411463Y-111104692D01*
X126433999Y-111038556D01*
X126479054Y-110999515D01*
X126487816Y-110995051D01*
X126509789Y-110979086D01*
X126659786Y-110870109D01*
X126659788Y-110870106D01*
X126659792Y-110870104D01*
X126810104Y-110719792D01*
X126810106Y-110719788D01*
X126810109Y-110719786D01*
X126935048Y-110547820D01*
X126935047Y-110547820D01*
X126935051Y-110547816D01*
X127031557Y-110358412D01*
X127097246Y-110156243D01*
X127130500Y-109946287D01*
X127130500Y-109733713D01*
X127097246Y-109523757D01*
X127031557Y-109321588D01*
X126935051Y-109132184D01*
X126935049Y-109132181D01*
X126935048Y-109132179D01*
X126810109Y-108960213D01*
X126659786Y-108809890D01*
X126487820Y-108684951D01*
X126487115Y-108684591D01*
X126479054Y-108680485D01*
X126428259Y-108632512D01*
X126411463Y-108564692D01*
X126433999Y-108498556D01*
X126479054Y-108459515D01*
X126487816Y-108455051D01*
X126509789Y-108439086D01*
X126659786Y-108330109D01*
X126659788Y-108330106D01*
X126659792Y-108330104D01*
X126810104Y-108179792D01*
X126810106Y-108179788D01*
X126810109Y-108179786D01*
X126937915Y-108003875D01*
X126939259Y-108004851D01*
X126985705Y-107962834D01*
X127039618Y-107950500D01*
X127349992Y-107950500D01*
X127417031Y-107970185D01*
G37*
%TD.AperFunction*%
M02*
