M48
; DRILL file KiCad 10.0.1 date 2026-08-09T09:13:01
; FORMAT={-:-/ absolute / metric / decimal}
; #@! TF.CreationDate,2026-08-09T09:13:01+09:00
; #@! TF.GenerationSoftware,Kicad,Pcbnew,10.0.1
; #@! TF.FileFunction,Plated,1,2,PTH
FMAT,2
METRIC
; #@! TA.AperFunction,Plated,PTH,ViaDrill
T1C0.300
; #@! TA.AperFunction,Plated,PTH,ComponentDrill
T2C0.800
; #@! TA.AperFunction,Plated,PTH,ComponentDrill
T3C1.000
; #@! TA.AperFunction,Plated,PTH,ComponentDrill
T4C3.200
%
G90
G05
T1
X112.268Y-92.202
X113.792Y-81.204
X114.529Y-87.351
X115.087Y-118.415
X115.24Y-99.085
X115.24Y-122.225
X118.567Y-119.964
T2
X112.751Y-126.746
X112.801Y-130.581
X122.911Y-126.746
X122.961Y-130.581
T3
X90.932Y-74.295
X90.932Y-76.835
X93.472Y-74.295
X93.472Y-76.835
X96.012Y-74.295
X96.012Y-76.835
X98.552Y-74.295
X98.552Y-76.835
X101.092Y-74.295
X101.092Y-76.835
X103.632Y-74.295
X103.632Y-76.835
X106.172Y-74.295
X106.172Y-76.835
X108.0Y-86.98
X108.0Y-89.52
X108.0Y-92.06
X108.0Y-94.6
X108.0Y-97.14
X108.0Y-99.68
X108.0Y-102.22
X108.0Y-104.76
X108.0Y-107.3
X108.0Y-109.84
X108.0Y-112.38
X108.0Y-114.92
X108.0Y-117.46
X108.0Y-120.0
X108.712Y-74.295
X108.712Y-76.835
X111.252Y-74.295
X111.252Y-76.835
X113.792Y-74.295
X113.792Y-76.835
X116.332Y-74.295
X116.332Y-76.835
X118.872Y-74.295
X118.872Y-76.835
X121.412Y-74.295
X121.412Y-76.835
X123.952Y-74.295
X123.952Y-76.835
X125.78Y-86.98
X125.78Y-89.52
X125.78Y-92.06
X125.78Y-94.6
X125.78Y-97.14
X125.78Y-99.68
X125.78Y-102.22
X125.78Y-104.76
X125.78Y-107.3
X125.78Y-109.84
X125.78Y-112.38
X125.78Y-114.92
X125.78Y-117.46
X125.78Y-120.0
X126.492Y-74.295
X126.492Y-76.835
T4
X85.0Y-74.0
X85.0Y-143.5
X132.5Y-74.0
X132.5Y-143.5
M30
