%TF.GenerationSoftware,KiCad,Pcbnew,10.0.1*%
%TF.CreationDate,2026-08-08T13:34:47+09:00*%
%TF.ProjectId,pico_jig,7069636f-5f6a-4696-972e-6b696361645f,rev?*%
%TF.SameCoordinates,Original*%
%TF.FileFunction,Legend,Top*%
%TF.FilePolarity,Positive*%
%FSLAX46Y46*%
G04 Gerber Fmt 4.6, Leading zero omitted, Abs format (unit mm)*
G04 Created by KiCad (PCBNEW 10.0.1) date 2026-08-08 13:34:47*
%MOMM*%
%LPD*%
G01*
G04 APERTURE LIST*
%ADD10C,0.200000*%
%ADD11C,0.150000*%
%ADD12C,0.250000*%
%ADD13C,0.300000*%
%ADD14C,0.120000*%
G04 APERTURE END LIST*
D10*
X96367000Y-80146000D02*
X131419000Y-80146000D01*
X131419000Y-115706000D01*
X96367000Y-115706000D01*
X96367000Y-80146000D01*
X104968000Y-118237000D02*
X124968000Y-118237000D01*
X124968000Y-143237000D01*
X104968000Y-143237000D01*
X104968000Y-118237000D01*
X118681377Y-132463623D02*
G75*
G02*
X110304623Y-132463623I-4188377J0D01*
G01*
X110304623Y-132463623D02*
G75*
G02*
X118681377Y-132463623I4188377J0D01*
G01*
D11*
X111737180Y-85619922D02*
X110737180Y-85953255D01*
X110737180Y-85953255D02*
X111737180Y-86286588D01*
X110737180Y-86619922D02*
X111737180Y-86619922D01*
X111737180Y-86619922D02*
X111737180Y-86858017D01*
X111737180Y-86858017D02*
X111689561Y-87000874D01*
X111689561Y-87000874D02*
X111594323Y-87096112D01*
X111594323Y-87096112D02*
X111499085Y-87143731D01*
X111499085Y-87143731D02*
X111308609Y-87191350D01*
X111308609Y-87191350D02*
X111165752Y-87191350D01*
X111165752Y-87191350D02*
X110975276Y-87143731D01*
X110975276Y-87143731D02*
X110880038Y-87096112D01*
X110880038Y-87096112D02*
X110784800Y-87000874D01*
X110784800Y-87000874D02*
X110737180Y-86858017D01*
X110737180Y-86858017D02*
X110737180Y-86619922D01*
X110737180Y-87619922D02*
X111737180Y-87619922D01*
X111737180Y-87619922D02*
X111737180Y-87858017D01*
X111737180Y-87858017D02*
X111689561Y-88000874D01*
X111689561Y-88000874D02*
X111594323Y-88096112D01*
X111594323Y-88096112D02*
X111499085Y-88143731D01*
X111499085Y-88143731D02*
X111308609Y-88191350D01*
X111308609Y-88191350D02*
X111165752Y-88191350D01*
X111165752Y-88191350D02*
X110975276Y-88143731D01*
X110975276Y-88143731D02*
X110880038Y-88096112D01*
X110880038Y-88096112D02*
X110784800Y-88000874D01*
X110784800Y-88000874D02*
X110737180Y-87858017D01*
X110737180Y-87858017D02*
X110737180Y-87619922D01*
X114189561Y-86286588D02*
X114237180Y-86191350D01*
X114237180Y-86191350D02*
X114237180Y-86048493D01*
X114237180Y-86048493D02*
X114189561Y-85905636D01*
X114189561Y-85905636D02*
X114094323Y-85810398D01*
X114094323Y-85810398D02*
X113999085Y-85762779D01*
X113999085Y-85762779D02*
X113808609Y-85715160D01*
X113808609Y-85715160D02*
X113665752Y-85715160D01*
X113665752Y-85715160D02*
X113475276Y-85762779D01*
X113475276Y-85762779D02*
X113380038Y-85810398D01*
X113380038Y-85810398D02*
X113284800Y-85905636D01*
X113284800Y-85905636D02*
X113237180Y-86048493D01*
X113237180Y-86048493D02*
X113237180Y-86143731D01*
X113237180Y-86143731D02*
X113284800Y-86286588D01*
X113284800Y-86286588D02*
X113332419Y-86334207D01*
X113332419Y-86334207D02*
X113665752Y-86334207D01*
X113665752Y-86334207D02*
X113665752Y-86143731D01*
X113237180Y-86762779D02*
X114237180Y-86762779D01*
X114237180Y-86762779D02*
X113237180Y-87334207D01*
X113237180Y-87334207D02*
X114237180Y-87334207D01*
X113237180Y-87810398D02*
X114237180Y-87810398D01*
X114237180Y-87810398D02*
X114237180Y-88048493D01*
X114237180Y-88048493D02*
X114189561Y-88191350D01*
X114189561Y-88191350D02*
X114094323Y-88286588D01*
X114094323Y-88286588D02*
X113999085Y-88334207D01*
X113999085Y-88334207D02*
X113808609Y-88381826D01*
X113808609Y-88381826D02*
X113665752Y-88381826D01*
X113665752Y-88381826D02*
X113475276Y-88334207D01*
X113475276Y-88334207D02*
X113380038Y-88286588D01*
X113380038Y-88286588D02*
X113284800Y-88191350D01*
X113284800Y-88191350D02*
X113237180Y-88048493D01*
X113237180Y-88048493D02*
X113237180Y-87810398D01*
X115784800Y-85715160D02*
X115737180Y-85858017D01*
X115737180Y-85858017D02*
X115737180Y-86096112D01*
X115737180Y-86096112D02*
X115784800Y-86191350D01*
X115784800Y-86191350D02*
X115832419Y-86238969D01*
X115832419Y-86238969D02*
X115927657Y-86286588D01*
X115927657Y-86286588D02*
X116022895Y-86286588D01*
X116022895Y-86286588D02*
X116118133Y-86238969D01*
X116118133Y-86238969D02*
X116165752Y-86191350D01*
X116165752Y-86191350D02*
X116213371Y-86096112D01*
X116213371Y-86096112D02*
X116260990Y-85905636D01*
X116260990Y-85905636D02*
X116308609Y-85810398D01*
X116308609Y-85810398D02*
X116356228Y-85762779D01*
X116356228Y-85762779D02*
X116451466Y-85715160D01*
X116451466Y-85715160D02*
X116546704Y-85715160D01*
X116546704Y-85715160D02*
X116641942Y-85762779D01*
X116641942Y-85762779D02*
X116689561Y-85810398D01*
X116689561Y-85810398D02*
X116737180Y-85905636D01*
X116737180Y-85905636D02*
X116737180Y-86143731D01*
X116737180Y-86143731D02*
X116689561Y-86286588D01*
X115832419Y-87286588D02*
X115784800Y-87238969D01*
X115784800Y-87238969D02*
X115737180Y-87096112D01*
X115737180Y-87096112D02*
X115737180Y-87000874D01*
X115737180Y-87000874D02*
X115784800Y-86858017D01*
X115784800Y-86858017D02*
X115880038Y-86762779D01*
X115880038Y-86762779D02*
X115975276Y-86715160D01*
X115975276Y-86715160D02*
X116165752Y-86667541D01*
X116165752Y-86667541D02*
X116308609Y-86667541D01*
X116308609Y-86667541D02*
X116499085Y-86715160D01*
X116499085Y-86715160D02*
X116594323Y-86762779D01*
X116594323Y-86762779D02*
X116689561Y-86858017D01*
X116689561Y-86858017D02*
X116737180Y-87000874D01*
X116737180Y-87000874D02*
X116737180Y-87096112D01*
X116737180Y-87096112D02*
X116689561Y-87238969D01*
X116689561Y-87238969D02*
X116641942Y-87286588D01*
X115737180Y-88191350D02*
X115737180Y-87715160D01*
X115737180Y-87715160D02*
X116737180Y-87715160D01*
X118324800Y-85715160D02*
X118277180Y-85858017D01*
X118277180Y-85858017D02*
X118277180Y-86096112D01*
X118277180Y-86096112D02*
X118324800Y-86191350D01*
X118324800Y-86191350D02*
X118372419Y-86238969D01*
X118372419Y-86238969D02*
X118467657Y-86286588D01*
X118467657Y-86286588D02*
X118562895Y-86286588D01*
X118562895Y-86286588D02*
X118658133Y-86238969D01*
X118658133Y-86238969D02*
X118705752Y-86191350D01*
X118705752Y-86191350D02*
X118753371Y-86096112D01*
X118753371Y-86096112D02*
X118800990Y-85905636D01*
X118800990Y-85905636D02*
X118848609Y-85810398D01*
X118848609Y-85810398D02*
X118896228Y-85762779D01*
X118896228Y-85762779D02*
X118991466Y-85715160D01*
X118991466Y-85715160D02*
X119086704Y-85715160D01*
X119086704Y-85715160D02*
X119181942Y-85762779D01*
X119181942Y-85762779D02*
X119229561Y-85810398D01*
X119229561Y-85810398D02*
X119277180Y-85905636D01*
X119277180Y-85905636D02*
X119277180Y-86143731D01*
X119277180Y-86143731D02*
X119229561Y-86286588D01*
X118277180Y-86715160D02*
X119277180Y-86715160D01*
X119277180Y-86715160D02*
X119277180Y-86953255D01*
X119277180Y-86953255D02*
X119229561Y-87096112D01*
X119229561Y-87096112D02*
X119134323Y-87191350D01*
X119134323Y-87191350D02*
X119039085Y-87238969D01*
X119039085Y-87238969D02*
X118848609Y-87286588D01*
X118848609Y-87286588D02*
X118705752Y-87286588D01*
X118705752Y-87286588D02*
X118515276Y-87238969D01*
X118515276Y-87238969D02*
X118420038Y-87191350D01*
X118420038Y-87191350D02*
X118324800Y-87096112D01*
X118324800Y-87096112D02*
X118277180Y-86953255D01*
X118277180Y-86953255D02*
X118277180Y-86715160D01*
X118562895Y-87667541D02*
X118562895Y-88143731D01*
X118277180Y-87572303D02*
X119277180Y-87905636D01*
X119277180Y-87905636D02*
X118277180Y-88238969D01*
X89030398Y-145133342D02*
X89030398Y-143933342D01*
X89030398Y-143933342D02*
X89430398Y-144790485D01*
X89430398Y-144790485D02*
X89830398Y-143933342D01*
X89830398Y-143933342D02*
X89830398Y-145133342D01*
X90287541Y-144333342D02*
X90573255Y-145133342D01*
X90858970Y-144333342D02*
X90573255Y-145133342D01*
X90573255Y-145133342D02*
X90458970Y-145419057D01*
X90458970Y-145419057D02*
X90401827Y-145476200D01*
X90401827Y-145476200D02*
X90287541Y-145533342D01*
X92001827Y-145019057D02*
X91944684Y-145076200D01*
X91944684Y-145076200D02*
X91773256Y-145133342D01*
X91773256Y-145133342D02*
X91658970Y-145133342D01*
X91658970Y-145133342D02*
X91487541Y-145076200D01*
X91487541Y-145076200D02*
X91373256Y-144961914D01*
X91373256Y-144961914D02*
X91316113Y-144847628D01*
X91316113Y-144847628D02*
X91258970Y-144619057D01*
X91258970Y-144619057D02*
X91258970Y-144447628D01*
X91258970Y-144447628D02*
X91316113Y-144219057D01*
X91316113Y-144219057D02*
X91373256Y-144104771D01*
X91373256Y-144104771D02*
X91487541Y-143990485D01*
X91487541Y-143990485D02*
X91658970Y-143933342D01*
X91658970Y-143933342D02*
X91773256Y-143933342D01*
X91773256Y-143933342D02*
X91944684Y-143990485D01*
X91944684Y-143990485D02*
X92001827Y-144047628D01*
X92516113Y-145133342D02*
X92516113Y-143933342D01*
X93030399Y-145133342D02*
X93030399Y-144504771D01*
X93030399Y-144504771D02*
X92973256Y-144390485D01*
X92973256Y-144390485D02*
X92858970Y-144333342D01*
X92858970Y-144333342D02*
X92687541Y-144333342D01*
X92687541Y-144333342D02*
X92573256Y-144390485D01*
X92573256Y-144390485D02*
X92516113Y-144447628D01*
X93601827Y-145133342D02*
X93601827Y-144333342D01*
X93601827Y-143933342D02*
X93544684Y-143990485D01*
X93544684Y-143990485D02*
X93601827Y-144047628D01*
X93601827Y-144047628D02*
X93658970Y-143990485D01*
X93658970Y-143990485D02*
X93601827Y-143933342D01*
X93601827Y-143933342D02*
X93601827Y-144047628D01*
X94173256Y-144333342D02*
X94173256Y-145533342D01*
X94173256Y-144390485D02*
X94287542Y-144333342D01*
X94287542Y-144333342D02*
X94516113Y-144333342D01*
X94516113Y-144333342D02*
X94630399Y-144390485D01*
X94630399Y-144390485D02*
X94687542Y-144447628D01*
X94687542Y-144447628D02*
X94744684Y-144561914D01*
X94744684Y-144561914D02*
X94744684Y-144904771D01*
X94744684Y-144904771D02*
X94687542Y-145019057D01*
X94687542Y-145019057D02*
X94630399Y-145076200D01*
X94630399Y-145076200D02*
X94516113Y-145133342D01*
X94516113Y-145133342D02*
X94287542Y-145133342D01*
X94287542Y-145133342D02*
X94173256Y-145076200D01*
X96001827Y-143933342D02*
X96687542Y-143933342D01*
X96344684Y-145133342D02*
X96344684Y-143933342D01*
X97544685Y-145076200D02*
X97430399Y-145133342D01*
X97430399Y-145133342D02*
X97201828Y-145133342D01*
X97201828Y-145133342D02*
X97087542Y-145076200D01*
X97087542Y-145076200D02*
X97030399Y-144961914D01*
X97030399Y-144961914D02*
X97030399Y-144504771D01*
X97030399Y-144504771D02*
X97087542Y-144390485D01*
X97087542Y-144390485D02*
X97201828Y-144333342D01*
X97201828Y-144333342D02*
X97430399Y-144333342D01*
X97430399Y-144333342D02*
X97544685Y-144390485D01*
X97544685Y-144390485D02*
X97601828Y-144504771D01*
X97601828Y-144504771D02*
X97601828Y-144619057D01*
X97601828Y-144619057D02*
X97030399Y-144733342D01*
X98058970Y-145076200D02*
X98173256Y-145133342D01*
X98173256Y-145133342D02*
X98401827Y-145133342D01*
X98401827Y-145133342D02*
X98516113Y-145076200D01*
X98516113Y-145076200D02*
X98573256Y-144961914D01*
X98573256Y-144961914D02*
X98573256Y-144904771D01*
X98573256Y-144904771D02*
X98516113Y-144790485D01*
X98516113Y-144790485D02*
X98401827Y-144733342D01*
X98401827Y-144733342D02*
X98230399Y-144733342D01*
X98230399Y-144733342D02*
X98116113Y-144676200D01*
X98116113Y-144676200D02*
X98058970Y-144561914D01*
X98058970Y-144561914D02*
X98058970Y-144504771D01*
X98058970Y-144504771D02*
X98116113Y-144390485D01*
X98116113Y-144390485D02*
X98230399Y-144333342D01*
X98230399Y-144333342D02*
X98401827Y-144333342D01*
X98401827Y-144333342D02*
X98516113Y-144390485D01*
X98916113Y-144333342D02*
X99373256Y-144333342D01*
X99087542Y-143933342D02*
X99087542Y-144961914D01*
X99087542Y-144961914D02*
X99144685Y-145076200D01*
X99144685Y-145076200D02*
X99258970Y-145133342D01*
X99258970Y-145133342D02*
X99373256Y-145133342D01*
X100230399Y-145076200D02*
X100116113Y-145133342D01*
X100116113Y-145133342D02*
X99887542Y-145133342D01*
X99887542Y-145133342D02*
X99773256Y-145076200D01*
X99773256Y-145076200D02*
X99716113Y-144961914D01*
X99716113Y-144961914D02*
X99716113Y-144504771D01*
X99716113Y-144504771D02*
X99773256Y-144390485D01*
X99773256Y-144390485D02*
X99887542Y-144333342D01*
X99887542Y-144333342D02*
X100116113Y-144333342D01*
X100116113Y-144333342D02*
X100230399Y-144390485D01*
X100230399Y-144390485D02*
X100287542Y-144504771D01*
X100287542Y-144504771D02*
X100287542Y-144619057D01*
X100287542Y-144619057D02*
X99716113Y-144733342D01*
X100801827Y-145133342D02*
X100801827Y-144333342D01*
X100801827Y-144561914D02*
X100858970Y-144447628D01*
X100858970Y-144447628D02*
X100916113Y-144390485D01*
X100916113Y-144390485D02*
X101030398Y-144333342D01*
X101030398Y-144333342D02*
X101144684Y-144333342D01*
X102858970Y-144504771D02*
X103030398Y-144561914D01*
X103030398Y-144561914D02*
X103087541Y-144619057D01*
X103087541Y-144619057D02*
X103144684Y-144733342D01*
X103144684Y-144733342D02*
X103144684Y-144904771D01*
X103144684Y-144904771D02*
X103087541Y-145019057D01*
X103087541Y-145019057D02*
X103030398Y-145076200D01*
X103030398Y-145076200D02*
X102916113Y-145133342D01*
X102916113Y-145133342D02*
X102458970Y-145133342D01*
X102458970Y-145133342D02*
X102458970Y-143933342D01*
X102458970Y-143933342D02*
X102858970Y-143933342D01*
X102858970Y-143933342D02*
X102973256Y-143990485D01*
X102973256Y-143990485D02*
X103030398Y-144047628D01*
X103030398Y-144047628D02*
X103087541Y-144161914D01*
X103087541Y-144161914D02*
X103087541Y-144276200D01*
X103087541Y-144276200D02*
X103030398Y-144390485D01*
X103030398Y-144390485D02*
X102973256Y-144447628D01*
X102973256Y-144447628D02*
X102858970Y-144504771D01*
X102858970Y-144504771D02*
X102458970Y-144504771D01*
X103830398Y-145133342D02*
X103716113Y-145076200D01*
X103716113Y-145076200D02*
X103658970Y-145019057D01*
X103658970Y-145019057D02*
X103601827Y-144904771D01*
X103601827Y-144904771D02*
X103601827Y-144561914D01*
X103601827Y-144561914D02*
X103658970Y-144447628D01*
X103658970Y-144447628D02*
X103716113Y-144390485D01*
X103716113Y-144390485D02*
X103830398Y-144333342D01*
X103830398Y-144333342D02*
X104001827Y-144333342D01*
X104001827Y-144333342D02*
X104116113Y-144390485D01*
X104116113Y-144390485D02*
X104173256Y-144447628D01*
X104173256Y-144447628D02*
X104230398Y-144561914D01*
X104230398Y-144561914D02*
X104230398Y-144904771D01*
X104230398Y-144904771D02*
X104173256Y-145019057D01*
X104173256Y-145019057D02*
X104116113Y-145076200D01*
X104116113Y-145076200D02*
X104001827Y-145133342D01*
X104001827Y-145133342D02*
X103830398Y-145133342D01*
X105258970Y-145133342D02*
X105258970Y-144504771D01*
X105258970Y-144504771D02*
X105201827Y-144390485D01*
X105201827Y-144390485D02*
X105087541Y-144333342D01*
X105087541Y-144333342D02*
X104858970Y-144333342D01*
X104858970Y-144333342D02*
X104744684Y-144390485D01*
X105258970Y-145076200D02*
X105144684Y-145133342D01*
X105144684Y-145133342D02*
X104858970Y-145133342D01*
X104858970Y-145133342D02*
X104744684Y-145076200D01*
X104744684Y-145076200D02*
X104687541Y-144961914D01*
X104687541Y-144961914D02*
X104687541Y-144847628D01*
X104687541Y-144847628D02*
X104744684Y-144733342D01*
X104744684Y-144733342D02*
X104858970Y-144676200D01*
X104858970Y-144676200D02*
X105144684Y-144676200D01*
X105144684Y-144676200D02*
X105258970Y-144619057D01*
X105830398Y-145133342D02*
X105830398Y-144333342D01*
X105830398Y-144561914D02*
X105887541Y-144447628D01*
X105887541Y-144447628D02*
X105944684Y-144390485D01*
X105944684Y-144390485D02*
X106058969Y-144333342D01*
X106058969Y-144333342D02*
X106173255Y-144333342D01*
X107087541Y-145133342D02*
X107087541Y-143933342D01*
X107087541Y-145076200D02*
X106973255Y-145133342D01*
X106973255Y-145133342D02*
X106744683Y-145133342D01*
X106744683Y-145133342D02*
X106630398Y-145076200D01*
X106630398Y-145076200D02*
X106573255Y-145019057D01*
X106573255Y-145019057D02*
X106516112Y-144904771D01*
X106516112Y-144904771D02*
X106516112Y-144561914D01*
X106516112Y-144561914D02*
X106573255Y-144447628D01*
X106573255Y-144447628D02*
X106630398Y-144390485D01*
X106630398Y-144390485D02*
X106744683Y-144333342D01*
X106744683Y-144333342D02*
X106973255Y-144333342D01*
X106973255Y-144333342D02*
X107087541Y-144390485D01*
X109430398Y-143876200D02*
X108401826Y-145419057D01*
X110744684Y-145133342D02*
X110744684Y-143933342D01*
X110744684Y-143933342D02*
X111201827Y-143933342D01*
X111201827Y-143933342D02*
X111316112Y-143990485D01*
X111316112Y-143990485D02*
X111373255Y-144047628D01*
X111373255Y-144047628D02*
X111430398Y-144161914D01*
X111430398Y-144161914D02*
X111430398Y-144333342D01*
X111430398Y-144333342D02*
X111373255Y-144447628D01*
X111373255Y-144447628D02*
X111316112Y-144504771D01*
X111316112Y-144504771D02*
X111201827Y-144561914D01*
X111201827Y-144561914D02*
X110744684Y-144561914D01*
X111944684Y-145133342D02*
X111944684Y-144333342D01*
X111944684Y-143933342D02*
X111887541Y-143990485D01*
X111887541Y-143990485D02*
X111944684Y-144047628D01*
X111944684Y-144047628D02*
X112001827Y-143990485D01*
X112001827Y-143990485D02*
X111944684Y-143933342D01*
X111944684Y-143933342D02*
X111944684Y-144047628D01*
X113030399Y-145076200D02*
X112916113Y-145133342D01*
X112916113Y-145133342D02*
X112687541Y-145133342D01*
X112687541Y-145133342D02*
X112573256Y-145076200D01*
X112573256Y-145076200D02*
X112516113Y-145019057D01*
X112516113Y-145019057D02*
X112458970Y-144904771D01*
X112458970Y-144904771D02*
X112458970Y-144561914D01*
X112458970Y-144561914D02*
X112516113Y-144447628D01*
X112516113Y-144447628D02*
X112573256Y-144390485D01*
X112573256Y-144390485D02*
X112687541Y-144333342D01*
X112687541Y-144333342D02*
X112916113Y-144333342D01*
X112916113Y-144333342D02*
X113030399Y-144390485D01*
X113716112Y-145133342D02*
X113601827Y-145076200D01*
X113601827Y-145076200D02*
X113544684Y-145019057D01*
X113544684Y-145019057D02*
X113487541Y-144904771D01*
X113487541Y-144904771D02*
X113487541Y-144561914D01*
X113487541Y-144561914D02*
X113544684Y-144447628D01*
X113544684Y-144447628D02*
X113601827Y-144390485D01*
X113601827Y-144390485D02*
X113716112Y-144333342D01*
X113716112Y-144333342D02*
X113887541Y-144333342D01*
X113887541Y-144333342D02*
X114001827Y-144390485D01*
X114001827Y-144390485D02*
X114058970Y-144447628D01*
X114058970Y-144447628D02*
X114116112Y-144561914D01*
X114116112Y-144561914D02*
X114116112Y-144904771D01*
X114116112Y-144904771D02*
X114058970Y-145019057D01*
X114058970Y-145019057D02*
X114001827Y-145076200D01*
X114001827Y-145076200D02*
X113887541Y-145133342D01*
X113887541Y-145133342D02*
X113716112Y-145133342D01*
X115887541Y-143933342D02*
X115887541Y-144790485D01*
X115887541Y-144790485D02*
X115830398Y-144961914D01*
X115830398Y-144961914D02*
X115716112Y-145076200D01*
X115716112Y-145076200D02*
X115544684Y-145133342D01*
X115544684Y-145133342D02*
X115430398Y-145133342D01*
X116458970Y-145133342D02*
X116458970Y-144333342D01*
X116458970Y-143933342D02*
X116401827Y-143990485D01*
X116401827Y-143990485D02*
X116458970Y-144047628D01*
X116458970Y-144047628D02*
X116516113Y-143990485D01*
X116516113Y-143990485D02*
X116458970Y-143933342D01*
X116458970Y-143933342D02*
X116458970Y-144047628D01*
X117544685Y-144333342D02*
X117544685Y-145304771D01*
X117544685Y-145304771D02*
X117487542Y-145419057D01*
X117487542Y-145419057D02*
X117430399Y-145476200D01*
X117430399Y-145476200D02*
X117316113Y-145533342D01*
X117316113Y-145533342D02*
X117144685Y-145533342D01*
X117144685Y-145533342D02*
X117030399Y-145476200D01*
X117544685Y-145076200D02*
X117430399Y-145133342D01*
X117430399Y-145133342D02*
X117201827Y-145133342D01*
X117201827Y-145133342D02*
X117087542Y-145076200D01*
X117087542Y-145076200D02*
X117030399Y-145019057D01*
X117030399Y-145019057D02*
X116973256Y-144904771D01*
X116973256Y-144904771D02*
X116973256Y-144561914D01*
X116973256Y-144561914D02*
X117030399Y-144447628D01*
X117030399Y-144447628D02*
X117087542Y-144390485D01*
X117087542Y-144390485D02*
X117201827Y-144333342D01*
X117201827Y-144333342D02*
X117430399Y-144333342D01*
X117430399Y-144333342D02*
X117544685Y-144390485D01*
X118916113Y-144333342D02*
X119201827Y-145133342D01*
X119201827Y-145133342D02*
X119487542Y-144333342D01*
X119944685Y-145019057D02*
X120001828Y-145076200D01*
X120001828Y-145076200D02*
X119944685Y-145133342D01*
X119944685Y-145133342D02*
X119887542Y-145076200D01*
X119887542Y-145076200D02*
X119944685Y-145019057D01*
X119944685Y-145019057D02*
X119944685Y-145133342D01*
X121144685Y-145133342D02*
X120458971Y-145133342D01*
X120801828Y-145133342D02*
X120801828Y-143933342D01*
X120801828Y-143933342D02*
X120687542Y-144104771D01*
X120687542Y-144104771D02*
X120573257Y-144219057D01*
X120573257Y-144219057D02*
X120458971Y-144276200D01*
X121658971Y-145019057D02*
X121716114Y-145076200D01*
X121716114Y-145076200D02*
X121658971Y-145133342D01*
X121658971Y-145133342D02*
X121601828Y-145076200D01*
X121601828Y-145076200D02*
X121658971Y-145019057D01*
X121658971Y-145019057D02*
X121658971Y-145133342D01*
X122458971Y-143933342D02*
X122573257Y-143933342D01*
X122573257Y-143933342D02*
X122687543Y-143990485D01*
X122687543Y-143990485D02*
X122744686Y-144047628D01*
X122744686Y-144047628D02*
X122801828Y-144161914D01*
X122801828Y-144161914D02*
X122858971Y-144390485D01*
X122858971Y-144390485D02*
X122858971Y-144676200D01*
X122858971Y-144676200D02*
X122801828Y-144904771D01*
X122801828Y-144904771D02*
X122744686Y-145019057D01*
X122744686Y-145019057D02*
X122687543Y-145076200D01*
X122687543Y-145076200D02*
X122573257Y-145133342D01*
X122573257Y-145133342D02*
X122458971Y-145133342D01*
X122458971Y-145133342D02*
X122344686Y-145076200D01*
X122344686Y-145076200D02*
X122287543Y-145019057D01*
X122287543Y-145019057D02*
X122230400Y-144904771D01*
X122230400Y-144904771D02*
X122173257Y-144676200D01*
X122173257Y-144676200D02*
X122173257Y-144390485D01*
X122173257Y-144390485D02*
X122230400Y-144161914D01*
X122230400Y-144161914D02*
X122287543Y-144047628D01*
X122287543Y-144047628D02*
X122344686Y-143990485D01*
X122344686Y-143990485D02*
X122458971Y-143933342D01*
X88202371Y-94435826D02*
X89702371Y-94435826D01*
X89130942Y-94435826D02*
X89202371Y-94578684D01*
X89202371Y-94578684D02*
X89202371Y-94864398D01*
X89202371Y-94864398D02*
X89130942Y-95007255D01*
X89130942Y-95007255D02*
X89059514Y-95078684D01*
X89059514Y-95078684D02*
X88916657Y-95150112D01*
X88916657Y-95150112D02*
X88488085Y-95150112D01*
X88488085Y-95150112D02*
X88345228Y-95078684D01*
X88345228Y-95078684D02*
X88273800Y-95007255D01*
X88273800Y-95007255D02*
X88202371Y-94864398D01*
X88202371Y-94864398D02*
X88202371Y-94578684D01*
X88202371Y-94578684D02*
X88273800Y-94435826D01*
X89202371Y-95650112D02*
X88202371Y-96007255D01*
X89202371Y-96364398D02*
X88202371Y-96007255D01*
X88202371Y-96007255D02*
X87845228Y-95864398D01*
X87845228Y-95864398D02*
X87773800Y-95792969D01*
X87773800Y-95792969D02*
X87702371Y-95650112D01*
X88988085Y-98078683D02*
X88988085Y-98578683D01*
X88202371Y-98792969D02*
X88202371Y-98078683D01*
X88202371Y-98078683D02*
X89702371Y-98078683D01*
X89702371Y-98078683D02*
X89702371Y-98792969D01*
X89702371Y-99221541D02*
X89702371Y-100078684D01*
X88202371Y-99650112D02*
X89702371Y-99650112D01*
X88202371Y-101435826D02*
X88916657Y-100935826D01*
X88202371Y-100578683D02*
X89702371Y-100578683D01*
X89702371Y-100578683D02*
X89702371Y-101150112D01*
X89702371Y-101150112D02*
X89630942Y-101292969D01*
X89630942Y-101292969D02*
X89559514Y-101364398D01*
X89559514Y-101364398D02*
X89416657Y-101435826D01*
X89416657Y-101435826D02*
X89202371Y-101435826D01*
X89202371Y-101435826D02*
X89059514Y-101364398D01*
X89059514Y-101364398D02*
X88988085Y-101292969D01*
X88988085Y-101292969D02*
X88916657Y-101150112D01*
X88916657Y-101150112D02*
X88916657Y-100578683D01*
X88202371Y-102078683D02*
X89702371Y-102078683D01*
X89773800Y-103864398D02*
X87845228Y-102578684D01*
X88202371Y-104364398D02*
X89702371Y-104364398D01*
X89702371Y-104364398D02*
X88202371Y-105221541D01*
X88202371Y-105221541D02*
X89702371Y-105221541D01*
X88273800Y-105864399D02*
X88202371Y-106078685D01*
X88202371Y-106078685D02*
X88202371Y-106435827D01*
X88202371Y-106435827D02*
X88273800Y-106578685D01*
X88273800Y-106578685D02*
X88345228Y-106650113D01*
X88345228Y-106650113D02*
X88488085Y-106721542D01*
X88488085Y-106721542D02*
X88630942Y-106721542D01*
X88630942Y-106721542D02*
X88773800Y-106650113D01*
X88773800Y-106650113D02*
X88845228Y-106578685D01*
X88845228Y-106578685D02*
X88916657Y-106435827D01*
X88916657Y-106435827D02*
X88988085Y-106150113D01*
X88988085Y-106150113D02*
X89059514Y-106007256D01*
X89059514Y-106007256D02*
X89130942Y-105935827D01*
X89130942Y-105935827D02*
X89273800Y-105864399D01*
X89273800Y-105864399D02*
X89416657Y-105864399D01*
X89416657Y-105864399D02*
X89559514Y-105935827D01*
X89559514Y-105935827D02*
X89630942Y-106007256D01*
X89630942Y-106007256D02*
X89702371Y-106150113D01*
X89702371Y-106150113D02*
X89702371Y-106507256D01*
X89702371Y-106507256D02*
X89630942Y-106721542D01*
X88202371Y-107364398D02*
X89702371Y-107364398D01*
X89702371Y-107364398D02*
X89702371Y-107935827D01*
X89702371Y-107935827D02*
X89630942Y-108078684D01*
X89630942Y-108078684D02*
X89559514Y-108150113D01*
X89559514Y-108150113D02*
X89416657Y-108221541D01*
X89416657Y-108221541D02*
X89202371Y-108221541D01*
X89202371Y-108221541D02*
X89059514Y-108150113D01*
X89059514Y-108150113D02*
X88988085Y-108078684D01*
X88988085Y-108078684D02*
X88916657Y-107935827D01*
X88916657Y-107935827D02*
X88916657Y-107364398D01*
X88202371Y-109578684D02*
X88202371Y-108864398D01*
X88202371Y-108864398D02*
X89702371Y-108864398D01*
D10*
X108877720Y-122845314D02*
X108377720Y-122845314D01*
X108377720Y-123631028D02*
X108377720Y-122131028D01*
X108377720Y-122131028D02*
X109092006Y-122131028D01*
X109131720Y-132370314D02*
X108631720Y-132370314D01*
X108631720Y-133156028D02*
X108631720Y-131656028D01*
X108631720Y-131656028D02*
X109346006Y-131656028D01*
X111163720Y-122845314D02*
X111378006Y-122916742D01*
X111378006Y-122916742D02*
X111449435Y-122988171D01*
X111449435Y-122988171D02*
X111520863Y-123131028D01*
X111520863Y-123131028D02*
X111520863Y-123345314D01*
X111520863Y-123345314D02*
X111449435Y-123488171D01*
X111449435Y-123488171D02*
X111378006Y-123559600D01*
X111378006Y-123559600D02*
X111235149Y-123631028D01*
X111235149Y-123631028D02*
X110663720Y-123631028D01*
X110663720Y-123631028D02*
X110663720Y-122131028D01*
X110663720Y-122131028D02*
X111163720Y-122131028D01*
X111163720Y-122131028D02*
X111306578Y-122202457D01*
X111306578Y-122202457D02*
X111378006Y-122273885D01*
X111378006Y-122273885D02*
X111449435Y-122416742D01*
X111449435Y-122416742D02*
X111449435Y-122559600D01*
X111449435Y-122559600D02*
X111378006Y-122702457D01*
X111378006Y-122702457D02*
X111306578Y-122773885D01*
X111306578Y-122773885D02*
X111163720Y-122845314D01*
X111163720Y-122845314D02*
X110663720Y-122845314D01*
X114299006Y-123631028D02*
X113584720Y-123631028D01*
X113584720Y-123631028D02*
X113584720Y-122131028D01*
X115076863Y-127314028D02*
X114576863Y-126599742D01*
X114219720Y-127314028D02*
X114219720Y-125814028D01*
X114219720Y-125814028D02*
X114791149Y-125814028D01*
X114791149Y-125814028D02*
X114934006Y-125885457D01*
X114934006Y-125885457D02*
X115005435Y-125956885D01*
X115005435Y-125956885D02*
X115076863Y-126099742D01*
X115076863Y-126099742D02*
X115076863Y-126314028D01*
X115076863Y-126314028D02*
X115005435Y-126456885D01*
X115005435Y-126456885D02*
X114934006Y-126528314D01*
X114934006Y-126528314D02*
X114791149Y-126599742D01*
X114791149Y-126599742D02*
X114219720Y-126599742D01*
X114219720Y-132775028D02*
X114219720Y-131275028D01*
X114219720Y-131275028D02*
X114719720Y-132346457D01*
X114719720Y-132346457D02*
X115219720Y-131275028D01*
X115219720Y-131275028D02*
X115219720Y-132775028D01*
X114934006Y-139887028D02*
X114219720Y-139887028D01*
X114219720Y-139887028D02*
X114219720Y-138387028D01*
X116727863Y-123631028D02*
X116227863Y-122916742D01*
X115870720Y-123631028D02*
X115870720Y-122131028D01*
X115870720Y-122131028D02*
X116442149Y-122131028D01*
X116442149Y-122131028D02*
X116585006Y-122202457D01*
X116585006Y-122202457D02*
X116656435Y-122273885D01*
X116656435Y-122273885D02*
X116727863Y-122416742D01*
X116727863Y-122416742D02*
X116727863Y-122631028D01*
X116727863Y-122631028D02*
X116656435Y-122773885D01*
X116656435Y-122773885D02*
X116585006Y-122845314D01*
X116585006Y-122845314D02*
X116442149Y-122916742D01*
X116442149Y-122916742D02*
X115870720Y-122916742D01*
X118156720Y-123631028D02*
X118156720Y-122131028D01*
X118156720Y-122131028D02*
X118656720Y-123202457D01*
X118656720Y-123202457D02*
X119156720Y-122131028D01*
X119156720Y-122131028D02*
X119156720Y-123631028D01*
X120688720Y-132370314D02*
X120903006Y-132441742D01*
X120903006Y-132441742D02*
X120974435Y-132513171D01*
X120974435Y-132513171D02*
X121045863Y-132656028D01*
X121045863Y-132656028D02*
X121045863Y-132870314D01*
X121045863Y-132870314D02*
X120974435Y-133013171D01*
X120974435Y-133013171D02*
X120903006Y-133084600D01*
X120903006Y-133084600D02*
X120760149Y-133156028D01*
X120760149Y-133156028D02*
X120188720Y-133156028D01*
X120188720Y-133156028D02*
X120188720Y-131656028D01*
X120188720Y-131656028D02*
X120688720Y-131656028D01*
X120688720Y-131656028D02*
X120831578Y-131727457D01*
X120831578Y-131727457D02*
X120903006Y-131798885D01*
X120903006Y-131798885D02*
X120974435Y-131941742D01*
X120974435Y-131941742D02*
X120974435Y-132084600D01*
X120974435Y-132084600D02*
X120903006Y-132227457D01*
X120903006Y-132227457D02*
X120831578Y-132298885D01*
X120831578Y-132298885D02*
X120688720Y-132370314D01*
X120688720Y-132370314D02*
X120188720Y-132370314D01*
X121553863Y-123488171D02*
X121482435Y-123559600D01*
X121482435Y-123559600D02*
X121268149Y-123631028D01*
X121268149Y-123631028D02*
X121125292Y-123631028D01*
X121125292Y-123631028D02*
X120911006Y-123559600D01*
X120911006Y-123559600D02*
X120768149Y-123416742D01*
X120768149Y-123416742D02*
X120696720Y-123273885D01*
X120696720Y-123273885D02*
X120625292Y-122988171D01*
X120625292Y-122988171D02*
X120625292Y-122773885D01*
X120625292Y-122773885D02*
X120696720Y-122488171D01*
X120696720Y-122488171D02*
X120768149Y-122345314D01*
X120768149Y-122345314D02*
X120911006Y-122202457D01*
X120911006Y-122202457D02*
X121125292Y-122131028D01*
X121125292Y-122131028D02*
X121268149Y-122131028D01*
X121268149Y-122131028D02*
X121482435Y-122202457D01*
X121482435Y-122202457D02*
X121553863Y-122273885D01*
X122482435Y-122131028D02*
X122768149Y-122131028D01*
X122768149Y-122131028D02*
X122911006Y-122202457D01*
X122911006Y-122202457D02*
X123053863Y-122345314D01*
X123053863Y-122345314D02*
X123125292Y-122631028D01*
X123125292Y-122631028D02*
X123125292Y-123131028D01*
X123125292Y-123131028D02*
X123053863Y-123416742D01*
X123053863Y-123416742D02*
X122911006Y-123559600D01*
X122911006Y-123559600D02*
X122768149Y-123631028D01*
X122768149Y-123631028D02*
X122482435Y-123631028D01*
X122482435Y-123631028D02*
X122339578Y-123559600D01*
X122339578Y-123559600D02*
X122196720Y-123416742D01*
X122196720Y-123416742D02*
X122125292Y-123131028D01*
X122125292Y-123131028D02*
X122125292Y-122631028D01*
X122125292Y-122631028D02*
X122196720Y-122345314D01*
X122196720Y-122345314D02*
X122339578Y-122202457D01*
X122339578Y-122202457D02*
X122482435Y-122131028D01*
X123768149Y-123631028D02*
X123768149Y-122131028D01*
X123768149Y-122131028D02*
X124268149Y-123202457D01*
X124268149Y-123202457D02*
X124768149Y-122131028D01*
X124768149Y-122131028D02*
X124768149Y-123631028D01*
X84329161Y-90638863D02*
X86329161Y-90888863D01*
X86329161Y-90888863D02*
X84900590Y-91376958D01*
X84900590Y-91376958D02*
X86329161Y-92222197D01*
X86329161Y-92222197D02*
X84329161Y-91972197D01*
X85662495Y-92900768D02*
X84329161Y-93210292D01*
X85662495Y-93853149D02*
X84329161Y-93210292D01*
X84329161Y-93210292D02*
X83852971Y-92960292D01*
X83852971Y-92960292D02*
X83757733Y-92853149D01*
X83757733Y-92853149D02*
X83662495Y-92650768D01*
X84519638Y-95615054D02*
X84424400Y-95507911D01*
X84424400Y-95507911D02*
X84329161Y-95210292D01*
X84329161Y-95210292D02*
X84329161Y-95019816D01*
X84329161Y-95019816D02*
X84424400Y-94746006D01*
X84424400Y-94746006D02*
X84614876Y-94579340D01*
X84614876Y-94579340D02*
X84805352Y-94507911D01*
X84805352Y-94507911D02*
X85186304Y-94460292D01*
X85186304Y-94460292D02*
X85472019Y-94496006D01*
X85472019Y-94496006D02*
X85852971Y-94638863D01*
X85852971Y-94638863D02*
X86043447Y-94757911D01*
X86043447Y-94757911D02*
X86233923Y-94972197D01*
X86233923Y-94972197D02*
X86329161Y-95269816D01*
X86329161Y-95269816D02*
X86329161Y-95460292D01*
X86329161Y-95460292D02*
X86233923Y-95734102D01*
X86233923Y-95734102D02*
X86138685Y-95817435D01*
X84329161Y-96448387D02*
X86329161Y-96698387D01*
X84329161Y-97305530D02*
X85376780Y-97436482D01*
X85376780Y-97436482D02*
X85567257Y-97365054D01*
X85567257Y-97365054D02*
X85662495Y-97186482D01*
X85662495Y-97186482D02*
X85662495Y-96900768D01*
X85662495Y-96900768D02*
X85567257Y-96698387D01*
X85567257Y-96698387D02*
X85472019Y-96591244D01*
X84329161Y-98257911D02*
X85662495Y-98424578D01*
X86329161Y-98507911D02*
X86233923Y-98400768D01*
X86233923Y-98400768D02*
X86138685Y-98484102D01*
X86138685Y-98484102D02*
X86233923Y-98591245D01*
X86233923Y-98591245D02*
X86329161Y-98507911D01*
X86329161Y-98507911D02*
X86138685Y-98484102D01*
X85662495Y-99376959D02*
X83662495Y-99126959D01*
X85567257Y-99365054D02*
X85662495Y-99567435D01*
X85662495Y-99567435D02*
X85662495Y-99948387D01*
X85662495Y-99948387D02*
X85567257Y-100126959D01*
X85567257Y-100126959D02*
X85472019Y-100210292D01*
X85472019Y-100210292D02*
X85281542Y-100281721D01*
X85281542Y-100281721D02*
X84710114Y-100210292D01*
X84710114Y-100210292D02*
X84519638Y-100091245D01*
X84519638Y-100091245D02*
X84424400Y-99984102D01*
X84424400Y-99984102D02*
X84329161Y-99781721D01*
X84329161Y-99781721D02*
X84329161Y-99400768D01*
X84329161Y-99400768D02*
X84424400Y-99222197D01*
X85091066Y-101115054D02*
X85091066Y-102638864D01*
X84329161Y-103781721D02*
X84424400Y-103603149D01*
X84424400Y-103603149D02*
X84519638Y-103519816D01*
X84519638Y-103519816D02*
X84710114Y-103448387D01*
X84710114Y-103448387D02*
X85281542Y-103519816D01*
X85281542Y-103519816D02*
X85472019Y-103638863D01*
X85472019Y-103638863D02*
X85567257Y-103746006D01*
X85567257Y-103746006D02*
X85662495Y-103948387D01*
X85662495Y-103948387D02*
X85662495Y-104234101D01*
X85662495Y-104234101D02*
X85567257Y-104412673D01*
X85567257Y-104412673D02*
X85472019Y-104496006D01*
X85472019Y-104496006D02*
X85281542Y-104567435D01*
X85281542Y-104567435D02*
X84710114Y-104496006D01*
X84710114Y-104496006D02*
X84519638Y-104376959D01*
X84519638Y-104376959D02*
X84424400Y-104269816D01*
X84424400Y-104269816D02*
X84329161Y-104067435D01*
X84329161Y-104067435D02*
X84329161Y-103781721D01*
X85662495Y-105472197D02*
X84329161Y-105305530D01*
X85472019Y-105448387D02*
X85567257Y-105555530D01*
X85567257Y-105555530D02*
X85662495Y-105757911D01*
X85662495Y-105757911D02*
X85662495Y-106043625D01*
X85662495Y-106043625D02*
X85567257Y-106222197D01*
X85567257Y-106222197D02*
X85376780Y-106293625D01*
X85376780Y-106293625D02*
X84329161Y-106162673D01*
X85091066Y-107210292D02*
X85091066Y-108734102D01*
X84329161Y-109591244D02*
X86329161Y-109841244D01*
X86329161Y-109841244D02*
X84900590Y-110329339D01*
X84900590Y-110329339D02*
X86329161Y-111174578D01*
X86329161Y-111174578D02*
X84329161Y-110924578D01*
X85662495Y-111853149D02*
X84329161Y-112162673D01*
X85662495Y-112805530D02*
X84329161Y-112162673D01*
X84329161Y-112162673D02*
X83852971Y-111912673D01*
X83852971Y-111912673D02*
X83757733Y-111805530D01*
X83757733Y-111805530D02*
X83662495Y-111603149D01*
X84329161Y-113400768D02*
X86329161Y-113650768D01*
X86329161Y-113650768D02*
X86329161Y-114126959D01*
X86329161Y-114126959D02*
X86233923Y-114400768D01*
X86233923Y-114400768D02*
X86043447Y-114567435D01*
X86043447Y-114567435D02*
X85852971Y-114638863D01*
X85852971Y-114638863D02*
X85472019Y-114686483D01*
X85472019Y-114686483D02*
X85186304Y-114650768D01*
X85186304Y-114650768D02*
X84805352Y-114507911D01*
X84805352Y-114507911D02*
X84614876Y-114388863D01*
X84614876Y-114388863D02*
X84424400Y-114174578D01*
X84424400Y-114174578D02*
X84329161Y-113876959D01*
X84329161Y-113876959D02*
X84329161Y-113400768D01*
X84424400Y-116174578D02*
X84329161Y-115972197D01*
X84329161Y-115972197D02*
X84329161Y-115591244D01*
X84329161Y-115591244D02*
X84424400Y-115412673D01*
X84424400Y-115412673D02*
X84614876Y-115341244D01*
X84614876Y-115341244D02*
X85376780Y-115436483D01*
X85376780Y-115436483D02*
X85567257Y-115555530D01*
X85567257Y-115555530D02*
X85662495Y-115757911D01*
X85662495Y-115757911D02*
X85662495Y-116138863D01*
X85662495Y-116138863D02*
X85567257Y-116317435D01*
X85567257Y-116317435D02*
X85376780Y-116388863D01*
X85376780Y-116388863D02*
X85186304Y-116365054D01*
X85186304Y-116365054D02*
X84995828Y-115388863D01*
X84424400Y-117031721D02*
X84329161Y-117210292D01*
X84329161Y-117210292D02*
X84329161Y-117591245D01*
X84329161Y-117591245D02*
X84424400Y-117793626D01*
X84424400Y-117793626D02*
X84614876Y-117912673D01*
X84614876Y-117912673D02*
X84710114Y-117924578D01*
X84710114Y-117924578D02*
X84900590Y-117853149D01*
X84900590Y-117853149D02*
X84995828Y-117674578D01*
X84995828Y-117674578D02*
X84995828Y-117388864D01*
X84995828Y-117388864D02*
X85091066Y-117210292D01*
X85091066Y-117210292D02*
X85281542Y-117138864D01*
X85281542Y-117138864D02*
X85376780Y-117150769D01*
X85376780Y-117150769D02*
X85567257Y-117269816D01*
X85567257Y-117269816D02*
X85662495Y-117472197D01*
X85662495Y-117472197D02*
X85662495Y-117757911D01*
X85662495Y-117757911D02*
X85567257Y-117936483D01*
X84329161Y-118734102D02*
X86329161Y-118984102D01*
X85091066Y-119019817D02*
X84329161Y-119496007D01*
X85662495Y-119662674D02*
X84900590Y-118805531D01*
D12*
X96764615Y-131216988D02*
X97145568Y-131216988D01*
X97145568Y-131216988D02*
X97336044Y-131312226D01*
X97336044Y-131312226D02*
X97526520Y-131502702D01*
X97526520Y-131502702D02*
X97621758Y-131883654D01*
X97621758Y-131883654D02*
X97621758Y-132550321D01*
X97621758Y-132550321D02*
X97526520Y-132931273D01*
X97526520Y-132931273D02*
X97336044Y-133121750D01*
X97336044Y-133121750D02*
X97145568Y-133216988D01*
X97145568Y-133216988D02*
X96764615Y-133216988D01*
X96764615Y-133216988D02*
X96574139Y-133121750D01*
X96574139Y-133121750D02*
X96383663Y-132931273D01*
X96383663Y-132931273D02*
X96288425Y-132550321D01*
X96288425Y-132550321D02*
X96288425Y-131883654D01*
X96288425Y-131883654D02*
X96383663Y-131502702D01*
X96383663Y-131502702D02*
X96574139Y-131312226D01*
X96574139Y-131312226D02*
X96764615Y-131216988D01*
X98478901Y-133216988D02*
X98478901Y-131216988D01*
X98478901Y-131216988D02*
X99621758Y-133216988D01*
X99621758Y-133216988D02*
X99621758Y-131216988D01*
D13*
X106168903Y-95835638D02*
X106549856Y-95835638D01*
X106549856Y-95835638D02*
X106740332Y-95930876D01*
X106740332Y-95930876D02*
X106930808Y-96121352D01*
X106930808Y-96121352D02*
X107026046Y-96502304D01*
X107026046Y-96502304D02*
X107026046Y-97168971D01*
X107026046Y-97168971D02*
X106930808Y-97549923D01*
X106930808Y-97549923D02*
X106740332Y-97740400D01*
X106740332Y-97740400D02*
X106549856Y-97835638D01*
X106549856Y-97835638D02*
X106168903Y-97835638D01*
X106168903Y-97835638D02*
X105978427Y-97740400D01*
X105978427Y-97740400D02*
X105787951Y-97549923D01*
X105787951Y-97549923D02*
X105692713Y-97168971D01*
X105692713Y-97168971D02*
X105692713Y-96502304D01*
X105692713Y-96502304D02*
X105787951Y-96121352D01*
X105787951Y-96121352D02*
X105978427Y-95930876D01*
X105978427Y-95930876D02*
X106168903Y-95835638D01*
X108835570Y-97835638D02*
X107883189Y-97835638D01*
X107883189Y-97835638D02*
X107883189Y-95835638D01*
X109502237Y-96788019D02*
X110168904Y-96788019D01*
X110454618Y-97835638D02*
X109502237Y-97835638D01*
X109502237Y-97835638D02*
X109502237Y-95835638D01*
X109502237Y-95835638D02*
X110454618Y-95835638D01*
X111311761Y-97835638D02*
X111311761Y-95835638D01*
X111311761Y-95835638D02*
X111787951Y-95835638D01*
X111787951Y-95835638D02*
X112073666Y-95930876D01*
X112073666Y-95930876D02*
X112264142Y-96121352D01*
X112264142Y-96121352D02*
X112359380Y-96311828D01*
X112359380Y-96311828D02*
X112454618Y-96692780D01*
X112454618Y-96692780D02*
X112454618Y-96978495D01*
X112454618Y-96978495D02*
X112359380Y-97359447D01*
X112359380Y-97359447D02*
X112264142Y-97549923D01*
X112264142Y-97549923D02*
X112073666Y-97740400D01*
X112073666Y-97740400D02*
X111787951Y-97835638D01*
X111787951Y-97835638D02*
X111311761Y-97835638D01*
X115883190Y-97835638D02*
X114740333Y-97835638D01*
X115311761Y-97835638D02*
X115311761Y-95835638D01*
X115311761Y-95835638D02*
X115121285Y-96121352D01*
X115121285Y-96121352D02*
X114930809Y-96311828D01*
X114930809Y-96311828D02*
X114740333Y-96407066D01*
X116645095Y-96026114D02*
X116740333Y-95930876D01*
X116740333Y-95930876D02*
X116930809Y-95835638D01*
X116930809Y-95835638D02*
X117407000Y-95835638D01*
X117407000Y-95835638D02*
X117597476Y-95930876D01*
X117597476Y-95930876D02*
X117692714Y-96026114D01*
X117692714Y-96026114D02*
X117787952Y-96216590D01*
X117787952Y-96216590D02*
X117787952Y-96407066D01*
X117787952Y-96407066D02*
X117692714Y-96692780D01*
X117692714Y-96692780D02*
X116549857Y-97835638D01*
X116549857Y-97835638D02*
X117787952Y-97835638D01*
X118930809Y-96692780D02*
X118740333Y-96597542D01*
X118740333Y-96597542D02*
X118645095Y-96502304D01*
X118645095Y-96502304D02*
X118549857Y-96311828D01*
X118549857Y-96311828D02*
X118549857Y-96216590D01*
X118549857Y-96216590D02*
X118645095Y-96026114D01*
X118645095Y-96026114D02*
X118740333Y-95930876D01*
X118740333Y-95930876D02*
X118930809Y-95835638D01*
X118930809Y-95835638D02*
X119311762Y-95835638D01*
X119311762Y-95835638D02*
X119502238Y-95930876D01*
X119502238Y-95930876D02*
X119597476Y-96026114D01*
X119597476Y-96026114D02*
X119692714Y-96216590D01*
X119692714Y-96216590D02*
X119692714Y-96311828D01*
X119692714Y-96311828D02*
X119597476Y-96502304D01*
X119597476Y-96502304D02*
X119502238Y-96597542D01*
X119502238Y-96597542D02*
X119311762Y-96692780D01*
X119311762Y-96692780D02*
X118930809Y-96692780D01*
X118930809Y-96692780D02*
X118740333Y-96788019D01*
X118740333Y-96788019D02*
X118645095Y-96883257D01*
X118645095Y-96883257D02*
X118549857Y-97073733D01*
X118549857Y-97073733D02*
X118549857Y-97454685D01*
X118549857Y-97454685D02*
X118645095Y-97645161D01*
X118645095Y-97645161D02*
X118740333Y-97740400D01*
X118740333Y-97740400D02*
X118930809Y-97835638D01*
X118930809Y-97835638D02*
X119311762Y-97835638D01*
X119311762Y-97835638D02*
X119502238Y-97740400D01*
X119502238Y-97740400D02*
X119597476Y-97645161D01*
X119597476Y-97645161D02*
X119692714Y-97454685D01*
X119692714Y-97454685D02*
X119692714Y-97073733D01*
X119692714Y-97073733D02*
X119597476Y-96883257D01*
X119597476Y-96883257D02*
X119502238Y-96788019D01*
X119502238Y-96788019D02*
X119311762Y-96692780D01*
X120359381Y-97835638D02*
X121407000Y-96502304D01*
X120359381Y-96502304D02*
X121407000Y-97835638D01*
X123026048Y-95835638D02*
X122645095Y-95835638D01*
X122645095Y-95835638D02*
X122454619Y-95930876D01*
X122454619Y-95930876D02*
X122359381Y-96026114D01*
X122359381Y-96026114D02*
X122168905Y-96311828D01*
X122168905Y-96311828D02*
X122073667Y-96692780D01*
X122073667Y-96692780D02*
X122073667Y-97454685D01*
X122073667Y-97454685D02*
X122168905Y-97645161D01*
X122168905Y-97645161D02*
X122264143Y-97740400D01*
X122264143Y-97740400D02*
X122454619Y-97835638D01*
X122454619Y-97835638D02*
X122835572Y-97835638D01*
X122835572Y-97835638D02*
X123026048Y-97740400D01*
X123026048Y-97740400D02*
X123121286Y-97645161D01*
X123121286Y-97645161D02*
X123216524Y-97454685D01*
X123216524Y-97454685D02*
X123216524Y-96978495D01*
X123216524Y-96978495D02*
X123121286Y-96788019D01*
X123121286Y-96788019D02*
X123026048Y-96692780D01*
X123026048Y-96692780D02*
X122835572Y-96597542D01*
X122835572Y-96597542D02*
X122454619Y-96597542D01*
X122454619Y-96597542D02*
X122264143Y-96692780D01*
X122264143Y-96692780D02*
X122168905Y-96788019D01*
X122168905Y-96788019D02*
X122073667Y-96978495D01*
X124930810Y-96502304D02*
X124930810Y-97835638D01*
X124454619Y-95740400D02*
X123978429Y-97168971D01*
X123978429Y-97168971D02*
X125216524Y-97168971D01*
X105131286Y-102137542D02*
X105036047Y-102042304D01*
X105036047Y-102042304D02*
X104845571Y-101756590D01*
X104845571Y-101756590D02*
X104750333Y-101566114D01*
X104750333Y-101566114D02*
X104655095Y-101280400D01*
X104655095Y-101280400D02*
X104559857Y-100804209D01*
X104559857Y-100804209D02*
X104559857Y-100423257D01*
X104559857Y-100423257D02*
X104655095Y-99947066D01*
X104655095Y-99947066D02*
X104750333Y-99661352D01*
X104750333Y-99661352D02*
X104845571Y-99470876D01*
X104845571Y-99470876D02*
X105036047Y-99185161D01*
X105036047Y-99185161D02*
X105131286Y-99089923D01*
X105797952Y-101280400D02*
X106083666Y-101375638D01*
X106083666Y-101375638D02*
X106559857Y-101375638D01*
X106559857Y-101375638D02*
X106750333Y-101280400D01*
X106750333Y-101280400D02*
X106845571Y-101185161D01*
X106845571Y-101185161D02*
X106940809Y-100994685D01*
X106940809Y-100994685D02*
X106940809Y-100804209D01*
X106940809Y-100804209D02*
X106845571Y-100613733D01*
X106845571Y-100613733D02*
X106750333Y-100518495D01*
X106750333Y-100518495D02*
X106559857Y-100423257D01*
X106559857Y-100423257D02*
X106178904Y-100328019D01*
X106178904Y-100328019D02*
X105988428Y-100232780D01*
X105988428Y-100232780D02*
X105893190Y-100137542D01*
X105893190Y-100137542D02*
X105797952Y-99947066D01*
X105797952Y-99947066D02*
X105797952Y-99756590D01*
X105797952Y-99756590D02*
X105893190Y-99566114D01*
X105893190Y-99566114D02*
X105988428Y-99470876D01*
X105988428Y-99470876D02*
X106178904Y-99375638D01*
X106178904Y-99375638D02*
X106655095Y-99375638D01*
X106655095Y-99375638D02*
X106940809Y-99470876D01*
X107797952Y-101375638D02*
X107797952Y-99375638D01*
X107797952Y-100328019D02*
X108940809Y-100328019D01*
X108940809Y-101375638D02*
X108940809Y-99375638D01*
X110940809Y-101375638D02*
X109797952Y-101375638D01*
X110369380Y-101375638D02*
X110369380Y-99375638D01*
X110369380Y-99375638D02*
X110178904Y-99661352D01*
X110178904Y-99661352D02*
X109988428Y-99851828D01*
X109988428Y-99851828D02*
X109797952Y-99947066D01*
X112845571Y-101375638D02*
X111702714Y-101375638D01*
X112274142Y-101375638D02*
X112274142Y-99375638D01*
X112274142Y-99375638D02*
X112083666Y-99661352D01*
X112083666Y-99661352D02*
X111893190Y-99851828D01*
X111893190Y-99851828D02*
X111702714Y-99947066D01*
X114083666Y-99375638D02*
X114274143Y-99375638D01*
X114274143Y-99375638D02*
X114464619Y-99470876D01*
X114464619Y-99470876D02*
X114559857Y-99566114D01*
X114559857Y-99566114D02*
X114655095Y-99756590D01*
X114655095Y-99756590D02*
X114750333Y-100137542D01*
X114750333Y-100137542D02*
X114750333Y-100613733D01*
X114750333Y-100613733D02*
X114655095Y-100994685D01*
X114655095Y-100994685D02*
X114559857Y-101185161D01*
X114559857Y-101185161D02*
X114464619Y-101280400D01*
X114464619Y-101280400D02*
X114274143Y-101375638D01*
X114274143Y-101375638D02*
X114083666Y-101375638D01*
X114083666Y-101375638D02*
X113893190Y-101280400D01*
X113893190Y-101280400D02*
X113797952Y-101185161D01*
X113797952Y-101185161D02*
X113702714Y-100994685D01*
X113702714Y-100994685D02*
X113607476Y-100613733D01*
X113607476Y-100613733D02*
X113607476Y-100137542D01*
X113607476Y-100137542D02*
X113702714Y-99756590D01*
X113702714Y-99756590D02*
X113797952Y-99566114D01*
X113797952Y-99566114D02*
X113893190Y-99470876D01*
X113893190Y-99470876D02*
X114083666Y-99375638D01*
X116464619Y-99375638D02*
X116083666Y-99375638D01*
X116083666Y-99375638D02*
X115893190Y-99470876D01*
X115893190Y-99470876D02*
X115797952Y-99566114D01*
X115797952Y-99566114D02*
X115607476Y-99851828D01*
X115607476Y-99851828D02*
X115512238Y-100232780D01*
X115512238Y-100232780D02*
X115512238Y-100994685D01*
X115512238Y-100994685D02*
X115607476Y-101185161D01*
X115607476Y-101185161D02*
X115702714Y-101280400D01*
X115702714Y-101280400D02*
X115893190Y-101375638D01*
X115893190Y-101375638D02*
X116274143Y-101375638D01*
X116274143Y-101375638D02*
X116464619Y-101280400D01*
X116464619Y-101280400D02*
X116559857Y-101185161D01*
X116559857Y-101185161D02*
X116655095Y-100994685D01*
X116655095Y-100994685D02*
X116655095Y-100518495D01*
X116655095Y-100518495D02*
X116559857Y-100328019D01*
X116559857Y-100328019D02*
X116464619Y-100232780D01*
X116464619Y-100232780D02*
X116274143Y-100137542D01*
X116274143Y-100137542D02*
X115893190Y-100137542D01*
X115893190Y-100137542D02*
X115702714Y-100232780D01*
X115702714Y-100232780D02*
X115607476Y-100328019D01*
X115607476Y-100328019D02*
X115512238Y-100518495D01*
X118940809Y-99280400D02*
X117226524Y-101851828D01*
X120655095Y-101375638D02*
X119512238Y-101375638D01*
X120083666Y-101375638D02*
X120083666Y-99375638D01*
X120083666Y-99375638D02*
X119893190Y-99661352D01*
X119893190Y-99661352D02*
X119702714Y-99851828D01*
X119702714Y-99851828D02*
X119512238Y-99947066D01*
X121512238Y-101185161D02*
X121607476Y-101280400D01*
X121607476Y-101280400D02*
X121512238Y-101375638D01*
X121512238Y-101375638D02*
X121417000Y-101280400D01*
X121417000Y-101280400D02*
X121512238Y-101185161D01*
X121512238Y-101185161D02*
X121512238Y-101375638D01*
X122274143Y-99375638D02*
X123512238Y-99375638D01*
X123512238Y-99375638D02*
X122845571Y-100137542D01*
X122845571Y-100137542D02*
X123131286Y-100137542D01*
X123131286Y-100137542D02*
X123321762Y-100232780D01*
X123321762Y-100232780D02*
X123417000Y-100328019D01*
X123417000Y-100328019D02*
X123512238Y-100518495D01*
X123512238Y-100518495D02*
X123512238Y-100994685D01*
X123512238Y-100994685D02*
X123417000Y-101185161D01*
X123417000Y-101185161D02*
X123321762Y-101280400D01*
X123321762Y-101280400D02*
X123131286Y-101375638D01*
X123131286Y-101375638D02*
X122559857Y-101375638D01*
X122559857Y-101375638D02*
X122369381Y-101280400D01*
X122369381Y-101280400D02*
X122274143Y-101185161D01*
X124274143Y-99375638D02*
X124274143Y-99756590D01*
X125036048Y-99375638D02*
X125036048Y-99756590D01*
X125702715Y-102137542D02*
X125797953Y-102042304D01*
X125797953Y-102042304D02*
X125988429Y-101756590D01*
X125988429Y-101756590D02*
X126083667Y-101566114D01*
X126083667Y-101566114D02*
X126178905Y-101280400D01*
X126178905Y-101280400D02*
X126274143Y-100804209D01*
X126274143Y-100804209D02*
X126274143Y-100423257D01*
X126274143Y-100423257D02*
X126178905Y-99947066D01*
X126178905Y-99947066D02*
X126083667Y-99661352D01*
X126083667Y-99661352D02*
X125988429Y-99470876D01*
X125988429Y-99470876D02*
X125797953Y-99185161D01*
X125797953Y-99185161D02*
X125702715Y-99089923D01*
X91192361Y-88938558D02*
X93192361Y-88938558D01*
X93192361Y-88938558D02*
X91763790Y-89605225D01*
X91763790Y-89605225D02*
X93192361Y-90271891D01*
X93192361Y-90271891D02*
X91192361Y-90271891D01*
X92525695Y-91033796D02*
X91192361Y-91509986D01*
X92525695Y-91986177D02*
X91192361Y-91509986D01*
X91192361Y-91509986D02*
X90716171Y-91319510D01*
X90716171Y-91319510D02*
X90620933Y-91224272D01*
X90620933Y-91224272D02*
X90525695Y-91033796D01*
X91382838Y-95414749D02*
X91287600Y-95319511D01*
X91287600Y-95319511D02*
X91192361Y-95033797D01*
X91192361Y-95033797D02*
X91192361Y-94843321D01*
X91192361Y-94843321D02*
X91287600Y-94557606D01*
X91287600Y-94557606D02*
X91478076Y-94367130D01*
X91478076Y-94367130D02*
X91668552Y-94271892D01*
X91668552Y-94271892D02*
X92049504Y-94176654D01*
X92049504Y-94176654D02*
X92335219Y-94176654D01*
X92335219Y-94176654D02*
X92716171Y-94271892D01*
X92716171Y-94271892D02*
X92906647Y-94367130D01*
X92906647Y-94367130D02*
X93097123Y-94557606D01*
X93097123Y-94557606D02*
X93192361Y-94843321D01*
X93192361Y-94843321D02*
X93192361Y-95033797D01*
X93192361Y-95033797D02*
X93097123Y-95319511D01*
X93097123Y-95319511D02*
X93001885Y-95414749D01*
X91192361Y-96271892D02*
X93192361Y-96271892D01*
X91192361Y-97129035D02*
X92239980Y-97129035D01*
X92239980Y-97129035D02*
X92430457Y-97033797D01*
X92430457Y-97033797D02*
X92525695Y-96843321D01*
X92525695Y-96843321D02*
X92525695Y-96557606D01*
X92525695Y-96557606D02*
X92430457Y-96367130D01*
X92430457Y-96367130D02*
X92335219Y-96271892D01*
X91192361Y-98081416D02*
X92525695Y-98081416D01*
X93192361Y-98081416D02*
X93097123Y-97986178D01*
X93097123Y-97986178D02*
X93001885Y-98081416D01*
X93001885Y-98081416D02*
X93097123Y-98176654D01*
X93097123Y-98176654D02*
X93192361Y-98081416D01*
X93192361Y-98081416D02*
X93001885Y-98081416D01*
X92525695Y-99033797D02*
X90525695Y-99033797D01*
X92430457Y-99033797D02*
X92525695Y-99224273D01*
X92525695Y-99224273D02*
X92525695Y-99605226D01*
X92525695Y-99605226D02*
X92430457Y-99795702D01*
X92430457Y-99795702D02*
X92335219Y-99890940D01*
X92335219Y-99890940D02*
X92144742Y-99986178D01*
X92144742Y-99986178D02*
X91573314Y-99986178D01*
X91573314Y-99986178D02*
X91382838Y-99890940D01*
X91382838Y-99890940D02*
X91287600Y-99795702D01*
X91287600Y-99795702D02*
X91192361Y-99605226D01*
X91192361Y-99605226D02*
X91192361Y-99224273D01*
X91192361Y-99224273D02*
X91287600Y-99033797D01*
X91192361Y-102367131D02*
X93192361Y-102367131D01*
X93192361Y-102367131D02*
X91763790Y-103033798D01*
X91763790Y-103033798D02*
X93192361Y-103700464D01*
X93192361Y-103700464D02*
X91192361Y-103700464D01*
X91192361Y-104652845D02*
X93192361Y-104652845D01*
X93192361Y-104652845D02*
X93192361Y-105414750D01*
X93192361Y-105414750D02*
X93097123Y-105605226D01*
X93097123Y-105605226D02*
X93001885Y-105700464D01*
X93001885Y-105700464D02*
X92811409Y-105795702D01*
X92811409Y-105795702D02*
X92525695Y-105795702D01*
X92525695Y-105795702D02*
X92335219Y-105700464D01*
X92335219Y-105700464D02*
X92239980Y-105605226D01*
X92239980Y-105605226D02*
X92144742Y-105414750D01*
X92144742Y-105414750D02*
X92144742Y-104652845D01*
X93192361Y-106462369D02*
X91192361Y-106938559D01*
X91192361Y-106938559D02*
X92620933Y-107319512D01*
X92620933Y-107319512D02*
X91192361Y-107700464D01*
X91192361Y-107700464D02*
X93192361Y-108176655D01*
X91287600Y-110367131D02*
X91192361Y-110652845D01*
X91192361Y-110652845D02*
X91192361Y-111129036D01*
X91192361Y-111129036D02*
X91287600Y-111319512D01*
X91287600Y-111319512D02*
X91382838Y-111414750D01*
X91382838Y-111414750D02*
X91573314Y-111509988D01*
X91573314Y-111509988D02*
X91763790Y-111509988D01*
X91763790Y-111509988D02*
X91954266Y-111414750D01*
X91954266Y-111414750D02*
X92049504Y-111319512D01*
X92049504Y-111319512D02*
X92144742Y-111129036D01*
X92144742Y-111129036D02*
X92239980Y-110748083D01*
X92239980Y-110748083D02*
X92335219Y-110557607D01*
X92335219Y-110557607D02*
X92430457Y-110462369D01*
X92430457Y-110462369D02*
X92620933Y-110367131D01*
X92620933Y-110367131D02*
X92811409Y-110367131D01*
X92811409Y-110367131D02*
X93001885Y-110462369D01*
X93001885Y-110462369D02*
X93097123Y-110557607D01*
X93097123Y-110557607D02*
X93192361Y-110748083D01*
X93192361Y-110748083D02*
X93192361Y-111224274D01*
X93192361Y-111224274D02*
X93097123Y-111509988D01*
X91287600Y-113129036D02*
X91192361Y-112938560D01*
X91192361Y-112938560D02*
X91192361Y-112557607D01*
X91192361Y-112557607D02*
X91287600Y-112367131D01*
X91287600Y-112367131D02*
X91478076Y-112271893D01*
X91478076Y-112271893D02*
X92239980Y-112271893D01*
X92239980Y-112271893D02*
X92430457Y-112367131D01*
X92430457Y-112367131D02*
X92525695Y-112557607D01*
X92525695Y-112557607D02*
X92525695Y-112938560D01*
X92525695Y-112938560D02*
X92430457Y-113129036D01*
X92430457Y-113129036D02*
X92239980Y-113224274D01*
X92239980Y-113224274D02*
X92049504Y-113224274D01*
X92049504Y-113224274D02*
X91859028Y-112271893D01*
X91192361Y-114081417D02*
X92525695Y-114081417D01*
X92144742Y-114081417D02*
X92335219Y-114176655D01*
X92335219Y-114176655D02*
X92430457Y-114271893D01*
X92430457Y-114271893D02*
X92525695Y-114462369D01*
X92525695Y-114462369D02*
X92525695Y-114652846D01*
X92525695Y-115129036D02*
X91192361Y-115605226D01*
X91192361Y-115605226D02*
X92525695Y-116081417D01*
X91192361Y-116843322D02*
X92525695Y-116843322D01*
X93192361Y-116843322D02*
X93097123Y-116748084D01*
X93097123Y-116748084D02*
X93001885Y-116843322D01*
X93001885Y-116843322D02*
X93097123Y-116938560D01*
X93097123Y-116938560D02*
X93192361Y-116843322D01*
X93192361Y-116843322D02*
X93001885Y-116843322D01*
X91287600Y-118652846D02*
X91192361Y-118462370D01*
X91192361Y-118462370D02*
X91192361Y-118081417D01*
X91192361Y-118081417D02*
X91287600Y-117890941D01*
X91287600Y-117890941D02*
X91382838Y-117795703D01*
X91382838Y-117795703D02*
X91573314Y-117700465D01*
X91573314Y-117700465D02*
X92144742Y-117700465D01*
X92144742Y-117700465D02*
X92335219Y-117795703D01*
X92335219Y-117795703D02*
X92430457Y-117890941D01*
X92430457Y-117890941D02*
X92525695Y-118081417D01*
X92525695Y-118081417D02*
X92525695Y-118462370D01*
X92525695Y-118462370D02*
X92430457Y-118652846D01*
X91287600Y-120271894D02*
X91192361Y-120081418D01*
X91192361Y-120081418D02*
X91192361Y-119700465D01*
X91192361Y-119700465D02*
X91287600Y-119509989D01*
X91287600Y-119509989D02*
X91478076Y-119414751D01*
X91478076Y-119414751D02*
X92239980Y-119414751D01*
X92239980Y-119414751D02*
X92430457Y-119509989D01*
X92430457Y-119509989D02*
X92525695Y-119700465D01*
X92525695Y-119700465D02*
X92525695Y-120081418D01*
X92525695Y-120081418D02*
X92430457Y-120271894D01*
X92430457Y-120271894D02*
X92239980Y-120367132D01*
X92239980Y-120367132D02*
X92049504Y-120367132D01*
X92049504Y-120367132D02*
X91859028Y-119414751D01*
D11*
X106921570Y-141821819D02*
X106445380Y-141821819D01*
X106445380Y-141821819D02*
X106397761Y-142298009D01*
X106397761Y-142298009D02*
X106445380Y-142250390D01*
X106445380Y-142250390D02*
X106540618Y-142202771D01*
X106540618Y-142202771D02*
X106778713Y-142202771D01*
X106778713Y-142202771D02*
X106873951Y-142250390D01*
X106873951Y-142250390D02*
X106921570Y-142298009D01*
X106921570Y-142298009D02*
X106969189Y-142393247D01*
X106969189Y-142393247D02*
X106969189Y-142631342D01*
X106969189Y-142631342D02*
X106921570Y-142726580D01*
X106921570Y-142726580D02*
X106873951Y-142774200D01*
X106873951Y-142774200D02*
X106778713Y-142821819D01*
X106778713Y-142821819D02*
X106540618Y-142821819D01*
X106540618Y-142821819D02*
X106445380Y-142774200D01*
X106445380Y-142774200D02*
X106397761Y-142726580D01*
X107397761Y-142440866D02*
X108159666Y-142440866D01*
X108540618Y-141821819D02*
X108778713Y-142821819D01*
X108778713Y-142821819D02*
X108969189Y-142107533D01*
X108969189Y-142107533D02*
X109159665Y-142821819D01*
X109159665Y-142821819D02*
X109397761Y-141821819D01*
X110207284Y-142821819D02*
X110207284Y-142298009D01*
X110207284Y-142298009D02*
X110159665Y-142202771D01*
X110159665Y-142202771D02*
X110064427Y-142155152D01*
X110064427Y-142155152D02*
X109873951Y-142155152D01*
X109873951Y-142155152D02*
X109778713Y-142202771D01*
X110207284Y-142774200D02*
X110112046Y-142821819D01*
X110112046Y-142821819D02*
X109873951Y-142821819D01*
X109873951Y-142821819D02*
X109778713Y-142774200D01*
X109778713Y-142774200D02*
X109731094Y-142678961D01*
X109731094Y-142678961D02*
X109731094Y-142583723D01*
X109731094Y-142583723D02*
X109778713Y-142488485D01*
X109778713Y-142488485D02*
X109873951Y-142440866D01*
X109873951Y-142440866D02*
X110112046Y-142440866D01*
X110112046Y-142440866D02*
X110207284Y-142393247D01*
X110588237Y-142155152D02*
X110826332Y-142821819D01*
X111064427Y-142155152D02*
X110826332Y-142821819D01*
X110826332Y-142821819D02*
X110731094Y-143059914D01*
X110731094Y-143059914D02*
X110683475Y-143107533D01*
X110683475Y-143107533D02*
X110588237Y-143155152D01*
X112159666Y-142774200D02*
X112302523Y-142821819D01*
X112302523Y-142821819D02*
X112540618Y-142821819D01*
X112540618Y-142821819D02*
X112635856Y-142774200D01*
X112635856Y-142774200D02*
X112683475Y-142726580D01*
X112683475Y-142726580D02*
X112731094Y-142631342D01*
X112731094Y-142631342D02*
X112731094Y-142536104D01*
X112731094Y-142536104D02*
X112683475Y-142440866D01*
X112683475Y-142440866D02*
X112635856Y-142393247D01*
X112635856Y-142393247D02*
X112540618Y-142345628D01*
X112540618Y-142345628D02*
X112350142Y-142298009D01*
X112350142Y-142298009D02*
X112254904Y-142250390D01*
X112254904Y-142250390D02*
X112207285Y-142202771D01*
X112207285Y-142202771D02*
X112159666Y-142107533D01*
X112159666Y-142107533D02*
X112159666Y-142012295D01*
X112159666Y-142012295D02*
X112207285Y-141917057D01*
X112207285Y-141917057D02*
X112254904Y-141869438D01*
X112254904Y-141869438D02*
X112350142Y-141821819D01*
X112350142Y-141821819D02*
X112588237Y-141821819D01*
X112588237Y-141821819D02*
X112731094Y-141869438D01*
X113064428Y-142155152D02*
X113254904Y-142821819D01*
X113254904Y-142821819D02*
X113445380Y-142345628D01*
X113445380Y-142345628D02*
X113635856Y-142821819D01*
X113635856Y-142821819D02*
X113826332Y-142155152D01*
X114207285Y-142821819D02*
X114207285Y-142155152D01*
X114207285Y-141821819D02*
X114159666Y-141869438D01*
X114159666Y-141869438D02*
X114207285Y-141917057D01*
X114207285Y-141917057D02*
X114254904Y-141869438D01*
X114254904Y-141869438D02*
X114207285Y-141821819D01*
X114207285Y-141821819D02*
X114207285Y-141917057D01*
X114540618Y-142155152D02*
X114921570Y-142155152D01*
X114683475Y-141821819D02*
X114683475Y-142678961D01*
X114683475Y-142678961D02*
X114731094Y-142774200D01*
X114731094Y-142774200D02*
X114826332Y-142821819D01*
X114826332Y-142821819D02*
X114921570Y-142821819D01*
X115683475Y-142774200D02*
X115588237Y-142821819D01*
X115588237Y-142821819D02*
X115397761Y-142821819D01*
X115397761Y-142821819D02*
X115302523Y-142774200D01*
X115302523Y-142774200D02*
X115254904Y-142726580D01*
X115254904Y-142726580D02*
X115207285Y-142631342D01*
X115207285Y-142631342D02*
X115207285Y-142345628D01*
X115207285Y-142345628D02*
X115254904Y-142250390D01*
X115254904Y-142250390D02*
X115302523Y-142202771D01*
X115302523Y-142202771D02*
X115397761Y-142155152D01*
X115397761Y-142155152D02*
X115588237Y-142155152D01*
X115588237Y-142155152D02*
X115683475Y-142202771D01*
X116112047Y-142821819D02*
X116112047Y-141821819D01*
X116540618Y-142821819D02*
X116540618Y-142298009D01*
X116540618Y-142298009D02*
X116492999Y-142202771D01*
X116492999Y-142202771D02*
X116397761Y-142155152D01*
X116397761Y-142155152D02*
X116254904Y-142155152D01*
X116254904Y-142155152D02*
X116159666Y-142202771D01*
X116159666Y-142202771D02*
X116112047Y-142250390D01*
X117778714Y-142821819D02*
X117778714Y-141821819D01*
X117778714Y-141821819D02*
X118112047Y-142536104D01*
X118112047Y-142536104D02*
X118445380Y-141821819D01*
X118445380Y-141821819D02*
X118445380Y-142821819D01*
X119064428Y-142821819D02*
X118969190Y-142774200D01*
X118969190Y-142774200D02*
X118921571Y-142726580D01*
X118921571Y-142726580D02*
X118873952Y-142631342D01*
X118873952Y-142631342D02*
X118873952Y-142345628D01*
X118873952Y-142345628D02*
X118921571Y-142250390D01*
X118921571Y-142250390D02*
X118969190Y-142202771D01*
X118969190Y-142202771D02*
X119064428Y-142155152D01*
X119064428Y-142155152D02*
X119207285Y-142155152D01*
X119207285Y-142155152D02*
X119302523Y-142202771D01*
X119302523Y-142202771D02*
X119350142Y-142250390D01*
X119350142Y-142250390D02*
X119397761Y-142345628D01*
X119397761Y-142345628D02*
X119397761Y-142631342D01*
X119397761Y-142631342D02*
X119350142Y-142726580D01*
X119350142Y-142726580D02*
X119302523Y-142774200D01*
X119302523Y-142774200D02*
X119207285Y-142821819D01*
X119207285Y-142821819D02*
X119064428Y-142821819D01*
X120254904Y-142821819D02*
X120254904Y-141821819D01*
X120254904Y-142774200D02*
X120159666Y-142821819D01*
X120159666Y-142821819D02*
X119969190Y-142821819D01*
X119969190Y-142821819D02*
X119873952Y-142774200D01*
X119873952Y-142774200D02*
X119826333Y-142726580D01*
X119826333Y-142726580D02*
X119778714Y-142631342D01*
X119778714Y-142631342D02*
X119778714Y-142345628D01*
X119778714Y-142345628D02*
X119826333Y-142250390D01*
X119826333Y-142250390D02*
X119873952Y-142202771D01*
X119873952Y-142202771D02*
X119969190Y-142155152D01*
X119969190Y-142155152D02*
X120159666Y-142155152D01*
X120159666Y-142155152D02*
X120254904Y-142202771D01*
X121159666Y-142155152D02*
X121159666Y-142821819D01*
X120731095Y-142155152D02*
X120731095Y-142678961D01*
X120731095Y-142678961D02*
X120778714Y-142774200D01*
X120778714Y-142774200D02*
X120873952Y-142821819D01*
X120873952Y-142821819D02*
X121016809Y-142821819D01*
X121016809Y-142821819D02*
X121112047Y-142774200D01*
X121112047Y-142774200D02*
X121159666Y-142726580D01*
X121778714Y-142821819D02*
X121683476Y-142774200D01*
X121683476Y-142774200D02*
X121635857Y-142678961D01*
X121635857Y-142678961D02*
X121635857Y-141821819D01*
X122540619Y-142774200D02*
X122445381Y-142821819D01*
X122445381Y-142821819D02*
X122254905Y-142821819D01*
X122254905Y-142821819D02*
X122159667Y-142774200D01*
X122159667Y-142774200D02*
X122112048Y-142678961D01*
X122112048Y-142678961D02*
X122112048Y-142298009D01*
X122112048Y-142298009D02*
X122159667Y-142202771D01*
X122159667Y-142202771D02*
X122254905Y-142155152D01*
X122254905Y-142155152D02*
X122445381Y-142155152D01*
X122445381Y-142155152D02*
X122540619Y-142202771D01*
X122540619Y-142202771D02*
X122588238Y-142298009D01*
X122588238Y-142298009D02*
X122588238Y-142393247D01*
X122588238Y-142393247D02*
X122112048Y-142488485D01*
X119537819Y-82987523D02*
X120252104Y-82987523D01*
X120252104Y-82987523D02*
X120394961Y-83035142D01*
X120394961Y-83035142D02*
X120490200Y-83130380D01*
X120490200Y-83130380D02*
X120537819Y-83273237D01*
X120537819Y-83273237D02*
X120537819Y-83368475D01*
X120537819Y-81987523D02*
X120537819Y-82558951D01*
X120537819Y-82273237D02*
X119537819Y-82273237D01*
X119537819Y-82273237D02*
X119680676Y-82368475D01*
X119680676Y-82368475D02*
X119775914Y-82463713D01*
X119775914Y-82463713D02*
X119823533Y-82558951D01*
X119537819Y-81368475D02*
X119537819Y-81273237D01*
X119537819Y-81273237D02*
X119585438Y-81177999D01*
X119585438Y-81177999D02*
X119633057Y-81130380D01*
X119633057Y-81130380D02*
X119728295Y-81082761D01*
X119728295Y-81082761D02*
X119918771Y-81035142D01*
X119918771Y-81035142D02*
X120156866Y-81035142D01*
X120156866Y-81035142D02*
X120347342Y-81082761D01*
X120347342Y-81082761D02*
X120442580Y-81130380D01*
X120442580Y-81130380D02*
X120490200Y-81177999D01*
X120490200Y-81177999D02*
X120537819Y-81273237D01*
X120537819Y-81273237D02*
X120537819Y-81368475D01*
X120537819Y-81368475D02*
X120490200Y-81463713D01*
X120490200Y-81463713D02*
X120442580Y-81511332D01*
X120442580Y-81511332D02*
X120347342Y-81558951D01*
X120347342Y-81558951D02*
X120156866Y-81606570D01*
X120156866Y-81606570D02*
X119918771Y-81606570D01*
X119918771Y-81606570D02*
X119728295Y-81558951D01*
X119728295Y-81558951D02*
X119633057Y-81511332D01*
X119633057Y-81511332D02*
X119585438Y-81463713D01*
X119585438Y-81463713D02*
X119537819Y-81368475D01*
%TO.C,J11*%
D14*
X96410000Y-134129000D02*
X97790000Y-134129000D01*
X96410000Y-135509000D02*
X96410000Y-134129000D01*
X96410000Y-136779000D02*
X96410000Y-141969000D01*
X96410000Y-136779000D02*
X99170000Y-136779000D01*
X96410000Y-141969000D02*
X99170000Y-141969000D01*
X99170000Y-136779000D02*
X99170000Y-141969000D01*
%TO.C,J4*%
X89552000Y-72915000D02*
X89552000Y-78215000D01*
X125222000Y-72915000D02*
X89552000Y-72915000D01*
X125222000Y-72915000D02*
X125222000Y-75565000D01*
X125222000Y-75565000D02*
X127872000Y-75565000D01*
X126492000Y-72915000D02*
X127872000Y-72915000D01*
X127872000Y-72915000D02*
X127872000Y-74295000D01*
X127872000Y-75565000D02*
X127872000Y-78215000D01*
X127872000Y-78215000D02*
X89552000Y-78215000D01*
%TO.C,SW3*%
X107271000Y-121395000D02*
X107271000Y-120015000D01*
X108651000Y-121395000D02*
X107271000Y-121395000D01*
X109921000Y-118635000D02*
X122731000Y-118635000D01*
X109921000Y-121395000D02*
X109921000Y-118635000D01*
X109921000Y-121395000D02*
X122731000Y-121395000D01*
X122731000Y-121395000D02*
X122731000Y-118635000D01*
%TO.C,J10*%
X108703000Y-80798000D02*
X108703000Y-83558000D01*
X116433000Y-80798000D02*
X108703000Y-80798000D01*
X116433000Y-80798000D02*
X116433000Y-83558000D01*
X116433000Y-83558000D02*
X108703000Y-83558000D01*
X117703000Y-80798000D02*
X119083000Y-80798000D01*
X119083000Y-80798000D02*
X119083000Y-82178000D01*
%TD*%
M02*
