%TF.GenerationSoftware,KiCad,Pcbnew,10.0.1*%
%TF.CreationDate,2026-08-08T13:34:47+09:00*%
%TF.ProjectId,pico_jig,7069636f-5f6a-4696-972e-6b696361645f,rev?*%
%TF.SameCoordinates,Original*%
%TF.FileFunction,Legend,Bot*%
%TF.FilePolarity,Positive*%
%FSLAX46Y46*%
G04 Gerber Fmt 4.6, Leading zero omitted, Abs format (unit mm)*
G04 Created by KiCad (PCBNEW 10.0.1) date 2026-08-08 13:34:47*
%MOMM*%
%LPD*%
G01*
G04 APERTURE LIST*
%ADD10C,0.200000*%
%ADD11C,0.100000*%
%ADD12C,0.150000*%
%ADD13C,0.300000*%
%ADD14C,0.120000*%
G04 APERTURE END LIST*
D10*
X86614000Y-79677000D02*
X99614000Y-79677000D01*
X99614000Y-129677000D01*
X86614000Y-129677000D01*
X86614000Y-79677000D01*
X88822000Y-131699000D02*
X99822000Y-131699000D01*
X99822000Y-142699000D01*
X88822000Y-142699000D01*
X88822000Y-131699000D01*
X101468000Y-92009000D02*
X127831000Y-92009000D01*
X127831000Y-110678000D01*
X101468000Y-110678000D01*
X101468000Y-92009000D01*
X125831000Y-97926000D02*
X129831000Y-97926000D01*
X129831000Y-103926000D01*
X125831000Y-103926000D01*
X125831000Y-97926000D01*
D11*
X93740972Y-139080419D02*
X93407639Y-140080419D01*
X93407639Y-140080419D02*
X93074306Y-139080419D01*
X92740972Y-140080419D02*
X92740972Y-139413752D01*
X92740972Y-139080419D02*
X92788591Y-139128038D01*
X92788591Y-139128038D02*
X92740972Y-139175657D01*
X92740972Y-139175657D02*
X92693353Y-139128038D01*
X92693353Y-139128038D02*
X92740972Y-139080419D01*
X92740972Y-139080419D02*
X92740972Y-139175657D01*
X94502972Y-133873419D02*
X94169639Y-134873419D01*
X94169639Y-134873419D02*
X93836306Y-133873419D01*
X93312496Y-133873419D02*
X93122020Y-133873419D01*
X93122020Y-133873419D02*
X93026782Y-133921038D01*
X93026782Y-133921038D02*
X92931544Y-134016276D01*
X92931544Y-134016276D02*
X92883925Y-134206752D01*
X92883925Y-134206752D02*
X92883925Y-134540085D01*
X92883925Y-134540085D02*
X92931544Y-134730561D01*
X92931544Y-134730561D02*
X93026782Y-134825800D01*
X93026782Y-134825800D02*
X93122020Y-134873419D01*
X93122020Y-134873419D02*
X93312496Y-134873419D01*
X93312496Y-134873419D02*
X93407734Y-134825800D01*
X93407734Y-134825800D02*
X93502972Y-134730561D01*
X93502972Y-134730561D02*
X93550591Y-134540085D01*
X93550591Y-134540085D02*
X93550591Y-134206752D01*
X93550591Y-134206752D02*
X93502972Y-134016276D01*
X93502972Y-134016276D02*
X93407734Y-133921038D01*
X93407734Y-133921038D02*
X93312496Y-133873419D01*
X94725306Y-136588038D02*
X94820544Y-136540419D01*
X94820544Y-136540419D02*
X94963401Y-136540419D01*
X94963401Y-136540419D02*
X95106258Y-136588038D01*
X95106258Y-136588038D02*
X95201496Y-136683276D01*
X95201496Y-136683276D02*
X95249115Y-136778514D01*
X95249115Y-136778514D02*
X95296734Y-136968990D01*
X95296734Y-136968990D02*
X95296734Y-137111847D01*
X95296734Y-137111847D02*
X95249115Y-137302323D01*
X95249115Y-137302323D02*
X95201496Y-137397561D01*
X95201496Y-137397561D02*
X95106258Y-137492800D01*
X95106258Y-137492800D02*
X94963401Y-137540419D01*
X94963401Y-137540419D02*
X94868163Y-137540419D01*
X94868163Y-137540419D02*
X94725306Y-137492800D01*
X94725306Y-137492800D02*
X94677687Y-137445180D01*
X94677687Y-137445180D02*
X94677687Y-137111847D01*
X94677687Y-137111847D02*
X94868163Y-137111847D01*
X94249115Y-137540419D02*
X94249115Y-136540419D01*
X94249115Y-136540419D02*
X93677687Y-137540419D01*
X93677687Y-137540419D02*
X93677687Y-136540419D01*
X93201496Y-137540419D02*
X93201496Y-136540419D01*
X93201496Y-136540419D02*
X92963401Y-136540419D01*
X92963401Y-136540419D02*
X92820544Y-136588038D01*
X92820544Y-136588038D02*
X92725306Y-136683276D01*
X92725306Y-136683276D02*
X92677687Y-136778514D01*
X92677687Y-136778514D02*
X92630068Y-136968990D01*
X92630068Y-136968990D02*
X92630068Y-137111847D01*
X92630068Y-137111847D02*
X92677687Y-137302323D01*
X92677687Y-137302323D02*
X92725306Y-137397561D01*
X92725306Y-137397561D02*
X92820544Y-137492800D01*
X92820544Y-137492800D02*
X92963401Y-137540419D01*
X92963401Y-137540419D02*
X93201496Y-137540419D01*
X99059115Y-142239419D02*
X99059115Y-141239419D01*
X99059115Y-141239419D02*
X98821020Y-141239419D01*
X98821020Y-141239419D02*
X98678163Y-141287038D01*
X98678163Y-141287038D02*
X98582925Y-141382276D01*
X98582925Y-141382276D02*
X98535306Y-141477514D01*
X98535306Y-141477514D02*
X98487687Y-141667990D01*
X98487687Y-141667990D02*
X98487687Y-141810847D01*
X98487687Y-141810847D02*
X98535306Y-142001323D01*
X98535306Y-142001323D02*
X98582925Y-142096561D01*
X98582925Y-142096561D02*
X98678163Y-142191800D01*
X98678163Y-142191800D02*
X98821020Y-142239419D01*
X98821020Y-142239419D02*
X99059115Y-142239419D01*
X97487687Y-142144180D02*
X97535306Y-142191800D01*
X97535306Y-142191800D02*
X97678163Y-142239419D01*
X97678163Y-142239419D02*
X97773401Y-142239419D01*
X97773401Y-142239419D02*
X97916258Y-142191800D01*
X97916258Y-142191800D02*
X98011496Y-142096561D01*
X98011496Y-142096561D02*
X98059115Y-142001323D01*
X98059115Y-142001323D02*
X98106734Y-141810847D01*
X98106734Y-141810847D02*
X98106734Y-141667990D01*
X98106734Y-141667990D02*
X98059115Y-141477514D01*
X98059115Y-141477514D02*
X98011496Y-141382276D01*
X98011496Y-141382276D02*
X97916258Y-141287038D01*
X97916258Y-141287038D02*
X97773401Y-141239419D01*
X97773401Y-141239419D02*
X97678163Y-141239419D01*
X97678163Y-141239419D02*
X97535306Y-141287038D01*
X97535306Y-141287038D02*
X97487687Y-141334657D01*
X97059115Y-141858466D02*
X96297211Y-141858466D01*
X95821020Y-142239419D02*
X95821020Y-141239419D01*
X95821020Y-141239419D02*
X95582925Y-141239419D01*
X95582925Y-141239419D02*
X95440068Y-141287038D01*
X95440068Y-141287038D02*
X95344830Y-141382276D01*
X95344830Y-141382276D02*
X95297211Y-141477514D01*
X95297211Y-141477514D02*
X95249592Y-141667990D01*
X95249592Y-141667990D02*
X95249592Y-141810847D01*
X95249592Y-141810847D02*
X95297211Y-142001323D01*
X95297211Y-142001323D02*
X95344830Y-142096561D01*
X95344830Y-142096561D02*
X95440068Y-142191800D01*
X95440068Y-142191800D02*
X95582925Y-142239419D01*
X95582925Y-142239419D02*
X95821020Y-142239419D01*
X94249592Y-142144180D02*
X94297211Y-142191800D01*
X94297211Y-142191800D02*
X94440068Y-142239419D01*
X94440068Y-142239419D02*
X94535306Y-142239419D01*
X94535306Y-142239419D02*
X94678163Y-142191800D01*
X94678163Y-142191800D02*
X94773401Y-142096561D01*
X94773401Y-142096561D02*
X94821020Y-142001323D01*
X94821020Y-142001323D02*
X94868639Y-141810847D01*
X94868639Y-141810847D02*
X94868639Y-141667990D01*
X94868639Y-141667990D02*
X94821020Y-141477514D01*
X94821020Y-141477514D02*
X94773401Y-141382276D01*
X94773401Y-141382276D02*
X94678163Y-141287038D01*
X94678163Y-141287038D02*
X94535306Y-141239419D01*
X94535306Y-141239419D02*
X94440068Y-141239419D01*
X94440068Y-141239419D02*
X94297211Y-141287038D01*
X94297211Y-141287038D02*
X94249592Y-141334657D01*
D12*
X119108180Y-114252921D02*
X119108180Y-113633874D01*
X119108180Y-113633874D02*
X118727228Y-113967207D01*
X118727228Y-113967207D02*
X118727228Y-113824350D01*
X118727228Y-113824350D02*
X118679609Y-113729112D01*
X118679609Y-113729112D02*
X118631990Y-113681493D01*
X118631990Y-113681493D02*
X118536752Y-113633874D01*
X118536752Y-113633874D02*
X118298657Y-113633874D01*
X118298657Y-113633874D02*
X118203419Y-113681493D01*
X118203419Y-113681493D02*
X118155800Y-113729112D01*
X118155800Y-113729112D02*
X118108180Y-113824350D01*
X118108180Y-113824350D02*
X118108180Y-114110064D01*
X118108180Y-114110064D02*
X118155800Y-114205302D01*
X118155800Y-114205302D02*
X118203419Y-114252921D01*
X118203419Y-113205302D02*
X118155800Y-113157683D01*
X118155800Y-113157683D02*
X118108180Y-113205302D01*
X118108180Y-113205302D02*
X118155800Y-113252921D01*
X118155800Y-113252921D02*
X118203419Y-113205302D01*
X118203419Y-113205302D02*
X118108180Y-113205302D01*
X119108180Y-112824350D02*
X119108180Y-112205303D01*
X119108180Y-112205303D02*
X118727228Y-112538636D01*
X118727228Y-112538636D02*
X118727228Y-112395779D01*
X118727228Y-112395779D02*
X118679609Y-112300541D01*
X118679609Y-112300541D02*
X118631990Y-112252922D01*
X118631990Y-112252922D02*
X118536752Y-112205303D01*
X118536752Y-112205303D02*
X118298657Y-112205303D01*
X118298657Y-112205303D02*
X118203419Y-112252922D01*
X118203419Y-112252922D02*
X118155800Y-112300541D01*
X118155800Y-112300541D02*
X118108180Y-112395779D01*
X118108180Y-112395779D02*
X118108180Y-112681493D01*
X118108180Y-112681493D02*
X118155800Y-112776731D01*
X118155800Y-112776731D02*
X118203419Y-112824350D01*
X119108180Y-111919588D02*
X118108180Y-111586255D01*
X118108180Y-111586255D02*
X119108180Y-111252922D01*
X121600561Y-113316398D02*
X121648180Y-113411636D01*
X121648180Y-113411636D02*
X121648180Y-113554493D01*
X121648180Y-113554493D02*
X121600561Y-113697350D01*
X121600561Y-113697350D02*
X121505323Y-113792588D01*
X121505323Y-113792588D02*
X121410085Y-113840207D01*
X121410085Y-113840207D02*
X121219609Y-113887826D01*
X121219609Y-113887826D02*
X121076752Y-113887826D01*
X121076752Y-113887826D02*
X120886276Y-113840207D01*
X120886276Y-113840207D02*
X120791038Y-113792588D01*
X120791038Y-113792588D02*
X120695800Y-113697350D01*
X120695800Y-113697350D02*
X120648180Y-113554493D01*
X120648180Y-113554493D02*
X120648180Y-113459255D01*
X120648180Y-113459255D02*
X120695800Y-113316398D01*
X120695800Y-113316398D02*
X120743419Y-113268779D01*
X120743419Y-113268779D02*
X121076752Y-113268779D01*
X121076752Y-113268779D02*
X121076752Y-113459255D01*
X120648180Y-112840207D02*
X121648180Y-112840207D01*
X121648180Y-112840207D02*
X120648180Y-112268779D01*
X120648180Y-112268779D02*
X121648180Y-112268779D01*
X120648180Y-111792588D02*
X121648180Y-111792588D01*
X121648180Y-111792588D02*
X121648180Y-111554493D01*
X121648180Y-111554493D02*
X121600561Y-111411636D01*
X121600561Y-111411636D02*
X121505323Y-111316398D01*
X121505323Y-111316398D02*
X121410085Y-111268779D01*
X121410085Y-111268779D02*
X121219609Y-111221160D01*
X121219609Y-111221160D02*
X121076752Y-111221160D01*
X121076752Y-111221160D02*
X120886276Y-111268779D01*
X120886276Y-111268779D02*
X120791038Y-111316398D01*
X120791038Y-111316398D02*
X120695800Y-111411636D01*
X120695800Y-111411636D02*
X120648180Y-111554493D01*
X120648180Y-111554493D02*
X120648180Y-111792588D01*
X124188180Y-112252922D02*
X124188180Y-112729112D01*
X124188180Y-112729112D02*
X123711990Y-112776731D01*
X123711990Y-112776731D02*
X123759609Y-112729112D01*
X123759609Y-112729112D02*
X123807228Y-112633874D01*
X123807228Y-112633874D02*
X123807228Y-112395779D01*
X123807228Y-112395779D02*
X123759609Y-112300541D01*
X123759609Y-112300541D02*
X123711990Y-112252922D01*
X123711990Y-112252922D02*
X123616752Y-112205303D01*
X123616752Y-112205303D02*
X123378657Y-112205303D01*
X123378657Y-112205303D02*
X123283419Y-112252922D01*
X123283419Y-112252922D02*
X123235800Y-112300541D01*
X123235800Y-112300541D02*
X123188180Y-112395779D01*
X123188180Y-112395779D02*
X123188180Y-112633874D01*
X123188180Y-112633874D02*
X123235800Y-112729112D01*
X123235800Y-112729112D02*
X123283419Y-112776731D01*
X124188180Y-111919588D02*
X123188180Y-111586255D01*
X123188180Y-111586255D02*
X124188180Y-111252922D01*
X101201159Y-99244819D02*
X101201159Y-98244819D01*
X100534493Y-98244819D02*
X100344017Y-98244819D01*
X100344017Y-98244819D02*
X100248779Y-98292438D01*
X100248779Y-98292438D02*
X100153541Y-98387676D01*
X100153541Y-98387676D02*
X100105922Y-98578152D01*
X100105922Y-98578152D02*
X100105922Y-98911485D01*
X100105922Y-98911485D02*
X100153541Y-99101961D01*
X100153541Y-99101961D02*
X100248779Y-99197200D01*
X100248779Y-99197200D02*
X100344017Y-99244819D01*
X100344017Y-99244819D02*
X100534493Y-99244819D01*
X100534493Y-99244819D02*
X100629731Y-99197200D01*
X100629731Y-99197200D02*
X100724969Y-99101961D01*
X100724969Y-99101961D02*
X100772588Y-98911485D01*
X100772588Y-98911485D02*
X100772588Y-98578152D01*
X100772588Y-98578152D02*
X100724969Y-98387676D01*
X100724969Y-98387676D02*
X100629731Y-98292438D01*
X100629731Y-98292438D02*
X100534493Y-98244819D01*
X99153541Y-99244819D02*
X99724969Y-99244819D01*
X99439255Y-99244819D02*
X99439255Y-98244819D01*
X99439255Y-98244819D02*
X99534493Y-98387676D01*
X99534493Y-98387676D02*
X99629731Y-98482914D01*
X99629731Y-98482914D02*
X99724969Y-98530533D01*
X98534493Y-98244819D02*
X98439255Y-98244819D01*
X98439255Y-98244819D02*
X98344017Y-98292438D01*
X98344017Y-98292438D02*
X98296398Y-98340057D01*
X98296398Y-98340057D02*
X98248779Y-98435295D01*
X98248779Y-98435295D02*
X98201160Y-98625771D01*
X98201160Y-98625771D02*
X98201160Y-98863866D01*
X98201160Y-98863866D02*
X98248779Y-99054342D01*
X98248779Y-99054342D02*
X98296398Y-99149580D01*
X98296398Y-99149580D02*
X98344017Y-99197200D01*
X98344017Y-99197200D02*
X98439255Y-99244819D01*
X98439255Y-99244819D02*
X98534493Y-99244819D01*
X98534493Y-99244819D02*
X98629731Y-99197200D01*
X98629731Y-99197200D02*
X98677350Y-99149580D01*
X98677350Y-99149580D02*
X98724969Y-99054342D01*
X98724969Y-99054342D02*
X98772588Y-98863866D01*
X98772588Y-98863866D02*
X98772588Y-98625771D01*
X98772588Y-98625771D02*
X98724969Y-98435295D01*
X98724969Y-98435295D02*
X98677350Y-98340057D01*
X98677350Y-98340057D02*
X98629731Y-98292438D01*
X98629731Y-98292438D02*
X98534493Y-98244819D01*
X101201159Y-101657819D02*
X101201159Y-100657819D01*
X100534493Y-100657819D02*
X100344017Y-100657819D01*
X100344017Y-100657819D02*
X100248779Y-100705438D01*
X100248779Y-100705438D02*
X100153541Y-100800676D01*
X100153541Y-100800676D02*
X100105922Y-100991152D01*
X100105922Y-100991152D02*
X100105922Y-101324485D01*
X100105922Y-101324485D02*
X100153541Y-101514961D01*
X100153541Y-101514961D02*
X100248779Y-101610200D01*
X100248779Y-101610200D02*
X100344017Y-101657819D01*
X100344017Y-101657819D02*
X100534493Y-101657819D01*
X100534493Y-101657819D02*
X100629731Y-101610200D01*
X100629731Y-101610200D02*
X100724969Y-101514961D01*
X100724969Y-101514961D02*
X100772588Y-101324485D01*
X100772588Y-101324485D02*
X100772588Y-100991152D01*
X100772588Y-100991152D02*
X100724969Y-100800676D01*
X100724969Y-100800676D02*
X100629731Y-100705438D01*
X100629731Y-100705438D02*
X100534493Y-100657819D01*
X99153541Y-101657819D02*
X99724969Y-101657819D01*
X99439255Y-101657819D02*
X99439255Y-100657819D01*
X99439255Y-100657819D02*
X99534493Y-100800676D01*
X99534493Y-100800676D02*
X99629731Y-100895914D01*
X99629731Y-100895914D02*
X99724969Y-100943533D01*
X98201160Y-101657819D02*
X98772588Y-101657819D01*
X98486874Y-101657819D02*
X98486874Y-100657819D01*
X98486874Y-100657819D02*
X98582112Y-100800676D01*
X98582112Y-100800676D02*
X98677350Y-100895914D01*
X98677350Y-100895914D02*
X98772588Y-100943533D01*
X101201159Y-104324819D02*
X101201159Y-103324819D01*
X100534493Y-103324819D02*
X100344017Y-103324819D01*
X100344017Y-103324819D02*
X100248779Y-103372438D01*
X100248779Y-103372438D02*
X100153541Y-103467676D01*
X100153541Y-103467676D02*
X100105922Y-103658152D01*
X100105922Y-103658152D02*
X100105922Y-103991485D01*
X100105922Y-103991485D02*
X100153541Y-104181961D01*
X100153541Y-104181961D02*
X100248779Y-104277200D01*
X100248779Y-104277200D02*
X100344017Y-104324819D01*
X100344017Y-104324819D02*
X100534493Y-104324819D01*
X100534493Y-104324819D02*
X100629731Y-104277200D01*
X100629731Y-104277200D02*
X100724969Y-104181961D01*
X100724969Y-104181961D02*
X100772588Y-103991485D01*
X100772588Y-103991485D02*
X100772588Y-103658152D01*
X100772588Y-103658152D02*
X100724969Y-103467676D01*
X100724969Y-103467676D02*
X100629731Y-103372438D01*
X100629731Y-103372438D02*
X100534493Y-103324819D01*
X99153541Y-104324819D02*
X99724969Y-104324819D01*
X99439255Y-104324819D02*
X99439255Y-103324819D01*
X99439255Y-103324819D02*
X99534493Y-103467676D01*
X99534493Y-103467676D02*
X99629731Y-103562914D01*
X99629731Y-103562914D02*
X99724969Y-103610533D01*
X98772588Y-103420057D02*
X98724969Y-103372438D01*
X98724969Y-103372438D02*
X98629731Y-103324819D01*
X98629731Y-103324819D02*
X98391636Y-103324819D01*
X98391636Y-103324819D02*
X98296398Y-103372438D01*
X98296398Y-103372438D02*
X98248779Y-103420057D01*
X98248779Y-103420057D02*
X98201160Y-103515295D01*
X98201160Y-103515295D02*
X98201160Y-103610533D01*
X98201160Y-103610533D02*
X98248779Y-103753390D01*
X98248779Y-103753390D02*
X98820207Y-104324819D01*
X98820207Y-104324819D02*
X98201160Y-104324819D01*
X101201159Y-106864819D02*
X101201159Y-105864819D01*
X100534493Y-105864819D02*
X100344017Y-105864819D01*
X100344017Y-105864819D02*
X100248779Y-105912438D01*
X100248779Y-105912438D02*
X100153541Y-106007676D01*
X100153541Y-106007676D02*
X100105922Y-106198152D01*
X100105922Y-106198152D02*
X100105922Y-106531485D01*
X100105922Y-106531485D02*
X100153541Y-106721961D01*
X100153541Y-106721961D02*
X100248779Y-106817200D01*
X100248779Y-106817200D02*
X100344017Y-106864819D01*
X100344017Y-106864819D02*
X100534493Y-106864819D01*
X100534493Y-106864819D02*
X100629731Y-106817200D01*
X100629731Y-106817200D02*
X100724969Y-106721961D01*
X100724969Y-106721961D02*
X100772588Y-106531485D01*
X100772588Y-106531485D02*
X100772588Y-106198152D01*
X100772588Y-106198152D02*
X100724969Y-106007676D01*
X100724969Y-106007676D02*
X100629731Y-105912438D01*
X100629731Y-105912438D02*
X100534493Y-105864819D01*
X99153541Y-106864819D02*
X99724969Y-106864819D01*
X99439255Y-106864819D02*
X99439255Y-105864819D01*
X99439255Y-105864819D02*
X99534493Y-106007676D01*
X99534493Y-106007676D02*
X99629731Y-106102914D01*
X99629731Y-106102914D02*
X99724969Y-106150533D01*
X98820207Y-105864819D02*
X98201160Y-105864819D01*
X98201160Y-105864819D02*
X98534493Y-106245771D01*
X98534493Y-106245771D02*
X98391636Y-106245771D01*
X98391636Y-106245771D02*
X98296398Y-106293390D01*
X98296398Y-106293390D02*
X98248779Y-106341009D01*
X98248779Y-106341009D02*
X98201160Y-106436247D01*
X98201160Y-106436247D02*
X98201160Y-106674342D01*
X98201160Y-106674342D02*
X98248779Y-106769580D01*
X98248779Y-106769580D02*
X98296398Y-106817200D01*
X98296398Y-106817200D02*
X98391636Y-106864819D01*
X98391636Y-106864819D02*
X98677350Y-106864819D01*
X98677350Y-106864819D02*
X98772588Y-106817200D01*
X98772588Y-106817200D02*
X98820207Y-106769580D01*
X101264778Y-96450819D02*
X101264778Y-95450819D01*
X100598112Y-95450819D02*
X100407636Y-95450819D01*
X100407636Y-95450819D02*
X100312398Y-95498438D01*
X100312398Y-95498438D02*
X100217160Y-95593676D01*
X100217160Y-95593676D02*
X100169541Y-95784152D01*
X100169541Y-95784152D02*
X100169541Y-96117485D01*
X100169541Y-96117485D02*
X100217160Y-96307961D01*
X100217160Y-96307961D02*
X100312398Y-96403200D01*
X100312398Y-96403200D02*
X100407636Y-96450819D01*
X100407636Y-96450819D02*
X100598112Y-96450819D01*
X100598112Y-96450819D02*
X100693350Y-96403200D01*
X100693350Y-96403200D02*
X100788588Y-96307961D01*
X100788588Y-96307961D02*
X100836207Y-96117485D01*
X100836207Y-96117485D02*
X100836207Y-95784152D01*
X100836207Y-95784152D02*
X100788588Y-95593676D01*
X100788588Y-95593676D02*
X100693350Y-95498438D01*
X100693350Y-95498438D02*
X100598112Y-95450819D01*
X99693350Y-96450819D02*
X99502874Y-96450819D01*
X99502874Y-96450819D02*
X99407636Y-96403200D01*
X99407636Y-96403200D02*
X99360017Y-96355580D01*
X99360017Y-96355580D02*
X99264779Y-96212723D01*
X99264779Y-96212723D02*
X99217160Y-96022247D01*
X99217160Y-96022247D02*
X99217160Y-95641295D01*
X99217160Y-95641295D02*
X99264779Y-95546057D01*
X99264779Y-95546057D02*
X99312398Y-95498438D01*
X99312398Y-95498438D02*
X99407636Y-95450819D01*
X99407636Y-95450819D02*
X99598112Y-95450819D01*
X99598112Y-95450819D02*
X99693350Y-95498438D01*
X99693350Y-95498438D02*
X99740969Y-95546057D01*
X99740969Y-95546057D02*
X99788588Y-95641295D01*
X99788588Y-95641295D02*
X99788588Y-95879390D01*
X99788588Y-95879390D02*
X99740969Y-95974628D01*
X99740969Y-95974628D02*
X99693350Y-96022247D01*
X99693350Y-96022247D02*
X99598112Y-96069866D01*
X99598112Y-96069866D02*
X99407636Y-96069866D01*
X99407636Y-96069866D02*
X99312398Y-96022247D01*
X99312398Y-96022247D02*
X99264779Y-95974628D01*
X99264779Y-95974628D02*
X99217160Y-95879390D01*
X102487180Y-91170778D02*
X103487180Y-91170778D01*
X103487180Y-90504112D02*
X103487180Y-90313636D01*
X103487180Y-90313636D02*
X103439561Y-90218398D01*
X103439561Y-90218398D02*
X103344323Y-90123160D01*
X103344323Y-90123160D02*
X103153847Y-90075541D01*
X103153847Y-90075541D02*
X102820514Y-90075541D01*
X102820514Y-90075541D02*
X102630038Y-90123160D01*
X102630038Y-90123160D02*
X102534800Y-90218398D01*
X102534800Y-90218398D02*
X102487180Y-90313636D01*
X102487180Y-90313636D02*
X102487180Y-90504112D01*
X102487180Y-90504112D02*
X102534800Y-90599350D01*
X102534800Y-90599350D02*
X102630038Y-90694588D01*
X102630038Y-90694588D02*
X102820514Y-90742207D01*
X102820514Y-90742207D02*
X103153847Y-90742207D01*
X103153847Y-90742207D02*
X103344323Y-90694588D01*
X103344323Y-90694588D02*
X103439561Y-90599350D01*
X103439561Y-90599350D02*
X103487180Y-90504112D01*
X103058609Y-89504112D02*
X103106228Y-89599350D01*
X103106228Y-89599350D02*
X103153847Y-89646969D01*
X103153847Y-89646969D02*
X103249085Y-89694588D01*
X103249085Y-89694588D02*
X103296704Y-89694588D01*
X103296704Y-89694588D02*
X103391942Y-89646969D01*
X103391942Y-89646969D02*
X103439561Y-89599350D01*
X103439561Y-89599350D02*
X103487180Y-89504112D01*
X103487180Y-89504112D02*
X103487180Y-89313636D01*
X103487180Y-89313636D02*
X103439561Y-89218398D01*
X103439561Y-89218398D02*
X103391942Y-89170779D01*
X103391942Y-89170779D02*
X103296704Y-89123160D01*
X103296704Y-89123160D02*
X103249085Y-89123160D01*
X103249085Y-89123160D02*
X103153847Y-89170779D01*
X103153847Y-89170779D02*
X103106228Y-89218398D01*
X103106228Y-89218398D02*
X103058609Y-89313636D01*
X103058609Y-89313636D02*
X103058609Y-89504112D01*
X103058609Y-89504112D02*
X103010990Y-89599350D01*
X103010990Y-89599350D02*
X102963371Y-89646969D01*
X102963371Y-89646969D02*
X102868133Y-89694588D01*
X102868133Y-89694588D02*
X102677657Y-89694588D01*
X102677657Y-89694588D02*
X102582419Y-89646969D01*
X102582419Y-89646969D02*
X102534800Y-89599350D01*
X102534800Y-89599350D02*
X102487180Y-89504112D01*
X102487180Y-89504112D02*
X102487180Y-89313636D01*
X102487180Y-89313636D02*
X102534800Y-89218398D01*
X102534800Y-89218398D02*
X102582419Y-89170779D01*
X102582419Y-89170779D02*
X102677657Y-89123160D01*
X102677657Y-89123160D02*
X102868133Y-89123160D01*
X102868133Y-89123160D02*
X102963371Y-89170779D01*
X102963371Y-89170779D02*
X103010990Y-89218398D01*
X103010990Y-89218398D02*
X103058609Y-89313636D01*
X102614180Y-114094159D02*
X103614180Y-114094159D01*
X103614180Y-113427493D02*
X103614180Y-113237017D01*
X103614180Y-113237017D02*
X103566561Y-113141779D01*
X103566561Y-113141779D02*
X103471323Y-113046541D01*
X103471323Y-113046541D02*
X103280847Y-112998922D01*
X103280847Y-112998922D02*
X102947514Y-112998922D01*
X102947514Y-112998922D02*
X102757038Y-113046541D01*
X102757038Y-113046541D02*
X102661800Y-113141779D01*
X102661800Y-113141779D02*
X102614180Y-113237017D01*
X102614180Y-113237017D02*
X102614180Y-113427493D01*
X102614180Y-113427493D02*
X102661800Y-113522731D01*
X102661800Y-113522731D02*
X102757038Y-113617969D01*
X102757038Y-113617969D02*
X102947514Y-113665588D01*
X102947514Y-113665588D02*
X103280847Y-113665588D01*
X103280847Y-113665588D02*
X103471323Y-113617969D01*
X103471323Y-113617969D02*
X103566561Y-113522731D01*
X103566561Y-113522731D02*
X103614180Y-113427493D01*
X102614180Y-112046541D02*
X102614180Y-112617969D01*
X102614180Y-112332255D02*
X103614180Y-112332255D01*
X103614180Y-112332255D02*
X103471323Y-112427493D01*
X103471323Y-112427493D02*
X103376085Y-112522731D01*
X103376085Y-112522731D02*
X103328466Y-112617969D01*
X103280847Y-111189398D02*
X102614180Y-111189398D01*
X103661800Y-111427493D02*
X102947514Y-111665588D01*
X102947514Y-111665588D02*
X102947514Y-111046541D01*
X105281180Y-91170778D02*
X106281180Y-91170778D01*
X106281180Y-90504112D02*
X106281180Y-90313636D01*
X106281180Y-90313636D02*
X106233561Y-90218398D01*
X106233561Y-90218398D02*
X106138323Y-90123160D01*
X106138323Y-90123160D02*
X105947847Y-90075541D01*
X105947847Y-90075541D02*
X105614514Y-90075541D01*
X105614514Y-90075541D02*
X105424038Y-90123160D01*
X105424038Y-90123160D02*
X105328800Y-90218398D01*
X105328800Y-90218398D02*
X105281180Y-90313636D01*
X105281180Y-90313636D02*
X105281180Y-90504112D01*
X105281180Y-90504112D02*
X105328800Y-90599350D01*
X105328800Y-90599350D02*
X105424038Y-90694588D01*
X105424038Y-90694588D02*
X105614514Y-90742207D01*
X105614514Y-90742207D02*
X105947847Y-90742207D01*
X105947847Y-90742207D02*
X106138323Y-90694588D01*
X106138323Y-90694588D02*
X106233561Y-90599350D01*
X106233561Y-90599350D02*
X106281180Y-90504112D01*
X106281180Y-89742207D02*
X106281180Y-89075541D01*
X106281180Y-89075541D02*
X105281180Y-89504112D01*
X105281180Y-114094159D02*
X106281180Y-114094159D01*
X106281180Y-113427493D02*
X106281180Y-113237017D01*
X106281180Y-113237017D02*
X106233561Y-113141779D01*
X106233561Y-113141779D02*
X106138323Y-113046541D01*
X106138323Y-113046541D02*
X105947847Y-112998922D01*
X105947847Y-112998922D02*
X105614514Y-112998922D01*
X105614514Y-112998922D02*
X105424038Y-113046541D01*
X105424038Y-113046541D02*
X105328800Y-113141779D01*
X105328800Y-113141779D02*
X105281180Y-113237017D01*
X105281180Y-113237017D02*
X105281180Y-113427493D01*
X105281180Y-113427493D02*
X105328800Y-113522731D01*
X105328800Y-113522731D02*
X105424038Y-113617969D01*
X105424038Y-113617969D02*
X105614514Y-113665588D01*
X105614514Y-113665588D02*
X105947847Y-113665588D01*
X105947847Y-113665588D02*
X106138323Y-113617969D01*
X106138323Y-113617969D02*
X106233561Y-113522731D01*
X106233561Y-113522731D02*
X106281180Y-113427493D01*
X105281180Y-112046541D02*
X105281180Y-112617969D01*
X105281180Y-112332255D02*
X106281180Y-112332255D01*
X106281180Y-112332255D02*
X106138323Y-112427493D01*
X106138323Y-112427493D02*
X106043085Y-112522731D01*
X106043085Y-112522731D02*
X105995466Y-112617969D01*
X106281180Y-111141779D02*
X106281180Y-111617969D01*
X106281180Y-111617969D02*
X105804990Y-111665588D01*
X105804990Y-111665588D02*
X105852609Y-111617969D01*
X105852609Y-111617969D02*
X105900228Y-111522731D01*
X105900228Y-111522731D02*
X105900228Y-111284636D01*
X105900228Y-111284636D02*
X105852609Y-111189398D01*
X105852609Y-111189398D02*
X105804990Y-111141779D01*
X105804990Y-111141779D02*
X105709752Y-111094160D01*
X105709752Y-111094160D02*
X105471657Y-111094160D01*
X105471657Y-111094160D02*
X105376419Y-111141779D01*
X105376419Y-111141779D02*
X105328800Y-111189398D01*
X105328800Y-111189398D02*
X105281180Y-111284636D01*
X105281180Y-111284636D02*
X105281180Y-111522731D01*
X105281180Y-111522731D02*
X105328800Y-111617969D01*
X105328800Y-111617969D02*
X105376419Y-111665588D01*
X107821180Y-91170778D02*
X108821180Y-91170778D01*
X108821180Y-90504112D02*
X108821180Y-90313636D01*
X108821180Y-90313636D02*
X108773561Y-90218398D01*
X108773561Y-90218398D02*
X108678323Y-90123160D01*
X108678323Y-90123160D02*
X108487847Y-90075541D01*
X108487847Y-90075541D02*
X108154514Y-90075541D01*
X108154514Y-90075541D02*
X107964038Y-90123160D01*
X107964038Y-90123160D02*
X107868800Y-90218398D01*
X107868800Y-90218398D02*
X107821180Y-90313636D01*
X107821180Y-90313636D02*
X107821180Y-90504112D01*
X107821180Y-90504112D02*
X107868800Y-90599350D01*
X107868800Y-90599350D02*
X107964038Y-90694588D01*
X107964038Y-90694588D02*
X108154514Y-90742207D01*
X108154514Y-90742207D02*
X108487847Y-90742207D01*
X108487847Y-90742207D02*
X108678323Y-90694588D01*
X108678323Y-90694588D02*
X108773561Y-90599350D01*
X108773561Y-90599350D02*
X108821180Y-90504112D01*
X108821180Y-89218398D02*
X108821180Y-89408874D01*
X108821180Y-89408874D02*
X108773561Y-89504112D01*
X108773561Y-89504112D02*
X108725942Y-89551731D01*
X108725942Y-89551731D02*
X108583085Y-89646969D01*
X108583085Y-89646969D02*
X108392609Y-89694588D01*
X108392609Y-89694588D02*
X108011657Y-89694588D01*
X108011657Y-89694588D02*
X107916419Y-89646969D01*
X107916419Y-89646969D02*
X107868800Y-89599350D01*
X107868800Y-89599350D02*
X107821180Y-89504112D01*
X107821180Y-89504112D02*
X107821180Y-89313636D01*
X107821180Y-89313636D02*
X107868800Y-89218398D01*
X107868800Y-89218398D02*
X107916419Y-89170779D01*
X107916419Y-89170779D02*
X108011657Y-89123160D01*
X108011657Y-89123160D02*
X108249752Y-89123160D01*
X108249752Y-89123160D02*
X108344990Y-89170779D01*
X108344990Y-89170779D02*
X108392609Y-89218398D01*
X108392609Y-89218398D02*
X108440228Y-89313636D01*
X108440228Y-89313636D02*
X108440228Y-89504112D01*
X108440228Y-89504112D02*
X108392609Y-89599350D01*
X108392609Y-89599350D02*
X108344990Y-89646969D01*
X108344990Y-89646969D02*
X108249752Y-89694588D01*
X107821180Y-114221159D02*
X108821180Y-114221159D01*
X108821180Y-113554493D02*
X108821180Y-113364017D01*
X108821180Y-113364017D02*
X108773561Y-113268779D01*
X108773561Y-113268779D02*
X108678323Y-113173541D01*
X108678323Y-113173541D02*
X108487847Y-113125922D01*
X108487847Y-113125922D02*
X108154514Y-113125922D01*
X108154514Y-113125922D02*
X107964038Y-113173541D01*
X107964038Y-113173541D02*
X107868800Y-113268779D01*
X107868800Y-113268779D02*
X107821180Y-113364017D01*
X107821180Y-113364017D02*
X107821180Y-113554493D01*
X107821180Y-113554493D02*
X107868800Y-113649731D01*
X107868800Y-113649731D02*
X107964038Y-113744969D01*
X107964038Y-113744969D02*
X108154514Y-113792588D01*
X108154514Y-113792588D02*
X108487847Y-113792588D01*
X108487847Y-113792588D02*
X108678323Y-113744969D01*
X108678323Y-113744969D02*
X108773561Y-113649731D01*
X108773561Y-113649731D02*
X108821180Y-113554493D01*
X108725942Y-112744969D02*
X108773561Y-112697350D01*
X108773561Y-112697350D02*
X108821180Y-112602112D01*
X108821180Y-112602112D02*
X108821180Y-112364017D01*
X108821180Y-112364017D02*
X108773561Y-112268779D01*
X108773561Y-112268779D02*
X108725942Y-112221160D01*
X108725942Y-112221160D02*
X108630704Y-112173541D01*
X108630704Y-112173541D02*
X108535466Y-112173541D01*
X108535466Y-112173541D02*
X108392609Y-112221160D01*
X108392609Y-112221160D02*
X107821180Y-112792588D01*
X107821180Y-112792588D02*
X107821180Y-112173541D01*
X108821180Y-111316398D02*
X108821180Y-111506874D01*
X108821180Y-111506874D02*
X108773561Y-111602112D01*
X108773561Y-111602112D02*
X108725942Y-111649731D01*
X108725942Y-111649731D02*
X108583085Y-111744969D01*
X108583085Y-111744969D02*
X108392609Y-111792588D01*
X108392609Y-111792588D02*
X108011657Y-111792588D01*
X108011657Y-111792588D02*
X107916419Y-111744969D01*
X107916419Y-111744969D02*
X107868800Y-111697350D01*
X107868800Y-111697350D02*
X107821180Y-111602112D01*
X107821180Y-111602112D02*
X107821180Y-111411636D01*
X107821180Y-111411636D02*
X107868800Y-111316398D01*
X107868800Y-111316398D02*
X107916419Y-111268779D01*
X107916419Y-111268779D02*
X108011657Y-111221160D01*
X108011657Y-111221160D02*
X108249752Y-111221160D01*
X108249752Y-111221160D02*
X108344990Y-111268779D01*
X108344990Y-111268779D02*
X108392609Y-111316398D01*
X108392609Y-111316398D02*
X108440228Y-111411636D01*
X108440228Y-111411636D02*
X108440228Y-111602112D01*
X108440228Y-111602112D02*
X108392609Y-111697350D01*
X108392609Y-111697350D02*
X108344990Y-111744969D01*
X108344990Y-111744969D02*
X108249752Y-111792588D01*
X110408800Y-90996112D02*
X110361180Y-90853255D01*
X110361180Y-90853255D02*
X110361180Y-90615160D01*
X110361180Y-90615160D02*
X110408800Y-90519922D01*
X110408800Y-90519922D02*
X110456419Y-90472303D01*
X110456419Y-90472303D02*
X110551657Y-90424684D01*
X110551657Y-90424684D02*
X110646895Y-90424684D01*
X110646895Y-90424684D02*
X110742133Y-90472303D01*
X110742133Y-90472303D02*
X110789752Y-90519922D01*
X110789752Y-90519922D02*
X110837371Y-90615160D01*
X110837371Y-90615160D02*
X110884990Y-90805636D01*
X110884990Y-90805636D02*
X110932609Y-90900874D01*
X110932609Y-90900874D02*
X110980228Y-90948493D01*
X110980228Y-90948493D02*
X111075466Y-90996112D01*
X111075466Y-90996112D02*
X111170704Y-90996112D01*
X111170704Y-90996112D02*
X111265942Y-90948493D01*
X111265942Y-90948493D02*
X111313561Y-90900874D01*
X111313561Y-90900874D02*
X111361180Y-90805636D01*
X111361180Y-90805636D02*
X111361180Y-90567541D01*
X111361180Y-90567541D02*
X111313561Y-90424684D01*
X110456419Y-89424684D02*
X110408800Y-89472303D01*
X110408800Y-89472303D02*
X110361180Y-89615160D01*
X110361180Y-89615160D02*
X110361180Y-89710398D01*
X110361180Y-89710398D02*
X110408800Y-89853255D01*
X110408800Y-89853255D02*
X110504038Y-89948493D01*
X110504038Y-89948493D02*
X110599276Y-89996112D01*
X110599276Y-89996112D02*
X110789752Y-90043731D01*
X110789752Y-90043731D02*
X110932609Y-90043731D01*
X110932609Y-90043731D02*
X111123085Y-89996112D01*
X111123085Y-89996112D02*
X111218323Y-89948493D01*
X111218323Y-89948493D02*
X111313561Y-89853255D01*
X111313561Y-89853255D02*
X111361180Y-89710398D01*
X111361180Y-89710398D02*
X111361180Y-89615160D01*
X111361180Y-89615160D02*
X111313561Y-89472303D01*
X111313561Y-89472303D02*
X111265942Y-89424684D01*
X110361180Y-88519922D02*
X110361180Y-88996112D01*
X110361180Y-88996112D02*
X111361180Y-88996112D01*
X110361180Y-114221159D02*
X111361180Y-114221159D01*
X111361180Y-113554493D02*
X111361180Y-113364017D01*
X111361180Y-113364017D02*
X111313561Y-113268779D01*
X111313561Y-113268779D02*
X111218323Y-113173541D01*
X111218323Y-113173541D02*
X111027847Y-113125922D01*
X111027847Y-113125922D02*
X110694514Y-113125922D01*
X110694514Y-113125922D02*
X110504038Y-113173541D01*
X110504038Y-113173541D02*
X110408800Y-113268779D01*
X110408800Y-113268779D02*
X110361180Y-113364017D01*
X110361180Y-113364017D02*
X110361180Y-113554493D01*
X110361180Y-113554493D02*
X110408800Y-113649731D01*
X110408800Y-113649731D02*
X110504038Y-113744969D01*
X110504038Y-113744969D02*
X110694514Y-113792588D01*
X110694514Y-113792588D02*
X111027847Y-113792588D01*
X111027847Y-113792588D02*
X111218323Y-113744969D01*
X111218323Y-113744969D02*
X111313561Y-113649731D01*
X111313561Y-113649731D02*
X111361180Y-113554493D01*
X111265942Y-112744969D02*
X111313561Y-112697350D01*
X111313561Y-112697350D02*
X111361180Y-112602112D01*
X111361180Y-112602112D02*
X111361180Y-112364017D01*
X111361180Y-112364017D02*
X111313561Y-112268779D01*
X111313561Y-112268779D02*
X111265942Y-112221160D01*
X111265942Y-112221160D02*
X111170704Y-112173541D01*
X111170704Y-112173541D02*
X111075466Y-112173541D01*
X111075466Y-112173541D02*
X110932609Y-112221160D01*
X110932609Y-112221160D02*
X110361180Y-112792588D01*
X110361180Y-112792588D02*
X110361180Y-112173541D01*
X111361180Y-111840207D02*
X111361180Y-111173541D01*
X111361180Y-111173541D02*
X110361180Y-111602112D01*
X112948800Y-91043731D02*
X112901180Y-90900874D01*
X112901180Y-90900874D02*
X112901180Y-90662779D01*
X112901180Y-90662779D02*
X112948800Y-90567541D01*
X112948800Y-90567541D02*
X112996419Y-90519922D01*
X112996419Y-90519922D02*
X113091657Y-90472303D01*
X113091657Y-90472303D02*
X113186895Y-90472303D01*
X113186895Y-90472303D02*
X113282133Y-90519922D01*
X113282133Y-90519922D02*
X113329752Y-90567541D01*
X113329752Y-90567541D02*
X113377371Y-90662779D01*
X113377371Y-90662779D02*
X113424990Y-90853255D01*
X113424990Y-90853255D02*
X113472609Y-90948493D01*
X113472609Y-90948493D02*
X113520228Y-90996112D01*
X113520228Y-90996112D02*
X113615466Y-91043731D01*
X113615466Y-91043731D02*
X113710704Y-91043731D01*
X113710704Y-91043731D02*
X113805942Y-90996112D01*
X113805942Y-90996112D02*
X113853561Y-90948493D01*
X113853561Y-90948493D02*
X113901180Y-90853255D01*
X113901180Y-90853255D02*
X113901180Y-90615160D01*
X113901180Y-90615160D02*
X113853561Y-90472303D01*
X112901180Y-90043731D02*
X113901180Y-90043731D01*
X113901180Y-90043731D02*
X113901180Y-89805636D01*
X113901180Y-89805636D02*
X113853561Y-89662779D01*
X113853561Y-89662779D02*
X113758323Y-89567541D01*
X113758323Y-89567541D02*
X113663085Y-89519922D01*
X113663085Y-89519922D02*
X113472609Y-89472303D01*
X113472609Y-89472303D02*
X113329752Y-89472303D01*
X113329752Y-89472303D02*
X113139276Y-89519922D01*
X113139276Y-89519922D02*
X113044038Y-89567541D01*
X113044038Y-89567541D02*
X112948800Y-89662779D01*
X112948800Y-89662779D02*
X112901180Y-89805636D01*
X112901180Y-89805636D02*
X112901180Y-90043731D01*
X113186895Y-89091350D02*
X113186895Y-88615160D01*
X112901180Y-89186588D02*
X113901180Y-88853255D01*
X113901180Y-88853255D02*
X112901180Y-88519922D01*
X113028180Y-114221159D02*
X114028180Y-114221159D01*
X114028180Y-113554493D02*
X114028180Y-113364017D01*
X114028180Y-113364017D02*
X113980561Y-113268779D01*
X113980561Y-113268779D02*
X113885323Y-113173541D01*
X113885323Y-113173541D02*
X113694847Y-113125922D01*
X113694847Y-113125922D02*
X113361514Y-113125922D01*
X113361514Y-113125922D02*
X113171038Y-113173541D01*
X113171038Y-113173541D02*
X113075800Y-113268779D01*
X113075800Y-113268779D02*
X113028180Y-113364017D01*
X113028180Y-113364017D02*
X113028180Y-113554493D01*
X113028180Y-113554493D02*
X113075800Y-113649731D01*
X113075800Y-113649731D02*
X113171038Y-113744969D01*
X113171038Y-113744969D02*
X113361514Y-113792588D01*
X113361514Y-113792588D02*
X113694847Y-113792588D01*
X113694847Y-113792588D02*
X113885323Y-113744969D01*
X113885323Y-113744969D02*
X113980561Y-113649731D01*
X113980561Y-113649731D02*
X114028180Y-113554493D01*
X113932942Y-112744969D02*
X113980561Y-112697350D01*
X113980561Y-112697350D02*
X114028180Y-112602112D01*
X114028180Y-112602112D02*
X114028180Y-112364017D01*
X114028180Y-112364017D02*
X113980561Y-112268779D01*
X113980561Y-112268779D02*
X113932942Y-112221160D01*
X113932942Y-112221160D02*
X113837704Y-112173541D01*
X113837704Y-112173541D02*
X113742466Y-112173541D01*
X113742466Y-112173541D02*
X113599609Y-112221160D01*
X113599609Y-112221160D02*
X113028180Y-112792588D01*
X113028180Y-112792588D02*
X113028180Y-112173541D01*
X113599609Y-111602112D02*
X113647228Y-111697350D01*
X113647228Y-111697350D02*
X113694847Y-111744969D01*
X113694847Y-111744969D02*
X113790085Y-111792588D01*
X113790085Y-111792588D02*
X113837704Y-111792588D01*
X113837704Y-111792588D02*
X113932942Y-111744969D01*
X113932942Y-111744969D02*
X113980561Y-111697350D01*
X113980561Y-111697350D02*
X114028180Y-111602112D01*
X114028180Y-111602112D02*
X114028180Y-111411636D01*
X114028180Y-111411636D02*
X113980561Y-111316398D01*
X113980561Y-111316398D02*
X113932942Y-111268779D01*
X113932942Y-111268779D02*
X113837704Y-111221160D01*
X113837704Y-111221160D02*
X113790085Y-111221160D01*
X113790085Y-111221160D02*
X113694847Y-111268779D01*
X113694847Y-111268779D02*
X113647228Y-111316398D01*
X113647228Y-111316398D02*
X113599609Y-111411636D01*
X113599609Y-111411636D02*
X113599609Y-111602112D01*
X113599609Y-111602112D02*
X113551990Y-111697350D01*
X113551990Y-111697350D02*
X113504371Y-111744969D01*
X113504371Y-111744969D02*
X113409133Y-111792588D01*
X113409133Y-111792588D02*
X113218657Y-111792588D01*
X113218657Y-111792588D02*
X113123419Y-111744969D01*
X113123419Y-111744969D02*
X113075800Y-111697350D01*
X113075800Y-111697350D02*
X113028180Y-111602112D01*
X113028180Y-111602112D02*
X113028180Y-111411636D01*
X113028180Y-111411636D02*
X113075800Y-111316398D01*
X113075800Y-111316398D02*
X113123419Y-111268779D01*
X113123419Y-111268779D02*
X113218657Y-111221160D01*
X113218657Y-111221160D02*
X113409133Y-111221160D01*
X113409133Y-111221160D02*
X113504371Y-111268779D01*
X113504371Y-111268779D02*
X113551990Y-111316398D01*
X113551990Y-111316398D02*
X113599609Y-111411636D01*
X115441180Y-91170778D02*
X116441180Y-91170778D01*
X116441180Y-90504112D02*
X116441180Y-90313636D01*
X116441180Y-90313636D02*
X116393561Y-90218398D01*
X116393561Y-90218398D02*
X116298323Y-90123160D01*
X116298323Y-90123160D02*
X116107847Y-90075541D01*
X116107847Y-90075541D02*
X115774514Y-90075541D01*
X115774514Y-90075541D02*
X115584038Y-90123160D01*
X115584038Y-90123160D02*
X115488800Y-90218398D01*
X115488800Y-90218398D02*
X115441180Y-90313636D01*
X115441180Y-90313636D02*
X115441180Y-90504112D01*
X115441180Y-90504112D02*
X115488800Y-90599350D01*
X115488800Y-90599350D02*
X115584038Y-90694588D01*
X115584038Y-90694588D02*
X115774514Y-90742207D01*
X115774514Y-90742207D02*
X116107847Y-90742207D01*
X116107847Y-90742207D02*
X116298323Y-90694588D01*
X116298323Y-90694588D02*
X116393561Y-90599350D01*
X116393561Y-90599350D02*
X116441180Y-90504112D01*
X116441180Y-89742207D02*
X116441180Y-89123160D01*
X116441180Y-89123160D02*
X116060228Y-89456493D01*
X116060228Y-89456493D02*
X116060228Y-89313636D01*
X116060228Y-89313636D02*
X116012609Y-89218398D01*
X116012609Y-89218398D02*
X115964990Y-89170779D01*
X115964990Y-89170779D02*
X115869752Y-89123160D01*
X115869752Y-89123160D02*
X115631657Y-89123160D01*
X115631657Y-89123160D02*
X115536419Y-89170779D01*
X115536419Y-89170779D02*
X115488800Y-89218398D01*
X115488800Y-89218398D02*
X115441180Y-89313636D01*
X115441180Y-89313636D02*
X115441180Y-89599350D01*
X115441180Y-89599350D02*
X115488800Y-89694588D01*
X115488800Y-89694588D02*
X115536419Y-89742207D01*
X115441180Y-114094159D02*
X116441180Y-114094159D01*
X116441180Y-113427493D02*
X116441180Y-113237017D01*
X116441180Y-113237017D02*
X116393561Y-113141779D01*
X116393561Y-113141779D02*
X116298323Y-113046541D01*
X116298323Y-113046541D02*
X116107847Y-112998922D01*
X116107847Y-112998922D02*
X115774514Y-112998922D01*
X115774514Y-112998922D02*
X115584038Y-113046541D01*
X115584038Y-113046541D02*
X115488800Y-113141779D01*
X115488800Y-113141779D02*
X115441180Y-113237017D01*
X115441180Y-113237017D02*
X115441180Y-113427493D01*
X115441180Y-113427493D02*
X115488800Y-113522731D01*
X115488800Y-113522731D02*
X115584038Y-113617969D01*
X115584038Y-113617969D02*
X115774514Y-113665588D01*
X115774514Y-113665588D02*
X116107847Y-113665588D01*
X116107847Y-113665588D02*
X116298323Y-113617969D01*
X116298323Y-113617969D02*
X116393561Y-113522731D01*
X116393561Y-113522731D02*
X116441180Y-113427493D01*
X116345942Y-112617969D02*
X116393561Y-112570350D01*
X116393561Y-112570350D02*
X116441180Y-112475112D01*
X116441180Y-112475112D02*
X116441180Y-112237017D01*
X116441180Y-112237017D02*
X116393561Y-112141779D01*
X116393561Y-112141779D02*
X116345942Y-112094160D01*
X116345942Y-112094160D02*
X116250704Y-112046541D01*
X116250704Y-112046541D02*
X116155466Y-112046541D01*
X116155466Y-112046541D02*
X116012609Y-112094160D01*
X116012609Y-112094160D02*
X115441180Y-112665588D01*
X115441180Y-112665588D02*
X115441180Y-112046541D01*
X115441180Y-111570350D02*
X115441180Y-111379874D01*
X115441180Y-111379874D02*
X115488800Y-111284636D01*
X115488800Y-111284636D02*
X115536419Y-111237017D01*
X115536419Y-111237017D02*
X115679276Y-111141779D01*
X115679276Y-111141779D02*
X115869752Y-111094160D01*
X115869752Y-111094160D02*
X116250704Y-111094160D01*
X116250704Y-111094160D02*
X116345942Y-111141779D01*
X116345942Y-111141779D02*
X116393561Y-111189398D01*
X116393561Y-111189398D02*
X116441180Y-111284636D01*
X116441180Y-111284636D02*
X116441180Y-111475112D01*
X116441180Y-111475112D02*
X116393561Y-111570350D01*
X116393561Y-111570350D02*
X116345942Y-111617969D01*
X116345942Y-111617969D02*
X116250704Y-111665588D01*
X116250704Y-111665588D02*
X116012609Y-111665588D01*
X116012609Y-111665588D02*
X115917371Y-111617969D01*
X115917371Y-111617969D02*
X115869752Y-111570350D01*
X115869752Y-111570350D02*
X115822133Y-111475112D01*
X115822133Y-111475112D02*
X115822133Y-111284636D01*
X115822133Y-111284636D02*
X115869752Y-111189398D01*
X115869752Y-111189398D02*
X115917371Y-111141779D01*
X115917371Y-111141779D02*
X116012609Y-111094160D01*
X117981180Y-91170778D02*
X118981180Y-91170778D01*
X118981180Y-90504112D02*
X118981180Y-90313636D01*
X118981180Y-90313636D02*
X118933561Y-90218398D01*
X118933561Y-90218398D02*
X118838323Y-90123160D01*
X118838323Y-90123160D02*
X118647847Y-90075541D01*
X118647847Y-90075541D02*
X118314514Y-90075541D01*
X118314514Y-90075541D02*
X118124038Y-90123160D01*
X118124038Y-90123160D02*
X118028800Y-90218398D01*
X118028800Y-90218398D02*
X117981180Y-90313636D01*
X117981180Y-90313636D02*
X117981180Y-90504112D01*
X117981180Y-90504112D02*
X118028800Y-90599350D01*
X118028800Y-90599350D02*
X118124038Y-90694588D01*
X118124038Y-90694588D02*
X118314514Y-90742207D01*
X118314514Y-90742207D02*
X118647847Y-90742207D01*
X118647847Y-90742207D02*
X118838323Y-90694588D01*
X118838323Y-90694588D02*
X118933561Y-90599350D01*
X118933561Y-90599350D02*
X118981180Y-90504112D01*
X118885942Y-89694588D02*
X118933561Y-89646969D01*
X118933561Y-89646969D02*
X118981180Y-89551731D01*
X118981180Y-89551731D02*
X118981180Y-89313636D01*
X118981180Y-89313636D02*
X118933561Y-89218398D01*
X118933561Y-89218398D02*
X118885942Y-89170779D01*
X118885942Y-89170779D02*
X118790704Y-89123160D01*
X118790704Y-89123160D02*
X118695466Y-89123160D01*
X118695466Y-89123160D02*
X118552609Y-89170779D01*
X118552609Y-89170779D02*
X117981180Y-89742207D01*
X117981180Y-89742207D02*
X117981180Y-89123160D01*
X120521180Y-91170778D02*
X121521180Y-91170778D01*
X121521180Y-90504112D02*
X121521180Y-90313636D01*
X121521180Y-90313636D02*
X121473561Y-90218398D01*
X121473561Y-90218398D02*
X121378323Y-90123160D01*
X121378323Y-90123160D02*
X121187847Y-90075541D01*
X121187847Y-90075541D02*
X120854514Y-90075541D01*
X120854514Y-90075541D02*
X120664038Y-90123160D01*
X120664038Y-90123160D02*
X120568800Y-90218398D01*
X120568800Y-90218398D02*
X120521180Y-90313636D01*
X120521180Y-90313636D02*
X120521180Y-90504112D01*
X120521180Y-90504112D02*
X120568800Y-90599350D01*
X120568800Y-90599350D02*
X120664038Y-90694588D01*
X120664038Y-90694588D02*
X120854514Y-90742207D01*
X120854514Y-90742207D02*
X121187847Y-90742207D01*
X121187847Y-90742207D02*
X121378323Y-90694588D01*
X121378323Y-90694588D02*
X121473561Y-90599350D01*
X121473561Y-90599350D02*
X121521180Y-90504112D01*
X120521180Y-89123160D02*
X120521180Y-89694588D01*
X120521180Y-89408874D02*
X121521180Y-89408874D01*
X121521180Y-89408874D02*
X121378323Y-89504112D01*
X121378323Y-89504112D02*
X121283085Y-89599350D01*
X121283085Y-89599350D02*
X121235466Y-89694588D01*
X123061180Y-91170778D02*
X124061180Y-91170778D01*
X124061180Y-90504112D02*
X124061180Y-90313636D01*
X124061180Y-90313636D02*
X124013561Y-90218398D01*
X124013561Y-90218398D02*
X123918323Y-90123160D01*
X123918323Y-90123160D02*
X123727847Y-90075541D01*
X123727847Y-90075541D02*
X123394514Y-90075541D01*
X123394514Y-90075541D02*
X123204038Y-90123160D01*
X123204038Y-90123160D02*
X123108800Y-90218398D01*
X123108800Y-90218398D02*
X123061180Y-90313636D01*
X123061180Y-90313636D02*
X123061180Y-90504112D01*
X123061180Y-90504112D02*
X123108800Y-90599350D01*
X123108800Y-90599350D02*
X123204038Y-90694588D01*
X123204038Y-90694588D02*
X123394514Y-90742207D01*
X123394514Y-90742207D02*
X123727847Y-90742207D01*
X123727847Y-90742207D02*
X123918323Y-90694588D01*
X123918323Y-90694588D02*
X124013561Y-90599350D01*
X124013561Y-90599350D02*
X124061180Y-90504112D01*
X124061180Y-89456493D02*
X124061180Y-89361255D01*
X124061180Y-89361255D02*
X124013561Y-89266017D01*
X124013561Y-89266017D02*
X123965942Y-89218398D01*
X123965942Y-89218398D02*
X123870704Y-89170779D01*
X123870704Y-89170779D02*
X123680228Y-89123160D01*
X123680228Y-89123160D02*
X123442133Y-89123160D01*
X123442133Y-89123160D02*
X123251657Y-89170779D01*
X123251657Y-89170779D02*
X123156419Y-89218398D01*
X123156419Y-89218398D02*
X123108800Y-89266017D01*
X123108800Y-89266017D02*
X123061180Y-89361255D01*
X123061180Y-89361255D02*
X123061180Y-89456493D01*
X123061180Y-89456493D02*
X123108800Y-89551731D01*
X123108800Y-89551731D02*
X123156419Y-89599350D01*
X123156419Y-89599350D02*
X123251657Y-89646969D01*
X123251657Y-89646969D02*
X123442133Y-89694588D01*
X123442133Y-89694588D02*
X123680228Y-89694588D01*
X123680228Y-89694588D02*
X123870704Y-89646969D01*
X123870704Y-89646969D02*
X123965942Y-89599350D01*
X123965942Y-89599350D02*
X124013561Y-89551731D01*
X124013561Y-89551731D02*
X124061180Y-89456493D01*
D10*
X120842279Y-101232028D02*
X120842279Y-100232028D01*
X120842279Y-100517742D02*
X120770850Y-100374885D01*
X120770850Y-100374885D02*
X120699422Y-100303457D01*
X120699422Y-100303457D02*
X120556564Y-100232028D01*
X120556564Y-100232028D02*
X120413707Y-100232028D01*
X119913708Y-100232028D02*
X119913708Y-101732028D01*
X119913708Y-100303457D02*
X119770851Y-100232028D01*
X119770851Y-100232028D02*
X119485136Y-100232028D01*
X119485136Y-100232028D02*
X119342279Y-100303457D01*
X119342279Y-100303457D02*
X119270851Y-100374885D01*
X119270851Y-100374885D02*
X119199422Y-100517742D01*
X119199422Y-100517742D02*
X119199422Y-100946314D01*
X119199422Y-100946314D02*
X119270851Y-101089171D01*
X119270851Y-101089171D02*
X119342279Y-101160600D01*
X119342279Y-101160600D02*
X119485136Y-101232028D01*
X119485136Y-101232028D02*
X119770851Y-101232028D01*
X119770851Y-101232028D02*
X119913708Y-101160600D01*
X118627993Y-99874885D02*
X118556565Y-99803457D01*
X118556565Y-99803457D02*
X118413708Y-99732028D01*
X118413708Y-99732028D02*
X118056565Y-99732028D01*
X118056565Y-99732028D02*
X117913708Y-99803457D01*
X117913708Y-99803457D02*
X117842279Y-99874885D01*
X117842279Y-99874885D02*
X117770850Y-100017742D01*
X117770850Y-100017742D02*
X117770850Y-100160600D01*
X117770850Y-100160600D02*
X117842279Y-100374885D01*
X117842279Y-100374885D02*
X118699422Y-101232028D01*
X118699422Y-101232028D02*
X117770850Y-101232028D01*
X116842279Y-99732028D02*
X116699422Y-99732028D01*
X116699422Y-99732028D02*
X116556565Y-99803457D01*
X116556565Y-99803457D02*
X116485137Y-99874885D01*
X116485137Y-99874885D02*
X116413708Y-100017742D01*
X116413708Y-100017742D02*
X116342279Y-100303457D01*
X116342279Y-100303457D02*
X116342279Y-100660600D01*
X116342279Y-100660600D02*
X116413708Y-100946314D01*
X116413708Y-100946314D02*
X116485137Y-101089171D01*
X116485137Y-101089171D02*
X116556565Y-101160600D01*
X116556565Y-101160600D02*
X116699422Y-101232028D01*
X116699422Y-101232028D02*
X116842279Y-101232028D01*
X116842279Y-101232028D02*
X116985137Y-101160600D01*
X116985137Y-101160600D02*
X117056565Y-101089171D01*
X117056565Y-101089171D02*
X117127994Y-100946314D01*
X117127994Y-100946314D02*
X117199422Y-100660600D01*
X117199422Y-100660600D02*
X117199422Y-100303457D01*
X117199422Y-100303457D02*
X117127994Y-100017742D01*
X117127994Y-100017742D02*
X117056565Y-99874885D01*
X117056565Y-99874885D02*
X116985137Y-99803457D01*
X116985137Y-99803457D02*
X116842279Y-99732028D01*
X115056566Y-100232028D02*
X115056566Y-101232028D01*
X115413708Y-99660600D02*
X115770851Y-100732028D01*
X115770851Y-100732028D02*
X114842280Y-100732028D01*
X113985137Y-99732028D02*
X113842280Y-99732028D01*
X113842280Y-99732028D02*
X113699423Y-99803457D01*
X113699423Y-99803457D02*
X113627995Y-99874885D01*
X113627995Y-99874885D02*
X113556566Y-100017742D01*
X113556566Y-100017742D02*
X113485137Y-100303457D01*
X113485137Y-100303457D02*
X113485137Y-100660600D01*
X113485137Y-100660600D02*
X113556566Y-100946314D01*
X113556566Y-100946314D02*
X113627995Y-101089171D01*
X113627995Y-101089171D02*
X113699423Y-101160600D01*
X113699423Y-101160600D02*
X113842280Y-101232028D01*
X113842280Y-101232028D02*
X113985137Y-101232028D01*
X113985137Y-101232028D02*
X114127995Y-101160600D01*
X114127995Y-101160600D02*
X114199423Y-101089171D01*
X114199423Y-101089171D02*
X114270852Y-100946314D01*
X114270852Y-100946314D02*
X114342280Y-100660600D01*
X114342280Y-100660600D02*
X114342280Y-100303457D01*
X114342280Y-100303457D02*
X114270852Y-100017742D01*
X114270852Y-100017742D02*
X114199423Y-99874885D01*
X114199423Y-99874885D02*
X114127995Y-99803457D01*
X114127995Y-99803457D02*
X113985137Y-99732028D01*
X112842281Y-100660600D02*
X111699424Y-100660600D01*
X111127995Y-100232028D02*
X110342281Y-100232028D01*
X110342281Y-100232028D02*
X111127995Y-101232028D01*
X111127995Y-101232028D02*
X110342281Y-101232028D01*
X109199423Y-101160600D02*
X109342280Y-101232028D01*
X109342280Y-101232028D02*
X109627995Y-101232028D01*
X109627995Y-101232028D02*
X109770852Y-101160600D01*
X109770852Y-101160600D02*
X109842280Y-101017742D01*
X109842280Y-101017742D02*
X109842280Y-100446314D01*
X109842280Y-100446314D02*
X109770852Y-100303457D01*
X109770852Y-100303457D02*
X109627995Y-100232028D01*
X109627995Y-100232028D02*
X109342280Y-100232028D01*
X109342280Y-100232028D02*
X109199423Y-100303457D01*
X109199423Y-100303457D02*
X109127995Y-100446314D01*
X109127995Y-100446314D02*
X109127995Y-100589171D01*
X109127995Y-100589171D02*
X109842280Y-100732028D01*
X108485138Y-101232028D02*
X108485138Y-100232028D01*
X108485138Y-100517742D02*
X108413709Y-100374885D01*
X108413709Y-100374885D02*
X108342281Y-100303457D01*
X108342281Y-100303457D02*
X108199423Y-100232028D01*
X108199423Y-100232028D02*
X108056566Y-100232028D01*
X107342281Y-101232028D02*
X107485138Y-101160600D01*
X107485138Y-101160600D02*
X107556567Y-101089171D01*
X107556567Y-101089171D02*
X107627995Y-100946314D01*
X107627995Y-100946314D02*
X107627995Y-100517742D01*
X107627995Y-100517742D02*
X107556567Y-100374885D01*
X107556567Y-100374885D02*
X107485138Y-100303457D01*
X107485138Y-100303457D02*
X107342281Y-100232028D01*
X107342281Y-100232028D02*
X107127995Y-100232028D01*
X107127995Y-100232028D02*
X106985138Y-100303457D01*
X106985138Y-100303457D02*
X106913710Y-100374885D01*
X106913710Y-100374885D02*
X106842281Y-100517742D01*
X106842281Y-100517742D02*
X106842281Y-100946314D01*
X106842281Y-100946314D02*
X106913710Y-101089171D01*
X106913710Y-101089171D02*
X106985138Y-101160600D01*
X106985138Y-101160600D02*
X107127995Y-101232028D01*
X107127995Y-101232028D02*
X107342281Y-101232028D01*
D13*
X84719980Y-87940774D02*
X84624742Y-87655060D01*
X84624742Y-87655060D02*
X84529504Y-87559822D01*
X84529504Y-87559822D02*
X84339028Y-87464584D01*
X84339028Y-87464584D02*
X84053314Y-87464584D01*
X84053314Y-87464584D02*
X83862838Y-87559822D01*
X83862838Y-87559822D02*
X83767600Y-87655060D01*
X83767600Y-87655060D02*
X83672361Y-87845536D01*
X83672361Y-87845536D02*
X83672361Y-88607441D01*
X83672361Y-88607441D02*
X85672361Y-88607441D01*
X85672361Y-88607441D02*
X85672361Y-87940774D01*
X85672361Y-87940774D02*
X85577123Y-87750298D01*
X85577123Y-87750298D02*
X85481885Y-87655060D01*
X85481885Y-87655060D02*
X85291409Y-87559822D01*
X85291409Y-87559822D02*
X85100933Y-87559822D01*
X85100933Y-87559822D02*
X84910457Y-87655060D01*
X84910457Y-87655060D02*
X84815219Y-87750298D01*
X84815219Y-87750298D02*
X84719980Y-87940774D01*
X84719980Y-87940774D02*
X84719980Y-88607441D01*
X83672361Y-85750298D02*
X84719980Y-85750298D01*
X84719980Y-85750298D02*
X84910457Y-85845536D01*
X84910457Y-85845536D02*
X85005695Y-86036012D01*
X85005695Y-86036012D02*
X85005695Y-86416965D01*
X85005695Y-86416965D02*
X84910457Y-86607441D01*
X83767600Y-85750298D02*
X83672361Y-85940774D01*
X83672361Y-85940774D02*
X83672361Y-86416965D01*
X83672361Y-86416965D02*
X83767600Y-86607441D01*
X83767600Y-86607441D02*
X83958076Y-86702679D01*
X83958076Y-86702679D02*
X84148552Y-86702679D01*
X84148552Y-86702679D02*
X84339028Y-86607441D01*
X84339028Y-86607441D02*
X84434266Y-86416965D01*
X84434266Y-86416965D02*
X84434266Y-85940774D01*
X84434266Y-85940774D02*
X84529504Y-85750298D01*
X85005695Y-85083631D02*
X85005695Y-84321727D01*
X85672361Y-84797917D02*
X83958076Y-84797917D01*
X83958076Y-84797917D02*
X83767600Y-84702679D01*
X83767600Y-84702679D02*
X83672361Y-84512203D01*
X83672361Y-84512203D02*
X83672361Y-84321727D01*
X82910457Y-83083631D02*
X83005695Y-83178870D01*
X83005695Y-83178870D02*
X83291409Y-83369346D01*
X83291409Y-83369346D02*
X83481885Y-83464584D01*
X83481885Y-83464584D02*
X83767600Y-83559822D01*
X83767600Y-83559822D02*
X84243790Y-83655060D01*
X84243790Y-83655060D02*
X84624742Y-83655060D01*
X84624742Y-83655060D02*
X85100933Y-83559822D01*
X85100933Y-83559822D02*
X85386647Y-83464584D01*
X85386647Y-83464584D02*
X85577123Y-83369346D01*
X85577123Y-83369346D02*
X85862838Y-83178870D01*
X85862838Y-83178870D02*
X85958076Y-83083631D01*
X84434266Y-82321727D02*
X84434266Y-80797918D01*
X82910457Y-80036013D02*
X83005695Y-79940775D01*
X83005695Y-79940775D02*
X83291409Y-79750299D01*
X83291409Y-79750299D02*
X83481885Y-79655061D01*
X83481885Y-79655061D02*
X83767600Y-79559823D01*
X83767600Y-79559823D02*
X84243790Y-79464585D01*
X84243790Y-79464585D02*
X84624742Y-79464585D01*
X84624742Y-79464585D02*
X85100933Y-79559823D01*
X85100933Y-79559823D02*
X85386647Y-79655061D01*
X85386647Y-79655061D02*
X85577123Y-79750299D01*
X85577123Y-79750299D02*
X85862838Y-79940775D01*
X85862838Y-79940775D02*
X85958076Y-80036013D01*
X85100980Y-128580774D02*
X85005742Y-128295060D01*
X85005742Y-128295060D02*
X84910504Y-128199822D01*
X84910504Y-128199822D02*
X84720028Y-128104584D01*
X84720028Y-128104584D02*
X84434314Y-128104584D01*
X84434314Y-128104584D02*
X84243838Y-128199822D01*
X84243838Y-128199822D02*
X84148600Y-128295060D01*
X84148600Y-128295060D02*
X84053361Y-128485536D01*
X84053361Y-128485536D02*
X84053361Y-129247441D01*
X84053361Y-129247441D02*
X86053361Y-129247441D01*
X86053361Y-129247441D02*
X86053361Y-128580774D01*
X86053361Y-128580774D02*
X85958123Y-128390298D01*
X85958123Y-128390298D02*
X85862885Y-128295060D01*
X85862885Y-128295060D02*
X85672409Y-128199822D01*
X85672409Y-128199822D02*
X85481933Y-128199822D01*
X85481933Y-128199822D02*
X85291457Y-128295060D01*
X85291457Y-128295060D02*
X85196219Y-128390298D01*
X85196219Y-128390298D02*
X85100980Y-128580774D01*
X85100980Y-128580774D02*
X85100980Y-129247441D01*
X84053361Y-126390298D02*
X85100980Y-126390298D01*
X85100980Y-126390298D02*
X85291457Y-126485536D01*
X85291457Y-126485536D02*
X85386695Y-126676012D01*
X85386695Y-126676012D02*
X85386695Y-127056965D01*
X85386695Y-127056965D02*
X85291457Y-127247441D01*
X84148600Y-126390298D02*
X84053361Y-126580774D01*
X84053361Y-126580774D02*
X84053361Y-127056965D01*
X84053361Y-127056965D02*
X84148600Y-127247441D01*
X84148600Y-127247441D02*
X84339076Y-127342679D01*
X84339076Y-127342679D02*
X84529552Y-127342679D01*
X84529552Y-127342679D02*
X84720028Y-127247441D01*
X84720028Y-127247441D02*
X84815266Y-127056965D01*
X84815266Y-127056965D02*
X84815266Y-126580774D01*
X84815266Y-126580774D02*
X84910504Y-126390298D01*
X85386695Y-125723631D02*
X85386695Y-124961727D01*
X86053361Y-125437917D02*
X84339076Y-125437917D01*
X84339076Y-125437917D02*
X84148600Y-125342679D01*
X84148600Y-125342679D02*
X84053361Y-125152203D01*
X84053361Y-125152203D02*
X84053361Y-124961727D01*
X83291457Y-123723631D02*
X83386695Y-123818870D01*
X83386695Y-123818870D02*
X83672409Y-124009346D01*
X83672409Y-124009346D02*
X83862885Y-124104584D01*
X83862885Y-124104584D02*
X84148600Y-124199822D01*
X84148600Y-124199822D02*
X84624790Y-124295060D01*
X84624790Y-124295060D02*
X85005742Y-124295060D01*
X85005742Y-124295060D02*
X85481933Y-124199822D01*
X85481933Y-124199822D02*
X85767647Y-124104584D01*
X85767647Y-124104584D02*
X85958123Y-124009346D01*
X85958123Y-124009346D02*
X86243838Y-123818870D01*
X86243838Y-123818870D02*
X86339076Y-123723631D01*
X84815266Y-122961727D02*
X84815266Y-121437918D01*
X84053361Y-122199822D02*
X85577171Y-122199822D01*
X83291457Y-120676013D02*
X83386695Y-120580775D01*
X83386695Y-120580775D02*
X83672409Y-120390299D01*
X83672409Y-120390299D02*
X83862885Y-120295061D01*
X83862885Y-120295061D02*
X84148600Y-120199823D01*
X84148600Y-120199823D02*
X84624790Y-120104585D01*
X84624790Y-120104585D02*
X85005742Y-120104585D01*
X85005742Y-120104585D02*
X85481933Y-120199823D01*
X85481933Y-120199823D02*
X85767647Y-120295061D01*
X85767647Y-120295061D02*
X85958123Y-120390299D01*
X85958123Y-120390299D02*
X86243838Y-120580775D01*
X86243838Y-120580775D02*
X86339076Y-120676013D01*
%TO.C,J1*%
D14*
X101871000Y-110316000D02*
X101871000Y-107556000D01*
X122301000Y-107556000D02*
X101871000Y-107556000D01*
X122301000Y-110316000D02*
X101871000Y-110316000D01*
X122301000Y-110316000D02*
X122301000Y-107556000D01*
X123571000Y-110316000D02*
X124951000Y-110316000D01*
X124951000Y-110316000D02*
X124951000Y-108936000D01*
%TO.C,J2*%
X101871000Y-95106000D02*
X101871000Y-92346000D01*
X122301000Y-92346000D02*
X101871000Y-92346000D01*
X122301000Y-95106000D02*
X101871000Y-95106000D01*
X122301000Y-95106000D02*
X122301000Y-92346000D01*
X123571000Y-95106000D02*
X124951000Y-95106000D01*
X124951000Y-95106000D02*
X124951000Y-93726000D01*
%TO.C,J7*%
X89410000Y-133110750D02*
X92170000Y-133110750D01*
X89410000Y-138300750D02*
X89410000Y-133110750D01*
X89410000Y-138300750D02*
X92170000Y-138300750D01*
X89410000Y-139570750D02*
X89410000Y-140950750D01*
X89410000Y-140950750D02*
X90790000Y-140950750D01*
X92170000Y-138300750D02*
X92170000Y-133110750D01*
%TO.C,J3*%
X101871000Y-94820000D02*
X104631000Y-94820000D01*
X101871000Y-105090000D02*
X101871000Y-94820000D01*
X101871000Y-105090000D02*
X104631000Y-105090000D01*
X101871000Y-106360000D02*
X101871000Y-107740000D01*
X101871000Y-107740000D02*
X103251000Y-107740000D01*
X104631000Y-105090000D02*
X104631000Y-94820000D01*
%TO.C,J12*%
X91457000Y-127090000D02*
X91457000Y-127200000D01*
X94217000Y-124440000D02*
X92837000Y-124440000D01*
X94217000Y-125820000D02*
X94217000Y-124440000D01*
X94217000Y-127090000D02*
X91457000Y-127090000D01*
X94217000Y-127090000D02*
X94217000Y-127200000D01*
X94217000Y-127200000D02*
X91457000Y-127200000D01*
%TO.C,J13*%
X91965000Y-85090000D02*
X91965000Y-85200000D01*
X94725000Y-82440000D02*
X93345000Y-82440000D01*
X94725000Y-83820000D02*
X94725000Y-82440000D01*
X94725000Y-85090000D02*
X91965000Y-85090000D01*
X94725000Y-85090000D02*
X94725000Y-85200000D01*
X94725000Y-85200000D02*
X91965000Y-85200000D01*
%TD*%
M02*
