M48
; DRILL file KiCad 10.0.1 date 2026-08-08T13:34:43
; FORMAT={-:-/ absolute / metric / decimal}
; #@! TF.CreationDate,2026-08-08T13:34:43+09:00
; #@! TF.GenerationSoftware,Kicad,Pcbnew,10.0.1
; #@! TF.FileFunction,Plated,1,2,PTH
FMAT,2
METRIC
; #@! TA.AperFunction,Plated,PTH,ViaDrill
T1C0.300
; #@! TA.AperFunction,Plated,PTH,ComponentDrill
T2C1.000
; #@! TA.AperFunction,Plated,PTH,ComponentDrill
T3C3.200
%
G90
G05
T1
X93.853Y-130.175
X93.98Y-92.837
X93.98Y-101.473
X106.934Y-85.598
X108.331Y-138.938
X108.585Y-103.505
X109.22Y-115.316
X109.474Y-87.884
X117.475Y-88.773
X118.745Y-103.632
X121.158Y-114.935
X122.428Y-139.065
T2
X90.79Y-134.491
X90.79Y-137.031
X90.79Y-139.571
X90.932Y-74.295
X90.932Y-76.835
X92.837Y-125.82
X93.345Y-83.82
X93.472Y-74.295
X93.472Y-76.835
X96.012Y-74.295
X96.012Y-76.835
X97.79Y-135.509
X97.79Y-138.049
X97.79Y-140.589
X98.552Y-74.295
X98.552Y-76.835
X101.092Y-74.295
X101.092Y-76.835
X103.251Y-93.726
X103.251Y-96.2
X103.251Y-98.74
X103.251Y-101.28
X103.251Y-103.82
X103.251Y-106.36
X103.251Y-108.936
X103.632Y-74.295
X103.632Y-76.835
X105.791Y-93.726
X105.791Y-108.936
X106.172Y-74.295
X106.172Y-76.835
X108.331Y-93.726
X108.331Y-108.936
X108.651Y-120.015
X108.712Y-74.295
X108.712Y-76.835
X110.083Y-82.178
X110.871Y-93.726
X110.871Y-108.936
X111.191Y-120.015
X111.252Y-74.295
X111.252Y-76.835
X112.623Y-82.178
X113.411Y-93.726
X113.411Y-108.936
X113.731Y-120.015
X113.792Y-74.295
X113.792Y-76.835
X115.163Y-82.178
X115.951Y-93.726
X115.951Y-108.936
X116.271Y-120.015
X116.332Y-74.295
X116.332Y-76.835
X117.703Y-82.178
X118.491Y-93.726
X118.491Y-108.936
X118.811Y-120.015
X118.872Y-74.295
X118.872Y-76.835
X121.031Y-93.726
X121.031Y-108.936
X121.351Y-120.015
X121.412Y-74.295
X121.412Y-76.835
X123.571Y-93.726
X123.571Y-108.936
X123.952Y-74.295
X123.952Y-76.835
X126.492Y-74.295
X126.492Y-76.835
T3
X85.0Y-74.0
X85.0Y-143.5
X132.5Y-74.0
X132.5Y-143.5
M30
