%TF.GenerationSoftware,KiCad,Pcbnew,10.0.1*%
%TF.CreationDate,2026-08-09T09:28:37+09:00*%
%TF.ProjectId,PSCE-MI_Raspberry_PICO,50534345-2d4d-4495-9f52-617370626572,rev?*%
%TF.SameCoordinates,Original*%
%TF.FileFunction,Copper,L2,Bot*%
%TF.FilePolarity,Positive*%
%FSLAX46Y46*%
G04 Gerber Fmt 4.6, Leading zero omitted, Abs format (unit mm)*
G04 Created by KiCad (PCBNEW 10.0.1) date 2026-08-09 09:28:37*
%MOMM*%
%LPD*%
G01*
G04 APERTURE LIST*
G04 Aperture macros list*
%AMRoundRect*
0 Rectangle with rounded corners*
0 $1 Rounding radius*
0 $2 $3 $4 $5 $6 $7 $8 $9 X,Y pos of 4 corners*
0 Add a 4 corners polygon primitive as box body*
4,1,4,$2,$3,$4,$5,$6,$7,$8,$9,$2,$3,0*
0 Add four circle primitives for the rounded corners*
1,1,$1+$1,$2,$3*
1,1,$1+$1,$4,$5*
1,1,$1+$1,$6,$7*
1,1,$1+$1,$8,$9*
0 Add four rect primitives between the rounded corners*
20,1,$1+$1,$2,$3,$4,$5,0*
20,1,$1+$1,$4,$5,$6,$7,0*
20,1,$1+$1,$6,$7,$8,$9,0*
20,1,$1+$1,$8,$9,$2,$3,0*%
%AMFreePoly0*
4,1,37,0.603843,0.796157,0.639018,0.796157,0.711114,0.766294,0.766294,0.711114,0.796157,0.639018,0.796157,0.603843,0.800000,0.600000,0.800000,-0.600000,0.796157,-0.603843,0.796157,-0.639018,0.766294,-0.711114,0.711114,-0.766294,0.639018,-0.796157,0.603843,-0.796157,0.600000,-0.800000,0.000000,-0.800000,0.000000,-0.796148,-0.078414,-0.796148,-0.232228,-0.765552,-0.377117,-0.705537,
-0.507515,-0.618408,-0.618408,-0.507515,-0.705537,-0.377117,-0.765552,-0.232228,-0.796148,-0.078414,-0.796148,0.078414,-0.765552,0.232228,-0.705537,0.377117,-0.618408,0.507515,-0.507515,0.618408,-0.377117,0.705537,-0.232228,0.765552,-0.078414,0.796148,0.000000,0.796148,0.000000,0.800000,0.600000,0.800000,0.603843,0.796157,0.603843,0.796157,$1*%
%AMFreePoly1*
4,1,37,0.000000,0.796148,0.078414,0.796148,0.232228,0.765552,0.377117,0.705537,0.507515,0.618408,0.618408,0.507515,0.705537,0.377117,0.765552,0.232228,0.796148,0.078414,0.796148,-0.078414,0.765552,-0.232228,0.705537,-0.377117,0.618408,-0.507515,0.507515,-0.618408,0.377117,-0.705537,0.232228,-0.765552,0.078414,-0.796148,0.000000,-0.796148,0.000000,-0.800000,-0.600000,-0.800000,
-0.603843,-0.796157,-0.639018,-0.796157,-0.711114,-0.766294,-0.766294,-0.711114,-0.796157,-0.639018,-0.796157,-0.603843,-0.800000,-0.600000,-0.800000,0.600000,-0.796157,0.603843,-0.796157,0.639018,-0.766294,0.711114,-0.711114,0.766294,-0.639018,0.796157,-0.603843,0.796157,-0.600000,0.800000,0.000000,0.800000,0.000000,0.796148,0.000000,0.796148,$1*%
G04 Aperture macros list end*
%TA.AperFunction,ComponentPad*%
%ADD10C,5.600000*%
%TD*%
%TA.AperFunction,ComponentPad*%
%ADD11R,1.700000X1.700000*%
%TD*%
%TA.AperFunction,ComponentPad*%
%ADD12O,1.700000X1.700000*%
%TD*%
%TA.AperFunction,ComponentPad*%
%ADD13C,1.700000*%
%TD*%
%TA.AperFunction,ComponentPad*%
%ADD14C,1.600000*%
%TD*%
%TA.AperFunction,ComponentPad*%
%ADD15RoundRect,0.200000X-0.600000X-0.600000X0.600000X-0.600000X0.600000X0.600000X-0.600000X0.600000X0*%
%TD*%
%TA.AperFunction,ComponentPad*%
%ADD16FreePoly0,0.000000*%
%TD*%
%TA.AperFunction,ComponentPad*%
%ADD17FreePoly1,0.000000*%
%TD*%
%TA.AperFunction,ComponentPad*%
%ADD18C,2.000000*%
%TD*%
%TA.AperFunction,ViaPad*%
%ADD19C,0.600000*%
%TD*%
%TA.AperFunction,Conductor*%
%ADD20C,0.300000*%
%TD*%
%TA.AperFunction,Conductor*%
%ADD21C,0.200000*%
%TD*%
G04 APERTURE END LIST*
D10*
%TO.P,H3,1*%
%TO.N,N/C*%
X168000000Y-93000000D03*
%TD*%
%TO.P,H4,1*%
%TO.N,N/C*%
X168000000Y-150000000D03*
%TD*%
D11*
%TO.P,J2,1,Pin_1_1*%
%TO.N,/FPGA_8*%
X112000000Y-115860000D03*
D12*
%TO.P,J2,2,Pin_2_2*%
%TO.N,/FPGA_9*%
X114540000Y-115860000D03*
%TO.P,J2,3,Pin_3_3*%
%TO.N,/FPGA_10*%
X112000000Y-118400000D03*
%TO.P,J2,4,Pin_4_4*%
%TO.N,/FPGA_11*%
X114540000Y-118400000D03*
%TO.P,J2,5,Pin_5_5*%
%TO.N,/FPGA_12*%
X112000000Y-120940000D03*
%TO.P,J2,6,Pin_6_6*%
%TO.N,/FPGA_13*%
X114540000Y-120940000D03*
%TO.P,J2,7,Pin_7_7*%
%TO.N,/FPGA_14*%
X112000000Y-123480000D03*
%TO.P,J2,8,Pin_8_8*%
%TO.N,/FPGA_15*%
X114540000Y-123480000D03*
%TO.P,J2,9,Pin_9_9*%
%TO.N,GND*%
X112000000Y-126020000D03*
%TO.P,J2,10,Pin_10_10*%
X114540000Y-126020000D03*
%TO.P,J2,11,Pin_11_11*%
%TO.N,Net-(J1-Pin_11)*%
X112000000Y-128560000D03*
%TO.P,J2,12,Pin_12_12*%
X114540000Y-128560000D03*
%TD*%
D11*
%TO.P,J3,1,Pin_1_1*%
%TO.N,/FPGA_16*%
X112000000Y-138720000D03*
D12*
%TO.P,J3,2,Pin_2_2*%
%TO.N,/FPGA_17*%
X114540000Y-138720000D03*
%TO.P,J3,3,Pin_3_3*%
%TO.N,/FPGA_18*%
X112000000Y-141260000D03*
%TO.P,J3,4,Pin_4_4*%
%TO.N,/FPGA_19*%
X114540000Y-141260000D03*
%TO.P,J3,5,Pin_5_5*%
%TO.N,/FPGA_20*%
X112000000Y-143800000D03*
%TO.P,J3,6,Pin_6_6*%
%TO.N,/FPGA_21*%
X114540000Y-143800000D03*
%TO.P,J3,7,Pin_7_7*%
%TO.N,/FPGA_22*%
X112000000Y-146340000D03*
%TO.P,J3,8,Pin_8_8*%
%TO.N,/FPGA_23*%
X114540000Y-146340000D03*
%TO.P,J3,9,Pin_9_9*%
%TO.N,GND*%
X112000000Y-148880000D03*
%TO.P,J3,10,Pin_10_10*%
X114540000Y-148880000D03*
%TO.P,J3,11,Pin_11_11*%
%TO.N,Net-(J1-Pin_11)*%
X112000000Y-151420000D03*
%TO.P,J3,12,Pin_12_12*%
X114540000Y-151420000D03*
%TD*%
D11*
%TO.P,J9,1,Pin_1_1*%
%TO.N,GND*%
X155520000Y-118740000D03*
D13*
%TO.P,J9,2,Pin_2_2*%
X155520000Y-116200000D03*
%TO.P,J9,3,Pin_3_3*%
%TO.N,+3V3*%
X158060000Y-118740000D03*
%TO.P,J9,4,Pin_4_4*%
X158060000Y-116200000D03*
%TO.P,J9,5,Pin_5_5*%
%TO.N,/SCK*%
X160600000Y-118740000D03*
%TO.P,J9,6,Pin_6_6*%
X160600000Y-116200000D03*
%TO.P,J9,7,Pin_7_7*%
%TO.N,/SDA*%
X163140000Y-118740000D03*
%TO.P,J9,8,Pin_8_8*%
X163140000Y-116200000D03*
%TD*%
D11*
%TO.P,J1,1,Pin_1_1*%
%TO.N,/FPGA_0*%
X112000000Y-93000000D03*
D12*
%TO.P,J1,2,Pin_2_2*%
%TO.N,/FPGA_1*%
X114540000Y-93000000D03*
%TO.P,J1,3,Pin_3_3*%
%TO.N,/FPGA_2*%
X112000000Y-95540000D03*
%TO.P,J1,4,Pin_4_4*%
%TO.N,/FPGA_3*%
X114540000Y-95540000D03*
%TO.P,J1,5,Pin_5_5*%
%TO.N,/FPGA_4*%
X112000000Y-98080000D03*
%TO.P,J1,6,Pin_6_6*%
%TO.N,/FPGA_5*%
X114540000Y-98080000D03*
%TO.P,J1,7,Pin_7_7*%
%TO.N,/FPGA_6*%
X112000000Y-100620000D03*
%TO.P,J1,8,Pin_8_8*%
%TO.N,/FPGA_7*%
X114540000Y-100620000D03*
%TO.P,J1,9,Pin_9_9*%
%TO.N,GND*%
X112000000Y-103160000D03*
%TO.P,J1,10,Pin_10_10*%
X114540000Y-103160000D03*
%TO.P,J1,11,Pin_11_11*%
%TO.N,Net-(J1-Pin_11)*%
X112000000Y-105700000D03*
%TO.P,J1,12,Pin_12_12*%
X114540000Y-105700000D03*
%TD*%
D14*
%TO.P,C3,1*%
%TO.N,Net-(U1-RUN)*%
X160768000Y-95659000D03*
%TO.P,C3,2*%
%TO.N,GND*%
X160768000Y-98159000D03*
%TD*%
D15*
%TO.P,U1,1,GPIO0_1*%
%TO.N,/FPGA_0*%
X125220000Y-91500000D03*
D14*
%TO.P,U1,2,GPIO1_2*%
%TO.N,/FPGA_1*%
X125220000Y-94040000D03*
D16*
%TO.P,U1,3,GND_3*%
%TO.N,GND*%
X125220000Y-96580000D03*
D14*
%TO.P,U1,4,GPIO2_4*%
%TO.N,/FPGA_2*%
X125220000Y-99120000D03*
%TO.P,U1,5,GPIO3_5*%
%TO.N,/FPGA_3*%
X125220000Y-101660000D03*
%TO.P,U1,6,GPIO4_6*%
%TO.N,/SDA*%
X125220000Y-104200000D03*
%TO.P,U1,7,GPIO5_7*%
%TO.N,/SCK*%
X125220000Y-106740000D03*
D16*
%TO.P,U1,8,GND_8*%
%TO.N,GND*%
X125220000Y-109280000D03*
D14*
%TO.P,U1,9,GPIO6_9*%
%TO.N,/FPGA_6*%
X125220000Y-111820000D03*
%TO.P,U1,10,GPIO7_10*%
%TO.N,/FPGA_7*%
X125220000Y-114360000D03*
%TO.P,U1,11,GPIO8_11*%
%TO.N,/FPGA_8*%
X125220000Y-116900000D03*
%TO.P,U1,12,GPIO9_12*%
%TO.N,/FPGA_9*%
X125220000Y-119440000D03*
D16*
%TO.P,U1,13,GND_13*%
%TO.N,GND*%
X125220000Y-121980000D03*
D14*
%TO.P,U1,14,GPIO10_14*%
%TO.N,/FPGA_10*%
X125220000Y-124520000D03*
%TO.P,U1,15,GPIO11_15*%
%TO.N,/FPGA_11*%
X125220000Y-127060000D03*
%TO.P,U1,16,GPIO12_16*%
%TO.N,/FPGA_12*%
X125220000Y-129600000D03*
%TO.P,U1,17,GPIO13_17*%
%TO.N,/FPGA_13*%
X125220000Y-132140000D03*
D16*
%TO.P,U1,18,GND_18*%
%TO.N,GND*%
X125220000Y-134680000D03*
D14*
%TO.P,U1,19,GPIO14_19*%
%TO.N,/FPGA_14*%
X125220000Y-137220000D03*
%TO.P,U1,20,GPIO15_20*%
%TO.N,/FPGA_15*%
X125220000Y-139760000D03*
%TO.P,U1,21,GPIO16_21*%
%TO.N,/FPGA_16*%
X143000000Y-139760000D03*
%TO.P,U1,22,GPIO17_22*%
%TO.N,/FPGA_17*%
X143000000Y-137220000D03*
D17*
%TO.P,U1,23,GND_23*%
%TO.N,GND*%
X143000000Y-134680000D03*
D14*
%TO.P,U1,24,GPIO18_24*%
%TO.N,/FPGA_18*%
X143000000Y-132140000D03*
%TO.P,U1,25,GPIO19_25*%
%TO.N,/FPGA_19*%
X143000000Y-129600000D03*
%TO.P,U1,26,GPIO20_26*%
%TO.N,/FPGA_20*%
X143000000Y-127060000D03*
%TO.P,U1,27,GPIO21_27*%
%TO.N,/FPGA_21*%
X143000000Y-124520000D03*
D17*
%TO.P,U1,28,GND_28*%
%TO.N,GND*%
X143000000Y-121980000D03*
D14*
%TO.P,U1,29,GPIO22_29*%
%TO.N,/FPGA_22*%
X143000000Y-119440000D03*
%TO.P,U1,30,RUN_30*%
%TO.N,Net-(U1-RUN)*%
X143000000Y-116900000D03*
%TO.P,U1,31,GPIO26_ADC0_31*%
%TO.N,/FPGA_23*%
X143000000Y-114360000D03*
%TO.P,U1,32,GPIO27_ADC1_32*%
%TO.N,/FPGA_4*%
X143000000Y-111820000D03*
D17*
%TO.P,U1,33,AGND_33*%
%TO.N,GND*%
X143000000Y-109280000D03*
D14*
%TO.P,U1,34,GPIO28_ADC2_34*%
%TO.N,/FPGA_5*%
X143000000Y-106740000D03*
%TO.P,U1,35,ADC_VREF_35*%
%TO.N,unconnected-(U1-ADC_VREF-Pad35)*%
X143000000Y-104200000D03*
%TO.P,U1,36,3V3_36*%
%TO.N,+3V3*%
X143000000Y-101660000D03*
%TO.P,U1,37,3V3_EN_37*%
%TO.N,unconnected-(U1-3V3_EN-Pad37)*%
X143000000Y-99120000D03*
D17*
%TO.P,U1,38,GND_38*%
%TO.N,GND*%
X143000000Y-96580000D03*
D14*
%TO.P,U1,39,VSYS_39*%
%TO.N,unconnected-(U1-VSYS-Pad39)*%
X143000000Y-94040000D03*
%TO.P,U1,40,VBUS_40*%
%TO.N,+5V*%
X143000000Y-91500000D03*
%TD*%
D18*
%TO.P,SW1,1,1_1*%
%TO.N,Net-(U1-RUN)*%
X149606000Y-94179000D03*
%TO.P,SW1,2,2_2*%
X156106000Y-94179000D03*
%TO.P,SW1,3,K_3*%
%TO.N,GND*%
X149606000Y-98679000D03*
%TO.P,SW1,4,A_4*%
X156106000Y-98679000D03*
%TD*%
D10*
%TO.P,H1,1*%
%TO.N,N/C*%
X113538000Y-85344000D03*
%TD*%
%TO.P,H2,1*%
%TO.N,N/C*%
X113284000Y-158000000D03*
%TD*%
D11*
%TO.P,J5,1,Pin_1_1*%
%TO.N,+3V3*%
X130937000Y-149479000D03*
D13*
%TO.P,J5,2,Pin_2_2*%
%TO.N,Net-(J1-Pin_11)*%
X133477000Y-149479000D03*
%TO.P,J5,3,Pin_3_3*%
%TO.N,+5V*%
X136017000Y-149479000D03*
%TD*%
D19*
%TO.N,GND*%
X122936000Y-138430000D03*
X138938000Y-99949000D03*
X137100000Y-127000000D03*
X122809000Y-117602000D03*
X114554000Y-133096000D03*
X149479000Y-116459000D03*
X130100000Y-117500000D03*
X121500000Y-130000000D03*
X123190000Y-125222000D03*
X121793000Y-126873000D03*
X120396000Y-149225000D03*
X148336000Y-113411000D03*
X111200000Y-110400000D03*
X118491000Y-156718000D03*
X152400000Y-141097000D03*
X143002000Y-142113000D03*
X135890000Y-111760000D03*
X118618000Y-141224000D03*
X148082000Y-121920000D03*
X163322000Y-126746000D03*
%TD*%
%TO.N,Net-(J1-Pin_11)*%
D20*
X117300000Y-125800000D02*
X114540000Y-128560000D01*
X117500000Y-125000000D02*
X117300000Y-125200000D01*
D21*
X112000000Y-151420000D02*
X114540000Y-151420000D01*
D20*
X114500000Y-111000000D02*
X114500000Y-111600000D01*
X114500000Y-111600000D02*
X117500000Y-114600000D01*
X114540000Y-128560000D02*
X117000000Y-131020000D01*
D21*
X112000000Y-128560000D02*
X114540000Y-128560000D01*
D20*
X117300000Y-125200000D02*
X117300000Y-125800000D01*
X117500000Y-114600000D02*
X117500000Y-125000000D01*
X117000000Y-131020000D02*
X117000000Y-148960000D01*
D21*
X112000000Y-105700000D02*
X114540000Y-105700000D01*
D20*
X114540000Y-105700000D02*
X114540000Y-110960000D01*
X114540000Y-110960000D02*
X114500000Y-111000000D01*
X117000000Y-148960000D02*
X114540000Y-151420000D01*
%TO.N,/SCK*%
X154559000Y-113157000D02*
X147098500Y-120617500D01*
X160600000Y-116200000D02*
X160600000Y-118740000D01*
X134366000Y-108458000D02*
X134366000Y-115886000D01*
X132648000Y-106740000D02*
X134366000Y-108458000D01*
X160600000Y-116200000D02*
X157557000Y-113157000D01*
X139097500Y-120617500D02*
X134366000Y-115886000D01*
X157557000Y-113157000D02*
X154559000Y-113157000D01*
X147098500Y-120617500D02*
X139097500Y-120617500D01*
X125220000Y-106740000D02*
X132648000Y-106740000D01*
%TO.N,/SDA*%
X137383000Y-116363000D02*
X137383000Y-106268000D01*
X163140000Y-116200000D02*
X158446000Y-111506000D01*
X135315000Y-104200000D02*
X125220000Y-104200000D01*
X139070000Y-118050000D02*
X137383000Y-116363000D01*
X145983000Y-118050000D02*
X139070000Y-118050000D01*
X152527000Y-111506000D02*
X145983000Y-118050000D01*
X158446000Y-111506000D02*
X152527000Y-111506000D01*
X137383000Y-106268000D02*
X135315000Y-104200000D01*
X163140000Y-116200000D02*
X163140000Y-118740000D01*
%TO.N,Net-(U1-RUN)*%
X146685000Y-97100000D02*
X146685000Y-113215000D01*
X146685000Y-113215000D02*
X143000000Y-116900000D01*
X149606000Y-94179000D02*
X146685000Y-97100000D01*
%TO.N,+5V*%
X143000000Y-91500000D02*
X142530761Y-91500000D01*
X136295761Y-97735000D02*
X124642000Y-97735000D01*
X131826000Y-145288000D02*
X136017000Y-149479000D01*
X127127000Y-145288000D02*
X131826000Y-145288000D01*
X120142000Y-102235000D02*
X120142000Y-138303000D01*
X124642000Y-97735000D02*
X120142000Y-102235000D01*
X120142000Y-138303000D02*
X127127000Y-145288000D01*
X142530761Y-91500000D02*
X136295761Y-97735000D01*
%TD*%
%TA.AperFunction,Conductor*%
%TO.N,GND*%
G36*
X114074075Y-148687007D02*
G01*
X114040000Y-148814174D01*
X114040000Y-148945826D01*
X114074075Y-149072993D01*
X114106988Y-149130000D01*
X112433012Y-149130000D01*
X112465925Y-149072993D01*
X112500000Y-148945826D01*
X112500000Y-148814174D01*
X112465925Y-148687007D01*
X112433012Y-148630000D01*
X114106988Y-148630000D01*
X114074075Y-148687007D01*
G37*
%TD.AperFunction*%
%TA.AperFunction,Conductor*%
G36*
X114074075Y-125827007D02*
G01*
X114040000Y-125954174D01*
X114040000Y-126085826D01*
X114074075Y-126212993D01*
X114106988Y-126270000D01*
X112433012Y-126270000D01*
X112465925Y-126212993D01*
X112500000Y-126085826D01*
X112500000Y-125954174D01*
X112465925Y-125827007D01*
X112433012Y-125770000D01*
X114106988Y-125770000D01*
X114074075Y-125827007D01*
G37*
%TD.AperFunction*%
%TA.AperFunction,Conductor*%
G36*
X114074075Y-102967007D02*
G01*
X114040000Y-103094174D01*
X114040000Y-103225826D01*
X114074075Y-103352993D01*
X114106988Y-103410000D01*
X112433012Y-103410000D01*
X112465925Y-103352993D01*
X112500000Y-103225826D01*
X112500000Y-103094174D01*
X112465925Y-102967007D01*
X112433012Y-102910000D01*
X114106988Y-102910000D01*
X114074075Y-102967007D01*
G37*
%TD.AperFunction*%
%TA.AperFunction,Conductor*%
G36*
X111828403Y-82308185D02*
G01*
X111874158Y-82360989D01*
X111884102Y-82430147D01*
X111855077Y-82493703D01*
X111830255Y-82515602D01*
X111569532Y-82689811D01*
X111569518Y-82689821D01*
X111318841Y-82895546D01*
X111089546Y-83124841D01*
X110883821Y-83375518D01*
X110883811Y-83375532D01*
X110703657Y-83645151D01*
X110703646Y-83645169D01*
X110550788Y-83931145D01*
X110550786Y-83931150D01*
X110426686Y-84230752D01*
X110332548Y-84541086D01*
X110332545Y-84541097D01*
X110269287Y-84859125D01*
X110269284Y-84859142D01*
X110237500Y-85181860D01*
X110237500Y-85506139D01*
X110269284Y-85828857D01*
X110269287Y-85828874D01*
X110332545Y-86146902D01*
X110332548Y-86146913D01*
X110426686Y-86457247D01*
X110550786Y-86756849D01*
X110550788Y-86756854D01*
X110703646Y-87042830D01*
X110703657Y-87042848D01*
X110883811Y-87312467D01*
X110883821Y-87312481D01*
X111089546Y-87563158D01*
X111318841Y-87792453D01*
X111318846Y-87792457D01*
X111318847Y-87792458D01*
X111569524Y-87998183D01*
X111839158Y-88178347D01*
X111839167Y-88178352D01*
X111839169Y-88178353D01*
X112125145Y-88331211D01*
X112125147Y-88331211D01*
X112125153Y-88331215D01*
X112424754Y-88455314D01*
X112735077Y-88549449D01*
X112735083Y-88549450D01*
X112735086Y-88549451D01*
X112735097Y-88549454D01*
X112934528Y-88589122D01*
X113053132Y-88612714D01*
X113375857Y-88644500D01*
X113375860Y-88644500D01*
X113700140Y-88644500D01*
X113700143Y-88644500D01*
X114022868Y-88612714D01*
X114180295Y-88581399D01*
X114340902Y-88549454D01*
X114340913Y-88549451D01*
X114340913Y-88549450D01*
X114340923Y-88549449D01*
X114651246Y-88455314D01*
X114950847Y-88331215D01*
X115236842Y-88178347D01*
X115506476Y-87998183D01*
X115757153Y-87792458D01*
X115986458Y-87563153D01*
X116192183Y-87312476D01*
X116372347Y-87042842D01*
X116525215Y-86756847D01*
X116649314Y-86457246D01*
X116743449Y-86146923D01*
X116743451Y-86146913D01*
X116743454Y-86146902D01*
X116775399Y-85986295D01*
X116806714Y-85828868D01*
X116838500Y-85506143D01*
X116838500Y-85181857D01*
X116806714Y-84859132D01*
X116783122Y-84740528D01*
X116743454Y-84541097D01*
X116743451Y-84541086D01*
X116743450Y-84541083D01*
X116743449Y-84541077D01*
X116649314Y-84230754D01*
X116525215Y-83931153D01*
X116372347Y-83645158D01*
X116192183Y-83375524D01*
X115986458Y-83124847D01*
X115986457Y-83124846D01*
X115986453Y-83124841D01*
X115757158Y-82895546D01*
X115506481Y-82689821D01*
X115506480Y-82689820D01*
X115506476Y-82689817D01*
X115245744Y-82515601D01*
X115200940Y-82461990D01*
X115192233Y-82392665D01*
X115222387Y-82329638D01*
X115281830Y-82292918D01*
X115314636Y-82288500D01*
X118999548Y-82288500D01*
X119066587Y-82308185D01*
X119109736Y-82355627D01*
X122974511Y-89843629D01*
X122977608Y-89855186D01*
X123004654Y-89902032D01*
X123029466Y-89950104D01*
X123037518Y-89958953D01*
X123043500Y-89969314D01*
X123081745Y-90007559D01*
X123083705Y-90009713D01*
X123083706Y-90009715D01*
X123118151Y-90047571D01*
X123118157Y-90047576D01*
X123118158Y-90047577D01*
X123128227Y-90054041D01*
X123136686Y-90062500D01*
X123183522Y-90089540D01*
X123185989Y-90091124D01*
X123229052Y-90118770D01*
X123229057Y-90118773D01*
X123240451Y-90122409D01*
X123250814Y-90128392D01*
X123303068Y-90142393D01*
X123354601Y-90158840D01*
X123366552Y-90159403D01*
X123378108Y-90162500D01*
X123432197Y-90162500D01*
X123463827Y-90163991D01*
X123486237Y-90165049D01*
X123486237Y-90165048D01*
X123486238Y-90165049D01*
X123486238Y-90165048D01*
X123492531Y-90164520D01*
X123511290Y-90162500D01*
X124067480Y-90162500D01*
X124134519Y-90182185D01*
X124180274Y-90234989D01*
X124190218Y-90304147D01*
X124161193Y-90367703D01*
X124155161Y-90374181D01*
X124064531Y-90464810D01*
X124064530Y-90464811D01*
X123976522Y-90610393D01*
X123925913Y-90772807D01*
X123919500Y-90843386D01*
X123919500Y-92156613D01*
X123925913Y-92227192D01*
X123925913Y-92227194D01*
X123925914Y-92227196D01*
X123976522Y-92389606D01*
X124052405Y-92515132D01*
X124064530Y-92535188D01*
X124184811Y-92655469D01*
X124184813Y-92655470D01*
X124184815Y-92655472D01*
X124330394Y-92743478D01*
X124417566Y-92770641D01*
X124475712Y-92809378D01*
X124503686Y-92873403D01*
X124492605Y-92942388D01*
X124453560Y-92989344D01*
X124372782Y-93048032D01*
X124228028Y-93192786D01*
X124107715Y-93358386D01*
X124014781Y-93540776D01*
X123951522Y-93735465D01*
X123919500Y-93937648D01*
X123919500Y-94142351D01*
X123951522Y-94344534D01*
X124014781Y-94539223D01*
X124107715Y-94721613D01*
X124228028Y-94887213D01*
X124372786Y-95031971D01*
X124538388Y-95152286D01*
X124538390Y-95152287D01*
X124624294Y-95196057D01*
X124675090Y-95244031D01*
X124691886Y-95311852D01*
X124669349Y-95377987D01*
X124626455Y-95415899D01*
X124560494Y-95451157D01*
X124560489Y-95451160D01*
X124491086Y-95497532D01*
X124491085Y-95497533D01*
X125090590Y-96097037D01*
X125027007Y-96114075D01*
X124912993Y-96179901D01*
X124819901Y-96272993D01*
X124754075Y-96387007D01*
X124737037Y-96450590D01*
X124137533Y-95851085D01*
X124137532Y-95851086D01*
X124091161Y-95920488D01*
X124044490Y-96007801D01*
X123984185Y-96153387D01*
X123955444Y-96248135D01*
X123924701Y-96402697D01*
X123924701Y-96402700D01*
X123915000Y-96501210D01*
X123915000Y-96658789D01*
X123924701Y-96757299D01*
X123924701Y-96757302D01*
X123955444Y-96911864D01*
X123984185Y-97006612D01*
X124044491Y-97152200D01*
X124044493Y-97152205D01*
X124091830Y-97240765D01*
X124106072Y-97309167D01*
X124081072Y-97374411D01*
X124070153Y-97386899D01*
X119636726Y-101820326D01*
X119565534Y-101926874D01*
X119516499Y-102045255D01*
X119516497Y-102045261D01*
X119491500Y-102170928D01*
X119491500Y-102170931D01*
X119491500Y-138367069D01*
X119491500Y-138367071D01*
X119491499Y-138367071D01*
X119509886Y-138459500D01*
X119509886Y-138459501D01*
X119516496Y-138492737D01*
X119516498Y-138492742D01*
X119565534Y-138611125D01*
X119636726Y-138717673D01*
X126712326Y-145793273D01*
X126712329Y-145793275D01*
X126712331Y-145793277D01*
X126818873Y-145864465D01*
X126937256Y-145913501D01*
X126937260Y-145913501D01*
X126937261Y-145913502D01*
X127062928Y-145938500D01*
X127062931Y-145938500D01*
X127191069Y-145938500D01*
X131505192Y-145938500D01*
X131572231Y-145958185D01*
X131592873Y-145974819D01*
X133534873Y-147916819D01*
X133568358Y-147978142D01*
X133563374Y-148047834D01*
X133521502Y-148103767D01*
X133456038Y-148128184D01*
X133447192Y-148128500D01*
X133370713Y-148128500D01*
X133322042Y-148136208D01*
X133160760Y-148161753D01*
X132958585Y-148227444D01*
X132769179Y-148323951D01*
X132597215Y-148448889D01*
X132483673Y-148562431D01*
X132422350Y-148595915D01*
X132352658Y-148590931D01*
X132296725Y-148549059D01*
X132279810Y-148518082D01*
X132230797Y-148386671D01*
X132230793Y-148386664D01*
X132144547Y-148271455D01*
X132144544Y-148271452D01*
X132029335Y-148185206D01*
X132029328Y-148185202D01*
X131894482Y-148134908D01*
X131894483Y-148134908D01*
X131834883Y-148128501D01*
X131834881Y-148128500D01*
X131834873Y-148128500D01*
X131834864Y-148128500D01*
X130039129Y-148128500D01*
X130039123Y-148128501D01*
X129979516Y-148134908D01*
X129844671Y-148185202D01*
X129844664Y-148185206D01*
X129729455Y-148271452D01*
X129729452Y-148271455D01*
X129643206Y-148386664D01*
X129643202Y-148386671D01*
X129592908Y-148521517D01*
X129586501Y-148581116D01*
X129586500Y-148581135D01*
X129586500Y-150376870D01*
X129586501Y-150376876D01*
X129592908Y-150436483D01*
X129643202Y-150571328D01*
X129643206Y-150571335D01*
X129729452Y-150686544D01*
X129729455Y-150686547D01*
X129844664Y-150772793D01*
X129844671Y-150772797D01*
X129979517Y-150823091D01*
X129979516Y-150823091D01*
X129986444Y-150823835D01*
X130039127Y-150829500D01*
X131834872Y-150829499D01*
X131894483Y-150823091D01*
X132029331Y-150772796D01*
X132144546Y-150686546D01*
X132230796Y-150571331D01*
X132279810Y-150439916D01*
X132321681Y-150383984D01*
X132387145Y-150359566D01*
X132455418Y-150374417D01*
X132483673Y-150395569D01*
X132597213Y-150509109D01*
X132769179Y-150634048D01*
X132769181Y-150634049D01*
X132769184Y-150634051D01*
X132958588Y-150730557D01*
X133160757Y-150796246D01*
X133370713Y-150829500D01*
X133370714Y-150829500D01*
X133583286Y-150829500D01*
X133583287Y-150829500D01*
X133793243Y-150796246D01*
X133995412Y-150730557D01*
X134184816Y-150634051D01*
X134271138Y-150571335D01*
X134356786Y-150509109D01*
X134356788Y-150509106D01*
X134356792Y-150509104D01*
X134507104Y-150358792D01*
X134507106Y-150358788D01*
X134507109Y-150358786D01*
X134632048Y-150186820D01*
X134632047Y-150186820D01*
X134632051Y-150186816D01*
X134636514Y-150178054D01*
X134684488Y-150127259D01*
X134752308Y-150110463D01*
X134818444Y-150132999D01*
X134857486Y-150178056D01*
X134861951Y-150186820D01*
X134986890Y-150358786D01*
X135137213Y-150509109D01*
X135309179Y-150634048D01*
X135309181Y-150634049D01*
X135309184Y-150634051D01*
X135498588Y-150730557D01*
X135700757Y-150796246D01*
X135910713Y-150829500D01*
X135910714Y-150829500D01*
X136123286Y-150829500D01*
X136123287Y-150829500D01*
X136333243Y-150796246D01*
X136535412Y-150730557D01*
X136724816Y-150634051D01*
X136811138Y-150571335D01*
X136896786Y-150509109D01*
X136896788Y-150509106D01*
X136896792Y-150509104D01*
X137047104Y-150358792D01*
X137047106Y-150358788D01*
X137047109Y-150358786D01*
X137172048Y-150186820D01*
X137172047Y-150186820D01*
X137172051Y-150186816D01*
X137268557Y-149997412D01*
X137334246Y-149795243D01*
X137367500Y-149585287D01*
X137367500Y-149372713D01*
X137334246Y-149162757D01*
X137268557Y-148960588D01*
X137172051Y-148771184D01*
X137172049Y-148771181D01*
X137172048Y-148771179D01*
X137047109Y-148599213D01*
X136896786Y-148448890D01*
X136724820Y-148323951D01*
X136535414Y-148227444D01*
X136535413Y-148227443D01*
X136535412Y-148227443D01*
X136333243Y-148161754D01*
X136333241Y-148161753D01*
X136333240Y-148161753D01*
X136171957Y-148136208D01*
X136123287Y-148128500D01*
X135910713Y-148128500D01*
X135800888Y-148145894D01*
X135695945Y-148162516D01*
X135695686Y-148160882D01*
X135633094Y-148157730D01*
X135586288Y-148128342D01*
X132240674Y-144782727D01*
X132240673Y-144782726D01*
X132240669Y-144782723D01*
X132134127Y-144711535D01*
X132057478Y-144679786D01*
X132015744Y-144662499D01*
X132015738Y-144662497D01*
X131890071Y-144637500D01*
X131890069Y-144637500D01*
X127447808Y-144637500D01*
X127380769Y-144617815D01*
X127360127Y-144601181D01*
X120828819Y-138069873D01*
X120795334Y-138008550D01*
X120792500Y-137982192D01*
X120792500Y-102555807D01*
X120812185Y-102488768D01*
X120828814Y-102468131D01*
X123789041Y-99507903D01*
X123850362Y-99474420D01*
X123920054Y-99479404D01*
X123975987Y-99521276D01*
X123994650Y-99557267D01*
X124005252Y-99589896D01*
X124014781Y-99619221D01*
X124107715Y-99801613D01*
X124228028Y-99967213D01*
X124372786Y-100111971D01*
X124527749Y-100224556D01*
X124538390Y-100232287D01*
X124629840Y-100278883D01*
X124631080Y-100279515D01*
X124681876Y-100327490D01*
X124698671Y-100395311D01*
X124676134Y-100461446D01*
X124631080Y-100500485D01*
X124538386Y-100547715D01*
X124372786Y-100668028D01*
X124228028Y-100812786D01*
X124107715Y-100978386D01*
X124014781Y-101160776D01*
X123951522Y-101355465D01*
X123919500Y-101557648D01*
X123919500Y-101762351D01*
X123951522Y-101964534D01*
X124014781Y-102159223D01*
X124107715Y-102341613D01*
X124228028Y-102507213D01*
X124372786Y-102651971D01*
X124521342Y-102759901D01*
X124538390Y-102772287D01*
X124629840Y-102818883D01*
X124631080Y-102819515D01*
X124681876Y-102867490D01*
X124698671Y-102935311D01*
X124676134Y-103001446D01*
X124631080Y-103040485D01*
X124538386Y-103087715D01*
X124372786Y-103208028D01*
X124228028Y-103352786D01*
X124107715Y-103518386D01*
X124014781Y-103700776D01*
X123951522Y-103895465D01*
X123919500Y-104097648D01*
X123919500Y-104302351D01*
X123951522Y-104504534D01*
X124014781Y-104699223D01*
X124107715Y-104881613D01*
X124228028Y-105047213D01*
X124372786Y-105191971D01*
X124527749Y-105304556D01*
X124538390Y-105312287D01*
X124629840Y-105358883D01*
X124631080Y-105359515D01*
X124681876Y-105407490D01*
X124698671Y-105475311D01*
X124676134Y-105541446D01*
X124631080Y-105580485D01*
X124538386Y-105627715D01*
X124372786Y-105748028D01*
X124228028Y-105892786D01*
X124107715Y-106058386D01*
X124014781Y-106240776D01*
X123951522Y-106435465D01*
X123919500Y-106637648D01*
X123919500Y-106842351D01*
X123951522Y-107044534D01*
X124014781Y-107239223D01*
X124107715Y-107421613D01*
X124228028Y-107587213D01*
X124372786Y-107731971D01*
X124538388Y-107852286D01*
X124538390Y-107852287D01*
X124624294Y-107896057D01*
X124675090Y-107944031D01*
X124691886Y-108011852D01*
X124669349Y-108077987D01*
X124626455Y-108115899D01*
X124560494Y-108151157D01*
X124560489Y-108151160D01*
X124491086Y-108197532D01*
X124491085Y-108197533D01*
X125090590Y-108797037D01*
X125027007Y-108814075D01*
X124912993Y-108879901D01*
X124819901Y-108972993D01*
X124754075Y-109087007D01*
X124737037Y-109150589D01*
X124137533Y-108551085D01*
X124137532Y-108551086D01*
X124091161Y-108620488D01*
X124044490Y-108707801D01*
X123984185Y-108853387D01*
X123955444Y-108948135D01*
X123924701Y-109102697D01*
X123924701Y-109102700D01*
X123915000Y-109201210D01*
X123915000Y-109358789D01*
X123924701Y-109457299D01*
X123924701Y-109457302D01*
X123955444Y-109611864D01*
X123984185Y-109706612D01*
X124044490Y-109852198D01*
X124091158Y-109939506D01*
X124137533Y-110008912D01*
X124137534Y-110008913D01*
X124737037Y-109409409D01*
X124754075Y-109472993D01*
X124819901Y-109587007D01*
X124912993Y-109680099D01*
X125027007Y-109745925D01*
X125090590Y-109762962D01*
X124491085Y-110362465D01*
X124560493Y-110408841D01*
X124626454Y-110444099D01*
X124676298Y-110493062D01*
X124691758Y-110561200D01*
X124667926Y-110626879D01*
X124624295Y-110663942D01*
X124538386Y-110707715D01*
X124372786Y-110828028D01*
X124228028Y-110972786D01*
X124107715Y-111138386D01*
X124014781Y-111320776D01*
X123951522Y-111515465D01*
X123919500Y-111717648D01*
X123919500Y-111922351D01*
X123951522Y-112124534D01*
X124014781Y-112319223D01*
X124107715Y-112501613D01*
X124228028Y-112667213D01*
X124372786Y-112811971D01*
X124527749Y-112924556D01*
X124538390Y-112932287D01*
X124595194Y-112961230D01*
X124631080Y-112979515D01*
X124681876Y-113027490D01*
X124698671Y-113095311D01*
X124676134Y-113161446D01*
X124631080Y-113200485D01*
X124538386Y-113247715D01*
X124372786Y-113368028D01*
X124228028Y-113512786D01*
X124107715Y-113678386D01*
X124014781Y-113860776D01*
X123951522Y-114055465D01*
X123919500Y-114257647D01*
X123919500Y-114462351D01*
X123951522Y-114664534D01*
X124014781Y-114859223D01*
X124107715Y-115041613D01*
X124228028Y-115207213D01*
X124372786Y-115351971D01*
X124527749Y-115464556D01*
X124538390Y-115472287D01*
X124595722Y-115501499D01*
X124631080Y-115519515D01*
X124681876Y-115567490D01*
X124698671Y-115635311D01*
X124676134Y-115701446D01*
X124631080Y-115740485D01*
X124538386Y-115787715D01*
X124372786Y-115908028D01*
X124228028Y-116052786D01*
X124107715Y-116218386D01*
X124014781Y-116400776D01*
X123951522Y-116595465D01*
X123919500Y-116797648D01*
X123919500Y-117002351D01*
X123951522Y-117204534D01*
X124014781Y-117399223D01*
X124060242Y-117488443D01*
X124107140Y-117580486D01*
X124107715Y-117581613D01*
X124228028Y-117747213D01*
X124372786Y-117891971D01*
X124527749Y-118004556D01*
X124538390Y-118012287D01*
X124629840Y-118058883D01*
X124631080Y-118059515D01*
X124681876Y-118107490D01*
X124698671Y-118175311D01*
X124676134Y-118241446D01*
X124631080Y-118280485D01*
X124538386Y-118327715D01*
X124372786Y-118448028D01*
X124372782Y-118448032D01*
X124228034Y-118592781D01*
X124228028Y-118592786D01*
X124107715Y-118758386D01*
X124014781Y-118940776D01*
X123951522Y-119135465D01*
X123919500Y-119337648D01*
X123919500Y-119542351D01*
X123951522Y-119744534D01*
X124014781Y-119939223D01*
X124062742Y-120033350D01*
X124091606Y-120089999D01*
X124107715Y-120121613D01*
X124228028Y-120287213D01*
X124372786Y-120431971D01*
X124538388Y-120552286D01*
X124538390Y-120552287D01*
X124624294Y-120596057D01*
X124675090Y-120644031D01*
X124691886Y-120711852D01*
X124669349Y-120777987D01*
X124626455Y-120815899D01*
X124560494Y-120851157D01*
X124560489Y-120851160D01*
X124491086Y-120897532D01*
X124491085Y-120897533D01*
X125090590Y-121497037D01*
X125027007Y-121514075D01*
X124912993Y-121579901D01*
X124819901Y-121672993D01*
X124754075Y-121787007D01*
X124737037Y-121850589D01*
X124137533Y-121251085D01*
X124137532Y-121251086D01*
X124091161Y-121320488D01*
X124044490Y-121407801D01*
X123984185Y-121553387D01*
X123955444Y-121648135D01*
X123924701Y-121802697D01*
X123924701Y-121802700D01*
X123915000Y-121901210D01*
X123915000Y-122058789D01*
X123924701Y-122157299D01*
X123924701Y-122157302D01*
X123955444Y-122311864D01*
X123984185Y-122406612D01*
X124044490Y-122552198D01*
X124091158Y-122639506D01*
X124137533Y-122708912D01*
X124137534Y-122708913D01*
X124737037Y-122109409D01*
X124754075Y-122172993D01*
X124819901Y-122287007D01*
X124912993Y-122380099D01*
X125027007Y-122445925D01*
X125090590Y-122462962D01*
X124491085Y-123062465D01*
X124560493Y-123108841D01*
X124626454Y-123144099D01*
X124676298Y-123193062D01*
X124691758Y-123261200D01*
X124667926Y-123326879D01*
X124624295Y-123363942D01*
X124538386Y-123407715D01*
X124372786Y-123528028D01*
X124228028Y-123672786D01*
X124107715Y-123838386D01*
X124014781Y-124020776D01*
X123951522Y-124215465D01*
X123919500Y-124417648D01*
X123919500Y-124622352D01*
X123939121Y-124746230D01*
X123951523Y-124824534D01*
X123951522Y-124824534D01*
X124014781Y-125019223D01*
X124037632Y-125064069D01*
X124101666Y-125189743D01*
X124107715Y-125201613D01*
X124228028Y-125367213D01*
X124372786Y-125511971D01*
X124521342Y-125619901D01*
X124538390Y-125632287D01*
X124629840Y-125678883D01*
X124631080Y-125679515D01*
X124681876Y-125727490D01*
X124698671Y-125795311D01*
X124676134Y-125861446D01*
X124631080Y-125900485D01*
X124538386Y-125947715D01*
X124372786Y-126068028D01*
X124228028Y-126212786D01*
X124107715Y-126378386D01*
X124014781Y-126560776D01*
X123951522Y-126755465D01*
X123919500Y-126957648D01*
X123919500Y-127162351D01*
X123951522Y-127364534D01*
X124014781Y-127559223D01*
X124107715Y-127741613D01*
X124228028Y-127907213D01*
X124372786Y-128051971D01*
X124479205Y-128129287D01*
X124538390Y-128172287D01*
X124629840Y-128218883D01*
X124631080Y-128219515D01*
X124681876Y-128267490D01*
X124698671Y-128335311D01*
X124676134Y-128401446D01*
X124631080Y-128440485D01*
X124538386Y-128487715D01*
X124372786Y-128608028D01*
X124228028Y-128752786D01*
X124107715Y-128918386D01*
X124014781Y-129100776D01*
X123951522Y-129295465D01*
X123919500Y-129497648D01*
X123919500Y-129702351D01*
X123951522Y-129904534D01*
X124014781Y-130099223D01*
X124107715Y-130281613D01*
X124228028Y-130447213D01*
X124372786Y-130591971D01*
X124527749Y-130704556D01*
X124538390Y-130712287D01*
X124629840Y-130758883D01*
X124631080Y-130759515D01*
X124681876Y-130807490D01*
X124698671Y-130875311D01*
X124676134Y-130941446D01*
X124631080Y-130980485D01*
X124538386Y-131027715D01*
X124372786Y-131148028D01*
X124228028Y-131292786D01*
X124107715Y-131458386D01*
X124014781Y-131640776D01*
X123951522Y-131835465D01*
X123919500Y-132037648D01*
X123919500Y-132242351D01*
X123951522Y-132444534D01*
X124014781Y-132639223D01*
X124107715Y-132821613D01*
X124228028Y-132987213D01*
X124372786Y-133131971D01*
X124538388Y-133252286D01*
X124538390Y-133252287D01*
X124624294Y-133296057D01*
X124675090Y-133344031D01*
X124691886Y-133411852D01*
X124669349Y-133477987D01*
X124626455Y-133515899D01*
X124560494Y-133551157D01*
X124560489Y-133551160D01*
X124491086Y-133597532D01*
X124491085Y-133597533D01*
X125090590Y-134197037D01*
X125027007Y-134214075D01*
X124912993Y-134279901D01*
X124819901Y-134372993D01*
X124754075Y-134487007D01*
X124737037Y-134550589D01*
X124137533Y-133951085D01*
X124137532Y-133951086D01*
X124091161Y-134020488D01*
X124044490Y-134107801D01*
X123984185Y-134253387D01*
X123955444Y-134348135D01*
X123924701Y-134502697D01*
X123924701Y-134502700D01*
X123915000Y-134601210D01*
X123915000Y-134758789D01*
X123924701Y-134857299D01*
X123924701Y-134857302D01*
X123955444Y-135011864D01*
X123984185Y-135106612D01*
X124044490Y-135252198D01*
X124091158Y-135339506D01*
X124137533Y-135408912D01*
X124137534Y-135408913D01*
X124737037Y-134809409D01*
X124754075Y-134872993D01*
X124819901Y-134987007D01*
X124912993Y-135080099D01*
X125027007Y-135145925D01*
X125090590Y-135162962D01*
X124491085Y-135762465D01*
X124560493Y-135808841D01*
X124626454Y-135844099D01*
X124676298Y-135893062D01*
X124691758Y-135961200D01*
X124667926Y-136026879D01*
X124624295Y-136063942D01*
X124538386Y-136107715D01*
X124372786Y-136228028D01*
X124228028Y-136372786D01*
X124107715Y-136538386D01*
X124014781Y-136720776D01*
X123951522Y-136915465D01*
X123919500Y-137117648D01*
X123919500Y-137322351D01*
X123951522Y-137524534D01*
X124014781Y-137719223D01*
X124107715Y-137901613D01*
X124228028Y-138067213D01*
X124372786Y-138211971D01*
X124527749Y-138324556D01*
X124538390Y-138332287D01*
X124629840Y-138378883D01*
X124631080Y-138379515D01*
X124681876Y-138427490D01*
X124698671Y-138495311D01*
X124676134Y-138561446D01*
X124631080Y-138600485D01*
X124538386Y-138647715D01*
X124372786Y-138768028D01*
X124228028Y-138912786D01*
X124107715Y-139078386D01*
X124014781Y-139260776D01*
X123951522Y-139455465D01*
X123919500Y-139657648D01*
X123919500Y-139862351D01*
X123951522Y-140064534D01*
X124014781Y-140259223D01*
X124107715Y-140441613D01*
X124228028Y-140607213D01*
X124372786Y-140751971D01*
X124527749Y-140864556D01*
X124538390Y-140872287D01*
X124654607Y-140931503D01*
X124720776Y-140965218D01*
X124720778Y-140965218D01*
X124720781Y-140965220D01*
X124825137Y-140999127D01*
X124915465Y-141028477D01*
X125016557Y-141044488D01*
X125117648Y-141060500D01*
X125117649Y-141060500D01*
X125322351Y-141060500D01*
X125322352Y-141060500D01*
X125524534Y-141028477D01*
X125719219Y-140965220D01*
X125901610Y-140872287D01*
X126003378Y-140798349D01*
X126067213Y-140751971D01*
X126067215Y-140751968D01*
X126067219Y-140751966D01*
X126211966Y-140607219D01*
X126211968Y-140607215D01*
X126211971Y-140607213D01*
X126264732Y-140534590D01*
X126332287Y-140441610D01*
X126425220Y-140259219D01*
X126488477Y-140064534D01*
X126520500Y-139862352D01*
X126520500Y-139657648D01*
X126488477Y-139455466D01*
X126425220Y-139260781D01*
X126425218Y-139260778D01*
X126425218Y-139260776D01*
X126391503Y-139194607D01*
X126332287Y-139078390D01*
X126301663Y-139036239D01*
X126211971Y-138912786D01*
X126067213Y-138768028D01*
X125901614Y-138647715D01*
X125834881Y-138613713D01*
X125808917Y-138600483D01*
X125758123Y-138552511D01*
X125741328Y-138484690D01*
X125763865Y-138418555D01*
X125808917Y-138379516D01*
X125901610Y-138332287D01*
X125922770Y-138316913D01*
X126067213Y-138211971D01*
X126067215Y-138211968D01*
X126067219Y-138211966D01*
X126211966Y-138067219D01*
X126211968Y-138067215D01*
X126211971Y-138067213D01*
X126273741Y-137982192D01*
X126332287Y-137901610D01*
X126425220Y-137719219D01*
X126488477Y-137524534D01*
X126520500Y-137322352D01*
X126520500Y-137117648D01*
X126497098Y-136969895D01*
X127010000Y-136969895D01*
X131662057Y-140582663D01*
X131702931Y-140639327D01*
X131710000Y-140680597D01*
X131710000Y-141630000D01*
X136510000Y-141630000D01*
X136510000Y-140680597D01*
X136529685Y-140613558D01*
X136557941Y-140582664D01*
X141210000Y-136969895D01*
X141210000Y-132630000D01*
X127010000Y-132630000D01*
X127010000Y-136969895D01*
X126497098Y-136969895D01*
X126488477Y-136915466D01*
X126425220Y-136720781D01*
X126425218Y-136720778D01*
X126425218Y-136720776D01*
X126391503Y-136654607D01*
X126332287Y-136538390D01*
X126324556Y-136527749D01*
X126211971Y-136372786D01*
X126067217Y-136228032D01*
X125990415Y-136172232D01*
X125947750Y-136116902D01*
X125941771Y-136047288D01*
X125974377Y-135985494D01*
X126032640Y-135951765D01*
X126053022Y-135946563D01*
X126053035Y-135946559D01*
X126109582Y-135923135D01*
X125349409Y-135162962D01*
X125412993Y-135145925D01*
X125527007Y-135080099D01*
X125620099Y-134987007D01*
X125685925Y-134872993D01*
X125702962Y-134809409D01*
X126463135Y-135569582D01*
X126463137Y-135569582D01*
X126486552Y-135513053D01*
X126504544Y-135462053D01*
X126524999Y-135319780D01*
X126525000Y-135319779D01*
X126525000Y-134040214D01*
X126522106Y-133986237D01*
X126522106Y-133986235D01*
X126486558Y-133846960D01*
X126463136Y-133790415D01*
X126463135Y-133790415D01*
X125702962Y-134550589D01*
X125685925Y-134487007D01*
X125620099Y-134372993D01*
X125527007Y-134279901D01*
X125412993Y-134214075D01*
X125349410Y-134197037D01*
X126109583Y-133436863D01*
X126109583Y-133436862D01*
X126053052Y-133413447D01*
X126053013Y-133413432D01*
X126024375Y-133403329D01*
X125967704Y-133362463D01*
X125942122Y-133297444D01*
X125955754Y-133228917D01*
X125992745Y-133186074D01*
X126067215Y-133131969D01*
X126067215Y-133131968D01*
X126067219Y-133131966D01*
X126211966Y-132987219D01*
X126211968Y-132987215D01*
X126211971Y-132987213D01*
X126264732Y-132914590D01*
X126332287Y-132821610D01*
X126425220Y-132639219D01*
X126488477Y-132444534D01*
X126520500Y-132242352D01*
X126520500Y-132037648D01*
X126488477Y-131835466D01*
X126425220Y-131640781D01*
X126425218Y-131640778D01*
X126425218Y-131640776D01*
X126391503Y-131574607D01*
X126332287Y-131458390D01*
X126324556Y-131447749D01*
X126211971Y-131292786D01*
X126067213Y-131148028D01*
X125901614Y-131027715D01*
X125895006Y-131024348D01*
X125808917Y-130980483D01*
X125758123Y-130932511D01*
X125741328Y-130864690D01*
X125763865Y-130798555D01*
X125808917Y-130759516D01*
X125901610Y-130712287D01*
X126048824Y-130605331D01*
X126067213Y-130591971D01*
X126067215Y-130591968D01*
X126067219Y-130591966D01*
X126211966Y-130447219D01*
X126211968Y-130447215D01*
X126211971Y-130447213D01*
X126264732Y-130374590D01*
X126332287Y-130281610D01*
X126425220Y-130099219D01*
X126488477Y-129904534D01*
X126520500Y-129702352D01*
X126520500Y-129497648D01*
X126488477Y-129295466D01*
X126425220Y-129100781D01*
X126425218Y-129100778D01*
X126425218Y-129100776D01*
X126369136Y-128990711D01*
X126332287Y-128918390D01*
X126301663Y-128876239D01*
X126211971Y-128752786D01*
X126067213Y-128608028D01*
X125901614Y-128487715D01*
X125834881Y-128453713D01*
X125808917Y-128440483D01*
X125758123Y-128392511D01*
X125741328Y-128324690D01*
X125763865Y-128258555D01*
X125808917Y-128219516D01*
X125901610Y-128172287D01*
X125960795Y-128129287D01*
X126067213Y-128051971D01*
X126067215Y-128051968D01*
X126067219Y-128051966D01*
X126211966Y-127907219D01*
X126211968Y-127907215D01*
X126211971Y-127907213D01*
X126264732Y-127834590D01*
X126332287Y-127741610D01*
X126425220Y-127559219D01*
X126488477Y-127364534D01*
X126520500Y-127162352D01*
X126520500Y-126957648D01*
X126488477Y-126755466D01*
X126425220Y-126560781D01*
X126425218Y-126560778D01*
X126425218Y-126560776D01*
X126387079Y-126485925D01*
X126332287Y-126378390D01*
X126301581Y-126336126D01*
X126211971Y-126212786D01*
X126067213Y-126068028D01*
X125901614Y-125947715D01*
X125895006Y-125944348D01*
X125808917Y-125900483D01*
X125758123Y-125852511D01*
X125741328Y-125784690D01*
X125763865Y-125718555D01*
X125808917Y-125679516D01*
X125901610Y-125632287D01*
X125991647Y-125566872D01*
X126067213Y-125511971D01*
X126067215Y-125511968D01*
X126067219Y-125511966D01*
X126211966Y-125367219D01*
X126211968Y-125367215D01*
X126211971Y-125367213D01*
X126264732Y-125294590D01*
X126332287Y-125201610D01*
X126425220Y-125019219D01*
X126488477Y-124824534D01*
X126520500Y-124622352D01*
X126520500Y-124417648D01*
X126488477Y-124215466D01*
X126425220Y-124020781D01*
X126425218Y-124020778D01*
X126425218Y-124020776D01*
X126384901Y-123941650D01*
X126332287Y-123838390D01*
X126301663Y-123796239D01*
X126211971Y-123672786D01*
X126067217Y-123528032D01*
X125990415Y-123472232D01*
X125947750Y-123416902D01*
X125941771Y-123347288D01*
X125974377Y-123285494D01*
X126032640Y-123251765D01*
X126053022Y-123246563D01*
X126053035Y-123246559D01*
X126109582Y-123223135D01*
X125349409Y-122462962D01*
X125412993Y-122445925D01*
X125527007Y-122380099D01*
X125620099Y-122287007D01*
X125685925Y-122172993D01*
X125702962Y-122109409D01*
X126463135Y-122869582D01*
X126463137Y-122869582D01*
X126486552Y-122813053D01*
X126504544Y-122762053D01*
X126524999Y-122619780D01*
X126525000Y-122619779D01*
X126525000Y-121340214D01*
X126522106Y-121286237D01*
X126522106Y-121286235D01*
X126486558Y-121146960D01*
X126463136Y-121090415D01*
X126463135Y-121090415D01*
X125702962Y-121850589D01*
X125685925Y-121787007D01*
X125620099Y-121672993D01*
X125527007Y-121579901D01*
X125412993Y-121514075D01*
X125349410Y-121497037D01*
X126109583Y-120736863D01*
X126109583Y-120736862D01*
X126053052Y-120713447D01*
X126053013Y-120713432D01*
X126024375Y-120703329D01*
X125967704Y-120662463D01*
X125942122Y-120597444D01*
X125955754Y-120528917D01*
X125992745Y-120486074D01*
X126067215Y-120431969D01*
X126067215Y-120431968D01*
X126067219Y-120431966D01*
X126211966Y-120287219D01*
X126211968Y-120287215D01*
X126211971Y-120287213D01*
X126264732Y-120214590D01*
X126332287Y-120121610D01*
X126425220Y-119939219D01*
X126488477Y-119744534D01*
X126520500Y-119542352D01*
X126520500Y-119337648D01*
X126488477Y-119135466D01*
X126425220Y-118940781D01*
X126425218Y-118940778D01*
X126425218Y-118940776D01*
X126374963Y-118842147D01*
X126332287Y-118758390D01*
X126301663Y-118716239D01*
X126211971Y-118592786D01*
X126067213Y-118448028D01*
X125901614Y-118327715D01*
X125834881Y-118293713D01*
X125808917Y-118280483D01*
X125758123Y-118232511D01*
X125741328Y-118164690D01*
X125763865Y-118098555D01*
X125808917Y-118059516D01*
X125901610Y-118012287D01*
X126003378Y-117938349D01*
X126067213Y-117891971D01*
X126067215Y-117891968D01*
X126067219Y-117891966D01*
X126211966Y-117747219D01*
X126211968Y-117747215D01*
X126211971Y-117747213D01*
X126284115Y-117647913D01*
X126332287Y-117581610D01*
X126425220Y-117399219D01*
X126488477Y-117204534D01*
X126520500Y-117002352D01*
X126520500Y-116797648D01*
X126500461Y-116671127D01*
X126488477Y-116595465D01*
X126425218Y-116400776D01*
X126374210Y-116300669D01*
X126332287Y-116218390D01*
X126301663Y-116176239D01*
X126211971Y-116052786D01*
X126067213Y-115908028D01*
X125901614Y-115787715D01*
X125834881Y-115753713D01*
X125808917Y-115740483D01*
X125758123Y-115692511D01*
X125741328Y-115624690D01*
X125763865Y-115558555D01*
X125808917Y-115519516D01*
X125901610Y-115472287D01*
X125948414Y-115438282D01*
X126067213Y-115351971D01*
X126067215Y-115351968D01*
X126067219Y-115351966D01*
X126211966Y-115207219D01*
X126211968Y-115207215D01*
X126211971Y-115207213D01*
X126300960Y-115084728D01*
X126332287Y-115041610D01*
X126425220Y-114859219D01*
X126488477Y-114664534D01*
X126520500Y-114462352D01*
X126520500Y-114257648D01*
X126509046Y-114185328D01*
X126488477Y-114055465D01*
X126425218Y-113860776D01*
X126391503Y-113794607D01*
X126332287Y-113678390D01*
X126296893Y-113629674D01*
X126211971Y-113512786D01*
X126067213Y-113368028D01*
X125901614Y-113247715D01*
X125895006Y-113244348D01*
X125808917Y-113200483D01*
X125758123Y-113152511D01*
X125741328Y-113084690D01*
X125763865Y-113018555D01*
X125808917Y-112979516D01*
X125901610Y-112932287D01*
X125954045Y-112894191D01*
X126067213Y-112811971D01*
X126067215Y-112811968D01*
X126067219Y-112811966D01*
X126211966Y-112667219D01*
X126211968Y-112667215D01*
X126211971Y-112667213D01*
X126274946Y-112580534D01*
X126332287Y-112501610D01*
X126425220Y-112319219D01*
X126488477Y-112124534D01*
X126520500Y-111922352D01*
X126520500Y-111717648D01*
X126488477Y-111515466D01*
X126425220Y-111320781D01*
X126425218Y-111320778D01*
X126425218Y-111320776D01*
X126391503Y-111254607D01*
X126332287Y-111138390D01*
X126249232Y-111024073D01*
X126211971Y-110972786D01*
X126067217Y-110828032D01*
X125990415Y-110772232D01*
X125947750Y-110716902D01*
X125941771Y-110647288D01*
X125974377Y-110585494D01*
X126032640Y-110551765D01*
X126053022Y-110546563D01*
X126053035Y-110546559D01*
X126109582Y-110523135D01*
X125349409Y-109762962D01*
X125412993Y-109745925D01*
X125527007Y-109680099D01*
X125620099Y-109587007D01*
X125685925Y-109472993D01*
X125702962Y-109409409D01*
X126463135Y-110169582D01*
X126463137Y-110169582D01*
X126486552Y-110113053D01*
X126504544Y-110062053D01*
X126524999Y-109919780D01*
X126525000Y-109919779D01*
X126525000Y-108640214D01*
X126522106Y-108586237D01*
X126522106Y-108586235D01*
X126486558Y-108446960D01*
X126463136Y-108390415D01*
X126463135Y-108390415D01*
X125702962Y-109150589D01*
X125685925Y-109087007D01*
X125620099Y-108972993D01*
X125527007Y-108879901D01*
X125412993Y-108814075D01*
X125349410Y-108797037D01*
X126109583Y-108036863D01*
X126109583Y-108036862D01*
X126053052Y-108013447D01*
X126053013Y-108013432D01*
X126024375Y-108003329D01*
X125967704Y-107962463D01*
X125942122Y-107897444D01*
X125955754Y-107828917D01*
X125992745Y-107786074D01*
X126067215Y-107731969D01*
X126067215Y-107731968D01*
X126067219Y-107731966D01*
X126211966Y-107587219D01*
X126317753Y-107441613D01*
X126373082Y-107398949D01*
X126418071Y-107390500D01*
X132327192Y-107390500D01*
X132394231Y-107410185D01*
X132414873Y-107426819D01*
X133679181Y-108691127D01*
X133712666Y-108752450D01*
X133715500Y-108778808D01*
X133715500Y-115950069D01*
X133715500Y-115950071D01*
X133715499Y-115950071D01*
X133740497Y-116075738D01*
X133740499Y-116075744D01*
X133782125Y-116176239D01*
X133789535Y-116194127D01*
X133793459Y-116200000D01*
X133860726Y-116300673D01*
X138682824Y-121122771D01*
X138682831Y-121122777D01*
X138789371Y-121193964D01*
X138789370Y-121193964D01*
X138824044Y-121208326D01*
X138907756Y-121243001D01*
X138907760Y-121243001D01*
X138907761Y-121243002D01*
X139033428Y-121268000D01*
X141571000Y-121268000D01*
X141638039Y-121287685D01*
X141683794Y-121340489D01*
X141695000Y-121392000D01*
X141695000Y-122619785D01*
X141697893Y-122673762D01*
X141697893Y-122673764D01*
X141733438Y-122813030D01*
X141733440Y-122813037D01*
X141756863Y-122869583D01*
X142517037Y-122109409D01*
X142534075Y-122172993D01*
X142599901Y-122287007D01*
X142692993Y-122380099D01*
X142807007Y-122445925D01*
X142870590Y-122462962D01*
X142110415Y-123223135D01*
X142110415Y-123223136D01*
X142166954Y-123246556D01*
X142166961Y-123246558D01*
X142195621Y-123256669D01*
X142252294Y-123297534D01*
X142277876Y-123362552D01*
X142264246Y-123431080D01*
X142227256Y-123473924D01*
X142152782Y-123528032D01*
X142008028Y-123672786D01*
X141887715Y-123838386D01*
X141794781Y-124020776D01*
X141731522Y-124215465D01*
X141699500Y-124417648D01*
X141699500Y-124622352D01*
X141719121Y-124746230D01*
X141731523Y-124824534D01*
X141731522Y-124824534D01*
X141794781Y-125019223D01*
X141817632Y-125064069D01*
X141881666Y-125189743D01*
X141887715Y-125201613D01*
X142008028Y-125367213D01*
X142152786Y-125511971D01*
X142301342Y-125619901D01*
X142318390Y-125632287D01*
X142409840Y-125678883D01*
X142411080Y-125679515D01*
X142461876Y-125727490D01*
X142478671Y-125795311D01*
X142456134Y-125861446D01*
X142411080Y-125900485D01*
X142318386Y-125947715D01*
X142152786Y-126068028D01*
X142008028Y-126212786D01*
X141887715Y-126378386D01*
X141794781Y-126560776D01*
X141731522Y-126755465D01*
X141699500Y-126957648D01*
X141699500Y-127162351D01*
X141731522Y-127364534D01*
X141794781Y-127559223D01*
X141887715Y-127741613D01*
X142008028Y-127907213D01*
X142152786Y-128051971D01*
X142259205Y-128129287D01*
X142318390Y-128172287D01*
X142409840Y-128218883D01*
X142411080Y-128219515D01*
X142461876Y-128267490D01*
X142478671Y-128335311D01*
X142456134Y-128401446D01*
X142411080Y-128440485D01*
X142318386Y-128487715D01*
X142152786Y-128608028D01*
X142008028Y-128752786D01*
X141887715Y-128918386D01*
X141794781Y-129100776D01*
X141731522Y-129295465D01*
X141699500Y-129497648D01*
X141699500Y-129702351D01*
X141731522Y-129904534D01*
X141794781Y-130099223D01*
X141887715Y-130281613D01*
X142008028Y-130447213D01*
X142152786Y-130591971D01*
X142307749Y-130704556D01*
X142318390Y-130712287D01*
X142409840Y-130758883D01*
X142411080Y-130759515D01*
X142461876Y-130807490D01*
X142478671Y-130875311D01*
X142456134Y-130941446D01*
X142411080Y-130980485D01*
X142318386Y-131027715D01*
X142152786Y-131148028D01*
X142008028Y-131292786D01*
X141887715Y-131458386D01*
X141794781Y-131640776D01*
X141731522Y-131835465D01*
X141699500Y-132037648D01*
X141699500Y-132242351D01*
X141731522Y-132444534D01*
X141794781Y-132639223D01*
X141887715Y-132821613D01*
X142008028Y-132987213D01*
X142152782Y-133131967D01*
X142152787Y-133131971D01*
X142229583Y-133187767D01*
X142272249Y-133243097D01*
X142278228Y-133312710D01*
X142245622Y-133374505D01*
X142187365Y-133408233D01*
X142166967Y-133413439D01*
X142166956Y-133413442D01*
X142110415Y-133436862D01*
X142870590Y-134197037D01*
X142807007Y-134214075D01*
X142692993Y-134279901D01*
X142599901Y-134372993D01*
X142534075Y-134487007D01*
X142517037Y-134550589D01*
X141756862Y-133790415D01*
X141733449Y-133846940D01*
X141715455Y-133897946D01*
X141695000Y-134040219D01*
X141695000Y-135319785D01*
X141697893Y-135373762D01*
X141697893Y-135373764D01*
X141733438Y-135513030D01*
X141733440Y-135513037D01*
X141756863Y-135569583D01*
X142517037Y-134809409D01*
X142534075Y-134872993D01*
X142599901Y-134987007D01*
X142692993Y-135080099D01*
X142807007Y-135145925D01*
X142870590Y-135162962D01*
X142110415Y-135923135D01*
X142110415Y-135923136D01*
X142166954Y-135946556D01*
X142166961Y-135946558D01*
X142195621Y-135956669D01*
X142252294Y-135997534D01*
X142277876Y-136062552D01*
X142264246Y-136131080D01*
X142227256Y-136173924D01*
X142152782Y-136228032D01*
X142008028Y-136372786D01*
X141887715Y-136538386D01*
X141794781Y-136720776D01*
X141731522Y-136915465D01*
X141699500Y-137117648D01*
X141699500Y-137322351D01*
X141731522Y-137524534D01*
X141794781Y-137719223D01*
X141887715Y-137901613D01*
X142008028Y-138067213D01*
X142152786Y-138211971D01*
X142307749Y-138324556D01*
X142318390Y-138332287D01*
X142409840Y-138378883D01*
X142411080Y-138379515D01*
X142461876Y-138427490D01*
X142478671Y-138495311D01*
X142456134Y-138561446D01*
X142411080Y-138600485D01*
X142318386Y-138647715D01*
X142152786Y-138768028D01*
X142008028Y-138912786D01*
X141887715Y-139078386D01*
X141794781Y-139260776D01*
X141731522Y-139455465D01*
X141699500Y-139657648D01*
X141699500Y-139862351D01*
X141731522Y-140064534D01*
X141794781Y-140259223D01*
X141887715Y-140441613D01*
X142008028Y-140607213D01*
X142152786Y-140751971D01*
X142307749Y-140864556D01*
X142318390Y-140872287D01*
X142434607Y-140931503D01*
X142500776Y-140965218D01*
X142500778Y-140965218D01*
X142500781Y-140965220D01*
X142605137Y-140999127D01*
X142695465Y-141028477D01*
X142796557Y-141044488D01*
X142897648Y-141060500D01*
X142897649Y-141060500D01*
X143102351Y-141060500D01*
X143102352Y-141060500D01*
X143304534Y-141028477D01*
X143499219Y-140965220D01*
X143681610Y-140872287D01*
X143783378Y-140798349D01*
X143847213Y-140751971D01*
X143847215Y-140751968D01*
X143847219Y-140751966D01*
X143991966Y-140607219D01*
X143991968Y-140607215D01*
X143991971Y-140607213D01*
X144044732Y-140534590D01*
X144112287Y-140441610D01*
X144205220Y-140259219D01*
X144268477Y-140064534D01*
X144300500Y-139862352D01*
X144300500Y-139657648D01*
X144268477Y-139455466D01*
X144205220Y-139260781D01*
X144205218Y-139260778D01*
X144205218Y-139260776D01*
X144171503Y-139194607D01*
X144112287Y-139078390D01*
X144081663Y-139036239D01*
X143991971Y-138912786D01*
X143847213Y-138768028D01*
X143681614Y-138647715D01*
X143614881Y-138613713D01*
X143588917Y-138600483D01*
X143538123Y-138552511D01*
X143521328Y-138484690D01*
X143543865Y-138418555D01*
X143588917Y-138379516D01*
X143681610Y-138332287D01*
X143702770Y-138316913D01*
X143847213Y-138211971D01*
X143847215Y-138211968D01*
X143847219Y-138211966D01*
X143991966Y-138067219D01*
X143991968Y-138067215D01*
X143991971Y-138067213D01*
X144053741Y-137982192D01*
X144112287Y-137901610D01*
X144205220Y-137719219D01*
X144268477Y-137524534D01*
X144300500Y-137322352D01*
X144300500Y-137117648D01*
X144268477Y-136915466D01*
X144205220Y-136720781D01*
X144205218Y-136720778D01*
X144205218Y-136720776D01*
X144171503Y-136654607D01*
X144112287Y-136538390D01*
X144104556Y-136527749D01*
X143991971Y-136372786D01*
X143847213Y-136228028D01*
X143681614Y-136107715D01*
X143673410Y-136103535D01*
X143595703Y-136063941D01*
X143544908Y-136015968D01*
X143528113Y-135948147D01*
X143550650Y-135882012D01*
X143593546Y-135844099D01*
X143659493Y-135808849D01*
X143659511Y-135808838D01*
X143728912Y-135762465D01*
X143129409Y-135162962D01*
X143192993Y-135145925D01*
X143307007Y-135080099D01*
X143400099Y-134987007D01*
X143465925Y-134872993D01*
X143482962Y-134809409D01*
X144082465Y-135408912D01*
X144128838Y-135339511D01*
X144128844Y-135339501D01*
X144175509Y-135252198D01*
X144235814Y-135106612D01*
X144264555Y-135011864D01*
X144295298Y-134857302D01*
X144295298Y-134857299D01*
X144305000Y-134758789D01*
X144305000Y-134601210D01*
X144295298Y-134502700D01*
X144295298Y-134502697D01*
X144264555Y-134348135D01*
X144235814Y-134253387D01*
X144175509Y-134107801D01*
X144128841Y-134020493D01*
X144082465Y-133951086D01*
X144082465Y-133951085D01*
X143482962Y-134550589D01*
X143465925Y-134487007D01*
X143400099Y-134372993D01*
X143307007Y-134279901D01*
X143192993Y-134214075D01*
X143129410Y-134197037D01*
X143728913Y-133597534D01*
X143728912Y-133597533D01*
X143659506Y-133551158D01*
X143593545Y-133515900D01*
X143543701Y-133466937D01*
X143528241Y-133398799D01*
X143552073Y-133333119D01*
X143595702Y-133296059D01*
X143681610Y-133252287D01*
X143772745Y-133186074D01*
X143847213Y-133131971D01*
X143847215Y-133131968D01*
X143847219Y-133131966D01*
X143991966Y-132987219D01*
X143991968Y-132987215D01*
X143991971Y-132987213D01*
X144044732Y-132914590D01*
X144112287Y-132821610D01*
X144205220Y-132639219D01*
X144268477Y-132444534D01*
X144300500Y-132242352D01*
X144300500Y-132037648D01*
X144268477Y-131835466D01*
X144205220Y-131640781D01*
X144205218Y-131640778D01*
X144205218Y-131640776D01*
X144171503Y-131574607D01*
X144112287Y-131458390D01*
X144104556Y-131447749D01*
X143991971Y-131292786D01*
X143847213Y-131148028D01*
X143681614Y-131027715D01*
X143675006Y-131024348D01*
X143588917Y-130980483D01*
X143538123Y-130932511D01*
X143521328Y-130864690D01*
X143543865Y-130798555D01*
X143588917Y-130759516D01*
X143681610Y-130712287D01*
X143828824Y-130605331D01*
X143847213Y-130591971D01*
X143847215Y-130591968D01*
X143847219Y-130591966D01*
X143991966Y-130447219D01*
X143991968Y-130447215D01*
X143991971Y-130447213D01*
X144044732Y-130374590D01*
X144112287Y-130281610D01*
X144205220Y-130099219D01*
X144268477Y-129904534D01*
X144300500Y-129702352D01*
X144300500Y-129497648D01*
X144268477Y-129295466D01*
X144205220Y-129100781D01*
X144205218Y-129100778D01*
X144205218Y-129100776D01*
X144149136Y-128990711D01*
X144112287Y-128918390D01*
X144081663Y-128876239D01*
X143991971Y-128752786D01*
X143847213Y-128608028D01*
X143681614Y-128487715D01*
X143614881Y-128453713D01*
X143588917Y-128440483D01*
X143538123Y-128392511D01*
X143521328Y-128324690D01*
X143543865Y-128258555D01*
X143588917Y-128219516D01*
X143681610Y-128172287D01*
X143740795Y-128129287D01*
X143847213Y-128051971D01*
X143847215Y-128051968D01*
X143847219Y-128051966D01*
X143991966Y-127907219D01*
X143991968Y-127907215D01*
X143991971Y-127907213D01*
X144044732Y-127834590D01*
X144112287Y-127741610D01*
X144205220Y-127559219D01*
X144268477Y-127364534D01*
X144300500Y-127162352D01*
X144300500Y-126957648D01*
X144268477Y-126755466D01*
X144205220Y-126560781D01*
X144205218Y-126560778D01*
X144205218Y-126560776D01*
X144167079Y-126485925D01*
X144112287Y-126378390D01*
X144081581Y-126336126D01*
X143991971Y-126212786D01*
X143847213Y-126068028D01*
X143681614Y-125947715D01*
X143675006Y-125944348D01*
X143588917Y-125900483D01*
X143538123Y-125852511D01*
X143521328Y-125784690D01*
X143543865Y-125718555D01*
X143588917Y-125679516D01*
X143681610Y-125632287D01*
X143771647Y-125566872D01*
X143847213Y-125511971D01*
X143847215Y-125511968D01*
X143847219Y-125511966D01*
X143991966Y-125367219D01*
X143991968Y-125367215D01*
X143991971Y-125367213D01*
X144044732Y-125294590D01*
X144112287Y-125201610D01*
X144205220Y-125019219D01*
X144268477Y-124824534D01*
X144300500Y-124622352D01*
X144300500Y-124417648D01*
X144268477Y-124215466D01*
X144205220Y-124020781D01*
X144205218Y-124020778D01*
X144205218Y-124020776D01*
X144164901Y-123941650D01*
X144112287Y-123838390D01*
X144081663Y-123796239D01*
X143991971Y-123672786D01*
X143847213Y-123528028D01*
X143681614Y-123407715D01*
X143614881Y-123373713D01*
X143595703Y-123363941D01*
X143544908Y-123315968D01*
X143528113Y-123248147D01*
X143550650Y-123182012D01*
X143593546Y-123144099D01*
X143659493Y-123108849D01*
X143659511Y-123108838D01*
X143728912Y-123062465D01*
X143129409Y-122462962D01*
X143192993Y-122445925D01*
X143307007Y-122380099D01*
X143400099Y-122287007D01*
X143465925Y-122172993D01*
X143482962Y-122109409D01*
X144082465Y-122708912D01*
X144128838Y-122639511D01*
X144128844Y-122639501D01*
X144175509Y-122552198D01*
X144235814Y-122406612D01*
X144264555Y-122311864D01*
X144295298Y-122157302D01*
X144295298Y-122157299D01*
X144305000Y-122058789D01*
X144305000Y-121901210D01*
X144295298Y-121802700D01*
X144295298Y-121802697D01*
X144264555Y-121648135D01*
X144235814Y-121553387D01*
X144188620Y-121439453D01*
X144181151Y-121369984D01*
X144212426Y-121307505D01*
X144272514Y-121271852D01*
X144303181Y-121268000D01*
X147162571Y-121268000D01*
X147247604Y-121251085D01*
X147288244Y-121243001D01*
X147406627Y-121193965D01*
X147513169Y-121122777D01*
X148644391Y-119991555D01*
X149784990Y-118850957D01*
X152634746Y-116001200D01*
X154792127Y-113843819D01*
X154853450Y-113810334D01*
X154879808Y-113807500D01*
X157236192Y-113807500D01*
X157303231Y-113827185D01*
X157323873Y-113843819D01*
X158117873Y-114637819D01*
X158151358Y-114699142D01*
X158146374Y-114768834D01*
X158104502Y-114824767D01*
X158039038Y-114849184D01*
X158030192Y-114849500D01*
X157953713Y-114849500D01*
X157905042Y-114857208D01*
X157743760Y-114882753D01*
X157541585Y-114948444D01*
X157352179Y-115044951D01*
X157180213Y-115169890D01*
X157029890Y-115320213D01*
X156904949Y-115492182D01*
X156900202Y-115501499D01*
X156852227Y-115552293D01*
X156784405Y-115569087D01*
X156718271Y-115546548D01*
X156679234Y-115501495D01*
X156674626Y-115492452D01*
X156635270Y-115438282D01*
X156635269Y-115438282D01*
X156002962Y-116070590D01*
X155985925Y-116007007D01*
X155920099Y-115892993D01*
X155827007Y-115799901D01*
X155712993Y-115734075D01*
X155649409Y-115717037D01*
X156281716Y-115084728D01*
X156227550Y-115045375D01*
X156038217Y-114948904D01*
X155836129Y-114883242D01*
X155626246Y-114850000D01*
X155413754Y-114850000D01*
X155203872Y-114883242D01*
X155203869Y-114883242D01*
X155001782Y-114948904D01*
X154812439Y-115045380D01*
X154758282Y-115084727D01*
X154758282Y-115084728D01*
X155390591Y-115717037D01*
X155327007Y-115734075D01*
X155212993Y-115799901D01*
X155119901Y-115892993D01*
X155054075Y-116007007D01*
X155037037Y-116070591D01*
X154404728Y-115438282D01*
X154404727Y-115438282D01*
X154365380Y-115492439D01*
X154268904Y-115681782D01*
X154203242Y-115883869D01*
X154203242Y-115883872D01*
X154170000Y-116093753D01*
X154170000Y-116306246D01*
X154203242Y-116516127D01*
X154203242Y-116516130D01*
X154268904Y-116718217D01*
X154365375Y-116907550D01*
X154404728Y-116961716D01*
X155037037Y-116329408D01*
X155054075Y-116392993D01*
X155119901Y-116507007D01*
X155212993Y-116600099D01*
X155327007Y-116665925D01*
X155390590Y-116682962D01*
X154721195Y-117352356D01*
X154659872Y-117385841D01*
X154645167Y-117384924D01*
X154645444Y-117387497D01*
X154562626Y-117396401D01*
X154562619Y-117396403D01*
X154427913Y-117446645D01*
X154427906Y-117446649D01*
X154312812Y-117532809D01*
X154312809Y-117532812D01*
X154226649Y-117647906D01*
X154226645Y-117647913D01*
X154176403Y-117782620D01*
X154176401Y-117782627D01*
X154170000Y-117842155D01*
X154170000Y-118490000D01*
X155086988Y-118490000D01*
X155054075Y-118547007D01*
X155020000Y-118674174D01*
X155020000Y-118805826D01*
X155054075Y-118932993D01*
X155086988Y-118990000D01*
X154170000Y-118990000D01*
X154170000Y-119637844D01*
X154176401Y-119697372D01*
X154176403Y-119697379D01*
X154226645Y-119832086D01*
X154226649Y-119832093D01*
X154312809Y-119947187D01*
X154312812Y-119947190D01*
X154427906Y-120033350D01*
X154427913Y-120033354D01*
X154562620Y-120083596D01*
X154562627Y-120083598D01*
X154622155Y-120089999D01*
X154622172Y-120090000D01*
X155270000Y-120090000D01*
X155270000Y-119173012D01*
X155327007Y-119205925D01*
X155454174Y-119240000D01*
X155585826Y-119240000D01*
X155712993Y-119205925D01*
X155770000Y-119173012D01*
X155770000Y-120090000D01*
X156417828Y-120090000D01*
X156417844Y-120089999D01*
X156477372Y-120083598D01*
X156477379Y-120083596D01*
X156612086Y-120033354D01*
X156612093Y-120033350D01*
X156727187Y-119947190D01*
X156727190Y-119947187D01*
X156813350Y-119832093D01*
X156813354Y-119832086D01*
X156862422Y-119700529D01*
X156904293Y-119644595D01*
X156969757Y-119620178D01*
X157038030Y-119635030D01*
X157066285Y-119656181D01*
X157180213Y-119770109D01*
X157352179Y-119895048D01*
X157352181Y-119895049D01*
X157352184Y-119895051D01*
X157541588Y-119991557D01*
X157743757Y-120057246D01*
X157953713Y-120090500D01*
X157953714Y-120090500D01*
X158166286Y-120090500D01*
X158166287Y-120090500D01*
X158376243Y-120057246D01*
X158578412Y-119991557D01*
X158767816Y-119895051D01*
X158854471Y-119832093D01*
X158939786Y-119770109D01*
X158939788Y-119770106D01*
X158939792Y-119770104D01*
X159090104Y-119619792D01*
X159090106Y-119619788D01*
X159090109Y-119619786D01*
X159215048Y-119447820D01*
X159215047Y-119447820D01*
X159215051Y-119447816D01*
X159219514Y-119439054D01*
X159267488Y-119388259D01*
X159335308Y-119371463D01*
X159401444Y-119393999D01*
X159440486Y-119439056D01*
X159444951Y-119447820D01*
X159569890Y-119619786D01*
X159720213Y-119770109D01*
X159892179Y-119895048D01*
X159892181Y-119895049D01*
X159892184Y-119895051D01*
X160081588Y-119991557D01*
X160283757Y-120057246D01*
X160493713Y-120090500D01*
X160493714Y-120090500D01*
X160706286Y-120090500D01*
X160706287Y-120090500D01*
X160916243Y-120057246D01*
X161118412Y-119991557D01*
X161307816Y-119895051D01*
X161394471Y-119832093D01*
X161479786Y-119770109D01*
X161479788Y-119770106D01*
X161479792Y-119770104D01*
X161630104Y-119619792D01*
X161630106Y-119619788D01*
X161630109Y-119619786D01*
X161755048Y-119447820D01*
X161755047Y-119447820D01*
X161755051Y-119447816D01*
X161759514Y-119439054D01*
X161807488Y-119388259D01*
X161875308Y-119371463D01*
X161941444Y-119393999D01*
X161980486Y-119439056D01*
X161984951Y-119447820D01*
X162109890Y-119619786D01*
X162260213Y-119770109D01*
X162432179Y-119895048D01*
X162432181Y-119895049D01*
X162432184Y-119895051D01*
X162621588Y-119991557D01*
X162823757Y-120057246D01*
X163033713Y-120090500D01*
X163033714Y-120090500D01*
X163246286Y-120090500D01*
X163246287Y-120090500D01*
X163456243Y-120057246D01*
X163658412Y-119991557D01*
X163847816Y-119895051D01*
X163934471Y-119832093D01*
X164019786Y-119770109D01*
X164019788Y-119770106D01*
X164019792Y-119770104D01*
X164170104Y-119619792D01*
X164170106Y-119619788D01*
X164170109Y-119619786D01*
X164295048Y-119447820D01*
X164295047Y-119447820D01*
X164295051Y-119447816D01*
X164391557Y-119258412D01*
X164457246Y-119056243D01*
X164490500Y-118846287D01*
X164490500Y-118633713D01*
X164457246Y-118423757D01*
X164391557Y-118221588D01*
X164295051Y-118032184D01*
X164295049Y-118032181D01*
X164295048Y-118032179D01*
X164170109Y-117860213D01*
X164019786Y-117709890D01*
X163843875Y-117582085D01*
X163844851Y-117580740D01*
X163842742Y-117578408D01*
X163833297Y-117574095D01*
X163819701Y-117552939D01*
X163802834Y-117534295D01*
X163800133Y-117522491D01*
X163795523Y-117515317D01*
X163790500Y-117480382D01*
X163790500Y-117459617D01*
X163810185Y-117392578D01*
X163844592Y-117358902D01*
X163843874Y-117357914D01*
X163847811Y-117355053D01*
X163847816Y-117355051D01*
X164019792Y-117230104D01*
X164170104Y-117079792D01*
X164170106Y-117079788D01*
X164170109Y-117079786D01*
X164295048Y-116907820D01*
X164295050Y-116907817D01*
X164295051Y-116907816D01*
X164391557Y-116718412D01*
X164457246Y-116516243D01*
X164490500Y-116306287D01*
X164490500Y-116093713D01*
X164457246Y-115883757D01*
X164391557Y-115681588D01*
X164295051Y-115492184D01*
X164295049Y-115492181D01*
X164295048Y-115492179D01*
X164170109Y-115320213D01*
X164019786Y-115169890D01*
X163847820Y-115044951D01*
X163658414Y-114948444D01*
X163658413Y-114948443D01*
X163658412Y-114948443D01*
X163456243Y-114882754D01*
X163456241Y-114882753D01*
X163456240Y-114882753D01*
X163294957Y-114857208D01*
X163246287Y-114849500D01*
X163033713Y-114849500D01*
X162972325Y-114859223D01*
X162818945Y-114883516D01*
X162818686Y-114881882D01*
X162756094Y-114878730D01*
X162709288Y-114849342D01*
X158860674Y-111000727D01*
X158860673Y-111000726D01*
X158860666Y-111000721D01*
X158754127Y-110929535D01*
X158635744Y-110880499D01*
X158635738Y-110880497D01*
X158510071Y-110855500D01*
X158510069Y-110855500D01*
X152462931Y-110855500D01*
X152462929Y-110855500D01*
X152337261Y-110880497D01*
X152337251Y-110880500D01*
X152299999Y-110895931D01*
X152218881Y-110929530D01*
X152218863Y-110929540D01*
X152112332Y-111000721D01*
X152112325Y-111000727D01*
X145749873Y-117363181D01*
X145688550Y-117396666D01*
X145662192Y-117399500D01*
X144375801Y-117399500D01*
X144308762Y-117379815D01*
X144263007Y-117327011D01*
X144253063Y-117257853D01*
X144257870Y-117237183D01*
X144268475Y-117204542D01*
X144268475Y-117204538D01*
X144268477Y-117204534D01*
X144300500Y-117002352D01*
X144300500Y-116797648D01*
X144280461Y-116671127D01*
X144272345Y-116619886D01*
X144281300Y-116550593D01*
X144307134Y-116512810D01*
X147190277Y-113629669D01*
X147261465Y-113523127D01*
X147310501Y-113404744D01*
X147317803Y-113368034D01*
X147335500Y-113279069D01*
X147335500Y-98560947D01*
X148106000Y-98560947D01*
X148106000Y-98797052D01*
X148142934Y-99030247D01*
X148215897Y-99254802D01*
X148323087Y-99465174D01*
X148383338Y-99548104D01*
X148383340Y-99548105D01*
X149082212Y-98849233D01*
X149093482Y-98891292D01*
X149165890Y-99016708D01*
X149268292Y-99119110D01*
X149393708Y-99191518D01*
X149435765Y-99202787D01*
X148736893Y-99901658D01*
X148819828Y-99961914D01*
X149030197Y-100069102D01*
X149254752Y-100142065D01*
X149254751Y-100142065D01*
X149487948Y-100179000D01*
X149724052Y-100179000D01*
X149957247Y-100142065D01*
X150181802Y-100069102D01*
X150392163Y-99961918D01*
X150392169Y-99961914D01*
X150475104Y-99901658D01*
X150475105Y-99901658D01*
X149776233Y-99202787D01*
X149818292Y-99191518D01*
X149943708Y-99119110D01*
X150046110Y-99016708D01*
X150118518Y-98891292D01*
X150129787Y-98849234D01*
X150828658Y-99548105D01*
X150828658Y-99548104D01*
X150888914Y-99465169D01*
X150888918Y-99465163D01*
X150996102Y-99254802D01*
X151069065Y-99030247D01*
X151106000Y-98797052D01*
X151106000Y-98560947D01*
X154606000Y-98560947D01*
X154606000Y-98797052D01*
X154642934Y-99030247D01*
X154715897Y-99254802D01*
X154823087Y-99465174D01*
X154883338Y-99548104D01*
X154883340Y-99548105D01*
X155582212Y-98849233D01*
X155593482Y-98891292D01*
X155665890Y-99016708D01*
X155768292Y-99119110D01*
X155893708Y-99191518D01*
X155935765Y-99202787D01*
X155236893Y-99901658D01*
X155319828Y-99961914D01*
X155530197Y-100069102D01*
X155754752Y-100142065D01*
X155754751Y-100142065D01*
X155987948Y-100179000D01*
X156224052Y-100179000D01*
X156457247Y-100142065D01*
X156681802Y-100069102D01*
X156892163Y-99961918D01*
X156892169Y-99961914D01*
X156975104Y-99901658D01*
X156975105Y-99901658D01*
X156276233Y-99202787D01*
X156318292Y-99191518D01*
X156443708Y-99119110D01*
X156546110Y-99016708D01*
X156618518Y-98891292D01*
X156629787Y-98849234D01*
X157328658Y-99548105D01*
X157328658Y-99548104D01*
X157388914Y-99465169D01*
X157388918Y-99465163D01*
X157496102Y-99254802D01*
X157529214Y-99152897D01*
X157529214Y-99152896D01*
X157569065Y-99030245D01*
X157606000Y-98797052D01*
X157606000Y-98560947D01*
X157569065Y-98327752D01*
X157496102Y-98103197D01*
X157388914Y-97892828D01*
X157328658Y-97809894D01*
X157328658Y-97809893D01*
X156629787Y-98508765D01*
X156618518Y-98466708D01*
X156546110Y-98341292D01*
X156443708Y-98238890D01*
X156318292Y-98166482D01*
X156276234Y-98155212D01*
X156975105Y-97456340D01*
X156975104Y-97456338D01*
X156892174Y-97396087D01*
X156681802Y-97288897D01*
X156457247Y-97215934D01*
X156457248Y-97215934D01*
X156224052Y-97179000D01*
X155987948Y-97179000D01*
X155754752Y-97215934D01*
X155530197Y-97288897D01*
X155319830Y-97396084D01*
X155236894Y-97456340D01*
X155935766Y-98155212D01*
X155893708Y-98166482D01*
X155768292Y-98238890D01*
X155665890Y-98341292D01*
X155593482Y-98466708D01*
X155582212Y-98508766D01*
X154883340Y-97809894D01*
X154823084Y-97892830D01*
X154715897Y-98103197D01*
X154642934Y-98327752D01*
X154606000Y-98560947D01*
X151106000Y-98560947D01*
X151069065Y-98327752D01*
X150996102Y-98103197D01*
X150888914Y-97892828D01*
X150828658Y-97809894D01*
X150828658Y-97809893D01*
X150129787Y-98508765D01*
X150118518Y-98466708D01*
X150046110Y-98341292D01*
X149943708Y-98238890D01*
X149818292Y-98166482D01*
X149776234Y-98155212D01*
X150475105Y-97456340D01*
X150475104Y-97456339D01*
X150392174Y-97396087D01*
X150181802Y-97288897D01*
X149957247Y-97215934D01*
X149957248Y-97215934D01*
X149724052Y-97179000D01*
X149487948Y-97179000D01*
X149254752Y-97215934D01*
X149030197Y-97288897D01*
X148819830Y-97396084D01*
X148736894Y-97456340D01*
X149435766Y-98155212D01*
X149393708Y-98166482D01*
X149268292Y-98238890D01*
X149165890Y-98341292D01*
X149093482Y-98466708D01*
X149082212Y-98508766D01*
X148383340Y-97809894D01*
X148323084Y-97892830D01*
X148215897Y-98103197D01*
X148142934Y-98327752D01*
X148106000Y-98560947D01*
X147335500Y-98560947D01*
X147335500Y-97420807D01*
X147355185Y-97353768D01*
X147371814Y-97333131D01*
X149055807Y-95649137D01*
X149117128Y-95615654D01*
X149181802Y-95618888D01*
X149254632Y-95642553D01*
X149371270Y-95661026D01*
X149487903Y-95679500D01*
X149487908Y-95679500D01*
X149724097Y-95679500D01*
X149957368Y-95642553D01*
X150181992Y-95569568D01*
X150392433Y-95462343D01*
X150583510Y-95323517D01*
X150750517Y-95156510D01*
X150889343Y-94965433D01*
X150996568Y-94754992D01*
X151069553Y-94530368D01*
X151081683Y-94453781D01*
X151106500Y-94297097D01*
X151106500Y-94060902D01*
X154605500Y-94060902D01*
X154605500Y-94297097D01*
X154642446Y-94530368D01*
X154715433Y-94754996D01*
X154822657Y-94965433D01*
X154961483Y-95156510D01*
X155128490Y-95323517D01*
X155319567Y-95462343D01*
X155418991Y-95513002D01*
X155530003Y-95569566D01*
X155530005Y-95569566D01*
X155530008Y-95569568D01*
X155609535Y-95595408D01*
X155754631Y-95642553D01*
X155987903Y-95679500D01*
X155987908Y-95679500D01*
X156224097Y-95679500D01*
X156457368Y-95642553D01*
X156681992Y-95569568D01*
X156707349Y-95556648D01*
X159467500Y-95556648D01*
X159467500Y-95761351D01*
X159499522Y-95963534D01*
X159562781Y-96158223D01*
X159655715Y-96340613D01*
X159776028Y-96506213D01*
X159920786Y-96650971D01*
X160086385Y-96771284D01*
X160086387Y-96771285D01*
X160086390Y-96771287D01*
X160140378Y-96798795D01*
X160191174Y-96846769D01*
X160207969Y-96914590D01*
X160185432Y-96980725D01*
X160140378Y-97019765D01*
X160086644Y-97047143D01*
X160042077Y-97079523D01*
X160042077Y-97079524D01*
X160721554Y-97759000D01*
X160715339Y-97759000D01*
X160613606Y-97786259D01*
X160522394Y-97838920D01*
X160447920Y-97913394D01*
X160395259Y-98004606D01*
X160368000Y-98106339D01*
X160368000Y-98112553D01*
X159688524Y-97433077D01*
X159688523Y-97433077D01*
X159656143Y-97477644D01*
X159563244Y-97659968D01*
X159500009Y-97854582D01*
X159468000Y-98056682D01*
X159468000Y-98261317D01*
X159500009Y-98463417D01*
X159563244Y-98658031D01*
X159656141Y-98840350D01*
X159656147Y-98840359D01*
X159688523Y-98884921D01*
X159688524Y-98884922D01*
X160368000Y-98205446D01*
X160368000Y-98211661D01*
X160395259Y-98313394D01*
X160447920Y-98404606D01*
X160522394Y-98479080D01*
X160613606Y-98531741D01*
X160715339Y-98559000D01*
X160721553Y-98559000D01*
X160042076Y-99238474D01*
X160086650Y-99270859D01*
X160268968Y-99363755D01*
X160463582Y-99426990D01*
X160665683Y-99459000D01*
X160870317Y-99459000D01*
X161072417Y-99426990D01*
X161267031Y-99363755D01*
X161449349Y-99270859D01*
X161493921Y-99238474D01*
X160814447Y-98559000D01*
X160820661Y-98559000D01*
X160922394Y-98531741D01*
X161013606Y-98479080D01*
X161088080Y-98404606D01*
X161140741Y-98313394D01*
X161168000Y-98211661D01*
X161168000Y-98205447D01*
X161847474Y-98884921D01*
X161879859Y-98840349D01*
X161972755Y-98658031D01*
X162035990Y-98463417D01*
X162068000Y-98261317D01*
X162068000Y-98056682D01*
X162035990Y-97854582D01*
X161972755Y-97659968D01*
X161879859Y-97477650D01*
X161847474Y-97433077D01*
X161847474Y-97433076D01*
X161168000Y-98112551D01*
X161168000Y-98106339D01*
X161140741Y-98004606D01*
X161088080Y-97913394D01*
X161013606Y-97838920D01*
X160922394Y-97786259D01*
X160820661Y-97759000D01*
X160814446Y-97759000D01*
X161493922Y-97079524D01*
X161493921Y-97079523D01*
X161449359Y-97047147D01*
X161449350Y-97047141D01*
X161395621Y-97019765D01*
X161344825Y-96971791D01*
X161328030Y-96903970D01*
X161350567Y-96837835D01*
X161395621Y-96798795D01*
X161449610Y-96771287D01*
X161554541Y-96695051D01*
X161615213Y-96650971D01*
X161615215Y-96650968D01*
X161615219Y-96650966D01*
X161759966Y-96506219D01*
X161759968Y-96506215D01*
X161759971Y-96506213D01*
X161835176Y-96402700D01*
X161880287Y-96340610D01*
X161973220Y-96158219D01*
X162036477Y-95963534D01*
X162068500Y-95761352D01*
X162068500Y-95556648D01*
X162042606Y-95393164D01*
X162036477Y-95354465D01*
X161992511Y-95219153D01*
X161973220Y-95159781D01*
X161973218Y-95159778D01*
X161973218Y-95159776D01*
X161908095Y-95031967D01*
X161880287Y-94977390D01*
X161871600Y-94965433D01*
X161759971Y-94811786D01*
X161615213Y-94667028D01*
X161449613Y-94546715D01*
X161449612Y-94546714D01*
X161449610Y-94546713D01*
X161377341Y-94509890D01*
X161267223Y-94453781D01*
X161072534Y-94390522D01*
X160878086Y-94359725D01*
X160870352Y-94358500D01*
X160665648Y-94358500D01*
X160657914Y-94359725D01*
X160463465Y-94390522D01*
X160268776Y-94453781D01*
X160086386Y-94546715D01*
X159920786Y-94667028D01*
X159776028Y-94811786D01*
X159655715Y-94977386D01*
X159562781Y-95159776D01*
X159499522Y-95354465D01*
X159467500Y-95556648D01*
X156707349Y-95556648D01*
X156892433Y-95462343D01*
X157083510Y-95323517D01*
X157250517Y-95156510D01*
X157389343Y-94965433D01*
X157496568Y-94754992D01*
X157569553Y-94530368D01*
X157581683Y-94453781D01*
X157606500Y-94297097D01*
X157606500Y-94060902D01*
X157569553Y-93827631D01*
X157496566Y-93603003D01*
X157389342Y-93392566D01*
X157386428Y-93388555D01*
X157250517Y-93201490D01*
X157083510Y-93034483D01*
X156892433Y-92895657D01*
X156888618Y-92893713D01*
X156681996Y-92788433D01*
X156457368Y-92715446D01*
X156224097Y-92678500D01*
X156224092Y-92678500D01*
X155987908Y-92678500D01*
X155987903Y-92678500D01*
X155754631Y-92715446D01*
X155530003Y-92788433D01*
X155319566Y-92895657D01*
X155255247Y-92942388D01*
X155128490Y-93034483D01*
X155128488Y-93034485D01*
X155128487Y-93034485D01*
X154961485Y-93201487D01*
X154961485Y-93201488D01*
X154961483Y-93201490D01*
X154907177Y-93276235D01*
X154822657Y-93392566D01*
X154715433Y-93603003D01*
X154642446Y-93827631D01*
X154605500Y-94060902D01*
X151106500Y-94060902D01*
X151069553Y-93827631D01*
X150996566Y-93603003D01*
X150889342Y-93392566D01*
X150886428Y-93388555D01*
X150750517Y-93201490D01*
X150583510Y-93034483D01*
X150392433Y-92895657D01*
X150388618Y-92893713D01*
X150181996Y-92788433D01*
X149957368Y-92715446D01*
X149724097Y-92678500D01*
X149724092Y-92678500D01*
X149487908Y-92678500D01*
X149487903Y-92678500D01*
X149254631Y-92715446D01*
X149030003Y-92788433D01*
X148819566Y-92895657D01*
X148755247Y-92942388D01*
X148628490Y-93034483D01*
X148628488Y-93034485D01*
X148628487Y-93034485D01*
X148461485Y-93201487D01*
X148461485Y-93201488D01*
X148461483Y-93201490D01*
X148407177Y-93276235D01*
X148322657Y-93392566D01*
X148215433Y-93603003D01*
X148142446Y-93827631D01*
X148105500Y-94060902D01*
X148105500Y-94297097D01*
X148142447Y-94530369D01*
X148142447Y-94530372D01*
X148166109Y-94603194D01*
X148168104Y-94673035D01*
X148135859Y-94729193D01*
X146179727Y-96685325D01*
X146179721Y-96685332D01*
X146122289Y-96771285D01*
X146122290Y-96771286D01*
X146108535Y-96791872D01*
X146059499Y-96910255D01*
X146059497Y-96910261D01*
X146034500Y-97035928D01*
X146034500Y-112894191D01*
X146014815Y-112961230D01*
X145998181Y-112981872D01*
X144512181Y-114467872D01*
X144450858Y-114501357D01*
X144381166Y-114496373D01*
X144325233Y-114454501D01*
X144300816Y-114389037D01*
X144300500Y-114380191D01*
X144300500Y-114257647D01*
X144268477Y-114055465D01*
X144205218Y-113860776D01*
X144171503Y-113794607D01*
X144112287Y-113678390D01*
X144076893Y-113629674D01*
X143991971Y-113512786D01*
X143847213Y-113368028D01*
X143681614Y-113247715D01*
X143675006Y-113244348D01*
X143588917Y-113200483D01*
X143538123Y-113152511D01*
X143521328Y-113084690D01*
X143543865Y-113018555D01*
X143588917Y-112979516D01*
X143681610Y-112932287D01*
X143734045Y-112894191D01*
X143847213Y-112811971D01*
X143847215Y-112811968D01*
X143847219Y-112811966D01*
X143991966Y-112667219D01*
X143991968Y-112667215D01*
X143991971Y-112667213D01*
X144054946Y-112580534D01*
X144112287Y-112501610D01*
X144205220Y-112319219D01*
X144268477Y-112124534D01*
X144300500Y-111922352D01*
X144300500Y-111717648D01*
X144268477Y-111515466D01*
X144205220Y-111320781D01*
X144205218Y-111320778D01*
X144205218Y-111320776D01*
X144171503Y-111254607D01*
X144112287Y-111138390D01*
X144029232Y-111024073D01*
X143991971Y-110972786D01*
X143847213Y-110828028D01*
X143681614Y-110707715D01*
X143673410Y-110703535D01*
X143595703Y-110663941D01*
X143544908Y-110615968D01*
X143528113Y-110548147D01*
X143550650Y-110482012D01*
X143593546Y-110444099D01*
X143659493Y-110408849D01*
X143659511Y-110408838D01*
X143728912Y-110362465D01*
X143129409Y-109762962D01*
X143192993Y-109745925D01*
X143307007Y-109680099D01*
X143400099Y-109587007D01*
X143465925Y-109472993D01*
X143482962Y-109409409D01*
X144082465Y-110008912D01*
X144128838Y-109939511D01*
X144128844Y-109939501D01*
X144175509Y-109852198D01*
X144235814Y-109706612D01*
X144264555Y-109611864D01*
X144295298Y-109457302D01*
X144295298Y-109457299D01*
X144305000Y-109358789D01*
X144305000Y-109201210D01*
X144295298Y-109102700D01*
X144295298Y-109102697D01*
X144264555Y-108948135D01*
X144235814Y-108853387D01*
X144175509Y-108707801D01*
X144128841Y-108620493D01*
X144082465Y-108551086D01*
X144082465Y-108551085D01*
X143482962Y-109150589D01*
X143465925Y-109087007D01*
X143400099Y-108972993D01*
X143307007Y-108879901D01*
X143192993Y-108814075D01*
X143129410Y-108797037D01*
X143728913Y-108197534D01*
X143728912Y-108197533D01*
X143659506Y-108151158D01*
X143593545Y-108115900D01*
X143543701Y-108066937D01*
X143528241Y-107998799D01*
X143552073Y-107933119D01*
X143595702Y-107896059D01*
X143681610Y-107852287D01*
X143772745Y-107786074D01*
X143847213Y-107731971D01*
X143847215Y-107731968D01*
X143847219Y-107731966D01*
X143991966Y-107587219D01*
X143991968Y-107587215D01*
X143991971Y-107587213D01*
X144044732Y-107514590D01*
X144112287Y-107421610D01*
X144205220Y-107239219D01*
X144268477Y-107044534D01*
X144300500Y-106842352D01*
X144300500Y-106637648D01*
X144268477Y-106435466D01*
X144205220Y-106240781D01*
X144205218Y-106240778D01*
X144205218Y-106240776D01*
X144140876Y-106114499D01*
X144112287Y-106058390D01*
X144042882Y-105962861D01*
X143991971Y-105892786D01*
X143847213Y-105748028D01*
X143681614Y-105627715D01*
X143614881Y-105593713D01*
X143588917Y-105580483D01*
X143538123Y-105532511D01*
X143521328Y-105464690D01*
X143543865Y-105398555D01*
X143588917Y-105359516D01*
X143681610Y-105312287D01*
X143702770Y-105296913D01*
X143847213Y-105191971D01*
X143847215Y-105191968D01*
X143847219Y-105191966D01*
X143991966Y-105047219D01*
X143991968Y-105047215D01*
X143991971Y-105047213D01*
X144044732Y-104974590D01*
X144112287Y-104881610D01*
X144205220Y-104699219D01*
X144268477Y-104504534D01*
X144300500Y-104302352D01*
X144300500Y-104097648D01*
X144268477Y-103895466D01*
X144205220Y-103700781D01*
X144205218Y-103700778D01*
X144205218Y-103700776D01*
X144140876Y-103574499D01*
X144112287Y-103518390D01*
X144081581Y-103476126D01*
X143991971Y-103352786D01*
X143847213Y-103208028D01*
X143681614Y-103087715D01*
X143675006Y-103084348D01*
X143588917Y-103040483D01*
X143538123Y-102992511D01*
X143521328Y-102924690D01*
X143543865Y-102858555D01*
X143588917Y-102819516D01*
X143681610Y-102772287D01*
X143702770Y-102756913D01*
X143847213Y-102651971D01*
X143847215Y-102651968D01*
X143847219Y-102651966D01*
X143991966Y-102507219D01*
X143991968Y-102507215D01*
X143991971Y-102507213D01*
X144044732Y-102434590D01*
X144112287Y-102341610D01*
X144205220Y-102159219D01*
X144268477Y-101964534D01*
X144300500Y-101762352D01*
X144300500Y-101557648D01*
X144268477Y-101355466D01*
X144205220Y-101160781D01*
X144205218Y-101160778D01*
X144205218Y-101160776D01*
X144164901Y-101081650D01*
X144112287Y-100978390D01*
X144081663Y-100936239D01*
X143991971Y-100812786D01*
X143847213Y-100668028D01*
X143681614Y-100547715D01*
X143614881Y-100513713D01*
X143588917Y-100500483D01*
X143538123Y-100452511D01*
X143521328Y-100384690D01*
X143543865Y-100318555D01*
X143588917Y-100279516D01*
X143681610Y-100232287D01*
X143783378Y-100158349D01*
X143847213Y-100111971D01*
X143847215Y-100111968D01*
X143847219Y-100111966D01*
X143991966Y-99967219D01*
X143991968Y-99967215D01*
X143991971Y-99967213D01*
X144044732Y-99894590D01*
X144112287Y-99801610D01*
X144205220Y-99619219D01*
X144268477Y-99424534D01*
X144300500Y-99222352D01*
X144300500Y-99017648D01*
X144268477Y-98815466D01*
X144205220Y-98620781D01*
X144205218Y-98620778D01*
X144205218Y-98620776D01*
X144150075Y-98512553D01*
X144112287Y-98438390D01*
X144078676Y-98392128D01*
X143991971Y-98272786D01*
X143847213Y-98128028D01*
X143681614Y-98007715D01*
X143614881Y-97973713D01*
X143595703Y-97963941D01*
X143544908Y-97915968D01*
X143528113Y-97848147D01*
X143550650Y-97782012D01*
X143593546Y-97744099D01*
X143659493Y-97708849D01*
X143659511Y-97708838D01*
X143728912Y-97662465D01*
X143129409Y-97062962D01*
X143192993Y-97045925D01*
X143307007Y-96980099D01*
X143400099Y-96887007D01*
X143465925Y-96772993D01*
X143482962Y-96709409D01*
X144082465Y-97308912D01*
X144128838Y-97239511D01*
X144128844Y-97239501D01*
X144175509Y-97152198D01*
X144235814Y-97006612D01*
X144264555Y-96911864D01*
X144295298Y-96757302D01*
X144295298Y-96757299D01*
X144305000Y-96658789D01*
X144305000Y-96501210D01*
X144295298Y-96402700D01*
X144295298Y-96402697D01*
X144264555Y-96248135D01*
X144235814Y-96153387D01*
X144175509Y-96007801D01*
X144128841Y-95920493D01*
X144082465Y-95851086D01*
X144082465Y-95851085D01*
X143482962Y-96450589D01*
X143465925Y-96387007D01*
X143400099Y-96272993D01*
X143307007Y-96179901D01*
X143192993Y-96114075D01*
X143129410Y-96097037D01*
X143728913Y-95497534D01*
X143728912Y-95497533D01*
X143659506Y-95451158D01*
X143593545Y-95415900D01*
X143543701Y-95366937D01*
X143528241Y-95298799D01*
X143552073Y-95233119D01*
X143595702Y-95196059D01*
X143681610Y-95152287D01*
X143783378Y-95078349D01*
X143847213Y-95031971D01*
X143847215Y-95031968D01*
X143847219Y-95031966D01*
X143991966Y-94887219D01*
X143991968Y-94887215D01*
X143991971Y-94887213D01*
X144046774Y-94811781D01*
X144112287Y-94721610D01*
X144205220Y-94539219D01*
X144268477Y-94344534D01*
X144300500Y-94142352D01*
X144300500Y-93937648D01*
X144268477Y-93735466D01*
X144205220Y-93540781D01*
X144205218Y-93540778D01*
X144205218Y-93540776D01*
X144160847Y-93453695D01*
X144112287Y-93358390D01*
X144081663Y-93316239D01*
X143991971Y-93192786D01*
X143847213Y-93048028D01*
X143681614Y-92927715D01*
X143675006Y-92924348D01*
X143588917Y-92880483D01*
X143538123Y-92832511D01*
X143521328Y-92764690D01*
X143543865Y-92698555D01*
X143588917Y-92659516D01*
X143681610Y-92612287D01*
X143815320Y-92515142D01*
X143847213Y-92491971D01*
X143847215Y-92491968D01*
X143847219Y-92491966D01*
X143991966Y-92347219D01*
X143991968Y-92347215D01*
X143991971Y-92347213D01*
X144079170Y-92227192D01*
X144112287Y-92181610D01*
X144205220Y-91999219D01*
X144268477Y-91804534D01*
X144300500Y-91602352D01*
X144300500Y-91397648D01*
X144268477Y-91195466D01*
X144268476Y-91195464D01*
X144239127Y-91105137D01*
X144205220Y-91000781D01*
X144205218Y-91000778D01*
X144205218Y-91000776D01*
X144171503Y-90934607D01*
X144112287Y-90818390D01*
X144085011Y-90780847D01*
X143991971Y-90652786D01*
X143847213Y-90508028D01*
X143680379Y-90386818D01*
X143637713Y-90331489D01*
X143631734Y-90261875D01*
X143664339Y-90200080D01*
X143725178Y-90165723D01*
X143753264Y-90162500D01*
X165908340Y-90162500D01*
X165975379Y-90182185D01*
X166021134Y-90234989D01*
X166031078Y-90304147D01*
X166002053Y-90367703D01*
X165987005Y-90382353D01*
X165780841Y-90551546D01*
X165551546Y-90780841D01*
X165345821Y-91031518D01*
X165345811Y-91031532D01*
X165165657Y-91301151D01*
X165165646Y-91301169D01*
X165012788Y-91587145D01*
X165012786Y-91587150D01*
X164888686Y-91886752D01*
X164794548Y-92197086D01*
X164794545Y-92197097D01*
X164731287Y-92515125D01*
X164731284Y-92515142D01*
X164711556Y-92715447D01*
X164699500Y-92837857D01*
X164699500Y-93162143D01*
X164709054Y-93259152D01*
X164731284Y-93484857D01*
X164731287Y-93484874D01*
X164794545Y-93802902D01*
X164794548Y-93802913D01*
X164888686Y-94113247D01*
X165012786Y-94412849D01*
X165012788Y-94412854D01*
X165165646Y-94698830D01*
X165165657Y-94698848D01*
X165345811Y-94968467D01*
X165345821Y-94968481D01*
X165551546Y-95219158D01*
X165780841Y-95448453D01*
X165780846Y-95448457D01*
X165780847Y-95448458D01*
X166031524Y-95654183D01*
X166301158Y-95834347D01*
X166301167Y-95834352D01*
X166301169Y-95834353D01*
X166587145Y-95987211D01*
X166587147Y-95987211D01*
X166587153Y-95987215D01*
X166886754Y-96111314D01*
X167197077Y-96205449D01*
X167197083Y-96205450D01*
X167197086Y-96205451D01*
X167197097Y-96205454D01*
X167396528Y-96245122D01*
X167515132Y-96268714D01*
X167837857Y-96300500D01*
X167837860Y-96300500D01*
X168162140Y-96300500D01*
X168162143Y-96300500D01*
X168484868Y-96268714D01*
X168642295Y-96237399D01*
X168802902Y-96205454D01*
X168802913Y-96205451D01*
X168802913Y-96205450D01*
X168802923Y-96205449D01*
X169113246Y-96111314D01*
X169412847Y-95987215D01*
X169698842Y-95834347D01*
X169968476Y-95654183D01*
X170219153Y-95448458D01*
X170251712Y-95415899D01*
X170287819Y-95379793D01*
X170349142Y-95346308D01*
X170418834Y-95351292D01*
X170474767Y-95393164D01*
X170499184Y-95458628D01*
X170499500Y-95467474D01*
X170499500Y-147532526D01*
X170479815Y-147599565D01*
X170427011Y-147645320D01*
X170357853Y-147655264D01*
X170294297Y-147626239D01*
X170287819Y-147620207D01*
X170219158Y-147551546D01*
X169968481Y-147345821D01*
X169968480Y-147345820D01*
X169968476Y-147345817D01*
X169698842Y-147165653D01*
X169698837Y-147165650D01*
X169698830Y-147165646D01*
X169412854Y-147012788D01*
X169412849Y-147012786D01*
X169367493Y-146993999D01*
X169313087Y-146971463D01*
X169113247Y-146888686D01*
X168802913Y-146794548D01*
X168802902Y-146794545D01*
X168484874Y-146731287D01*
X168484857Y-146731284D01*
X168240812Y-146707248D01*
X168162143Y-146699500D01*
X167837857Y-146699500D01*
X167765099Y-146706666D01*
X167515142Y-146731284D01*
X167515125Y-146731287D01*
X167197097Y-146794545D01*
X167197086Y-146794548D01*
X166886752Y-146888686D01*
X166587150Y-147012786D01*
X166587145Y-147012788D01*
X166301169Y-147165646D01*
X166301151Y-147165657D01*
X166031532Y-147345811D01*
X166031518Y-147345821D01*
X165780841Y-147551546D01*
X165551546Y-147780841D01*
X165345821Y-148031518D01*
X165345811Y-148031532D01*
X165165657Y-148301151D01*
X165165646Y-148301169D01*
X165012788Y-148587145D01*
X165012786Y-148587150D01*
X164888686Y-148886752D01*
X164794548Y-149197086D01*
X164794545Y-149197097D01*
X164731287Y-149515125D01*
X164731284Y-149515142D01*
X164707222Y-149759459D01*
X164699500Y-149837857D01*
X164699500Y-150162143D01*
X164701930Y-150186816D01*
X164731284Y-150484857D01*
X164731287Y-150484874D01*
X164794545Y-150802902D01*
X164794548Y-150802913D01*
X164888686Y-151113247D01*
X165012786Y-151412849D01*
X165012788Y-151412854D01*
X165165646Y-151698830D01*
X165165657Y-151698848D01*
X165345811Y-151968467D01*
X165345821Y-151968481D01*
X165551546Y-152219158D01*
X165780841Y-152448453D01*
X165780846Y-152448457D01*
X165780847Y-152448458D01*
X166031524Y-152654183D01*
X166205604Y-152770500D01*
X166208445Y-152772398D01*
X166253250Y-152826010D01*
X166261957Y-152895335D01*
X166231803Y-152958362D01*
X166172360Y-152995082D01*
X166139554Y-152999500D01*
X123155480Y-152999500D01*
X123134415Y-152995725D01*
X123089837Y-152999500D01*
X123045098Y-152999500D01*
X123035073Y-153002186D01*
X123035072Y-153002186D01*
X123024422Y-153005039D01*
X123003101Y-153006845D01*
X122961035Y-153022022D01*
X122955971Y-153023379D01*
X122955964Y-153023382D01*
X122917802Y-153033608D01*
X122908808Y-153038801D01*
X122899266Y-153044310D01*
X122879139Y-153051573D01*
X122842444Y-153077113D01*
X122837907Y-153079733D01*
X122837897Y-153079740D01*
X122803676Y-153099499D01*
X122796329Y-153106846D01*
X122796328Y-153106845D01*
X122788532Y-153114639D01*
X122770978Y-153126860D01*
X122742142Y-153161029D01*
X122738428Y-153164744D01*
X122738429Y-153164744D01*
X122710494Y-153192680D01*
X122710487Y-153192690D01*
X122705297Y-153201679D01*
X122699789Y-153211219D01*
X122685987Y-153227576D01*
X122666970Y-153268062D01*
X122664345Y-153272609D01*
X122644600Y-153306809D01*
X122644597Y-153306817D01*
X122641912Y-153316837D01*
X122634374Y-153337458D01*
X119068964Y-160928218D01*
X119022645Y-160980528D01*
X118956728Y-160999500D01*
X115144446Y-160999500D01*
X115077407Y-160979815D01*
X115031652Y-160927011D01*
X115021708Y-160857853D01*
X115050733Y-160794297D01*
X115075555Y-160772398D01*
X115252476Y-160654183D01*
X115503153Y-160448458D01*
X115732458Y-160219153D01*
X115938183Y-159968476D01*
X116118347Y-159698842D01*
X116271215Y-159412847D01*
X116395314Y-159113246D01*
X116489449Y-158802923D01*
X116489451Y-158802913D01*
X116489454Y-158802902D01*
X116521399Y-158642295D01*
X116552714Y-158484868D01*
X116584500Y-158162143D01*
X116584500Y-157837857D01*
X116552714Y-157515132D01*
X116529122Y-157396528D01*
X116489454Y-157197097D01*
X116489451Y-157197086D01*
X116489450Y-157197083D01*
X116489449Y-157197077D01*
X116395314Y-156886754D01*
X116271215Y-156587153D01*
X116118347Y-156301158D01*
X115938183Y-156031524D01*
X115732458Y-155780847D01*
X115732457Y-155780846D01*
X115732453Y-155780841D01*
X115503158Y-155551546D01*
X115252481Y-155345821D01*
X115252480Y-155345820D01*
X115252476Y-155345817D01*
X114982842Y-155165653D01*
X114982837Y-155165650D01*
X114982830Y-155165646D01*
X114696854Y-155012788D01*
X114696849Y-155012786D01*
X114397247Y-154888686D01*
X114086913Y-154794548D01*
X114086902Y-154794545D01*
X113768874Y-154731287D01*
X113768857Y-154731284D01*
X113524812Y-154707248D01*
X113446143Y-154699500D01*
X113121857Y-154699500D01*
X113049099Y-154706666D01*
X112799142Y-154731284D01*
X112799125Y-154731287D01*
X112481097Y-154794545D01*
X112481086Y-154794548D01*
X112170752Y-154888686D01*
X111871150Y-155012786D01*
X111871145Y-155012788D01*
X111585169Y-155165646D01*
X111585151Y-155165657D01*
X111315532Y-155345811D01*
X111315518Y-155345821D01*
X111064841Y-155551546D01*
X110835546Y-155780841D01*
X110629821Y-156031518D01*
X110629811Y-156031532D01*
X110449657Y-156301151D01*
X110449646Y-156301169D01*
X110296788Y-156587145D01*
X110296786Y-156587150D01*
X110213061Y-156789280D01*
X110169220Y-156843683D01*
X110102926Y-156865748D01*
X110035226Y-156848469D01*
X109987616Y-156797331D01*
X109974500Y-156741827D01*
X109974500Y-92102135D01*
X110649500Y-92102135D01*
X110649500Y-93897870D01*
X110649501Y-93897876D01*
X110655908Y-93957483D01*
X110706202Y-94092328D01*
X110706206Y-94092335D01*
X110792452Y-94207544D01*
X110792455Y-94207547D01*
X110907664Y-94293793D01*
X110907671Y-94293797D01*
X111039082Y-94342810D01*
X111095016Y-94384681D01*
X111119433Y-94450145D01*
X111104582Y-94518418D01*
X111083431Y-94546673D01*
X110969889Y-94660215D01*
X110844951Y-94832179D01*
X110748444Y-95021585D01*
X110682753Y-95223760D01*
X110660076Y-95366937D01*
X110649500Y-95433713D01*
X110649500Y-95646287D01*
X110656489Y-95690415D01*
X110681465Y-95848108D01*
X110682754Y-95856243D01*
X110731998Y-96007801D01*
X110748444Y-96058414D01*
X110844951Y-96247820D01*
X110969890Y-96419786D01*
X111120213Y-96570109D01*
X111292182Y-96695050D01*
X111300946Y-96699516D01*
X111351742Y-96747491D01*
X111368536Y-96815312D01*
X111345998Y-96881447D01*
X111300946Y-96920484D01*
X111292182Y-96924949D01*
X111120213Y-97049890D01*
X110969890Y-97200213D01*
X110844951Y-97372179D01*
X110748444Y-97561585D01*
X110682753Y-97763760D01*
X110649500Y-97973713D01*
X110649500Y-98186286D01*
X110674050Y-98341292D01*
X110682754Y-98396243D01*
X110735637Y-98559000D01*
X110748444Y-98598414D01*
X110844951Y-98787820D01*
X110969890Y-98959786D01*
X111120213Y-99110109D01*
X111292182Y-99235050D01*
X111300946Y-99239516D01*
X111351742Y-99287491D01*
X111368536Y-99355312D01*
X111345998Y-99421447D01*
X111300946Y-99460484D01*
X111292182Y-99464949D01*
X111120213Y-99589890D01*
X110969890Y-99740213D01*
X110844951Y-99912179D01*
X110748444Y-100101585D01*
X110682753Y-100303760D01*
X110658834Y-100454780D01*
X110649500Y-100513713D01*
X110649500Y-100726287D01*
X110682754Y-100936243D01*
X110696448Y-100978390D01*
X110748444Y-101138414D01*
X110844951Y-101327820D01*
X110969890Y-101499786D01*
X111120213Y-101650109D01*
X111292179Y-101775048D01*
X111292181Y-101775049D01*
X111292184Y-101775051D01*
X111301493Y-101779794D01*
X111352290Y-101827766D01*
X111369087Y-101895587D01*
X111346552Y-101961722D01*
X111301502Y-102000762D01*
X111292443Y-102005378D01*
X111120540Y-102130272D01*
X111120535Y-102130276D01*
X110970276Y-102280535D01*
X110970272Y-102280540D01*
X110845379Y-102452442D01*
X110748904Y-102641782D01*
X110683242Y-102843870D01*
X110683242Y-102843873D01*
X110672769Y-102910000D01*
X111566988Y-102910000D01*
X111534075Y-102967007D01*
X111500000Y-103094174D01*
X111500000Y-103225826D01*
X111534075Y-103352993D01*
X111566988Y-103410000D01*
X110672769Y-103410000D01*
X110683242Y-103476126D01*
X110683242Y-103476129D01*
X110748904Y-103678217D01*
X110845379Y-103867557D01*
X110970272Y-104039459D01*
X110970276Y-104039464D01*
X111120535Y-104189723D01*
X111120540Y-104189727D01*
X111292444Y-104314622D01*
X111301495Y-104319234D01*
X111352292Y-104367208D01*
X111369087Y-104435029D01*
X111346550Y-104501164D01*
X111301499Y-104540202D01*
X111292182Y-104544949D01*
X111120213Y-104669890D01*
X110969890Y-104820213D01*
X110844951Y-104992179D01*
X110748444Y-105181585D01*
X110682753Y-105383760D01*
X110658834Y-105534780D01*
X110649500Y-105593713D01*
X110649500Y-105806287D01*
X110682754Y-106016243D01*
X110730612Y-106163535D01*
X110748444Y-106218414D01*
X110844951Y-106407820D01*
X110969890Y-106579786D01*
X111120213Y-106730109D01*
X111292179Y-106855048D01*
X111292181Y-106855049D01*
X111292184Y-106855051D01*
X111481588Y-106951557D01*
X111683757Y-107017246D01*
X111893713Y-107050500D01*
X111893714Y-107050500D01*
X112106286Y-107050500D01*
X112106287Y-107050500D01*
X112316243Y-107017246D01*
X112518412Y-106951557D01*
X112707816Y-106855051D01*
X112729789Y-106839086D01*
X112879786Y-106730109D01*
X112879788Y-106730106D01*
X112879792Y-106730104D01*
X113030104Y-106579792D01*
X113030106Y-106579788D01*
X113030109Y-106579786D01*
X113155048Y-106407820D01*
X113155047Y-106407820D01*
X113155051Y-106407816D01*
X113159514Y-106399055D01*
X113207488Y-106348259D01*
X113275308Y-106331463D01*
X113341444Y-106353999D01*
X113380486Y-106399056D01*
X113384951Y-106407820D01*
X113509890Y-106579786D01*
X113509896Y-106579792D01*
X113660208Y-106730104D01*
X113832184Y-106855051D01*
X113832188Y-106855053D01*
X113836126Y-106857914D01*
X113835146Y-106859262D01*
X113877160Y-106905690D01*
X113889500Y-106959617D01*
X113889500Y-110749375D01*
X113880062Y-110796826D01*
X113874499Y-110810256D01*
X113874497Y-110810261D01*
X113849500Y-110935928D01*
X113849500Y-111664069D01*
X113855801Y-111695743D01*
X113855801Y-111695745D01*
X113874497Y-111789736D01*
X113874499Y-111789744D01*
X113923534Y-111908125D01*
X113994726Y-112014673D01*
X113994727Y-112014674D01*
X116813181Y-114833127D01*
X116846666Y-114894450D01*
X116849500Y-114920808D01*
X116849500Y-124679191D01*
X116829815Y-124746230D01*
X116813181Y-124766872D01*
X116794727Y-124785325D01*
X116794724Y-124785328D01*
X116768528Y-124824533D01*
X116768529Y-124824534D01*
X116723534Y-124891874D01*
X116674499Y-125010255D01*
X116674497Y-125010261D01*
X116649500Y-125135928D01*
X116649500Y-125479191D01*
X116629815Y-125546230D01*
X116613181Y-125566872D01*
X115946371Y-126233681D01*
X115885048Y-126267166D01*
X115858690Y-126270000D01*
X114973012Y-126270000D01*
X115005925Y-126212993D01*
X115040000Y-126085826D01*
X115040000Y-125954174D01*
X115005925Y-125827007D01*
X114973012Y-125770000D01*
X115867231Y-125770000D01*
X115856757Y-125703873D01*
X115856757Y-125703870D01*
X115791095Y-125501782D01*
X115694620Y-125312442D01*
X115569727Y-125140540D01*
X115569723Y-125140535D01*
X115419464Y-124990276D01*
X115419459Y-124990272D01*
X115247555Y-124865377D01*
X115238500Y-124860763D01*
X115187706Y-124812788D01*
X115170912Y-124744966D01*
X115193451Y-124678832D01*
X115238508Y-124639793D01*
X115247816Y-124635051D01*
X115327007Y-124577515D01*
X115419786Y-124510109D01*
X115419788Y-124510106D01*
X115419792Y-124510104D01*
X115570104Y-124359792D01*
X115570106Y-124359788D01*
X115570109Y-124359786D01*
X115695048Y-124187820D01*
X115695047Y-124187820D01*
X115695051Y-124187816D01*
X115791557Y-123998412D01*
X115857246Y-123796243D01*
X115890500Y-123586287D01*
X115890500Y-123373713D01*
X115857246Y-123163757D01*
X115791557Y-122961588D01*
X115695051Y-122772184D01*
X115695049Y-122772181D01*
X115695048Y-122772179D01*
X115570109Y-122600213D01*
X115419786Y-122449890D01*
X115247820Y-122324951D01*
X115247115Y-122324591D01*
X115239054Y-122320485D01*
X115188259Y-122272512D01*
X115171463Y-122204692D01*
X115193999Y-122138556D01*
X115239054Y-122099515D01*
X115247816Y-122095051D01*
X115315569Y-122045826D01*
X115419786Y-121970109D01*
X115419788Y-121970106D01*
X115419792Y-121970104D01*
X115570104Y-121819792D01*
X115570106Y-121819788D01*
X115570109Y-121819786D01*
X115695048Y-121647820D01*
X115695047Y-121647820D01*
X115695051Y-121647816D01*
X115791557Y-121458412D01*
X115857246Y-121256243D01*
X115890500Y-121046287D01*
X115890500Y-120833713D01*
X115857246Y-120623757D01*
X115791557Y-120421588D01*
X115695051Y-120232184D01*
X115695049Y-120232181D01*
X115695048Y-120232179D01*
X115570109Y-120060213D01*
X115419786Y-119909890D01*
X115247820Y-119784951D01*
X115247115Y-119784591D01*
X115239054Y-119780485D01*
X115188259Y-119732512D01*
X115171463Y-119664692D01*
X115193999Y-119598556D01*
X115239054Y-119559515D01*
X115247816Y-119555051D01*
X115269789Y-119539086D01*
X115419786Y-119430109D01*
X115419788Y-119430106D01*
X115419792Y-119430104D01*
X115570104Y-119279792D01*
X115570106Y-119279788D01*
X115570109Y-119279786D01*
X115695048Y-119107820D01*
X115695047Y-119107820D01*
X115695051Y-119107816D01*
X115791557Y-118918412D01*
X115857246Y-118716243D01*
X115890500Y-118506287D01*
X115890500Y-118293713D01*
X115857246Y-118083757D01*
X115791557Y-117881588D01*
X115695051Y-117692184D01*
X115695049Y-117692181D01*
X115695048Y-117692179D01*
X115570109Y-117520213D01*
X115419786Y-117369890D01*
X115247820Y-117244951D01*
X115247115Y-117244591D01*
X115239054Y-117240485D01*
X115188259Y-117192512D01*
X115171463Y-117124692D01*
X115193999Y-117058556D01*
X115239054Y-117019515D01*
X115247816Y-117015051D01*
X115269789Y-116999086D01*
X115419786Y-116890109D01*
X115419788Y-116890106D01*
X115419792Y-116890104D01*
X115570104Y-116739792D01*
X115570106Y-116739788D01*
X115570109Y-116739786D01*
X115695048Y-116567820D01*
X115695047Y-116567820D01*
X115695051Y-116567816D01*
X115791557Y-116378412D01*
X115857246Y-116176243D01*
X115890500Y-115966287D01*
X115890500Y-115753713D01*
X115857246Y-115543757D01*
X115791557Y-115341588D01*
X115695051Y-115152184D01*
X115695049Y-115152181D01*
X115695048Y-115152179D01*
X115570109Y-114980213D01*
X115419786Y-114829890D01*
X115247820Y-114704951D01*
X115058414Y-114608444D01*
X115058413Y-114608443D01*
X115058412Y-114608443D01*
X114856243Y-114542754D01*
X114856241Y-114542753D01*
X114856240Y-114542753D01*
X114694957Y-114517208D01*
X114646287Y-114509500D01*
X114433713Y-114509500D01*
X114385042Y-114517208D01*
X114223760Y-114542753D01*
X114021585Y-114608444D01*
X113832179Y-114704951D01*
X113660215Y-114829889D01*
X113546673Y-114943431D01*
X113485350Y-114976915D01*
X113415658Y-114971931D01*
X113359725Y-114930059D01*
X113342810Y-114899082D01*
X113293797Y-114767671D01*
X113293793Y-114767664D01*
X113207547Y-114652455D01*
X113207544Y-114652452D01*
X113092335Y-114566206D01*
X113092328Y-114566202D01*
X112957482Y-114515908D01*
X112957483Y-114515908D01*
X112897883Y-114509501D01*
X112897881Y-114509500D01*
X112897873Y-114509500D01*
X112897864Y-114509500D01*
X111102129Y-114509500D01*
X111102123Y-114509501D01*
X111042516Y-114515908D01*
X110907671Y-114566202D01*
X110907664Y-114566206D01*
X110792455Y-114652452D01*
X110792452Y-114652455D01*
X110706206Y-114767664D01*
X110706202Y-114767671D01*
X110655908Y-114902517D01*
X110649501Y-114962116D01*
X110649500Y-114962135D01*
X110649500Y-116757870D01*
X110649501Y-116757876D01*
X110655908Y-116817483D01*
X110706202Y-116952328D01*
X110706206Y-116952335D01*
X110792452Y-117067544D01*
X110792455Y-117067547D01*
X110907664Y-117153793D01*
X110907671Y-117153797D01*
X111039082Y-117202810D01*
X111095016Y-117244681D01*
X111119433Y-117310145D01*
X111104582Y-117378418D01*
X111083431Y-117406673D01*
X110969889Y-117520215D01*
X110844951Y-117692179D01*
X110748444Y-117881585D01*
X110682753Y-118083760D01*
X110658834Y-118234780D01*
X110649500Y-118293713D01*
X110649500Y-118506287D01*
X110658402Y-118562489D01*
X110680260Y-118700500D01*
X110682754Y-118716243D01*
X110730763Y-118864000D01*
X110748444Y-118918414D01*
X110844951Y-119107820D01*
X110969890Y-119279786D01*
X111120213Y-119430109D01*
X111292182Y-119555050D01*
X111300946Y-119559516D01*
X111351742Y-119607491D01*
X111368536Y-119675312D01*
X111345998Y-119741447D01*
X111300946Y-119780484D01*
X111292182Y-119784949D01*
X111120213Y-119909890D01*
X110969890Y-120060213D01*
X110844951Y-120232179D01*
X110748444Y-120421585D01*
X110682753Y-120623760D01*
X110649500Y-120833713D01*
X110649500Y-121046286D01*
X110680656Y-121243002D01*
X110682754Y-121256243D01*
X110731998Y-121407801D01*
X110748444Y-121458414D01*
X110844951Y-121647820D01*
X110969890Y-121819786D01*
X111120213Y-121970109D01*
X111292182Y-122095050D01*
X111300946Y-122099516D01*
X111351742Y-122147491D01*
X111368536Y-122215312D01*
X111345998Y-122281447D01*
X111300946Y-122320484D01*
X111292182Y-122324949D01*
X111120213Y-122449890D01*
X110969890Y-122600213D01*
X110844951Y-122772179D01*
X110748444Y-122961585D01*
X110682753Y-123163760D01*
X110658834Y-123314780D01*
X110649500Y-123373713D01*
X110649500Y-123586287D01*
X110682754Y-123796243D01*
X110696448Y-123838390D01*
X110748444Y-123998414D01*
X110844951Y-124187820D01*
X110969890Y-124359786D01*
X111120213Y-124510109D01*
X111292179Y-124635048D01*
X111292181Y-124635049D01*
X111292184Y-124635051D01*
X111301493Y-124639794D01*
X111352290Y-124687766D01*
X111369087Y-124755587D01*
X111346552Y-124821722D01*
X111301502Y-124860762D01*
X111292443Y-124865378D01*
X111120540Y-124990272D01*
X111120535Y-124990276D01*
X110970276Y-125140535D01*
X110970272Y-125140540D01*
X110845379Y-125312442D01*
X110748904Y-125501782D01*
X110683242Y-125703870D01*
X110683242Y-125703873D01*
X110672769Y-125770000D01*
X111566988Y-125770000D01*
X111534075Y-125827007D01*
X111500000Y-125954174D01*
X111500000Y-126085826D01*
X111534075Y-126212993D01*
X111566988Y-126270000D01*
X110672769Y-126270000D01*
X110683242Y-126336126D01*
X110683242Y-126336129D01*
X110748904Y-126538217D01*
X110845379Y-126727557D01*
X110970272Y-126899459D01*
X110970276Y-126899464D01*
X111120535Y-127049723D01*
X111120540Y-127049727D01*
X111292444Y-127174622D01*
X111301495Y-127179234D01*
X111352292Y-127227208D01*
X111369087Y-127295029D01*
X111346550Y-127361164D01*
X111301499Y-127400202D01*
X111292182Y-127404949D01*
X111120213Y-127529890D01*
X110969890Y-127680213D01*
X110844951Y-127852179D01*
X110748444Y-128041585D01*
X110682753Y-128243760D01*
X110658834Y-128394780D01*
X110649500Y-128453713D01*
X110649500Y-128666287D01*
X110682754Y-128876243D01*
X110696448Y-128918390D01*
X110748444Y-129078414D01*
X110844951Y-129267820D01*
X110969890Y-129439786D01*
X111120213Y-129590109D01*
X111292179Y-129715048D01*
X111292181Y-129715049D01*
X111292184Y-129715051D01*
X111481588Y-129811557D01*
X111683757Y-129877246D01*
X111893713Y-129910500D01*
X111893714Y-129910500D01*
X112106286Y-129910500D01*
X112106287Y-129910500D01*
X112316243Y-129877246D01*
X112518412Y-129811557D01*
X112707816Y-129715051D01*
X112729789Y-129699086D01*
X112879786Y-129590109D01*
X112879788Y-129590106D01*
X112879792Y-129590104D01*
X113030104Y-129439792D01*
X113030106Y-129439788D01*
X113030109Y-129439786D01*
X113155048Y-129267820D01*
X113155047Y-129267820D01*
X113155051Y-129267816D01*
X113159514Y-129259055D01*
X113207488Y-129208259D01*
X113275308Y-129191463D01*
X113341444Y-129213999D01*
X113380486Y-129259056D01*
X113384951Y-129267820D01*
X113509890Y-129439786D01*
X113660213Y-129590109D01*
X113832179Y-129715048D01*
X113832181Y-129715049D01*
X113832184Y-129715051D01*
X114021588Y-129811557D01*
X114223757Y-129877246D01*
X114433713Y-129910500D01*
X114433714Y-129910500D01*
X114646286Y-129910500D01*
X114646287Y-129910500D01*
X114756111Y-129893105D01*
X114861055Y-129876484D01*
X114861315Y-129878128D01*
X114923852Y-129881250D01*
X114970711Y-129910657D01*
X116313181Y-131253127D01*
X116346666Y-131314450D01*
X116349500Y-131340808D01*
X116349500Y-148639191D01*
X116329815Y-148706230D01*
X116313181Y-148726872D01*
X115946372Y-149093681D01*
X115885049Y-149127166D01*
X115858691Y-149130000D01*
X114973012Y-149130000D01*
X115005925Y-149072993D01*
X115040000Y-148945826D01*
X115040000Y-148814174D01*
X115005925Y-148687007D01*
X114973012Y-148630000D01*
X115867231Y-148630000D01*
X115856757Y-148563873D01*
X115856757Y-148563870D01*
X115791095Y-148361782D01*
X115694620Y-148172442D01*
X115569727Y-148000540D01*
X115569723Y-148000535D01*
X115419464Y-147850276D01*
X115419459Y-147850272D01*
X115247555Y-147725377D01*
X115238500Y-147720763D01*
X115187706Y-147672788D01*
X115170912Y-147604966D01*
X115193451Y-147538832D01*
X115238508Y-147499793D01*
X115247816Y-147495051D01*
X115327007Y-147437515D01*
X115419786Y-147370109D01*
X115419788Y-147370106D01*
X115419792Y-147370104D01*
X115570104Y-147219792D01*
X115570106Y-147219788D01*
X115570109Y-147219786D01*
X115695048Y-147047820D01*
X115695047Y-147047820D01*
X115695051Y-147047816D01*
X115791557Y-146858412D01*
X115857246Y-146656243D01*
X115890500Y-146446287D01*
X115890500Y-146233713D01*
X115857246Y-146023757D01*
X115791557Y-145821588D01*
X115695051Y-145632184D01*
X115695049Y-145632181D01*
X115695048Y-145632179D01*
X115570109Y-145460213D01*
X115419786Y-145309890D01*
X115247820Y-145184951D01*
X115247115Y-145184591D01*
X115239054Y-145180485D01*
X115188259Y-145132512D01*
X115171463Y-145064692D01*
X115193999Y-144998556D01*
X115239054Y-144959515D01*
X115247816Y-144955051D01*
X115269789Y-144939086D01*
X115419786Y-144830109D01*
X115419788Y-144830106D01*
X115419792Y-144830104D01*
X115570104Y-144679792D01*
X115570106Y-144679788D01*
X115570109Y-144679786D01*
X115695048Y-144507820D01*
X115695047Y-144507820D01*
X115695051Y-144507816D01*
X115791557Y-144318412D01*
X115857246Y-144116243D01*
X115890500Y-143906287D01*
X115890500Y-143693713D01*
X115857246Y-143483757D01*
X115791557Y-143281588D01*
X115695051Y-143092184D01*
X115695049Y-143092181D01*
X115695048Y-143092179D01*
X115570109Y-142920213D01*
X115419786Y-142769890D01*
X115247820Y-142644951D01*
X115247115Y-142644591D01*
X115239054Y-142640485D01*
X115188259Y-142592512D01*
X115171463Y-142524692D01*
X115193999Y-142458556D01*
X115239054Y-142419515D01*
X115247816Y-142415051D01*
X115269789Y-142399086D01*
X115419786Y-142290109D01*
X115419788Y-142290106D01*
X115419792Y-142290104D01*
X115570104Y-142139792D01*
X115570106Y-142139788D01*
X115570109Y-142139786D01*
X115695048Y-141967820D01*
X115695047Y-141967820D01*
X115695051Y-141967816D01*
X115791557Y-141778412D01*
X115857246Y-141576243D01*
X115890500Y-141366287D01*
X115890500Y-141153713D01*
X115857246Y-140943757D01*
X115791557Y-140741588D01*
X115695051Y-140552184D01*
X115695049Y-140552181D01*
X115695048Y-140552179D01*
X115570109Y-140380213D01*
X115419786Y-140229890D01*
X115247820Y-140104951D01*
X115247115Y-140104591D01*
X115239054Y-140100485D01*
X115188259Y-140052512D01*
X115171463Y-139984692D01*
X115193999Y-139918556D01*
X115239054Y-139879515D01*
X115247816Y-139875051D01*
X115334138Y-139812335D01*
X115419786Y-139750109D01*
X115419788Y-139750106D01*
X115419792Y-139750104D01*
X115570104Y-139599792D01*
X115570106Y-139599788D01*
X115570109Y-139599786D01*
X115695048Y-139427820D01*
X115695047Y-139427820D01*
X115695051Y-139427816D01*
X115791557Y-139238412D01*
X115857246Y-139036243D01*
X115890500Y-138826287D01*
X115890500Y-138613713D01*
X115857246Y-138403757D01*
X115791557Y-138201588D01*
X115695051Y-138012184D01*
X115695049Y-138012181D01*
X115695048Y-138012179D01*
X115570109Y-137840213D01*
X115419786Y-137689890D01*
X115247820Y-137564951D01*
X115058414Y-137468444D01*
X115058413Y-137468443D01*
X115058412Y-137468443D01*
X114856243Y-137402754D01*
X114856241Y-137402753D01*
X114856240Y-137402753D01*
X114694957Y-137377208D01*
X114646287Y-137369500D01*
X114433713Y-137369500D01*
X114385042Y-137377208D01*
X114223760Y-137402753D01*
X114021585Y-137468444D01*
X113832179Y-137564951D01*
X113660215Y-137689889D01*
X113546673Y-137803431D01*
X113485350Y-137836915D01*
X113415658Y-137831931D01*
X113359725Y-137790059D01*
X113342810Y-137759082D01*
X113293797Y-137627671D01*
X113293793Y-137627664D01*
X113207547Y-137512455D01*
X113207544Y-137512452D01*
X113092335Y-137426206D01*
X113092328Y-137426202D01*
X112957482Y-137375908D01*
X112957483Y-137375908D01*
X112897883Y-137369501D01*
X112897881Y-137369500D01*
X112897873Y-137369500D01*
X112897864Y-137369500D01*
X111102129Y-137369500D01*
X111102123Y-137369501D01*
X111042516Y-137375908D01*
X110907671Y-137426202D01*
X110907664Y-137426206D01*
X110792455Y-137512452D01*
X110792452Y-137512455D01*
X110706206Y-137627664D01*
X110706202Y-137627671D01*
X110655908Y-137762517D01*
X110649501Y-137822116D01*
X110649500Y-137822135D01*
X110649500Y-139617870D01*
X110649501Y-139617876D01*
X110655908Y-139677483D01*
X110706202Y-139812328D01*
X110706206Y-139812335D01*
X110792452Y-139927544D01*
X110792455Y-139927547D01*
X110907664Y-140013793D01*
X110907671Y-140013797D01*
X111039082Y-140062810D01*
X111095016Y-140104681D01*
X111119433Y-140170145D01*
X111104582Y-140238418D01*
X111083431Y-140266673D01*
X110969889Y-140380215D01*
X110844951Y-140552179D01*
X110748444Y-140741585D01*
X110682753Y-140943760D01*
X110649500Y-141153713D01*
X110649500Y-141366286D01*
X110682753Y-141576239D01*
X110748444Y-141778414D01*
X110844951Y-141967820D01*
X110969890Y-142139786D01*
X111120213Y-142290109D01*
X111292182Y-142415050D01*
X111300946Y-142419516D01*
X111351742Y-142467491D01*
X111368536Y-142535312D01*
X111345998Y-142601447D01*
X111300946Y-142640484D01*
X111292182Y-142644949D01*
X111120213Y-142769890D01*
X110969890Y-142920213D01*
X110844951Y-143092179D01*
X110748444Y-143281585D01*
X110682753Y-143483760D01*
X110649500Y-143693713D01*
X110649500Y-143906286D01*
X110682753Y-144116239D01*
X110748444Y-144318414D01*
X110844951Y-144507820D01*
X110969890Y-144679786D01*
X111120213Y-144830109D01*
X111292182Y-144955050D01*
X111300946Y-144959516D01*
X111351742Y-145007491D01*
X111368536Y-145075312D01*
X111345998Y-145141447D01*
X111300946Y-145180484D01*
X111292182Y-145184949D01*
X111120213Y-145309890D01*
X110969890Y-145460213D01*
X110844951Y-145632179D01*
X110748444Y-145821585D01*
X110682753Y-146023760D01*
X110649500Y-146233713D01*
X110649500Y-146446287D01*
X110682754Y-146656243D01*
X110727693Y-146794551D01*
X110748444Y-146858414D01*
X110844951Y-147047820D01*
X110969890Y-147219786D01*
X111120213Y-147370109D01*
X111292179Y-147495048D01*
X111292181Y-147495049D01*
X111292184Y-147495051D01*
X111301493Y-147499794D01*
X111352290Y-147547766D01*
X111369087Y-147615587D01*
X111346552Y-147681722D01*
X111301502Y-147720762D01*
X111292443Y-147725378D01*
X111120540Y-147850272D01*
X111120535Y-147850276D01*
X110970276Y-148000535D01*
X110970272Y-148000540D01*
X110845379Y-148172442D01*
X110748904Y-148361782D01*
X110683242Y-148563870D01*
X110683242Y-148563873D01*
X110672769Y-148630000D01*
X111566988Y-148630000D01*
X111534075Y-148687007D01*
X111500000Y-148814174D01*
X111500000Y-148945826D01*
X111534075Y-149072993D01*
X111566988Y-149130000D01*
X110672769Y-149130000D01*
X110683242Y-149196126D01*
X110683242Y-149196129D01*
X110748904Y-149398217D01*
X110845379Y-149587557D01*
X110970272Y-149759459D01*
X110970276Y-149759464D01*
X111120535Y-149909723D01*
X111120540Y-149909727D01*
X111292444Y-150034622D01*
X111301495Y-150039234D01*
X111352292Y-150087208D01*
X111369087Y-150155029D01*
X111346550Y-150221164D01*
X111301499Y-150260202D01*
X111292182Y-150264949D01*
X111120213Y-150389890D01*
X110969890Y-150540213D01*
X110844951Y-150712179D01*
X110748444Y-150901585D01*
X110682753Y-151103760D01*
X110649500Y-151313713D01*
X110649500Y-151526286D01*
X110682753Y-151736239D01*
X110748444Y-151938414D01*
X110844951Y-152127820D01*
X110969890Y-152299786D01*
X111120213Y-152450109D01*
X111292179Y-152575048D01*
X111292181Y-152575049D01*
X111292184Y-152575051D01*
X111481588Y-152671557D01*
X111683757Y-152737246D01*
X111893713Y-152770500D01*
X111893714Y-152770500D01*
X112106286Y-152770500D01*
X112106287Y-152770500D01*
X112316243Y-152737246D01*
X112518412Y-152671557D01*
X112707816Y-152575051D01*
X112729789Y-152559086D01*
X112879786Y-152450109D01*
X112879788Y-152450106D01*
X112879792Y-152450104D01*
X113030104Y-152299792D01*
X113030106Y-152299788D01*
X113030109Y-152299786D01*
X113155048Y-152127820D01*
X113155047Y-152127820D01*
X113155051Y-152127816D01*
X113159514Y-152119055D01*
X113207488Y-152068259D01*
X113275308Y-152051463D01*
X113341444Y-152073999D01*
X113380486Y-152119056D01*
X113384951Y-152127820D01*
X113509890Y-152299786D01*
X113660213Y-152450109D01*
X113832179Y-152575048D01*
X113832181Y-152575049D01*
X113832184Y-152575051D01*
X114021588Y-152671557D01*
X114223757Y-152737246D01*
X114433713Y-152770500D01*
X114433714Y-152770500D01*
X114646286Y-152770500D01*
X114646287Y-152770500D01*
X114856243Y-152737246D01*
X115058412Y-152671557D01*
X115247816Y-152575051D01*
X115269789Y-152559086D01*
X115419786Y-152450109D01*
X115419788Y-152450106D01*
X115419792Y-152450104D01*
X115570104Y-152299792D01*
X115570106Y-152299788D01*
X115570109Y-152299786D01*
X115695048Y-152127820D01*
X115695047Y-152127820D01*
X115695051Y-152127816D01*
X115791557Y-151938412D01*
X115857246Y-151736243D01*
X115890500Y-151526287D01*
X115890500Y-151313713D01*
X115858749Y-151113246D01*
X115856484Y-151098945D01*
X115858123Y-151098685D01*
X115861257Y-151036126D01*
X115890655Y-150989289D01*
X117505276Y-149374670D01*
X117576465Y-149268127D01*
X117625501Y-149149744D01*
X117650500Y-149024069D01*
X117650500Y-130955931D01*
X117650500Y-130955928D01*
X117625502Y-130830261D01*
X117625501Y-130830260D01*
X117625501Y-130830256D01*
X117590826Y-130746544D01*
X117576464Y-130711870D01*
X117505277Y-130605331D01*
X117505271Y-130605324D01*
X115890657Y-128990711D01*
X115857172Y-128929388D01*
X115857689Y-128881245D01*
X115856484Y-128881055D01*
X115890500Y-128666286D01*
X115890500Y-128453713D01*
X115856484Y-128238945D01*
X115858123Y-128238685D01*
X115861257Y-128176126D01*
X115890655Y-128129289D01*
X117805276Y-126214670D01*
X117876465Y-126108127D01*
X117925501Y-125989744D01*
X117950500Y-125864069D01*
X117950500Y-125520808D01*
X117970185Y-125453769D01*
X117986821Y-125433125D01*
X118005273Y-125414673D01*
X118005277Y-125414669D01*
X118076465Y-125308127D01*
X118125501Y-125189743D01*
X118128534Y-125174499D01*
X118150500Y-125064069D01*
X118150500Y-114535931D01*
X118150500Y-114535928D01*
X118125502Y-114410261D01*
X118125501Y-114410260D01*
X118125501Y-114410256D01*
X118076465Y-114291873D01*
X118053597Y-114257648D01*
X118053596Y-114257647D01*
X118005275Y-114185328D01*
X115186819Y-111366872D01*
X115172115Y-111339944D01*
X115155523Y-111314126D01*
X115154631Y-111307925D01*
X115153334Y-111305549D01*
X115150500Y-111279191D01*
X115150500Y-111210623D01*
X115159939Y-111163170D01*
X115165501Y-111149743D01*
X115167760Y-111138390D01*
X115190500Y-111024069D01*
X115190500Y-106959617D01*
X115210185Y-106892578D01*
X115244592Y-106858902D01*
X115243874Y-106857914D01*
X115247811Y-106855053D01*
X115247816Y-106855051D01*
X115419792Y-106730104D01*
X115570104Y-106579792D01*
X115570106Y-106579788D01*
X115570109Y-106579786D01*
X115695048Y-106407820D01*
X115695047Y-106407820D01*
X115695051Y-106407816D01*
X115791557Y-106218412D01*
X115857246Y-106016243D01*
X115890500Y-105806287D01*
X115890500Y-105593713D01*
X115857246Y-105383757D01*
X115791557Y-105181588D01*
X115695051Y-104992184D01*
X115695049Y-104992181D01*
X115695048Y-104992179D01*
X115570109Y-104820213D01*
X115419786Y-104669890D01*
X115247817Y-104544949D01*
X115238504Y-104540204D01*
X115187707Y-104492230D01*
X115170912Y-104424409D01*
X115193449Y-104358274D01*
X115238507Y-104319232D01*
X115247558Y-104314620D01*
X115419459Y-104189727D01*
X115419464Y-104189723D01*
X115569723Y-104039464D01*
X115569727Y-104039459D01*
X115694620Y-103867557D01*
X115791095Y-103678217D01*
X115856757Y-103476129D01*
X115856757Y-103476126D01*
X115867231Y-103410000D01*
X114973012Y-103410000D01*
X115005925Y-103352993D01*
X115040000Y-103225826D01*
X115040000Y-103094174D01*
X115005925Y-102967007D01*
X114973012Y-102910000D01*
X115867231Y-102910000D01*
X115856757Y-102843873D01*
X115856757Y-102843870D01*
X115791095Y-102641782D01*
X115694620Y-102452442D01*
X115569727Y-102280540D01*
X115569723Y-102280535D01*
X115419464Y-102130276D01*
X115419459Y-102130272D01*
X115247555Y-102005377D01*
X115238500Y-102000763D01*
X115187706Y-101952788D01*
X115170912Y-101884966D01*
X115193451Y-101818832D01*
X115238508Y-101779793D01*
X115247816Y-101775051D01*
X115327007Y-101717515D01*
X115419786Y-101650109D01*
X115419788Y-101650106D01*
X115419792Y-101650104D01*
X115570104Y-101499792D01*
X115570106Y-101499788D01*
X115570109Y-101499786D01*
X115695048Y-101327820D01*
X115695047Y-101327820D01*
X115695051Y-101327816D01*
X115791557Y-101138412D01*
X115857246Y-100936243D01*
X115890500Y-100726287D01*
X115890500Y-100513713D01*
X115857246Y-100303757D01*
X115791557Y-100101588D01*
X115695051Y-99912184D01*
X115695049Y-99912181D01*
X115695048Y-99912179D01*
X115570109Y-99740213D01*
X115419786Y-99589890D01*
X115247820Y-99464951D01*
X115247115Y-99464591D01*
X115239054Y-99460485D01*
X115188259Y-99412512D01*
X115171463Y-99344692D01*
X115193999Y-99278556D01*
X115239054Y-99239515D01*
X115247816Y-99235051D01*
X115269789Y-99219086D01*
X115419786Y-99110109D01*
X115419788Y-99110106D01*
X115419792Y-99110104D01*
X115570104Y-98959792D01*
X115570106Y-98959788D01*
X115570109Y-98959786D01*
X115695048Y-98787820D01*
X115695047Y-98787820D01*
X115695051Y-98787816D01*
X115791557Y-98598412D01*
X115857246Y-98396243D01*
X115890500Y-98186287D01*
X115890500Y-97973713D01*
X115857246Y-97763757D01*
X115791557Y-97561588D01*
X115695051Y-97372184D01*
X115695049Y-97372181D01*
X115695048Y-97372179D01*
X115570109Y-97200213D01*
X115419786Y-97049890D01*
X115247820Y-96924951D01*
X115247115Y-96924591D01*
X115239054Y-96920485D01*
X115188259Y-96872512D01*
X115171463Y-96804692D01*
X115193999Y-96738556D01*
X115239054Y-96699515D01*
X115247816Y-96695051D01*
X115297727Y-96658789D01*
X115419786Y-96570109D01*
X115419788Y-96570106D01*
X115419792Y-96570104D01*
X115570104Y-96419792D01*
X115570106Y-96419788D01*
X115570109Y-96419786D01*
X115695048Y-96247820D01*
X115695047Y-96247820D01*
X115695051Y-96247816D01*
X115791557Y-96058412D01*
X115857246Y-95856243D01*
X115890500Y-95646287D01*
X115890500Y-95433713D01*
X115857246Y-95223757D01*
X115791557Y-95021588D01*
X115695051Y-94832184D01*
X115695049Y-94832181D01*
X115695048Y-94832179D01*
X115570109Y-94660213D01*
X115419786Y-94509890D01*
X115247820Y-94384951D01*
X115247115Y-94384591D01*
X115239054Y-94380485D01*
X115188259Y-94332512D01*
X115171463Y-94264692D01*
X115193999Y-94198556D01*
X115239054Y-94159515D01*
X115247816Y-94155051D01*
X115334138Y-94092335D01*
X115419786Y-94030109D01*
X115419788Y-94030106D01*
X115419792Y-94030104D01*
X115570104Y-93879792D01*
X115570106Y-93879788D01*
X115570109Y-93879786D01*
X115695048Y-93707820D01*
X115695047Y-93707820D01*
X115695051Y-93707816D01*
X115791557Y-93518412D01*
X115857246Y-93316243D01*
X115890500Y-93106287D01*
X115890500Y-92893713D01*
X115857246Y-92683757D01*
X115791557Y-92481588D01*
X115695051Y-92292184D01*
X115695049Y-92292181D01*
X115695048Y-92292179D01*
X115570109Y-92120213D01*
X115419786Y-91969890D01*
X115247820Y-91844951D01*
X115058414Y-91748444D01*
X115058413Y-91748443D01*
X115058412Y-91748443D01*
X114856243Y-91682754D01*
X114856241Y-91682753D01*
X114856240Y-91682753D01*
X114694957Y-91657208D01*
X114646287Y-91649500D01*
X114433713Y-91649500D01*
X114385042Y-91657208D01*
X114223760Y-91682753D01*
X114021585Y-91748444D01*
X113832179Y-91844951D01*
X113660215Y-91969889D01*
X113546673Y-92083431D01*
X113485350Y-92116915D01*
X113415658Y-92111931D01*
X113359725Y-92070059D01*
X113342810Y-92039082D01*
X113293797Y-91907671D01*
X113293793Y-91907664D01*
X113207547Y-91792455D01*
X113207544Y-91792452D01*
X113092335Y-91706206D01*
X113092328Y-91706202D01*
X112957482Y-91655908D01*
X112957483Y-91655908D01*
X112897883Y-91649501D01*
X112897881Y-91649500D01*
X112897873Y-91649500D01*
X112897864Y-91649500D01*
X111102129Y-91649500D01*
X111102123Y-91649501D01*
X111042516Y-91655908D01*
X110907671Y-91706202D01*
X110907664Y-91706206D01*
X110792455Y-91792452D01*
X110792452Y-91792455D01*
X110706206Y-91907664D01*
X110706202Y-91907671D01*
X110655908Y-92042517D01*
X110649501Y-92102116D01*
X110649500Y-92102135D01*
X109974500Y-92102135D01*
X109974500Y-82412500D01*
X109994185Y-82345461D01*
X110046989Y-82299706D01*
X110098500Y-82288500D01*
X111761364Y-82288500D01*
X111828403Y-82308185D01*
G37*
%TD.AperFunction*%
%TA.AperFunction,Conductor*%
G36*
X135061231Y-104870185D02*
G01*
X135081873Y-104886819D01*
X136696181Y-106501127D01*
X136729666Y-106562450D01*
X136732500Y-106588808D01*
X136732500Y-116427069D01*
X136732500Y-116427071D01*
X136732499Y-116427071D01*
X136750238Y-116516243D01*
X136754268Y-116536500D01*
X136757499Y-116552744D01*
X136806535Y-116671127D01*
X136876988Y-116776569D01*
X136877726Y-116777673D01*
X138655327Y-118555274D01*
X138655330Y-118555276D01*
X138711461Y-118592781D01*
X138761873Y-118626465D01*
X138880256Y-118675501D01*
X138880260Y-118675501D01*
X138880261Y-118675502D01*
X139005928Y-118700500D01*
X139005931Y-118700500D01*
X141714859Y-118700500D01*
X141781898Y-118720185D01*
X141827653Y-118772989D01*
X141837597Y-118842147D01*
X141825344Y-118880794D01*
X141794782Y-118940773D01*
X141731522Y-119135465D01*
X141699500Y-119337648D01*
X141699500Y-119542351D01*
X141731522Y-119744534D01*
X141751066Y-119804681D01*
X141753061Y-119874522D01*
X141716981Y-119934355D01*
X141654280Y-119965184D01*
X141633135Y-119967000D01*
X139418308Y-119967000D01*
X139351269Y-119947315D01*
X139330627Y-119930681D01*
X135052819Y-115652873D01*
X135019334Y-115591550D01*
X135016500Y-115565192D01*
X135016500Y-108393928D01*
X134991502Y-108268261D01*
X134991501Y-108268260D01*
X134991501Y-108268256D01*
X134942465Y-108149873D01*
X134871277Y-108043331D01*
X134871275Y-108043329D01*
X134871273Y-108043326D01*
X133062673Y-106234726D01*
X133038257Y-106218412D01*
X132956127Y-106163535D01*
X132837744Y-106114499D01*
X132837738Y-106114497D01*
X132712071Y-106089500D01*
X132712069Y-106089500D01*
X126418071Y-106089500D01*
X126351032Y-106069815D01*
X126317754Y-106038386D01*
X126211966Y-105892781D01*
X126067219Y-105748034D01*
X126067213Y-105748028D01*
X125901614Y-105627715D01*
X125834881Y-105593713D01*
X125808917Y-105580483D01*
X125758123Y-105532511D01*
X125741328Y-105464690D01*
X125763865Y-105398555D01*
X125808917Y-105359516D01*
X125901610Y-105312287D01*
X125922770Y-105296913D01*
X126067213Y-105191971D01*
X126067215Y-105191968D01*
X126067219Y-105191966D01*
X126211966Y-105047219D01*
X126317753Y-104901613D01*
X126373082Y-104858949D01*
X126418071Y-104850500D01*
X134994192Y-104850500D01*
X135061231Y-104870185D01*
G37*
%TD.AperFunction*%
%TA.AperFunction,Conductor*%
G36*
X158192231Y-112176185D02*
G01*
X158212873Y-112192819D01*
X160657873Y-114637819D01*
X160691358Y-114699142D01*
X160686374Y-114768834D01*
X160644502Y-114824767D01*
X160579038Y-114849184D01*
X160570192Y-114849500D01*
X160493713Y-114849500D01*
X160432325Y-114859223D01*
X160278945Y-114883516D01*
X160278686Y-114881882D01*
X160216094Y-114878730D01*
X160169288Y-114849342D01*
X157971674Y-112651727D01*
X157971673Y-112651726D01*
X157971669Y-112651723D01*
X157865127Y-112580535D01*
X157746744Y-112531499D01*
X157746738Y-112531497D01*
X157621071Y-112506500D01*
X157621069Y-112506500D01*
X154494931Y-112506500D01*
X154494929Y-112506500D01*
X154369261Y-112531497D01*
X154369255Y-112531499D01*
X154250870Y-112580535D01*
X154144331Y-112651722D01*
X154144324Y-112651728D01*
X146865373Y-119930681D01*
X146804050Y-119964166D01*
X146777692Y-119967000D01*
X144366865Y-119967000D01*
X144299826Y-119947315D01*
X144254071Y-119894511D01*
X144244127Y-119825353D01*
X144248934Y-119804681D01*
X144268477Y-119744534D01*
X144288173Y-119620178D01*
X144300500Y-119542352D01*
X144300500Y-119337648D01*
X144268477Y-119135466D01*
X144205220Y-118940781D01*
X144205218Y-118940778D01*
X144205217Y-118940773D01*
X144174656Y-118880794D01*
X144161760Y-118812125D01*
X144188037Y-118747385D01*
X144245143Y-118707128D01*
X144285141Y-118700500D01*
X146047071Y-118700500D01*
X146131615Y-118683682D01*
X146172744Y-118675501D01*
X146291127Y-118626465D01*
X146341539Y-118592781D01*
X146341539Y-118592780D01*
X146341541Y-118592780D01*
X146386875Y-118562489D01*
X146397669Y-118555277D01*
X152760127Y-112192819D01*
X152821450Y-112159334D01*
X152847808Y-112156500D01*
X158125192Y-112156500D01*
X158192231Y-112176185D01*
G37*
%TD.AperFunction*%
%TA.AperFunction,Conductor*%
G36*
X156635270Y-116961717D02*
G01*
X156635270Y-116961716D01*
X156674622Y-116907555D01*
X156679232Y-116898507D01*
X156727205Y-116847709D01*
X156795025Y-116830912D01*
X156861161Y-116853447D01*
X156900204Y-116898504D01*
X156904949Y-116907817D01*
X157029890Y-117079786D01*
X157180213Y-117230109D01*
X157352182Y-117355050D01*
X157360946Y-117359516D01*
X157411742Y-117407491D01*
X157428536Y-117475312D01*
X157405998Y-117541447D01*
X157360946Y-117580484D01*
X157352182Y-117584949D01*
X157180215Y-117709889D01*
X157066285Y-117823819D01*
X157004962Y-117857303D01*
X156935270Y-117852319D01*
X156879337Y-117810447D01*
X156862422Y-117779470D01*
X156813354Y-117647913D01*
X156813350Y-117647906D01*
X156727190Y-117532812D01*
X156727187Y-117532809D01*
X156612093Y-117446649D01*
X156612086Y-117446645D01*
X156477380Y-117396403D01*
X156477373Y-117396401D01*
X156394555Y-117387497D01*
X156394884Y-117384431D01*
X156377875Y-117385330D01*
X156318803Y-117352356D01*
X155649408Y-116682962D01*
X155712993Y-116665925D01*
X155827007Y-116600099D01*
X155920099Y-116507007D01*
X155985925Y-116392993D01*
X156002962Y-116329408D01*
X156635270Y-116961717D01*
G37*
%TD.AperFunction*%
%TA.AperFunction,Conductor*%
G36*
X141772000Y-93281219D02*
G01*
X141827933Y-93323091D01*
X141852350Y-93388555D01*
X141839151Y-93453695D01*
X141794782Y-93540773D01*
X141731522Y-93735465D01*
X141699500Y-93937648D01*
X141699500Y-94142351D01*
X141731522Y-94344534D01*
X141794781Y-94539223D01*
X141887715Y-94721613D01*
X142008028Y-94887213D01*
X142152782Y-95031967D01*
X142152787Y-95031971D01*
X142229583Y-95087767D01*
X142272249Y-95143097D01*
X142278228Y-95212710D01*
X142245622Y-95274505D01*
X142187365Y-95308233D01*
X142166967Y-95313439D01*
X142166956Y-95313442D01*
X142110415Y-95336862D01*
X142870590Y-96097037D01*
X142807007Y-96114075D01*
X142692993Y-96179901D01*
X142599901Y-96272993D01*
X142534075Y-96387007D01*
X142517037Y-96450589D01*
X141756862Y-95690415D01*
X141733449Y-95746940D01*
X141715455Y-95797946D01*
X141695000Y-95940219D01*
X141695000Y-97219785D01*
X141697893Y-97273762D01*
X141697893Y-97273764D01*
X141733438Y-97413030D01*
X141733440Y-97413037D01*
X141756863Y-97469583D01*
X142517037Y-96709409D01*
X142534075Y-96772993D01*
X142599901Y-96887007D01*
X142692993Y-96980099D01*
X142807007Y-97045925D01*
X142870590Y-97062962D01*
X142110415Y-97823135D01*
X142110415Y-97823136D01*
X142166954Y-97846556D01*
X142166961Y-97846558D01*
X142195621Y-97856669D01*
X142252294Y-97897534D01*
X142277876Y-97962552D01*
X142264246Y-98031080D01*
X142227256Y-98073924D01*
X142152782Y-98128032D01*
X142008028Y-98272786D01*
X141887715Y-98438386D01*
X141794781Y-98620776D01*
X141731522Y-98815465D01*
X141699500Y-99017648D01*
X141699500Y-99222351D01*
X141731522Y-99424534D01*
X141794781Y-99619223D01*
X141887715Y-99801613D01*
X142008028Y-99967213D01*
X142152786Y-100111971D01*
X142307749Y-100224556D01*
X142318390Y-100232287D01*
X142409840Y-100278883D01*
X142411080Y-100279515D01*
X142461876Y-100327490D01*
X142478671Y-100395311D01*
X142456134Y-100461446D01*
X142411080Y-100500485D01*
X142318386Y-100547715D01*
X142152786Y-100668028D01*
X142008028Y-100812786D01*
X141887715Y-100978386D01*
X141794781Y-101160776D01*
X141731522Y-101355465D01*
X141699500Y-101557648D01*
X141699500Y-101762351D01*
X141731522Y-101964534D01*
X141794781Y-102159223D01*
X141887715Y-102341613D01*
X142008028Y-102507213D01*
X142152786Y-102651971D01*
X142301342Y-102759901D01*
X142318390Y-102772287D01*
X142409840Y-102818883D01*
X142411080Y-102819515D01*
X142461876Y-102867490D01*
X142478671Y-102935311D01*
X142456134Y-103001446D01*
X142411080Y-103040485D01*
X142318386Y-103087715D01*
X142152786Y-103208028D01*
X142008028Y-103352786D01*
X141887715Y-103518386D01*
X141794781Y-103700776D01*
X141731522Y-103895465D01*
X141699500Y-104097648D01*
X141699500Y-104302351D01*
X141731522Y-104504534D01*
X141794781Y-104699223D01*
X141887715Y-104881613D01*
X142008028Y-105047213D01*
X142152786Y-105191971D01*
X142307749Y-105304556D01*
X142318390Y-105312287D01*
X142409840Y-105358883D01*
X142411080Y-105359515D01*
X142461876Y-105407490D01*
X142478671Y-105475311D01*
X142456134Y-105541446D01*
X142411080Y-105580485D01*
X142318386Y-105627715D01*
X142152786Y-105748028D01*
X142008028Y-105892786D01*
X141887715Y-106058386D01*
X141794781Y-106240776D01*
X141731522Y-106435465D01*
X141699500Y-106637648D01*
X141699500Y-106842351D01*
X141731522Y-107044534D01*
X141794781Y-107239223D01*
X141887715Y-107421613D01*
X142008028Y-107587213D01*
X142152782Y-107731967D01*
X142152787Y-107731971D01*
X142229583Y-107787767D01*
X142272249Y-107843097D01*
X142278228Y-107912710D01*
X142245622Y-107974505D01*
X142187365Y-108008233D01*
X142166967Y-108013439D01*
X142166956Y-108013442D01*
X142110415Y-108036862D01*
X142870590Y-108797037D01*
X142807007Y-108814075D01*
X142692993Y-108879901D01*
X142599901Y-108972993D01*
X142534075Y-109087007D01*
X142517037Y-109150589D01*
X141756862Y-108390415D01*
X141733449Y-108446940D01*
X141715455Y-108497946D01*
X141695000Y-108640219D01*
X141695000Y-109919785D01*
X141697893Y-109973762D01*
X141697893Y-109973764D01*
X141733438Y-110113030D01*
X141733440Y-110113037D01*
X141756863Y-110169583D01*
X142517037Y-109409409D01*
X142534075Y-109472993D01*
X142599901Y-109587007D01*
X142692993Y-109680099D01*
X142807007Y-109745925D01*
X142870590Y-109762962D01*
X142110415Y-110523135D01*
X142110415Y-110523136D01*
X142166954Y-110546556D01*
X142166961Y-110546558D01*
X142195621Y-110556669D01*
X142252294Y-110597534D01*
X142277876Y-110662552D01*
X142264246Y-110731080D01*
X142227256Y-110773924D01*
X142152782Y-110828032D01*
X142008028Y-110972786D01*
X141887715Y-111138386D01*
X141794781Y-111320776D01*
X141731522Y-111515465D01*
X141699500Y-111717648D01*
X141699500Y-111922351D01*
X141731522Y-112124534D01*
X141794781Y-112319223D01*
X141887715Y-112501613D01*
X142008028Y-112667213D01*
X142152786Y-112811971D01*
X142307749Y-112924556D01*
X142318390Y-112932287D01*
X142375194Y-112961230D01*
X142411080Y-112979515D01*
X142461876Y-113027490D01*
X142478671Y-113095311D01*
X142456134Y-113161446D01*
X142411080Y-113200485D01*
X142318386Y-113247715D01*
X142152786Y-113368028D01*
X142008028Y-113512786D01*
X141887715Y-113678386D01*
X141794781Y-113860776D01*
X141731522Y-114055465D01*
X141699500Y-114257647D01*
X141699500Y-114462351D01*
X141731522Y-114664534D01*
X141794781Y-114859223D01*
X141887715Y-115041613D01*
X142008028Y-115207213D01*
X142152786Y-115351971D01*
X142307749Y-115464556D01*
X142318390Y-115472287D01*
X142375722Y-115501499D01*
X142411080Y-115519515D01*
X142461876Y-115567490D01*
X142478671Y-115635311D01*
X142456134Y-115701446D01*
X142411080Y-115740485D01*
X142318386Y-115787715D01*
X142152786Y-115908028D01*
X142008028Y-116052786D01*
X141887715Y-116218386D01*
X141794781Y-116400776D01*
X141731522Y-116595465D01*
X141702839Y-116776569D01*
X141699500Y-116797648D01*
X141699500Y-117002352D01*
X141715511Y-117103443D01*
X141731523Y-117204535D01*
X141731524Y-117204542D01*
X141742130Y-117237183D01*
X141744125Y-117307024D01*
X141708044Y-117366857D01*
X141645343Y-117397684D01*
X141624199Y-117399500D01*
X139390808Y-117399500D01*
X139323769Y-117379815D01*
X139303127Y-117363181D01*
X138069819Y-116129873D01*
X138036334Y-116068550D01*
X138033500Y-116042192D01*
X138033500Y-106203928D01*
X138008502Y-106078261D01*
X138008501Y-106078260D01*
X138008501Y-106078256D01*
X137991986Y-106038385D01*
X137960703Y-105962860D01*
X137960698Y-105962850D01*
X137959466Y-105959875D01*
X137959466Y-105959874D01*
X137888277Y-105853331D01*
X137888275Y-105853329D01*
X137888273Y-105853326D01*
X135729673Y-103694726D01*
X135729669Y-103694723D01*
X135623127Y-103623535D01*
X135504744Y-103574499D01*
X135504738Y-103574497D01*
X135379071Y-103549500D01*
X135379069Y-103549500D01*
X126418071Y-103549500D01*
X126351032Y-103529815D01*
X126317754Y-103498386D01*
X126211966Y-103352781D01*
X126067219Y-103208034D01*
X126067213Y-103208028D01*
X125901614Y-103087715D01*
X125895006Y-103084348D01*
X125808917Y-103040483D01*
X125758123Y-102992511D01*
X125741328Y-102924690D01*
X125763865Y-102858555D01*
X125808917Y-102819516D01*
X125901610Y-102772287D01*
X125922770Y-102756913D01*
X126067213Y-102651971D01*
X126067215Y-102651968D01*
X126067219Y-102651966D01*
X126211966Y-102507219D01*
X126211968Y-102507215D01*
X126211971Y-102507213D01*
X126264732Y-102434590D01*
X126332287Y-102341610D01*
X126425220Y-102159219D01*
X126488477Y-101964534D01*
X126520500Y-101762352D01*
X126520500Y-101557648D01*
X126488477Y-101355466D01*
X126425220Y-101160781D01*
X126425218Y-101160778D01*
X126425218Y-101160776D01*
X126384901Y-101081650D01*
X126332287Y-100978390D01*
X126301663Y-100936239D01*
X126211971Y-100812786D01*
X126067213Y-100668028D01*
X125901614Y-100547715D01*
X125834881Y-100513713D01*
X125808917Y-100500483D01*
X125758123Y-100452511D01*
X125741328Y-100384690D01*
X125763865Y-100318555D01*
X125808917Y-100279516D01*
X125901610Y-100232287D01*
X126003378Y-100158349D01*
X126067213Y-100111971D01*
X126067215Y-100111968D01*
X126067219Y-100111966D01*
X126211966Y-99967219D01*
X126211968Y-99967215D01*
X126211971Y-99967213D01*
X126264732Y-99894590D01*
X126332287Y-99801610D01*
X126425220Y-99619219D01*
X126488477Y-99424534D01*
X126520500Y-99222352D01*
X126520500Y-99017648D01*
X126488477Y-98815466D01*
X126425220Y-98620781D01*
X126425218Y-98620778D01*
X126425218Y-98620776D01*
X126397203Y-98565795D01*
X126384307Y-98497126D01*
X126410583Y-98432386D01*
X126467689Y-98392128D01*
X126507688Y-98385500D01*
X136359832Y-98385500D01*
X136444376Y-98368682D01*
X136485505Y-98360501D01*
X136603888Y-98311465D01*
X136710430Y-98240277D01*
X139534807Y-95415900D01*
X140993223Y-93957483D01*
X141640987Y-93309718D01*
X141702308Y-93276235D01*
X141772000Y-93281219D01*
G37*
%TD.AperFunction*%
%TA.AperFunction,Conductor*%
G36*
X142313775Y-90182185D02*
G01*
X142359530Y-90234989D01*
X142369474Y-90304147D01*
X142340449Y-90367703D01*
X142319621Y-90386818D01*
X142152786Y-90508028D01*
X142008028Y-90652786D01*
X141887715Y-90818386D01*
X141794781Y-91000776D01*
X141731523Y-91195464D01*
X141703230Y-91374094D01*
X141673300Y-91437228D01*
X141668438Y-91442376D01*
X136062634Y-97048181D01*
X136001311Y-97081666D01*
X135974953Y-97084500D01*
X126649000Y-97084500D01*
X126581961Y-97064815D01*
X126536206Y-97012011D01*
X126525000Y-96960500D01*
X126525000Y-95940214D01*
X126522106Y-95886237D01*
X126522106Y-95886235D01*
X126486558Y-95746960D01*
X126463136Y-95690415D01*
X126463135Y-95690415D01*
X125702962Y-96450590D01*
X125685925Y-96387007D01*
X125620099Y-96272993D01*
X125527007Y-96179901D01*
X125412993Y-96114075D01*
X125349410Y-96097037D01*
X126109583Y-95336863D01*
X126109583Y-95336862D01*
X126053052Y-95313447D01*
X126053013Y-95313432D01*
X126024375Y-95303329D01*
X125967704Y-95262463D01*
X125942122Y-95197444D01*
X125955754Y-95128917D01*
X125992745Y-95086074D01*
X126067215Y-95031969D01*
X126067215Y-95031968D01*
X126067219Y-95031966D01*
X126211966Y-94887219D01*
X126211968Y-94887215D01*
X126211971Y-94887213D01*
X126266774Y-94811781D01*
X126332287Y-94721610D01*
X126425220Y-94539219D01*
X126488477Y-94344534D01*
X126520500Y-94142352D01*
X126520500Y-93937648D01*
X126488477Y-93735466D01*
X126425220Y-93540781D01*
X126425218Y-93540778D01*
X126425218Y-93540776D01*
X126380847Y-93453695D01*
X126332287Y-93358390D01*
X126301663Y-93316239D01*
X126211971Y-93192786D01*
X126067217Y-93048032D01*
X126067212Y-93048028D01*
X125986440Y-92989344D01*
X125943774Y-92934015D01*
X125937795Y-92864401D01*
X125970400Y-92802606D01*
X126022433Y-92770641D01*
X126109606Y-92743478D01*
X126255185Y-92655472D01*
X126375472Y-92535185D01*
X126463478Y-92389606D01*
X126514086Y-92227196D01*
X126520500Y-92156616D01*
X126520500Y-90843384D01*
X126514086Y-90772804D01*
X126463478Y-90610394D01*
X126375472Y-90464815D01*
X126375470Y-90464813D01*
X126375469Y-90464811D01*
X126284839Y-90374181D01*
X126251354Y-90312858D01*
X126256338Y-90243166D01*
X126298210Y-90187233D01*
X126363674Y-90162816D01*
X126372520Y-90162500D01*
X142246736Y-90162500D01*
X142313775Y-90182185D01*
G37*
%TD.AperFunction*%
%TD*%
M02*
