M48
; DRILL file KiCad 10.0.1 date 2026-08-09T09:28:31
; FORMAT={-:-/ absolute / metric / decimal}
; #@! TF.CreationDate,2026-08-09T09:28:31+09:00
; #@! TF.GenerationSoftware,Kicad,Pcbnew,10.0.1
; #@! TF.FileFunction,Plated,1,2,PTH
FMAT,2
METRIC
; #@! TA.AperFunction,Plated,PTH,ViaDrill
T1C0.300
; #@! TA.AperFunction,Plated,PTH,ComponentDrill
T2C0.800
; #@! TA.AperFunction,Plated,PTH,ComponentDrill
T3C1.000
; #@! TA.AperFunction,Plated,PTH,ComponentDrill
T4C1.100
; #@! TA.AperFunction,Plated,PTH,ComponentDrill
T5C3.200
%
G90
G05
T1
X111.2Y-110.4
X114.554Y-133.096
X118.491Y-156.718
X118.618Y-141.224
X120.396Y-149.225
X121.5Y-130.0
X121.793Y-126.873
X122.809Y-117.602
X122.936Y-138.43
X123.19Y-125.222
X130.1Y-117.5
X135.89Y-111.76
X137.1Y-127.0
X138.938Y-99.949
X143.002Y-142.113
X148.082Y-121.92
X148.336Y-113.411
X149.479Y-116.459
X152.4Y-141.097
X163.322Y-126.746
T2
X160.768Y-95.659
X160.768Y-98.159
T3
X112.0Y-93.0
X112.0Y-95.54
X112.0Y-98.08
X112.0Y-100.62
X112.0Y-103.16
X112.0Y-105.7
X112.0Y-115.86
X112.0Y-118.4
X112.0Y-120.94
X112.0Y-123.48
X112.0Y-126.02
X112.0Y-128.56
X112.0Y-138.72
X112.0Y-141.26
X112.0Y-143.8
X112.0Y-146.34
X112.0Y-148.88
X112.0Y-151.42
X114.54Y-93.0
X114.54Y-95.54
X114.54Y-98.08
X114.54Y-100.62
X114.54Y-103.16
X114.54Y-105.7
X114.54Y-115.86
X114.54Y-118.4
X114.54Y-120.94
X114.54Y-123.48
X114.54Y-126.02
X114.54Y-128.56
X114.54Y-138.72
X114.54Y-141.26
X114.54Y-143.8
X114.54Y-146.34
X114.54Y-148.88
X114.54Y-151.42
X125.22Y-91.5
X125.22Y-94.04
X125.22Y-96.58
X125.22Y-99.12
X125.22Y-101.66
X125.22Y-104.2
X125.22Y-106.74
X125.22Y-109.28
X125.22Y-111.82
X125.22Y-114.36
X125.22Y-116.9
X125.22Y-119.44
X125.22Y-121.98
X125.22Y-124.52
X125.22Y-127.06
X125.22Y-129.6
X125.22Y-132.14
X125.22Y-134.68
X125.22Y-137.22
X125.22Y-139.76
X130.937Y-149.479
X133.477Y-149.479
X136.017Y-149.479
X143.0Y-91.5
X143.0Y-94.04
X143.0Y-96.58
X143.0Y-99.12
X143.0Y-101.66
X143.0Y-104.2
X143.0Y-106.74
X143.0Y-109.28
X143.0Y-111.82
X143.0Y-114.36
X143.0Y-116.9
X143.0Y-119.44
X143.0Y-121.98
X143.0Y-124.52
X143.0Y-127.06
X143.0Y-129.6
X143.0Y-132.14
X143.0Y-134.68
X143.0Y-137.22
X143.0Y-139.76
X155.52Y-116.2
X155.52Y-118.74
X158.06Y-116.2
X158.06Y-118.74
X160.6Y-116.2
X160.6Y-118.74
X163.14Y-116.2
X163.14Y-118.74
T4
X149.606Y-94.179
X149.606Y-98.679
X156.106Y-94.179
X156.106Y-98.679
T5
X113.284Y-158.0
X113.538Y-85.344
X168.0Y-93.0
X168.0Y-150.0
M30
