%TF.GenerationSoftware,KiCad,Pcbnew,10.0.1*%
%TF.CreationDate,2026-08-09T09:28:38+09:00*%
%TF.ProjectId,PSCE-MI_Raspberry_PICO,50534345-2d4d-4495-9f52-617370626572,rev?*%
%TF.SameCoordinates,Original*%
%TF.FileFunction,Legend,Top*%
%TF.FilePolarity,Positive*%
%FSLAX46Y46*%
G04 Gerber Fmt 4.6, Leading zero omitted, Abs format (unit mm)*
G04 Created by KiCad (PCBNEW 10.0.1) date 2026-08-09 09:28:38*
%MOMM*%
%LPD*%
G01*
G04 APERTURE LIST*
%ADD10C,0.100000*%
%ADD11C,0.150000*%
%ADD12C,0.200000*%
%ADD13C,0.250000*%
%ADD14C,0.300000*%
%ADD15C,0.400000*%
%ADD16C,0.120000*%
G04 APERTURE END LIST*
D10*
X109728000Y-102108000D02*
X117348000Y-102108000D01*
X117348000Y-104140000D01*
X109728000Y-104140000D01*
X109728000Y-102108000D01*
G36*
X109728000Y-102108000D02*
G01*
X117348000Y-102108000D01*
X117348000Y-104140000D01*
X109728000Y-104140000D01*
X109728000Y-102108000D01*
G37*
X110236000Y-124968000D02*
X117856000Y-124968000D01*
X117856000Y-127000000D01*
X110236000Y-127000000D01*
X110236000Y-124968000D01*
G36*
X110236000Y-124968000D02*
G01*
X117856000Y-124968000D01*
X117856000Y-127000000D01*
X110236000Y-127000000D01*
X110236000Y-124968000D01*
G37*
X110236000Y-147828000D02*
X117856000Y-147828000D01*
X117856000Y-149860000D01*
X110236000Y-149860000D01*
X110236000Y-147828000D01*
G36*
X110236000Y-147828000D02*
G01*
X117856000Y-147828000D01*
X117856000Y-149860000D01*
X110236000Y-149860000D01*
X110236000Y-147828000D01*
G37*
X116078000Y-150622000D02*
X118618000Y-150622000D01*
X116586000Y-150876000D02*
X118110000Y-150876000D01*
X116840000Y-151130000D02*
X117856000Y-151130000D01*
X117094000Y-151384000D02*
X117602000Y-151384000D01*
X117348000Y-104648000D02*
X119888000Y-104648000D01*
D11*
X117348000Y-149352000D02*
X117348000Y-150622000D01*
D10*
X117856000Y-104902000D02*
X119380000Y-104902000D01*
X117856000Y-127254000D02*
X120396000Y-127254000D01*
X118110000Y-105156000D02*
X119126000Y-105156000D01*
X118364000Y-105410000D02*
X118872000Y-105410000D01*
X118364000Y-127508000D02*
X119888000Y-127508000D01*
X118618000Y-103378000D02*
X117094000Y-103378000D01*
D11*
X118618000Y-103378000D02*
X118618000Y-104648000D01*
D10*
X118618000Y-127762000D02*
X119634000Y-127762000D01*
X118872000Y-128016000D02*
X119380000Y-128016000D01*
X119126000Y-125984000D02*
X117602000Y-125984000D01*
D11*
X119126000Y-125984000D02*
X119126000Y-127254000D01*
D12*
X144988000Y-119923000D02*
X170988000Y-119923000D01*
X170988000Y-145923000D01*
X144988000Y-145923000D01*
X144988000Y-119923000D01*
D11*
X155120390Y-113891792D02*
X155082295Y-113967982D01*
X155082295Y-113967982D02*
X155082295Y-114082268D01*
X155082295Y-114082268D02*
X155120390Y-114196554D01*
X155120390Y-114196554D02*
X155196580Y-114272744D01*
X155196580Y-114272744D02*
X155272771Y-114310839D01*
X155272771Y-114310839D02*
X155425152Y-114348935D01*
X155425152Y-114348935D02*
X155539438Y-114348935D01*
X155539438Y-114348935D02*
X155691819Y-114310839D01*
X155691819Y-114310839D02*
X155768009Y-114272744D01*
X155768009Y-114272744D02*
X155844200Y-114196554D01*
X155844200Y-114196554D02*
X155882295Y-114082268D01*
X155882295Y-114082268D02*
X155882295Y-114006077D01*
X155882295Y-114006077D02*
X155844200Y-113891792D01*
X155844200Y-113891792D02*
X155806104Y-113853696D01*
X155806104Y-113853696D02*
X155539438Y-113853696D01*
X155539438Y-113853696D02*
X155539438Y-114006077D01*
X155882295Y-113510839D02*
X155082295Y-113510839D01*
X155082295Y-113510839D02*
X155882295Y-113053696D01*
X155882295Y-113053696D02*
X155082295Y-113053696D01*
X155882295Y-112672744D02*
X155082295Y-112672744D01*
X155082295Y-112672744D02*
X155082295Y-112482268D01*
X155082295Y-112482268D02*
X155120390Y-112367982D01*
X155120390Y-112367982D02*
X155196580Y-112291792D01*
X155196580Y-112291792D02*
X155272771Y-112253697D01*
X155272771Y-112253697D02*
X155425152Y-112215601D01*
X155425152Y-112215601D02*
X155539438Y-112215601D01*
X155539438Y-112215601D02*
X155691819Y-112253697D01*
X155691819Y-112253697D02*
X155768009Y-112291792D01*
X155768009Y-112291792D02*
X155844200Y-112367982D01*
X155844200Y-112367982D02*
X155882295Y-112482268D01*
X155882295Y-112482268D02*
X155882295Y-112672744D01*
X157782295Y-114325125D02*
X158582295Y-114058458D01*
X158582295Y-114058458D02*
X157782295Y-113791792D01*
X158582295Y-113525125D02*
X157782295Y-113525125D01*
X157782295Y-113525125D02*
X157782295Y-113334649D01*
X157782295Y-113334649D02*
X157820390Y-113220363D01*
X157820390Y-113220363D02*
X157896580Y-113144173D01*
X157896580Y-113144173D02*
X157972771Y-113106078D01*
X157972771Y-113106078D02*
X158125152Y-113067982D01*
X158125152Y-113067982D02*
X158239438Y-113067982D01*
X158239438Y-113067982D02*
X158391819Y-113106078D01*
X158391819Y-113106078D02*
X158468009Y-113144173D01*
X158468009Y-113144173D02*
X158544200Y-113220363D01*
X158544200Y-113220363D02*
X158582295Y-113334649D01*
X158582295Y-113334649D02*
X158582295Y-113525125D01*
X158582295Y-112725125D02*
X157782295Y-112725125D01*
X157782295Y-112725125D02*
X157782295Y-112534649D01*
X157782295Y-112534649D02*
X157820390Y-112420363D01*
X157820390Y-112420363D02*
X157896580Y-112344173D01*
X157896580Y-112344173D02*
X157972771Y-112306078D01*
X157972771Y-112306078D02*
X158125152Y-112267982D01*
X158125152Y-112267982D02*
X158239438Y-112267982D01*
X158239438Y-112267982D02*
X158391819Y-112306078D01*
X158391819Y-112306078D02*
X158468009Y-112344173D01*
X158468009Y-112344173D02*
X158544200Y-112420363D01*
X158544200Y-112420363D02*
X158582295Y-112534649D01*
X158582295Y-112534649D02*
X158582295Y-112725125D01*
X161044200Y-114148935D02*
X161082295Y-114034649D01*
X161082295Y-114034649D02*
X161082295Y-113844173D01*
X161082295Y-113844173D02*
X161044200Y-113767982D01*
X161044200Y-113767982D02*
X161006104Y-113729887D01*
X161006104Y-113729887D02*
X160929914Y-113691792D01*
X160929914Y-113691792D02*
X160853723Y-113691792D01*
X160853723Y-113691792D02*
X160777533Y-113729887D01*
X160777533Y-113729887D02*
X160739438Y-113767982D01*
X160739438Y-113767982D02*
X160701342Y-113844173D01*
X160701342Y-113844173D02*
X160663247Y-113996554D01*
X160663247Y-113996554D02*
X160625152Y-114072744D01*
X160625152Y-114072744D02*
X160587057Y-114110839D01*
X160587057Y-114110839D02*
X160510866Y-114148935D01*
X160510866Y-114148935D02*
X160434676Y-114148935D01*
X160434676Y-114148935D02*
X160358485Y-114110839D01*
X160358485Y-114110839D02*
X160320390Y-114072744D01*
X160320390Y-114072744D02*
X160282295Y-113996554D01*
X160282295Y-113996554D02*
X160282295Y-113806077D01*
X160282295Y-113806077D02*
X160320390Y-113691792D01*
X161006104Y-112891791D02*
X161044200Y-112929887D01*
X161044200Y-112929887D02*
X161082295Y-113044172D01*
X161082295Y-113044172D02*
X161082295Y-113120363D01*
X161082295Y-113120363D02*
X161044200Y-113234649D01*
X161044200Y-113234649D02*
X160968009Y-113310839D01*
X160968009Y-113310839D02*
X160891819Y-113348934D01*
X160891819Y-113348934D02*
X160739438Y-113387030D01*
X160739438Y-113387030D02*
X160625152Y-113387030D01*
X160625152Y-113387030D02*
X160472771Y-113348934D01*
X160472771Y-113348934D02*
X160396580Y-113310839D01*
X160396580Y-113310839D02*
X160320390Y-113234649D01*
X160320390Y-113234649D02*
X160282295Y-113120363D01*
X160282295Y-113120363D02*
X160282295Y-113044172D01*
X160282295Y-113044172D02*
X160320390Y-112929887D01*
X160320390Y-112929887D02*
X160358485Y-112891791D01*
X161082295Y-112548934D02*
X160282295Y-112548934D01*
X161082295Y-112091791D02*
X160625152Y-112434649D01*
X160282295Y-112091791D02*
X160739438Y-112548934D01*
X163444200Y-114048935D02*
X163482295Y-113934649D01*
X163482295Y-113934649D02*
X163482295Y-113744173D01*
X163482295Y-113744173D02*
X163444200Y-113667982D01*
X163444200Y-113667982D02*
X163406104Y-113629887D01*
X163406104Y-113629887D02*
X163329914Y-113591792D01*
X163329914Y-113591792D02*
X163253723Y-113591792D01*
X163253723Y-113591792D02*
X163177533Y-113629887D01*
X163177533Y-113629887D02*
X163139438Y-113667982D01*
X163139438Y-113667982D02*
X163101342Y-113744173D01*
X163101342Y-113744173D02*
X163063247Y-113896554D01*
X163063247Y-113896554D02*
X163025152Y-113972744D01*
X163025152Y-113972744D02*
X162987057Y-114010839D01*
X162987057Y-114010839D02*
X162910866Y-114048935D01*
X162910866Y-114048935D02*
X162834676Y-114048935D01*
X162834676Y-114048935D02*
X162758485Y-114010839D01*
X162758485Y-114010839D02*
X162720390Y-113972744D01*
X162720390Y-113972744D02*
X162682295Y-113896554D01*
X162682295Y-113896554D02*
X162682295Y-113706077D01*
X162682295Y-113706077D02*
X162720390Y-113591792D01*
X163482295Y-113248934D02*
X162682295Y-113248934D01*
X162682295Y-113248934D02*
X162682295Y-113058458D01*
X162682295Y-113058458D02*
X162720390Y-112944172D01*
X162720390Y-112944172D02*
X162796580Y-112867982D01*
X162796580Y-112867982D02*
X162872771Y-112829887D01*
X162872771Y-112829887D02*
X163025152Y-112791791D01*
X163025152Y-112791791D02*
X163139438Y-112791791D01*
X163139438Y-112791791D02*
X163291819Y-112829887D01*
X163291819Y-112829887D02*
X163368009Y-112867982D01*
X163368009Y-112867982D02*
X163444200Y-112944172D01*
X163444200Y-112944172D02*
X163482295Y-113058458D01*
X163482295Y-113058458D02*
X163482295Y-113248934D01*
X163253723Y-112487030D02*
X163253723Y-112106077D01*
X163482295Y-112563220D02*
X162682295Y-112296553D01*
X162682295Y-112296553D02*
X163482295Y-112029887D01*
X146767779Y-106209875D02*
X146767779Y-105209875D01*
X146767779Y-105209875D02*
X147148731Y-105209875D01*
X147148731Y-105209875D02*
X147243969Y-105257494D01*
X147243969Y-105257494D02*
X147291588Y-105305113D01*
X147291588Y-105305113D02*
X147339207Y-105400351D01*
X147339207Y-105400351D02*
X147339207Y-105543208D01*
X147339207Y-105543208D02*
X147291588Y-105638446D01*
X147291588Y-105638446D02*
X147243969Y-105686065D01*
X147243969Y-105686065D02*
X147148731Y-105733684D01*
X147148731Y-105733684D02*
X146767779Y-105733684D01*
X147910636Y-106209875D02*
X147815398Y-106162256D01*
X147815398Y-106162256D02*
X147767779Y-106114636D01*
X147767779Y-106114636D02*
X147720160Y-106019398D01*
X147720160Y-106019398D02*
X147720160Y-105733684D01*
X147720160Y-105733684D02*
X147767779Y-105638446D01*
X147767779Y-105638446D02*
X147815398Y-105590827D01*
X147815398Y-105590827D02*
X147910636Y-105543208D01*
X147910636Y-105543208D02*
X148053493Y-105543208D01*
X148053493Y-105543208D02*
X148148731Y-105590827D01*
X148148731Y-105590827D02*
X148196350Y-105638446D01*
X148196350Y-105638446D02*
X148243969Y-105733684D01*
X148243969Y-105733684D02*
X148243969Y-106019398D01*
X148243969Y-106019398D02*
X148196350Y-106114636D01*
X148196350Y-106114636D02*
X148148731Y-106162256D01*
X148148731Y-106162256D02*
X148053493Y-106209875D01*
X148053493Y-106209875D02*
X147910636Y-106209875D01*
X148815398Y-106209875D02*
X148720160Y-106162256D01*
X148720160Y-106162256D02*
X148672541Y-106114636D01*
X148672541Y-106114636D02*
X148624922Y-106019398D01*
X148624922Y-106019398D02*
X148624922Y-105733684D01*
X148624922Y-105733684D02*
X148672541Y-105638446D01*
X148672541Y-105638446D02*
X148720160Y-105590827D01*
X148720160Y-105590827D02*
X148815398Y-105543208D01*
X148815398Y-105543208D02*
X148958255Y-105543208D01*
X148958255Y-105543208D02*
X149053493Y-105590827D01*
X149053493Y-105590827D02*
X149101112Y-105638446D01*
X149101112Y-105638446D02*
X149148731Y-105733684D01*
X149148731Y-105733684D02*
X149148731Y-106019398D01*
X149148731Y-106019398D02*
X149101112Y-106114636D01*
X149101112Y-106114636D02*
X149053493Y-106162256D01*
X149053493Y-106162256D02*
X148958255Y-106209875D01*
X148958255Y-106209875D02*
X148815398Y-106209875D01*
X149958255Y-106162256D02*
X149863017Y-106209875D01*
X149863017Y-106209875D02*
X149672541Y-106209875D01*
X149672541Y-106209875D02*
X149577303Y-106162256D01*
X149577303Y-106162256D02*
X149529684Y-106067017D01*
X149529684Y-106067017D02*
X149529684Y-105686065D01*
X149529684Y-105686065D02*
X149577303Y-105590827D01*
X149577303Y-105590827D02*
X149672541Y-105543208D01*
X149672541Y-105543208D02*
X149863017Y-105543208D01*
X149863017Y-105543208D02*
X149958255Y-105590827D01*
X149958255Y-105590827D02*
X150005874Y-105686065D01*
X150005874Y-105686065D02*
X150005874Y-105781303D01*
X150005874Y-105781303D02*
X149529684Y-105876541D01*
X150434446Y-106209875D02*
X150434446Y-105543208D01*
X150434446Y-105638446D02*
X150482065Y-105590827D01*
X150482065Y-105590827D02*
X150577303Y-105543208D01*
X150577303Y-105543208D02*
X150720160Y-105543208D01*
X150720160Y-105543208D02*
X150815398Y-105590827D01*
X150815398Y-105590827D02*
X150863017Y-105686065D01*
X150863017Y-105686065D02*
X150863017Y-106209875D01*
X150863017Y-105686065D02*
X150910636Y-105590827D01*
X150910636Y-105590827D02*
X151005874Y-105543208D01*
X151005874Y-105543208D02*
X151148731Y-105543208D01*
X151148731Y-105543208D02*
X151243970Y-105590827D01*
X151243970Y-105590827D02*
X151291589Y-105686065D01*
X151291589Y-105686065D02*
X151291589Y-106209875D01*
X152196350Y-106209875D02*
X152196350Y-105686065D01*
X152196350Y-105686065D02*
X152148731Y-105590827D01*
X152148731Y-105590827D02*
X152053493Y-105543208D01*
X152053493Y-105543208D02*
X151863017Y-105543208D01*
X151863017Y-105543208D02*
X151767779Y-105590827D01*
X152196350Y-106162256D02*
X152101112Y-106209875D01*
X152101112Y-106209875D02*
X151863017Y-106209875D01*
X151863017Y-106209875D02*
X151767779Y-106162256D01*
X151767779Y-106162256D02*
X151720160Y-106067017D01*
X151720160Y-106067017D02*
X151720160Y-105971779D01*
X151720160Y-105971779D02*
X151767779Y-105876541D01*
X151767779Y-105876541D02*
X151863017Y-105828922D01*
X151863017Y-105828922D02*
X152101112Y-105828922D01*
X152101112Y-105828922D02*
X152196350Y-105781303D01*
X152672541Y-105543208D02*
X152672541Y-106209875D01*
X152672541Y-105638446D02*
X152720160Y-105590827D01*
X152720160Y-105590827D02*
X152815398Y-105543208D01*
X152815398Y-105543208D02*
X152958255Y-105543208D01*
X152958255Y-105543208D02*
X153053493Y-105590827D01*
X153053493Y-105590827D02*
X153101112Y-105686065D01*
X153101112Y-105686065D02*
X153101112Y-106209875D01*
X153624922Y-105209875D02*
X153529684Y-105400351D01*
X154005874Y-106162256D02*
X154101112Y-106209875D01*
X154101112Y-106209875D02*
X154291588Y-106209875D01*
X154291588Y-106209875D02*
X154386826Y-106162256D01*
X154386826Y-106162256D02*
X154434445Y-106067017D01*
X154434445Y-106067017D02*
X154434445Y-106019398D01*
X154434445Y-106019398D02*
X154386826Y-105924160D01*
X154386826Y-105924160D02*
X154291588Y-105876541D01*
X154291588Y-105876541D02*
X154148731Y-105876541D01*
X154148731Y-105876541D02*
X154053493Y-105828922D01*
X154053493Y-105828922D02*
X154005874Y-105733684D01*
X154005874Y-105733684D02*
X154005874Y-105686065D01*
X154005874Y-105686065D02*
X154053493Y-105590827D01*
X154053493Y-105590827D02*
X154148731Y-105543208D01*
X154148731Y-105543208D02*
X154291588Y-105543208D01*
X154291588Y-105543208D02*
X154386826Y-105590827D01*
X155577303Y-106162256D02*
X155720160Y-106209875D01*
X155720160Y-106209875D02*
X155958255Y-106209875D01*
X155958255Y-106209875D02*
X156053493Y-106162256D01*
X156053493Y-106162256D02*
X156101112Y-106114636D01*
X156101112Y-106114636D02*
X156148731Y-106019398D01*
X156148731Y-106019398D02*
X156148731Y-105924160D01*
X156148731Y-105924160D02*
X156101112Y-105828922D01*
X156101112Y-105828922D02*
X156053493Y-105781303D01*
X156053493Y-105781303D02*
X155958255Y-105733684D01*
X155958255Y-105733684D02*
X155767779Y-105686065D01*
X155767779Y-105686065D02*
X155672541Y-105638446D01*
X155672541Y-105638446D02*
X155624922Y-105590827D01*
X155624922Y-105590827D02*
X155577303Y-105495589D01*
X155577303Y-105495589D02*
X155577303Y-105400351D01*
X155577303Y-105400351D02*
X155624922Y-105305113D01*
X155624922Y-105305113D02*
X155672541Y-105257494D01*
X155672541Y-105257494D02*
X155767779Y-105209875D01*
X155767779Y-105209875D02*
X156005874Y-105209875D01*
X156005874Y-105209875D02*
X156148731Y-105257494D01*
X156434446Y-105543208D02*
X156815398Y-105543208D01*
X156577303Y-105209875D02*
X156577303Y-106067017D01*
X156577303Y-106067017D02*
X156624922Y-106162256D01*
X156624922Y-106162256D02*
X156720160Y-106209875D01*
X156720160Y-106209875D02*
X156815398Y-106209875D01*
X157577303Y-106209875D02*
X157577303Y-105209875D01*
X157577303Y-106162256D02*
X157482065Y-106209875D01*
X157482065Y-106209875D02*
X157291589Y-106209875D01*
X157291589Y-106209875D02*
X157196351Y-106162256D01*
X157196351Y-106162256D02*
X157148732Y-106114636D01*
X157148732Y-106114636D02*
X157101113Y-106019398D01*
X157101113Y-106019398D02*
X157101113Y-105733684D01*
X157101113Y-105733684D02*
X157148732Y-105638446D01*
X157148732Y-105638446D02*
X157196351Y-105590827D01*
X157196351Y-105590827D02*
X157291589Y-105543208D01*
X157291589Y-105543208D02*
X157482065Y-105543208D01*
X157482065Y-105543208D02*
X157577303Y-105590827D01*
X158053494Y-106114636D02*
X158101113Y-106162256D01*
X158101113Y-106162256D02*
X158053494Y-106209875D01*
X158053494Y-106209875D02*
X158005875Y-106162256D01*
X158005875Y-106162256D02*
X158053494Y-106114636D01*
X158053494Y-106114636D02*
X158053494Y-106209875D01*
X159863017Y-106114636D02*
X159815398Y-106162256D01*
X159815398Y-106162256D02*
X159672541Y-106209875D01*
X159672541Y-106209875D02*
X159577303Y-106209875D01*
X159577303Y-106209875D02*
X159434446Y-106162256D01*
X159434446Y-106162256D02*
X159339208Y-106067017D01*
X159339208Y-106067017D02*
X159291589Y-105971779D01*
X159291589Y-105971779D02*
X159243970Y-105781303D01*
X159243970Y-105781303D02*
X159243970Y-105638446D01*
X159243970Y-105638446D02*
X159291589Y-105447970D01*
X159291589Y-105447970D02*
X159339208Y-105352732D01*
X159339208Y-105352732D02*
X159434446Y-105257494D01*
X159434446Y-105257494D02*
X159577303Y-105209875D01*
X159577303Y-105209875D02*
X159672541Y-105209875D01*
X159672541Y-105209875D02*
X159815398Y-105257494D01*
X159815398Y-105257494D02*
X159863017Y-105305113D01*
X160434446Y-106209875D02*
X160339208Y-106162256D01*
X160339208Y-106162256D02*
X160291589Y-106114636D01*
X160291589Y-106114636D02*
X160243970Y-106019398D01*
X160243970Y-106019398D02*
X160243970Y-105733684D01*
X160243970Y-105733684D02*
X160291589Y-105638446D01*
X160291589Y-105638446D02*
X160339208Y-105590827D01*
X160339208Y-105590827D02*
X160434446Y-105543208D01*
X160434446Y-105543208D02*
X160577303Y-105543208D01*
X160577303Y-105543208D02*
X160672541Y-105590827D01*
X160672541Y-105590827D02*
X160720160Y-105638446D01*
X160720160Y-105638446D02*
X160767779Y-105733684D01*
X160767779Y-105733684D02*
X160767779Y-106019398D01*
X160767779Y-106019398D02*
X160720160Y-106114636D01*
X160720160Y-106114636D02*
X160672541Y-106162256D01*
X160672541Y-106162256D02*
X160577303Y-106209875D01*
X160577303Y-106209875D02*
X160434446Y-106209875D01*
X161196351Y-105828922D02*
X161958256Y-105828922D01*
X162434446Y-105686065D02*
X162767779Y-105686065D01*
X162910636Y-106209875D02*
X162434446Y-106209875D01*
X162434446Y-106209875D02*
X162434446Y-105209875D01*
X162434446Y-105209875D02*
X162910636Y-105209875D01*
X163339208Y-106209875D02*
X163339208Y-105543208D01*
X163339208Y-105638446D02*
X163386827Y-105590827D01*
X163386827Y-105590827D02*
X163482065Y-105543208D01*
X163482065Y-105543208D02*
X163624922Y-105543208D01*
X163624922Y-105543208D02*
X163720160Y-105590827D01*
X163720160Y-105590827D02*
X163767779Y-105686065D01*
X163767779Y-105686065D02*
X163767779Y-106209875D01*
X163767779Y-105686065D02*
X163815398Y-105590827D01*
X163815398Y-105590827D02*
X163910636Y-105543208D01*
X163910636Y-105543208D02*
X164053493Y-105543208D01*
X164053493Y-105543208D02*
X164148732Y-105590827D01*
X164148732Y-105590827D02*
X164196351Y-105686065D01*
X164196351Y-105686065D02*
X164196351Y-106209875D01*
X165101112Y-105543208D02*
X165101112Y-106209875D01*
X164672541Y-105543208D02*
X164672541Y-106067017D01*
X164672541Y-106067017D02*
X164720160Y-106162256D01*
X164720160Y-106162256D02*
X164815398Y-106209875D01*
X164815398Y-106209875D02*
X164958255Y-106209875D01*
X164958255Y-106209875D02*
X165053493Y-106162256D01*
X165053493Y-106162256D02*
X165101112Y-106114636D01*
X165720160Y-106209875D02*
X165624922Y-106162256D01*
X165624922Y-106162256D02*
X165577303Y-106067017D01*
X165577303Y-106067017D02*
X165577303Y-105209875D01*
X166529684Y-106209875D02*
X166529684Y-105686065D01*
X166529684Y-105686065D02*
X166482065Y-105590827D01*
X166482065Y-105590827D02*
X166386827Y-105543208D01*
X166386827Y-105543208D02*
X166196351Y-105543208D01*
X166196351Y-105543208D02*
X166101113Y-105590827D01*
X166529684Y-106162256D02*
X166434446Y-106209875D01*
X166434446Y-106209875D02*
X166196351Y-106209875D01*
X166196351Y-106209875D02*
X166101113Y-106162256D01*
X166101113Y-106162256D02*
X166053494Y-106067017D01*
X166053494Y-106067017D02*
X166053494Y-105971779D01*
X166053494Y-105971779D02*
X166101113Y-105876541D01*
X166101113Y-105876541D02*
X166196351Y-105828922D01*
X166196351Y-105828922D02*
X166434446Y-105828922D01*
X166434446Y-105828922D02*
X166529684Y-105781303D01*
X166863018Y-105543208D02*
X167243970Y-105543208D01*
X167005875Y-105209875D02*
X167005875Y-106067017D01*
X167005875Y-106067017D02*
X167053494Y-106162256D01*
X167053494Y-106162256D02*
X167148732Y-106209875D01*
X167148732Y-106209875D02*
X167243970Y-106209875D01*
X167720161Y-106209875D02*
X167624923Y-106162256D01*
X167624923Y-106162256D02*
X167577304Y-106114636D01*
X167577304Y-106114636D02*
X167529685Y-106019398D01*
X167529685Y-106019398D02*
X167529685Y-105733684D01*
X167529685Y-105733684D02*
X167577304Y-105638446D01*
X167577304Y-105638446D02*
X167624923Y-105590827D01*
X167624923Y-105590827D02*
X167720161Y-105543208D01*
X167720161Y-105543208D02*
X167863018Y-105543208D01*
X167863018Y-105543208D02*
X167958256Y-105590827D01*
X167958256Y-105590827D02*
X168005875Y-105638446D01*
X168005875Y-105638446D02*
X168053494Y-105733684D01*
X168053494Y-105733684D02*
X168053494Y-106019398D01*
X168053494Y-106019398D02*
X168005875Y-106114636D01*
X168005875Y-106114636D02*
X167958256Y-106162256D01*
X167958256Y-106162256D02*
X167863018Y-106209875D01*
X167863018Y-106209875D02*
X167720161Y-106209875D01*
X168482066Y-106209875D02*
X168482066Y-105543208D01*
X168482066Y-105733684D02*
X168529685Y-105638446D01*
X168529685Y-105638446D02*
X168577304Y-105590827D01*
X168577304Y-105590827D02*
X168672542Y-105543208D01*
X168672542Y-105543208D02*
X168767780Y-105543208D01*
X146767779Y-107819819D02*
X146767779Y-106819819D01*
X146767779Y-106819819D02*
X147101112Y-107534104D01*
X147101112Y-107534104D02*
X147434445Y-106819819D01*
X147434445Y-106819819D02*
X147434445Y-107819819D01*
X148053493Y-107819819D02*
X147958255Y-107772200D01*
X147958255Y-107772200D02*
X147910636Y-107724580D01*
X147910636Y-107724580D02*
X147863017Y-107629342D01*
X147863017Y-107629342D02*
X147863017Y-107343628D01*
X147863017Y-107343628D02*
X147910636Y-107248390D01*
X147910636Y-107248390D02*
X147958255Y-107200771D01*
X147958255Y-107200771D02*
X148053493Y-107153152D01*
X148053493Y-107153152D02*
X148196350Y-107153152D01*
X148196350Y-107153152D02*
X148291588Y-107200771D01*
X148291588Y-107200771D02*
X148339207Y-107248390D01*
X148339207Y-107248390D02*
X148386826Y-107343628D01*
X148386826Y-107343628D02*
X148386826Y-107629342D01*
X148386826Y-107629342D02*
X148339207Y-107724580D01*
X148339207Y-107724580D02*
X148291588Y-107772200D01*
X148291588Y-107772200D02*
X148196350Y-107819819D01*
X148196350Y-107819819D02*
X148053493Y-107819819D01*
X149243969Y-107819819D02*
X149243969Y-106819819D01*
X149243969Y-107772200D02*
X149148731Y-107819819D01*
X149148731Y-107819819D02*
X148958255Y-107819819D01*
X148958255Y-107819819D02*
X148863017Y-107772200D01*
X148863017Y-107772200D02*
X148815398Y-107724580D01*
X148815398Y-107724580D02*
X148767779Y-107629342D01*
X148767779Y-107629342D02*
X148767779Y-107343628D01*
X148767779Y-107343628D02*
X148815398Y-107248390D01*
X148815398Y-107248390D02*
X148863017Y-107200771D01*
X148863017Y-107200771D02*
X148958255Y-107153152D01*
X148958255Y-107153152D02*
X149148731Y-107153152D01*
X149148731Y-107153152D02*
X149243969Y-107200771D01*
X150101112Y-107772200D02*
X150005874Y-107819819D01*
X150005874Y-107819819D02*
X149815398Y-107819819D01*
X149815398Y-107819819D02*
X149720160Y-107772200D01*
X149720160Y-107772200D02*
X149672541Y-107676961D01*
X149672541Y-107676961D02*
X149672541Y-107296009D01*
X149672541Y-107296009D02*
X149720160Y-107200771D01*
X149720160Y-107200771D02*
X149815398Y-107153152D01*
X149815398Y-107153152D02*
X150005874Y-107153152D01*
X150005874Y-107153152D02*
X150101112Y-107200771D01*
X150101112Y-107200771D02*
X150148731Y-107296009D01*
X150148731Y-107296009D02*
X150148731Y-107391247D01*
X150148731Y-107391247D02*
X149672541Y-107486485D01*
X150720160Y-107819819D02*
X150624922Y-107772200D01*
X150624922Y-107772200D02*
X150577303Y-107676961D01*
X150577303Y-107676961D02*
X150577303Y-106819819D01*
X151101113Y-107819819D02*
X151101113Y-107153152D01*
X151101113Y-106819819D02*
X151053494Y-106867438D01*
X151053494Y-106867438D02*
X151101113Y-106915057D01*
X151101113Y-106915057D02*
X151148732Y-106867438D01*
X151148732Y-106867438D02*
X151101113Y-106819819D01*
X151101113Y-106819819D02*
X151101113Y-106915057D01*
X151577303Y-107153152D02*
X151577303Y-107819819D01*
X151577303Y-107248390D02*
X151624922Y-107200771D01*
X151624922Y-107200771D02*
X151720160Y-107153152D01*
X151720160Y-107153152D02*
X151863017Y-107153152D01*
X151863017Y-107153152D02*
X151958255Y-107200771D01*
X151958255Y-107200771D02*
X152005874Y-107296009D01*
X152005874Y-107296009D02*
X152005874Y-107819819D01*
X152910636Y-107153152D02*
X152910636Y-107962676D01*
X152910636Y-107962676D02*
X152863017Y-108057914D01*
X152863017Y-108057914D02*
X152815398Y-108105533D01*
X152815398Y-108105533D02*
X152720160Y-108153152D01*
X152720160Y-108153152D02*
X152577303Y-108153152D01*
X152577303Y-108153152D02*
X152482065Y-108105533D01*
X152910636Y-107772200D02*
X152815398Y-107819819D01*
X152815398Y-107819819D02*
X152624922Y-107819819D01*
X152624922Y-107819819D02*
X152529684Y-107772200D01*
X152529684Y-107772200D02*
X152482065Y-107724580D01*
X152482065Y-107724580D02*
X152434446Y-107629342D01*
X152434446Y-107629342D02*
X152434446Y-107343628D01*
X152434446Y-107343628D02*
X152482065Y-107248390D01*
X152482065Y-107248390D02*
X152529684Y-107200771D01*
X152529684Y-107200771D02*
X152624922Y-107153152D01*
X152624922Y-107153152D02*
X152815398Y-107153152D01*
X152815398Y-107153152D02*
X152910636Y-107200771D01*
X154148732Y-107819819D02*
X154148732Y-106819819D01*
X154624922Y-107153152D02*
X154624922Y-107819819D01*
X154624922Y-107248390D02*
X154672541Y-107200771D01*
X154672541Y-107200771D02*
X154767779Y-107153152D01*
X154767779Y-107153152D02*
X154910636Y-107153152D01*
X154910636Y-107153152D02*
X155005874Y-107200771D01*
X155005874Y-107200771D02*
X155053493Y-107296009D01*
X155053493Y-107296009D02*
X155053493Y-107819819D01*
X155386827Y-107153152D02*
X155767779Y-107153152D01*
X155529684Y-106819819D02*
X155529684Y-107676961D01*
X155529684Y-107676961D02*
X155577303Y-107772200D01*
X155577303Y-107772200D02*
X155672541Y-107819819D01*
X155672541Y-107819819D02*
X155767779Y-107819819D01*
X156482065Y-107772200D02*
X156386827Y-107819819D01*
X156386827Y-107819819D02*
X156196351Y-107819819D01*
X156196351Y-107819819D02*
X156101113Y-107772200D01*
X156101113Y-107772200D02*
X156053494Y-107676961D01*
X156053494Y-107676961D02*
X156053494Y-107296009D01*
X156053494Y-107296009D02*
X156101113Y-107200771D01*
X156101113Y-107200771D02*
X156196351Y-107153152D01*
X156196351Y-107153152D02*
X156386827Y-107153152D01*
X156386827Y-107153152D02*
X156482065Y-107200771D01*
X156482065Y-107200771D02*
X156529684Y-107296009D01*
X156529684Y-107296009D02*
X156529684Y-107391247D01*
X156529684Y-107391247D02*
X156053494Y-107486485D01*
X156958256Y-107819819D02*
X156958256Y-107153152D01*
X156958256Y-107343628D02*
X157005875Y-107248390D01*
X157005875Y-107248390D02*
X157053494Y-107200771D01*
X157053494Y-107200771D02*
X157148732Y-107153152D01*
X157148732Y-107153152D02*
X157243970Y-107153152D01*
X157434447Y-107153152D02*
X157815399Y-107153152D01*
X157577304Y-107819819D02*
X157577304Y-106962676D01*
X157577304Y-106962676D02*
X157624923Y-106867438D01*
X157624923Y-106867438D02*
X157720161Y-106819819D01*
X157720161Y-106819819D02*
X157815399Y-106819819D01*
X158577304Y-107819819D02*
X158577304Y-107296009D01*
X158577304Y-107296009D02*
X158529685Y-107200771D01*
X158529685Y-107200771D02*
X158434447Y-107153152D01*
X158434447Y-107153152D02*
X158243971Y-107153152D01*
X158243971Y-107153152D02*
X158148733Y-107200771D01*
X158577304Y-107772200D02*
X158482066Y-107819819D01*
X158482066Y-107819819D02*
X158243971Y-107819819D01*
X158243971Y-107819819D02*
X158148733Y-107772200D01*
X158148733Y-107772200D02*
X158101114Y-107676961D01*
X158101114Y-107676961D02*
X158101114Y-107581723D01*
X158101114Y-107581723D02*
X158148733Y-107486485D01*
X158148733Y-107486485D02*
X158243971Y-107438866D01*
X158243971Y-107438866D02*
X158482066Y-107438866D01*
X158482066Y-107438866D02*
X158577304Y-107391247D01*
X159482066Y-107772200D02*
X159386828Y-107819819D01*
X159386828Y-107819819D02*
X159196352Y-107819819D01*
X159196352Y-107819819D02*
X159101114Y-107772200D01*
X159101114Y-107772200D02*
X159053495Y-107724580D01*
X159053495Y-107724580D02*
X159005876Y-107629342D01*
X159005876Y-107629342D02*
X159005876Y-107343628D01*
X159005876Y-107343628D02*
X159053495Y-107248390D01*
X159053495Y-107248390D02*
X159101114Y-107200771D01*
X159101114Y-107200771D02*
X159196352Y-107153152D01*
X159196352Y-107153152D02*
X159386828Y-107153152D01*
X159386828Y-107153152D02*
X159482066Y-107200771D01*
X160291590Y-107772200D02*
X160196352Y-107819819D01*
X160196352Y-107819819D02*
X160005876Y-107819819D01*
X160005876Y-107819819D02*
X159910638Y-107772200D01*
X159910638Y-107772200D02*
X159863019Y-107676961D01*
X159863019Y-107676961D02*
X159863019Y-107296009D01*
X159863019Y-107296009D02*
X159910638Y-107200771D01*
X159910638Y-107200771D02*
X160005876Y-107153152D01*
X160005876Y-107153152D02*
X160196352Y-107153152D01*
X160196352Y-107153152D02*
X160291590Y-107200771D01*
X160291590Y-107200771D02*
X160339209Y-107296009D01*
X160339209Y-107296009D02*
X160339209Y-107391247D01*
X160339209Y-107391247D02*
X159863019Y-107486485D01*
X161815400Y-108200771D02*
X161767781Y-108153152D01*
X161767781Y-108153152D02*
X161672543Y-108010295D01*
X161672543Y-108010295D02*
X161624924Y-107915057D01*
X161624924Y-107915057D02*
X161577305Y-107772200D01*
X161577305Y-107772200D02*
X161529686Y-107534104D01*
X161529686Y-107534104D02*
X161529686Y-107343628D01*
X161529686Y-107343628D02*
X161577305Y-107105533D01*
X161577305Y-107105533D02*
X161624924Y-106962676D01*
X161624924Y-106962676D02*
X161672543Y-106867438D01*
X161672543Y-106867438D02*
X161767781Y-106724580D01*
X161767781Y-106724580D02*
X161815400Y-106676961D01*
X162196353Y-107819819D02*
X162196353Y-106819819D01*
X162196353Y-106819819D02*
X162577305Y-106819819D01*
X162577305Y-106819819D02*
X162672543Y-106867438D01*
X162672543Y-106867438D02*
X162720162Y-106915057D01*
X162720162Y-106915057D02*
X162767781Y-107010295D01*
X162767781Y-107010295D02*
X162767781Y-107153152D01*
X162767781Y-107153152D02*
X162720162Y-107248390D01*
X162720162Y-107248390D02*
X162672543Y-107296009D01*
X162672543Y-107296009D02*
X162577305Y-107343628D01*
X162577305Y-107343628D02*
X162196353Y-107343628D01*
X163196353Y-107819819D02*
X163196353Y-106819819D01*
X164243971Y-107724580D02*
X164196352Y-107772200D01*
X164196352Y-107772200D02*
X164053495Y-107819819D01*
X164053495Y-107819819D02*
X163958257Y-107819819D01*
X163958257Y-107819819D02*
X163815400Y-107772200D01*
X163815400Y-107772200D02*
X163720162Y-107676961D01*
X163720162Y-107676961D02*
X163672543Y-107581723D01*
X163672543Y-107581723D02*
X163624924Y-107391247D01*
X163624924Y-107391247D02*
X163624924Y-107248390D01*
X163624924Y-107248390D02*
X163672543Y-107057914D01*
X163672543Y-107057914D02*
X163720162Y-106962676D01*
X163720162Y-106962676D02*
X163815400Y-106867438D01*
X163815400Y-106867438D02*
X163958257Y-106819819D01*
X163958257Y-106819819D02*
X164053495Y-106819819D01*
X164053495Y-106819819D02*
X164196352Y-106867438D01*
X164196352Y-106867438D02*
X164243971Y-106915057D01*
X164863019Y-106819819D02*
X165053495Y-106819819D01*
X165053495Y-106819819D02*
X165148733Y-106867438D01*
X165148733Y-106867438D02*
X165243971Y-106962676D01*
X165243971Y-106962676D02*
X165291590Y-107153152D01*
X165291590Y-107153152D02*
X165291590Y-107486485D01*
X165291590Y-107486485D02*
X165243971Y-107676961D01*
X165243971Y-107676961D02*
X165148733Y-107772200D01*
X165148733Y-107772200D02*
X165053495Y-107819819D01*
X165053495Y-107819819D02*
X164863019Y-107819819D01*
X164863019Y-107819819D02*
X164767781Y-107772200D01*
X164767781Y-107772200D02*
X164672543Y-107676961D01*
X164672543Y-107676961D02*
X164624924Y-107486485D01*
X164624924Y-107486485D02*
X164624924Y-107153152D01*
X164624924Y-107153152D02*
X164672543Y-106962676D01*
X164672543Y-106962676D02*
X164767781Y-106867438D01*
X164767781Y-106867438D02*
X164863019Y-106819819D01*
X166386829Y-107153152D02*
X166624924Y-107819819D01*
X166624924Y-107819819D02*
X166863019Y-107153152D01*
X167243972Y-107724580D02*
X167291591Y-107772200D01*
X167291591Y-107772200D02*
X167243972Y-107819819D01*
X167243972Y-107819819D02*
X167196353Y-107772200D01*
X167196353Y-107772200D02*
X167243972Y-107724580D01*
X167243972Y-107724580D02*
X167243972Y-107819819D01*
X167624924Y-106819819D02*
X168243971Y-106819819D01*
X168243971Y-106819819D02*
X167910638Y-107200771D01*
X167910638Y-107200771D02*
X168053495Y-107200771D01*
X168053495Y-107200771D02*
X168148733Y-107248390D01*
X168148733Y-107248390D02*
X168196352Y-107296009D01*
X168196352Y-107296009D02*
X168243971Y-107391247D01*
X168243971Y-107391247D02*
X168243971Y-107629342D01*
X168243971Y-107629342D02*
X168196352Y-107724580D01*
X168196352Y-107724580D02*
X168148733Y-107772200D01*
X168148733Y-107772200D02*
X168053495Y-107819819D01*
X168053495Y-107819819D02*
X167767781Y-107819819D01*
X167767781Y-107819819D02*
X167672543Y-107772200D01*
X167672543Y-107772200D02*
X167624924Y-107724580D01*
X168672543Y-107724580D02*
X168720162Y-107772200D01*
X168720162Y-107772200D02*
X168672543Y-107819819D01*
X168672543Y-107819819D02*
X168624924Y-107772200D01*
X168624924Y-107772200D02*
X168672543Y-107724580D01*
X168672543Y-107724580D02*
X168672543Y-107819819D01*
X169339209Y-106819819D02*
X169434447Y-106819819D01*
X169434447Y-106819819D02*
X169529685Y-106867438D01*
X169529685Y-106867438D02*
X169577304Y-106915057D01*
X169577304Y-106915057D02*
X169624923Y-107010295D01*
X169624923Y-107010295D02*
X169672542Y-107200771D01*
X169672542Y-107200771D02*
X169672542Y-107438866D01*
X169672542Y-107438866D02*
X169624923Y-107629342D01*
X169624923Y-107629342D02*
X169577304Y-107724580D01*
X169577304Y-107724580D02*
X169529685Y-107772200D01*
X169529685Y-107772200D02*
X169434447Y-107819819D01*
X169434447Y-107819819D02*
X169339209Y-107819819D01*
X169339209Y-107819819D02*
X169243971Y-107772200D01*
X169243971Y-107772200D02*
X169196352Y-107724580D01*
X169196352Y-107724580D02*
X169148733Y-107629342D01*
X169148733Y-107629342D02*
X169101114Y-107438866D01*
X169101114Y-107438866D02*
X169101114Y-107200771D01*
X169101114Y-107200771D02*
X169148733Y-107010295D01*
X169148733Y-107010295D02*
X169196352Y-106915057D01*
X169196352Y-106915057D02*
X169243971Y-106867438D01*
X169243971Y-106867438D02*
X169339209Y-106819819D01*
X170005876Y-108200771D02*
X170053495Y-108153152D01*
X170053495Y-108153152D02*
X170148733Y-108010295D01*
X170148733Y-108010295D02*
X170196352Y-107915057D01*
X170196352Y-107915057D02*
X170243971Y-107772200D01*
X170243971Y-107772200D02*
X170291590Y-107534104D01*
X170291590Y-107534104D02*
X170291590Y-107343628D01*
X170291590Y-107343628D02*
X170243971Y-107105533D01*
X170243971Y-107105533D02*
X170196352Y-106962676D01*
X170196352Y-106962676D02*
X170148733Y-106867438D01*
X170148733Y-106867438D02*
X170053495Y-106724580D01*
X170053495Y-106724580D02*
X170005876Y-106676961D01*
X155657779Y-135505819D02*
X155657779Y-134505819D01*
X155657779Y-134886771D02*
X155753017Y-134839152D01*
X155753017Y-134839152D02*
X155943493Y-134839152D01*
X155943493Y-134839152D02*
X156038731Y-134886771D01*
X156038731Y-134886771D02*
X156086350Y-134934390D01*
X156086350Y-134934390D02*
X156133969Y-135029628D01*
X156133969Y-135029628D02*
X156133969Y-135315342D01*
X156133969Y-135315342D02*
X156086350Y-135410580D01*
X156086350Y-135410580D02*
X156038731Y-135458200D01*
X156038731Y-135458200D02*
X155943493Y-135505819D01*
X155943493Y-135505819D02*
X155753017Y-135505819D01*
X155753017Y-135505819D02*
X155657779Y-135458200D01*
X156467303Y-134839152D02*
X156705398Y-135505819D01*
X156943493Y-134839152D02*
X156705398Y-135505819D01*
X156705398Y-135505819D02*
X156610160Y-135743914D01*
X156610160Y-135743914D02*
X156562541Y-135791533D01*
X156562541Y-135791533D02*
X156467303Y-135839152D01*
X158086351Y-134982009D02*
X158419684Y-134982009D01*
X158562541Y-135505819D02*
X158086351Y-135505819D01*
X158086351Y-135505819D02*
X158086351Y-134505819D01*
X158086351Y-134505819D02*
X158562541Y-134505819D01*
X158848256Y-134505819D02*
X159419684Y-134505819D01*
X159133970Y-135505819D02*
X159133970Y-134505819D01*
X160324446Y-135505819D02*
X159991113Y-135029628D01*
X159753018Y-135505819D02*
X159753018Y-134505819D01*
X159753018Y-134505819D02*
X160133970Y-134505819D01*
X160133970Y-134505819D02*
X160229208Y-134553438D01*
X160229208Y-134553438D02*
X160276827Y-134601057D01*
X160276827Y-134601057D02*
X160324446Y-134696295D01*
X160324446Y-134696295D02*
X160324446Y-134839152D01*
X160324446Y-134839152D02*
X160276827Y-134934390D01*
X160276827Y-134934390D02*
X160229208Y-134982009D01*
X160229208Y-134982009D02*
X160133970Y-135029628D01*
X160133970Y-135029628D02*
X159753018Y-135029628D01*
X160753018Y-135505819D02*
X160753018Y-134505819D01*
X161943493Y-134458200D02*
X161086351Y-135743914D01*
X162276827Y-135505819D02*
X162276827Y-134505819D01*
X162276827Y-134505819D02*
X162848255Y-135505819D01*
X162848255Y-135505819D02*
X162848255Y-134505819D01*
X163276827Y-135458200D02*
X163419684Y-135505819D01*
X163419684Y-135505819D02*
X163657779Y-135505819D01*
X163657779Y-135505819D02*
X163753017Y-135458200D01*
X163753017Y-135458200D02*
X163800636Y-135410580D01*
X163800636Y-135410580D02*
X163848255Y-135315342D01*
X163848255Y-135315342D02*
X163848255Y-135220104D01*
X163848255Y-135220104D02*
X163800636Y-135124866D01*
X163800636Y-135124866D02*
X163753017Y-135077247D01*
X163753017Y-135077247D02*
X163657779Y-135029628D01*
X163657779Y-135029628D02*
X163467303Y-134982009D01*
X163467303Y-134982009D02*
X163372065Y-134934390D01*
X163372065Y-134934390D02*
X163324446Y-134886771D01*
X163324446Y-134886771D02*
X163276827Y-134791533D01*
X163276827Y-134791533D02*
X163276827Y-134696295D01*
X163276827Y-134696295D02*
X163324446Y-134601057D01*
X163324446Y-134601057D02*
X163372065Y-134553438D01*
X163372065Y-134553438D02*
X163467303Y-134505819D01*
X163467303Y-134505819D02*
X163705398Y-134505819D01*
X163705398Y-134505819D02*
X163848255Y-134553438D01*
X164276827Y-135505819D02*
X164276827Y-134505819D01*
X164276827Y-134505819D02*
X164657779Y-134505819D01*
X164657779Y-134505819D02*
X164753017Y-134553438D01*
X164753017Y-134553438D02*
X164800636Y-134601057D01*
X164800636Y-134601057D02*
X164848255Y-134696295D01*
X164848255Y-134696295D02*
X164848255Y-134839152D01*
X164848255Y-134839152D02*
X164800636Y-134934390D01*
X164800636Y-134934390D02*
X164753017Y-134982009D01*
X164753017Y-134982009D02*
X164657779Y-135029628D01*
X164657779Y-135029628D02*
X164276827Y-135029628D01*
X165753017Y-135505819D02*
X165276827Y-135505819D01*
X165276827Y-135505819D02*
X165276827Y-134505819D01*
D13*
X124457758Y-148798428D02*
X125386330Y-148798428D01*
X125386330Y-148798428D02*
X124886330Y-149369857D01*
X124886330Y-149369857D02*
X125100615Y-149369857D01*
X125100615Y-149369857D02*
X125243473Y-149441285D01*
X125243473Y-149441285D02*
X125314901Y-149512714D01*
X125314901Y-149512714D02*
X125386330Y-149655571D01*
X125386330Y-149655571D02*
X125386330Y-150012714D01*
X125386330Y-150012714D02*
X125314901Y-150155571D01*
X125314901Y-150155571D02*
X125243473Y-150227000D01*
X125243473Y-150227000D02*
X125100615Y-150298428D01*
X125100615Y-150298428D02*
X124672044Y-150298428D01*
X124672044Y-150298428D02*
X124529187Y-150227000D01*
X124529187Y-150227000D02*
X124457758Y-150155571D01*
X126029186Y-150155571D02*
X126100615Y-150227000D01*
X126100615Y-150227000D02*
X126029186Y-150298428D01*
X126029186Y-150298428D02*
X125957758Y-150227000D01*
X125957758Y-150227000D02*
X126029186Y-150155571D01*
X126029186Y-150155571D02*
X126029186Y-150298428D01*
X126600615Y-148798428D02*
X127529187Y-148798428D01*
X127529187Y-148798428D02*
X127029187Y-149369857D01*
X127029187Y-149369857D02*
X127243472Y-149369857D01*
X127243472Y-149369857D02*
X127386330Y-149441285D01*
X127386330Y-149441285D02*
X127457758Y-149512714D01*
X127457758Y-149512714D02*
X127529187Y-149655571D01*
X127529187Y-149655571D02*
X127529187Y-150012714D01*
X127529187Y-150012714D02*
X127457758Y-150155571D01*
X127457758Y-150155571D02*
X127386330Y-150227000D01*
X127386330Y-150227000D02*
X127243472Y-150298428D01*
X127243472Y-150298428D02*
X126814901Y-150298428D01*
X126814901Y-150298428D02*
X126672044Y-150227000D01*
X126672044Y-150227000D02*
X126600615Y-150155571D01*
X127957758Y-148798428D02*
X128457758Y-150298428D01*
X128457758Y-150298428D02*
X128957758Y-148798428D01*
X127775615Y-146996428D02*
X127775615Y-145496428D01*
X127775615Y-145496428D02*
X128347044Y-145496428D01*
X128347044Y-145496428D02*
X128489901Y-145567857D01*
X128489901Y-145567857D02*
X128561330Y-145639285D01*
X128561330Y-145639285D02*
X128632758Y-145782142D01*
X128632758Y-145782142D02*
X128632758Y-145996428D01*
X128632758Y-145996428D02*
X128561330Y-146139285D01*
X128561330Y-146139285D02*
X128489901Y-146210714D01*
X128489901Y-146210714D02*
X128347044Y-146282142D01*
X128347044Y-146282142D02*
X127775615Y-146282142D01*
X129275615Y-146996428D02*
X129275615Y-145496428D01*
X129275615Y-145496428D02*
X129775615Y-146567857D01*
X129775615Y-146567857D02*
X130275615Y-145496428D01*
X130275615Y-145496428D02*
X130275615Y-146996428D01*
X131275616Y-145496428D02*
X131561330Y-145496428D01*
X131561330Y-145496428D02*
X131704187Y-145567857D01*
X131704187Y-145567857D02*
X131847044Y-145710714D01*
X131847044Y-145710714D02*
X131918473Y-145996428D01*
X131918473Y-145996428D02*
X131918473Y-146496428D01*
X131918473Y-146496428D02*
X131847044Y-146782142D01*
X131847044Y-146782142D02*
X131704187Y-146925000D01*
X131704187Y-146925000D02*
X131561330Y-146996428D01*
X131561330Y-146996428D02*
X131275616Y-146996428D01*
X131275616Y-146996428D02*
X131132759Y-146925000D01*
X131132759Y-146925000D02*
X130989901Y-146782142D01*
X130989901Y-146782142D02*
X130918473Y-146496428D01*
X130918473Y-146496428D02*
X130918473Y-145996428D01*
X130918473Y-145996428D02*
X130989901Y-145710714D01*
X130989901Y-145710714D02*
X131132759Y-145567857D01*
X131132759Y-145567857D02*
X131275616Y-145496428D01*
X132561330Y-146996428D02*
X132561330Y-145496428D01*
X132561330Y-145496428D02*
X132918473Y-145496428D01*
X132918473Y-145496428D02*
X133132759Y-145567857D01*
X133132759Y-145567857D02*
X133275616Y-145710714D01*
X133275616Y-145710714D02*
X133347045Y-145853571D01*
X133347045Y-145853571D02*
X133418473Y-146139285D01*
X133418473Y-146139285D02*
X133418473Y-146353571D01*
X133418473Y-146353571D02*
X133347045Y-146639285D01*
X133347045Y-146639285D02*
X133275616Y-146782142D01*
X133275616Y-146782142D02*
X133132759Y-146925000D01*
X133132759Y-146925000D02*
X132918473Y-146996428D01*
X132918473Y-146996428D02*
X132561330Y-146996428D01*
X135204187Y-146996428D02*
X135204187Y-145496428D01*
X135204187Y-145496428D02*
X135775616Y-145496428D01*
X135775616Y-145496428D02*
X135918473Y-145567857D01*
X135918473Y-145567857D02*
X135989902Y-145639285D01*
X135989902Y-145639285D02*
X136061330Y-145782142D01*
X136061330Y-145782142D02*
X136061330Y-145996428D01*
X136061330Y-145996428D02*
X135989902Y-146139285D01*
X135989902Y-146139285D02*
X135918473Y-146210714D01*
X135918473Y-146210714D02*
X135775616Y-146282142D01*
X135775616Y-146282142D02*
X135204187Y-146282142D01*
X136561330Y-145496428D02*
X136918473Y-146996428D01*
X136918473Y-146996428D02*
X137204187Y-145925000D01*
X137204187Y-145925000D02*
X137489902Y-146996428D01*
X137489902Y-146996428D02*
X137847045Y-145496428D01*
X139275616Y-146996428D02*
X138775616Y-146282142D01*
X138418473Y-146996428D02*
X138418473Y-145496428D01*
X138418473Y-145496428D02*
X138989902Y-145496428D01*
X138989902Y-145496428D02*
X139132759Y-145567857D01*
X139132759Y-145567857D02*
X139204188Y-145639285D01*
X139204188Y-145639285D02*
X139275616Y-145782142D01*
X139275616Y-145782142D02*
X139275616Y-145996428D01*
X139275616Y-145996428D02*
X139204188Y-146139285D01*
X139204188Y-146139285D02*
X139132759Y-146210714D01*
X139132759Y-146210714D02*
X138989902Y-146282142D01*
X138989902Y-146282142D02*
X138418473Y-146282142D01*
X139665901Y-148798428D02*
X138951615Y-148798428D01*
X138951615Y-148798428D02*
X138880187Y-149512714D01*
X138880187Y-149512714D02*
X138951615Y-149441285D01*
X138951615Y-149441285D02*
X139094473Y-149369857D01*
X139094473Y-149369857D02*
X139451615Y-149369857D01*
X139451615Y-149369857D02*
X139594473Y-149441285D01*
X139594473Y-149441285D02*
X139665901Y-149512714D01*
X139665901Y-149512714D02*
X139737330Y-149655571D01*
X139737330Y-149655571D02*
X139737330Y-150012714D01*
X139737330Y-150012714D02*
X139665901Y-150155571D01*
X139665901Y-150155571D02*
X139594473Y-150227000D01*
X139594473Y-150227000D02*
X139451615Y-150298428D01*
X139451615Y-150298428D02*
X139094473Y-150298428D01*
X139094473Y-150298428D02*
X138951615Y-150227000D01*
X138951615Y-150227000D02*
X138880187Y-150155571D01*
X140165901Y-148798428D02*
X140665901Y-150298428D01*
X140665901Y-150298428D02*
X141165901Y-148798428D01*
X148086687Y-110420428D02*
X148274187Y-108920428D01*
X148274187Y-108920428D02*
X148640258Y-109991857D01*
X148640258Y-109991857D02*
X149274187Y-108920428D01*
X149274187Y-108920428D02*
X149086687Y-110420428D01*
X149783116Y-109420428D02*
X150015259Y-110420428D01*
X150497401Y-109420428D02*
X150015259Y-110420428D01*
X150015259Y-110420428D02*
X149827759Y-110777571D01*
X149827759Y-110777571D02*
X149747401Y-110849000D01*
X149747401Y-110849000D02*
X149595616Y-110920428D01*
X151818830Y-110277571D02*
X151738473Y-110349000D01*
X151738473Y-110349000D02*
X151515258Y-110420428D01*
X151515258Y-110420428D02*
X151372401Y-110420428D01*
X151372401Y-110420428D02*
X151167044Y-110349000D01*
X151167044Y-110349000D02*
X151042044Y-110206142D01*
X151042044Y-110206142D02*
X150988473Y-110063285D01*
X150988473Y-110063285D02*
X150952758Y-109777571D01*
X150952758Y-109777571D02*
X150979544Y-109563285D01*
X150979544Y-109563285D02*
X151086687Y-109277571D01*
X151086687Y-109277571D02*
X151175973Y-109134714D01*
X151175973Y-109134714D02*
X151336687Y-108991857D01*
X151336687Y-108991857D02*
X151559901Y-108920428D01*
X151559901Y-108920428D02*
X151702758Y-108920428D01*
X151702758Y-108920428D02*
X151908116Y-108991857D01*
X151908116Y-108991857D02*
X151970616Y-109063285D01*
X152443830Y-110420428D02*
X152631330Y-108920428D01*
X153086687Y-110420428D02*
X153184901Y-109634714D01*
X153184901Y-109634714D02*
X153131330Y-109491857D01*
X153131330Y-109491857D02*
X152997401Y-109420428D01*
X152997401Y-109420428D02*
X152783116Y-109420428D01*
X152783116Y-109420428D02*
X152631330Y-109491857D01*
X152631330Y-109491857D02*
X152550973Y-109563285D01*
X153800973Y-110420428D02*
X153925973Y-109420428D01*
X153988473Y-108920428D02*
X153908116Y-108991857D01*
X153908116Y-108991857D02*
X153970616Y-109063285D01*
X153970616Y-109063285D02*
X154050973Y-108991857D01*
X154050973Y-108991857D02*
X153988473Y-108920428D01*
X153988473Y-108920428D02*
X153970616Y-109063285D01*
X154640259Y-109420428D02*
X154452759Y-110920428D01*
X154631330Y-109491857D02*
X154783116Y-109420428D01*
X154783116Y-109420428D02*
X155068830Y-109420428D01*
X155068830Y-109420428D02*
X155202759Y-109491857D01*
X155202759Y-109491857D02*
X155265259Y-109563285D01*
X155265259Y-109563285D02*
X155318830Y-109706142D01*
X155318830Y-109706142D02*
X155265259Y-110134714D01*
X155265259Y-110134714D02*
X155175973Y-110277571D01*
X155175973Y-110277571D02*
X155095616Y-110349000D01*
X155095616Y-110349000D02*
X154943830Y-110420428D01*
X154943830Y-110420428D02*
X154658116Y-110420428D01*
X154658116Y-110420428D02*
X154524187Y-110349000D01*
X155943830Y-109849000D02*
X157086688Y-109849000D01*
X157943831Y-110420428D02*
X157809902Y-110349000D01*
X157809902Y-110349000D02*
X157747402Y-110277571D01*
X157747402Y-110277571D02*
X157693831Y-110134714D01*
X157693831Y-110134714D02*
X157747402Y-109706142D01*
X157747402Y-109706142D02*
X157836688Y-109563285D01*
X157836688Y-109563285D02*
X157917045Y-109491857D01*
X157917045Y-109491857D02*
X158068831Y-109420428D01*
X158068831Y-109420428D02*
X158283116Y-109420428D01*
X158283116Y-109420428D02*
X158417045Y-109491857D01*
X158417045Y-109491857D02*
X158479545Y-109563285D01*
X158479545Y-109563285D02*
X158533116Y-109706142D01*
X158533116Y-109706142D02*
X158479545Y-110134714D01*
X158479545Y-110134714D02*
X158390259Y-110277571D01*
X158390259Y-110277571D02*
X158309902Y-110349000D01*
X158309902Y-110349000D02*
X158158116Y-110420428D01*
X158158116Y-110420428D02*
X157943831Y-110420428D01*
X159211688Y-109420428D02*
X159086688Y-110420428D01*
X159193831Y-109563285D02*
X159274188Y-109491857D01*
X159274188Y-109491857D02*
X159425974Y-109420428D01*
X159425974Y-109420428D02*
X159640259Y-109420428D01*
X159640259Y-109420428D02*
X159774188Y-109491857D01*
X159774188Y-109491857D02*
X159827759Y-109634714D01*
X159827759Y-109634714D02*
X159729545Y-110420428D01*
X160515259Y-109849000D02*
X161658117Y-109849000D01*
X162300974Y-110420428D02*
X162488474Y-108920428D01*
X162488474Y-108920428D02*
X162854545Y-109991857D01*
X162854545Y-109991857D02*
X163488474Y-108920428D01*
X163488474Y-108920428D02*
X163300974Y-110420428D01*
X163997403Y-109420428D02*
X164229546Y-110420428D01*
X164711688Y-109420428D02*
X164229546Y-110420428D01*
X164229546Y-110420428D02*
X164042046Y-110777571D01*
X164042046Y-110777571D02*
X163961688Y-110849000D01*
X163961688Y-110849000D02*
X163809903Y-110920428D01*
X165158117Y-110420428D02*
X165345617Y-108920428D01*
X165345617Y-108920428D02*
X165702760Y-108920428D01*
X165702760Y-108920428D02*
X165908117Y-108991857D01*
X165908117Y-108991857D02*
X166033117Y-109134714D01*
X166033117Y-109134714D02*
X166086688Y-109277571D01*
X166086688Y-109277571D02*
X166122403Y-109563285D01*
X166122403Y-109563285D02*
X166095617Y-109777571D01*
X166095617Y-109777571D02*
X165988474Y-110063285D01*
X165988474Y-110063285D02*
X165899188Y-110206142D01*
X165899188Y-110206142D02*
X165738474Y-110349000D01*
X165738474Y-110349000D02*
X165515260Y-110420428D01*
X165515260Y-110420428D02*
X165158117Y-110420428D01*
X167238474Y-110349000D02*
X167086688Y-110420428D01*
X167086688Y-110420428D02*
X166800974Y-110420428D01*
X166800974Y-110420428D02*
X166667045Y-110349000D01*
X166667045Y-110349000D02*
X166613474Y-110206142D01*
X166613474Y-110206142D02*
X166684903Y-109634714D01*
X166684903Y-109634714D02*
X166774188Y-109491857D01*
X166774188Y-109491857D02*
X166925974Y-109420428D01*
X166925974Y-109420428D02*
X167211688Y-109420428D01*
X167211688Y-109420428D02*
X167345617Y-109491857D01*
X167345617Y-109491857D02*
X167399188Y-109634714D01*
X167399188Y-109634714D02*
X167381331Y-109777571D01*
X167381331Y-109777571D02*
X166649188Y-109920428D01*
X167881331Y-110349000D02*
X168015259Y-110420428D01*
X168015259Y-110420428D02*
X168300974Y-110420428D01*
X168300974Y-110420428D02*
X168452759Y-110349000D01*
X168452759Y-110349000D02*
X168542045Y-110206142D01*
X168542045Y-110206142D02*
X168550974Y-110134714D01*
X168550974Y-110134714D02*
X168497402Y-109991857D01*
X168497402Y-109991857D02*
X168363474Y-109920428D01*
X168363474Y-109920428D02*
X168149188Y-109920428D01*
X168149188Y-109920428D02*
X168015259Y-109849000D01*
X168015259Y-109849000D02*
X167961688Y-109706142D01*
X167961688Y-109706142D02*
X167970617Y-109634714D01*
X167970617Y-109634714D02*
X168059902Y-109491857D01*
X168059902Y-109491857D02*
X168211688Y-109420428D01*
X168211688Y-109420428D02*
X168425974Y-109420428D01*
X168425974Y-109420428D02*
X168559902Y-109491857D01*
X169158117Y-110420428D02*
X169345617Y-108920428D01*
X169372403Y-109849000D02*
X169729545Y-110420428D01*
X169854545Y-109420428D02*
X169211688Y-109991857D01*
D14*
X153970510Y-130354912D02*
X153970510Y-128854912D01*
X153970510Y-128854912D02*
X154470510Y-129926341D01*
X154470510Y-129926341D02*
X154970510Y-128854912D01*
X154970510Y-128854912D02*
X154970510Y-130354912D01*
X155541939Y-129354912D02*
X155899082Y-130354912D01*
X156256225Y-129354912D02*
X155899082Y-130354912D01*
X155899082Y-130354912D02*
X155756225Y-130712055D01*
X155756225Y-130712055D02*
X155684796Y-130783484D01*
X155684796Y-130783484D02*
X155541939Y-130854912D01*
X158827653Y-130212055D02*
X158756225Y-130283484D01*
X158756225Y-130283484D02*
X158541939Y-130354912D01*
X158541939Y-130354912D02*
X158399082Y-130354912D01*
X158399082Y-130354912D02*
X158184796Y-130283484D01*
X158184796Y-130283484D02*
X158041939Y-130140626D01*
X158041939Y-130140626D02*
X157970510Y-129997769D01*
X157970510Y-129997769D02*
X157899082Y-129712055D01*
X157899082Y-129712055D02*
X157899082Y-129497769D01*
X157899082Y-129497769D02*
X157970510Y-129212055D01*
X157970510Y-129212055D02*
X158041939Y-129069198D01*
X158041939Y-129069198D02*
X158184796Y-128926341D01*
X158184796Y-128926341D02*
X158399082Y-128854912D01*
X158399082Y-128854912D02*
X158541939Y-128854912D01*
X158541939Y-128854912D02*
X158756225Y-128926341D01*
X158756225Y-128926341D02*
X158827653Y-128997769D01*
X159470510Y-130354912D02*
X159470510Y-128854912D01*
X160113368Y-130354912D02*
X160113368Y-129569198D01*
X160113368Y-129569198D02*
X160041939Y-129426341D01*
X160041939Y-129426341D02*
X159899082Y-129354912D01*
X159899082Y-129354912D02*
X159684796Y-129354912D01*
X159684796Y-129354912D02*
X159541939Y-129426341D01*
X159541939Y-129426341D02*
X159470510Y-129497769D01*
X160827653Y-130354912D02*
X160827653Y-129354912D01*
X160827653Y-128854912D02*
X160756225Y-128926341D01*
X160756225Y-128926341D02*
X160827653Y-128997769D01*
X160827653Y-128997769D02*
X160899082Y-128926341D01*
X160899082Y-128926341D02*
X160827653Y-128854912D01*
X160827653Y-128854912D02*
X160827653Y-128997769D01*
X161541939Y-129354912D02*
X161541939Y-130854912D01*
X161541939Y-129426341D02*
X161684797Y-129354912D01*
X161684797Y-129354912D02*
X161970511Y-129354912D01*
X161970511Y-129354912D02*
X162113368Y-129426341D01*
X162113368Y-129426341D02*
X162184797Y-129497769D01*
X162184797Y-129497769D02*
X162256225Y-129640626D01*
X162256225Y-129640626D02*
X162256225Y-130069198D01*
X162256225Y-130069198D02*
X162184797Y-130212055D01*
X162184797Y-130212055D02*
X162113368Y-130283484D01*
X162113368Y-130283484D02*
X161970511Y-130354912D01*
X161970511Y-130354912D02*
X161684797Y-130354912D01*
X161684797Y-130354912D02*
X161541939Y-130283484D01*
X153970510Y-132769828D02*
X153970510Y-131269828D01*
X153970510Y-131269828D02*
X154470510Y-132341257D01*
X154470510Y-132341257D02*
X154970510Y-131269828D01*
X154970510Y-131269828D02*
X154970510Y-132769828D01*
X155684796Y-132769828D02*
X155684796Y-131269828D01*
X155684796Y-131269828D02*
X156256225Y-131269828D01*
X156256225Y-131269828D02*
X156399082Y-131341257D01*
X156399082Y-131341257D02*
X156470511Y-131412685D01*
X156470511Y-131412685D02*
X156541939Y-131555542D01*
X156541939Y-131555542D02*
X156541939Y-131769828D01*
X156541939Y-131769828D02*
X156470511Y-131912685D01*
X156470511Y-131912685D02*
X156399082Y-131984114D01*
X156399082Y-131984114D02*
X156256225Y-132055542D01*
X156256225Y-132055542D02*
X155684796Y-132055542D01*
X157041939Y-131269828D02*
X157399082Y-132769828D01*
X157399082Y-132769828D02*
X157684796Y-131698400D01*
X157684796Y-131698400D02*
X157970511Y-132769828D01*
X157970511Y-132769828D02*
X158327654Y-131269828D01*
X159970511Y-132698400D02*
X160184797Y-132769828D01*
X160184797Y-132769828D02*
X160541939Y-132769828D01*
X160541939Y-132769828D02*
X160684797Y-132698400D01*
X160684797Y-132698400D02*
X160756225Y-132626971D01*
X160756225Y-132626971D02*
X160827654Y-132484114D01*
X160827654Y-132484114D02*
X160827654Y-132341257D01*
X160827654Y-132341257D02*
X160756225Y-132198400D01*
X160756225Y-132198400D02*
X160684797Y-132126971D01*
X160684797Y-132126971D02*
X160541939Y-132055542D01*
X160541939Y-132055542D02*
X160256225Y-131984114D01*
X160256225Y-131984114D02*
X160113368Y-131912685D01*
X160113368Y-131912685D02*
X160041939Y-131841257D01*
X160041939Y-131841257D02*
X159970511Y-131698400D01*
X159970511Y-131698400D02*
X159970511Y-131555542D01*
X159970511Y-131555542D02*
X160041939Y-131412685D01*
X160041939Y-131412685D02*
X160113368Y-131341257D01*
X160113368Y-131341257D02*
X160256225Y-131269828D01*
X160256225Y-131269828D02*
X160613368Y-131269828D01*
X160613368Y-131269828D02*
X160827654Y-131341257D01*
X162041939Y-132698400D02*
X161899082Y-132769828D01*
X161899082Y-132769828D02*
X161613368Y-132769828D01*
X161613368Y-132769828D02*
X161470510Y-132698400D01*
X161470510Y-132698400D02*
X161399082Y-132555542D01*
X161399082Y-132555542D02*
X161399082Y-131984114D01*
X161399082Y-131984114D02*
X161470510Y-131841257D01*
X161470510Y-131841257D02*
X161613368Y-131769828D01*
X161613368Y-131769828D02*
X161899082Y-131769828D01*
X161899082Y-131769828D02*
X162041939Y-131841257D01*
X162041939Y-131841257D02*
X162113368Y-131984114D01*
X162113368Y-131984114D02*
X162113368Y-132126971D01*
X162113368Y-132126971D02*
X161399082Y-132269828D01*
X162756224Y-132769828D02*
X162756224Y-131769828D01*
X162756224Y-132055542D02*
X162827653Y-131912685D01*
X162827653Y-131912685D02*
X162899082Y-131841257D01*
X162899082Y-131841257D02*
X163041939Y-131769828D01*
X163041939Y-131769828D02*
X163184796Y-131769828D01*
X163541938Y-131769828D02*
X163899081Y-132769828D01*
X163899081Y-132769828D02*
X164256224Y-131769828D01*
X164827652Y-132769828D02*
X164827652Y-131769828D01*
X164827652Y-131269828D02*
X164756224Y-131341257D01*
X164756224Y-131341257D02*
X164827652Y-131412685D01*
X164827652Y-131412685D02*
X164899081Y-131341257D01*
X164899081Y-131341257D02*
X164827652Y-131269828D01*
X164827652Y-131269828D02*
X164827652Y-131412685D01*
X166184796Y-132698400D02*
X166041938Y-132769828D01*
X166041938Y-132769828D02*
X165756224Y-132769828D01*
X165756224Y-132769828D02*
X165613367Y-132698400D01*
X165613367Y-132698400D02*
X165541938Y-132626971D01*
X165541938Y-132626971D02*
X165470510Y-132484114D01*
X165470510Y-132484114D02*
X165470510Y-132055542D01*
X165470510Y-132055542D02*
X165541938Y-131912685D01*
X165541938Y-131912685D02*
X165613367Y-131841257D01*
X165613367Y-131841257D02*
X165756224Y-131769828D01*
X165756224Y-131769828D02*
X166041938Y-131769828D01*
X166041938Y-131769828D02*
X166184796Y-131841257D01*
X167399081Y-132698400D02*
X167256224Y-132769828D01*
X167256224Y-132769828D02*
X166970510Y-132769828D01*
X166970510Y-132769828D02*
X166827652Y-132698400D01*
X166827652Y-132698400D02*
X166756224Y-132555542D01*
X166756224Y-132555542D02*
X166756224Y-131984114D01*
X166756224Y-131984114D02*
X166827652Y-131841257D01*
X166827652Y-131841257D02*
X166970510Y-131769828D01*
X166970510Y-131769828D02*
X167256224Y-131769828D01*
X167256224Y-131769828D02*
X167399081Y-131841257D01*
X167399081Y-131841257D02*
X167470510Y-131984114D01*
X167470510Y-131984114D02*
X167470510Y-132126971D01*
X167470510Y-132126971D02*
X166756224Y-132269828D01*
D15*
X151615347Y-103493438D02*
X151615347Y-101493438D01*
X151615347Y-101493438D02*
X152377252Y-101493438D01*
X152377252Y-101493438D02*
X152567728Y-101588676D01*
X152567728Y-101588676D02*
X152662966Y-101683914D01*
X152662966Y-101683914D02*
X152758204Y-101874390D01*
X152758204Y-101874390D02*
X152758204Y-102160104D01*
X152758204Y-102160104D02*
X152662966Y-102350580D01*
X152662966Y-102350580D02*
X152567728Y-102445819D01*
X152567728Y-102445819D02*
X152377252Y-102541057D01*
X152377252Y-102541057D02*
X151615347Y-102541057D01*
X153520109Y-103398200D02*
X153805823Y-103493438D01*
X153805823Y-103493438D02*
X154282014Y-103493438D01*
X154282014Y-103493438D02*
X154472490Y-103398200D01*
X154472490Y-103398200D02*
X154567728Y-103302961D01*
X154567728Y-103302961D02*
X154662966Y-103112485D01*
X154662966Y-103112485D02*
X154662966Y-102922009D01*
X154662966Y-102922009D02*
X154567728Y-102731533D01*
X154567728Y-102731533D02*
X154472490Y-102636295D01*
X154472490Y-102636295D02*
X154282014Y-102541057D01*
X154282014Y-102541057D02*
X153901061Y-102445819D01*
X153901061Y-102445819D02*
X153710585Y-102350580D01*
X153710585Y-102350580D02*
X153615347Y-102255342D01*
X153615347Y-102255342D02*
X153520109Y-102064866D01*
X153520109Y-102064866D02*
X153520109Y-101874390D01*
X153520109Y-101874390D02*
X153615347Y-101683914D01*
X153615347Y-101683914D02*
X153710585Y-101588676D01*
X153710585Y-101588676D02*
X153901061Y-101493438D01*
X153901061Y-101493438D02*
X154377252Y-101493438D01*
X154377252Y-101493438D02*
X154662966Y-101588676D01*
X156662966Y-103302961D02*
X156567728Y-103398200D01*
X156567728Y-103398200D02*
X156282014Y-103493438D01*
X156282014Y-103493438D02*
X156091538Y-103493438D01*
X156091538Y-103493438D02*
X155805823Y-103398200D01*
X155805823Y-103398200D02*
X155615347Y-103207723D01*
X155615347Y-103207723D02*
X155520109Y-103017247D01*
X155520109Y-103017247D02*
X155424871Y-102636295D01*
X155424871Y-102636295D02*
X155424871Y-102350580D01*
X155424871Y-102350580D02*
X155520109Y-101969628D01*
X155520109Y-101969628D02*
X155615347Y-101779152D01*
X155615347Y-101779152D02*
X155805823Y-101588676D01*
X155805823Y-101588676D02*
X156091538Y-101493438D01*
X156091538Y-101493438D02*
X156282014Y-101493438D01*
X156282014Y-101493438D02*
X156567728Y-101588676D01*
X156567728Y-101588676D02*
X156662966Y-101683914D01*
X157520109Y-102445819D02*
X158186776Y-102445819D01*
X158472490Y-103493438D02*
X157520109Y-103493438D01*
X157520109Y-103493438D02*
X157520109Y-101493438D01*
X157520109Y-101493438D02*
X158472490Y-101493438D01*
X159329633Y-102731533D02*
X160853443Y-102731533D01*
X161805823Y-103493438D02*
X161805823Y-101493438D01*
X161805823Y-101493438D02*
X162472490Y-102922009D01*
X162472490Y-102922009D02*
X163139156Y-101493438D01*
X163139156Y-101493438D02*
X163139156Y-103493438D01*
X164091537Y-103493438D02*
X164091537Y-101493438D01*
D11*
X112936666Y-112984819D02*
X112936666Y-113699104D01*
X112936666Y-113699104D02*
X112889047Y-113841961D01*
X112889047Y-113841961D02*
X112793809Y-113937200D01*
X112793809Y-113937200D02*
X112650952Y-113984819D01*
X112650952Y-113984819D02*
X112555714Y-113984819D01*
X113365238Y-113080057D02*
X113412857Y-113032438D01*
X113412857Y-113032438D02*
X113508095Y-112984819D01*
X113508095Y-112984819D02*
X113746190Y-112984819D01*
X113746190Y-112984819D02*
X113841428Y-113032438D01*
X113841428Y-113032438D02*
X113889047Y-113080057D01*
X113889047Y-113080057D02*
X113936666Y-113175295D01*
X113936666Y-113175295D02*
X113936666Y-113270533D01*
X113936666Y-113270533D02*
X113889047Y-113413390D01*
X113889047Y-113413390D02*
X113317619Y-113984819D01*
X113317619Y-113984819D02*
X113936666Y-113984819D01*
X112936666Y-135844819D02*
X112936666Y-136559104D01*
X112936666Y-136559104D02*
X112889047Y-136701961D01*
X112889047Y-136701961D02*
X112793809Y-136797200D01*
X112793809Y-136797200D02*
X112650952Y-136844819D01*
X112650952Y-136844819D02*
X112555714Y-136844819D01*
X113317619Y-135844819D02*
X113936666Y-135844819D01*
X113936666Y-135844819D02*
X113603333Y-136225771D01*
X113603333Y-136225771D02*
X113746190Y-136225771D01*
X113746190Y-136225771D02*
X113841428Y-136273390D01*
X113841428Y-136273390D02*
X113889047Y-136321009D01*
X113889047Y-136321009D02*
X113936666Y-136416247D01*
X113936666Y-136416247D02*
X113936666Y-136654342D01*
X113936666Y-136654342D02*
X113889047Y-136749580D01*
X113889047Y-136749580D02*
X113841428Y-136797200D01*
X113841428Y-136797200D02*
X113746190Y-136844819D01*
X113746190Y-136844819D02*
X113460476Y-136844819D01*
X113460476Y-136844819D02*
X113365238Y-136797200D01*
X113365238Y-136797200D02*
X113317619Y-136749580D01*
X152166666Y-115854819D02*
X152166666Y-116569104D01*
X152166666Y-116569104D02*
X152119047Y-116711961D01*
X152119047Y-116711961D02*
X152023809Y-116807200D01*
X152023809Y-116807200D02*
X151880952Y-116854819D01*
X151880952Y-116854819D02*
X151785714Y-116854819D01*
X152690476Y-116854819D02*
X152880952Y-116854819D01*
X152880952Y-116854819D02*
X152976190Y-116807200D01*
X152976190Y-116807200D02*
X153023809Y-116759580D01*
X153023809Y-116759580D02*
X153119047Y-116616723D01*
X153119047Y-116616723D02*
X153166666Y-116426247D01*
X153166666Y-116426247D02*
X153166666Y-116045295D01*
X153166666Y-116045295D02*
X153119047Y-115950057D01*
X153119047Y-115950057D02*
X153071428Y-115902438D01*
X153071428Y-115902438D02*
X152976190Y-115854819D01*
X152976190Y-115854819D02*
X152785714Y-115854819D01*
X152785714Y-115854819D02*
X152690476Y-115902438D01*
X152690476Y-115902438D02*
X152642857Y-115950057D01*
X152642857Y-115950057D02*
X152595238Y-116045295D01*
X152595238Y-116045295D02*
X152595238Y-116283390D01*
X152595238Y-116283390D02*
X152642857Y-116378628D01*
X152642857Y-116378628D02*
X152690476Y-116426247D01*
X152690476Y-116426247D02*
X152785714Y-116473866D01*
X152785714Y-116473866D02*
X152976190Y-116473866D01*
X152976190Y-116473866D02*
X153071428Y-116426247D01*
X153071428Y-116426247D02*
X153119047Y-116378628D01*
X153119047Y-116378628D02*
X153166666Y-116283390D01*
X151223810Y-115154819D02*
X151223810Y-114154819D01*
X151652381Y-114250057D02*
X151700000Y-114202438D01*
X151700000Y-114202438D02*
X151795238Y-114154819D01*
X151795238Y-114154819D02*
X152033333Y-114154819D01*
X152033333Y-114154819D02*
X152128571Y-114202438D01*
X152128571Y-114202438D02*
X152176190Y-114250057D01*
X152176190Y-114250057D02*
X152223809Y-114345295D01*
X152223809Y-114345295D02*
X152223809Y-114440533D01*
X152223809Y-114440533D02*
X152176190Y-114583390D01*
X152176190Y-114583390D02*
X151604762Y-115154819D01*
X151604762Y-115154819D02*
X152223809Y-115154819D01*
X153223809Y-115059580D02*
X153176190Y-115107200D01*
X153176190Y-115107200D02*
X153033333Y-115154819D01*
X153033333Y-115154819D02*
X152938095Y-115154819D01*
X152938095Y-115154819D02*
X152795238Y-115107200D01*
X152795238Y-115107200D02*
X152700000Y-115011961D01*
X152700000Y-115011961D02*
X152652381Y-114916723D01*
X152652381Y-114916723D02*
X152604762Y-114726247D01*
X152604762Y-114726247D02*
X152604762Y-114583390D01*
X152604762Y-114583390D02*
X152652381Y-114392914D01*
X152652381Y-114392914D02*
X152700000Y-114297676D01*
X152700000Y-114297676D02*
X152795238Y-114202438D01*
X152795238Y-114202438D02*
X152938095Y-114154819D01*
X152938095Y-114154819D02*
X153033333Y-114154819D01*
X153033333Y-114154819D02*
X153176190Y-114202438D01*
X153176190Y-114202438D02*
X153223809Y-114250057D01*
X112936666Y-90124819D02*
X112936666Y-90839104D01*
X112936666Y-90839104D02*
X112889047Y-90981961D01*
X112889047Y-90981961D02*
X112793809Y-91077200D01*
X112793809Y-91077200D02*
X112650952Y-91124819D01*
X112650952Y-91124819D02*
X112555714Y-91124819D01*
X113936666Y-91124819D02*
X113365238Y-91124819D01*
X113650952Y-91124819D02*
X113650952Y-90124819D01*
X113650952Y-90124819D02*
X113555714Y-90267676D01*
X113555714Y-90267676D02*
X113460476Y-90362914D01*
X113460476Y-90362914D02*
X113365238Y-90410533D01*
X160301333Y-94068580D02*
X160253714Y-94116200D01*
X160253714Y-94116200D02*
X160110857Y-94163819D01*
X160110857Y-94163819D02*
X160015619Y-94163819D01*
X160015619Y-94163819D02*
X159872762Y-94116200D01*
X159872762Y-94116200D02*
X159777524Y-94020961D01*
X159777524Y-94020961D02*
X159729905Y-93925723D01*
X159729905Y-93925723D02*
X159682286Y-93735247D01*
X159682286Y-93735247D02*
X159682286Y-93592390D01*
X159682286Y-93592390D02*
X159729905Y-93401914D01*
X159729905Y-93401914D02*
X159777524Y-93306676D01*
X159777524Y-93306676D02*
X159872762Y-93211438D01*
X159872762Y-93211438D02*
X160015619Y-93163819D01*
X160015619Y-93163819D02*
X160110857Y-93163819D01*
X160110857Y-93163819D02*
X160253714Y-93211438D01*
X160253714Y-93211438D02*
X160301333Y-93259057D01*
X160634667Y-93163819D02*
X161253714Y-93163819D01*
X161253714Y-93163819D02*
X160920381Y-93544771D01*
X160920381Y-93544771D02*
X161063238Y-93544771D01*
X161063238Y-93544771D02*
X161158476Y-93592390D01*
X161158476Y-93592390D02*
X161206095Y-93640009D01*
X161206095Y-93640009D02*
X161253714Y-93735247D01*
X161253714Y-93735247D02*
X161253714Y-93973342D01*
X161253714Y-93973342D02*
X161206095Y-94068580D01*
X161206095Y-94068580D02*
X161158476Y-94116200D01*
X161158476Y-94116200D02*
X161063238Y-94163819D01*
X161063238Y-94163819D02*
X160777524Y-94163819D01*
X160777524Y-94163819D02*
X160682286Y-94116200D01*
X160682286Y-94116200D02*
X160634667Y-94068580D01*
X163622819Y-98028047D02*
X163622819Y-98599475D01*
X163622819Y-98313761D02*
X162622819Y-98313761D01*
X162622819Y-98313761D02*
X162765676Y-98408999D01*
X162765676Y-98408999D02*
X162860914Y-98504237D01*
X162860914Y-98504237D02*
X162908533Y-98599475D01*
X162622819Y-97408999D02*
X162622819Y-97313761D01*
X162622819Y-97313761D02*
X162670438Y-97218523D01*
X162670438Y-97218523D02*
X162718057Y-97170904D01*
X162718057Y-97170904D02*
X162813295Y-97123285D01*
X162813295Y-97123285D02*
X163003771Y-97075666D01*
X163003771Y-97075666D02*
X163241866Y-97075666D01*
X163241866Y-97075666D02*
X163432342Y-97123285D01*
X163432342Y-97123285D02*
X163527580Y-97170904D01*
X163527580Y-97170904D02*
X163575200Y-97218523D01*
X163575200Y-97218523D02*
X163622819Y-97313761D01*
X163622819Y-97313761D02*
X163622819Y-97408999D01*
X163622819Y-97408999D02*
X163575200Y-97504237D01*
X163575200Y-97504237D02*
X163527580Y-97551856D01*
X163527580Y-97551856D02*
X163432342Y-97599475D01*
X163432342Y-97599475D02*
X163241866Y-97647094D01*
X163241866Y-97647094D02*
X163003771Y-97647094D01*
X163003771Y-97647094D02*
X162813295Y-97599475D01*
X162813295Y-97599475D02*
X162718057Y-97551856D01*
X162718057Y-97551856D02*
X162670438Y-97504237D01*
X162670438Y-97504237D02*
X162622819Y-97408999D01*
X162622819Y-96456618D02*
X162622819Y-96361380D01*
X162622819Y-96361380D02*
X162670438Y-96266142D01*
X162670438Y-96266142D02*
X162718057Y-96218523D01*
X162718057Y-96218523D02*
X162813295Y-96170904D01*
X162813295Y-96170904D02*
X163003771Y-96123285D01*
X163003771Y-96123285D02*
X163241866Y-96123285D01*
X163241866Y-96123285D02*
X163432342Y-96170904D01*
X163432342Y-96170904D02*
X163527580Y-96218523D01*
X163527580Y-96218523D02*
X163575200Y-96266142D01*
X163575200Y-96266142D02*
X163622819Y-96361380D01*
X163622819Y-96361380D02*
X163622819Y-96456618D01*
X163622819Y-96456618D02*
X163575200Y-96551856D01*
X163575200Y-96551856D02*
X163527580Y-96599475D01*
X163527580Y-96599475D02*
X163432342Y-96647094D01*
X163432342Y-96647094D02*
X163241866Y-96694713D01*
X163241866Y-96694713D02*
X163003771Y-96694713D01*
X163003771Y-96694713D02*
X162813295Y-96647094D01*
X162813295Y-96647094D02*
X162718057Y-96599475D01*
X162718057Y-96599475D02*
X162670438Y-96551856D01*
X162670438Y-96551856D02*
X162622819Y-96456618D01*
X162956152Y-95694713D02*
X163622819Y-95694713D01*
X163051390Y-95694713D02*
X163003771Y-95647094D01*
X163003771Y-95647094D02*
X162956152Y-95551856D01*
X162956152Y-95551856D02*
X162956152Y-95408999D01*
X162956152Y-95408999D02*
X163003771Y-95313761D01*
X163003771Y-95313761D02*
X163099009Y-95266142D01*
X163099009Y-95266142D02*
X163622819Y-95266142D01*
X135090819Y-116503220D02*
X135900342Y-116503220D01*
X135900342Y-116503220D02*
X135995580Y-116455601D01*
X135995580Y-116455601D02*
X136043200Y-116407982D01*
X136043200Y-116407982D02*
X136090819Y-116312744D01*
X136090819Y-116312744D02*
X136090819Y-116122268D01*
X136090819Y-116122268D02*
X136043200Y-116027030D01*
X136043200Y-116027030D02*
X135995580Y-115979411D01*
X135995580Y-115979411D02*
X135900342Y-115931792D01*
X135900342Y-115931792D02*
X135090819Y-115931792D01*
X136090819Y-114931792D02*
X136090819Y-115503220D01*
X136090819Y-115217506D02*
X135090819Y-115217506D01*
X135090819Y-115217506D02*
X135233676Y-115312744D01*
X135233676Y-115312744D02*
X135328914Y-115407982D01*
X135328914Y-115407982D02*
X135376533Y-115503220D01*
X151522667Y-96836200D02*
X151665524Y-96883819D01*
X151665524Y-96883819D02*
X151903619Y-96883819D01*
X151903619Y-96883819D02*
X151998857Y-96836200D01*
X151998857Y-96836200D02*
X152046476Y-96788580D01*
X152046476Y-96788580D02*
X152094095Y-96693342D01*
X152094095Y-96693342D02*
X152094095Y-96598104D01*
X152094095Y-96598104D02*
X152046476Y-96502866D01*
X152046476Y-96502866D02*
X151998857Y-96455247D01*
X151998857Y-96455247D02*
X151903619Y-96407628D01*
X151903619Y-96407628D02*
X151713143Y-96360009D01*
X151713143Y-96360009D02*
X151617905Y-96312390D01*
X151617905Y-96312390D02*
X151570286Y-96264771D01*
X151570286Y-96264771D02*
X151522667Y-96169533D01*
X151522667Y-96169533D02*
X151522667Y-96074295D01*
X151522667Y-96074295D02*
X151570286Y-95979057D01*
X151570286Y-95979057D02*
X151617905Y-95931438D01*
X151617905Y-95931438D02*
X151713143Y-95883819D01*
X151713143Y-95883819D02*
X151951238Y-95883819D01*
X151951238Y-95883819D02*
X152094095Y-95931438D01*
X152427429Y-95883819D02*
X152665524Y-96883819D01*
X152665524Y-96883819D02*
X152856000Y-96169533D01*
X152856000Y-96169533D02*
X153046476Y-96883819D01*
X153046476Y-96883819D02*
X153284572Y-95883819D01*
X154189333Y-96883819D02*
X153617905Y-96883819D01*
X153903619Y-96883819D02*
X153903619Y-95883819D01*
X153903619Y-95883819D02*
X153808381Y-96026676D01*
X153808381Y-96026676D02*
X153713143Y-96121914D01*
X153713143Y-96121914D02*
X153617905Y-96169533D01*
X150093904Y-92311819D02*
X149760571Y-91835628D01*
X149522476Y-92311819D02*
X149522476Y-91311819D01*
X149522476Y-91311819D02*
X149903428Y-91311819D01*
X149903428Y-91311819D02*
X149998666Y-91359438D01*
X149998666Y-91359438D02*
X150046285Y-91407057D01*
X150046285Y-91407057D02*
X150093904Y-91502295D01*
X150093904Y-91502295D02*
X150093904Y-91645152D01*
X150093904Y-91645152D02*
X150046285Y-91740390D01*
X150046285Y-91740390D02*
X149998666Y-91788009D01*
X149998666Y-91788009D02*
X149903428Y-91835628D01*
X149903428Y-91835628D02*
X149522476Y-91835628D01*
X150903428Y-92264200D02*
X150808190Y-92311819D01*
X150808190Y-92311819D02*
X150617714Y-92311819D01*
X150617714Y-92311819D02*
X150522476Y-92264200D01*
X150522476Y-92264200D02*
X150474857Y-92168961D01*
X150474857Y-92168961D02*
X150474857Y-91788009D01*
X150474857Y-91788009D02*
X150522476Y-91692771D01*
X150522476Y-91692771D02*
X150617714Y-91645152D01*
X150617714Y-91645152D02*
X150808190Y-91645152D01*
X150808190Y-91645152D02*
X150903428Y-91692771D01*
X150903428Y-91692771D02*
X150951047Y-91788009D01*
X150951047Y-91788009D02*
X150951047Y-91883247D01*
X150951047Y-91883247D02*
X150474857Y-91978485D01*
X151332000Y-92264200D02*
X151427238Y-92311819D01*
X151427238Y-92311819D02*
X151617714Y-92311819D01*
X151617714Y-92311819D02*
X151712952Y-92264200D01*
X151712952Y-92264200D02*
X151760571Y-92168961D01*
X151760571Y-92168961D02*
X151760571Y-92121342D01*
X151760571Y-92121342D02*
X151712952Y-92026104D01*
X151712952Y-92026104D02*
X151617714Y-91978485D01*
X151617714Y-91978485D02*
X151474857Y-91978485D01*
X151474857Y-91978485D02*
X151379619Y-91930866D01*
X151379619Y-91930866D02*
X151332000Y-91835628D01*
X151332000Y-91835628D02*
X151332000Y-91788009D01*
X151332000Y-91788009D02*
X151379619Y-91692771D01*
X151379619Y-91692771D02*
X151474857Y-91645152D01*
X151474857Y-91645152D02*
X151617714Y-91645152D01*
X151617714Y-91645152D02*
X151712952Y-91692771D01*
X152570095Y-92264200D02*
X152474857Y-92311819D01*
X152474857Y-92311819D02*
X152284381Y-92311819D01*
X152284381Y-92311819D02*
X152189143Y-92264200D01*
X152189143Y-92264200D02*
X152141524Y-92168961D01*
X152141524Y-92168961D02*
X152141524Y-91788009D01*
X152141524Y-91788009D02*
X152189143Y-91692771D01*
X152189143Y-91692771D02*
X152284381Y-91645152D01*
X152284381Y-91645152D02*
X152474857Y-91645152D01*
X152474857Y-91645152D02*
X152570095Y-91692771D01*
X152570095Y-91692771D02*
X152617714Y-91788009D01*
X152617714Y-91788009D02*
X152617714Y-91883247D01*
X152617714Y-91883247D02*
X152141524Y-91978485D01*
X152903429Y-91645152D02*
X153284381Y-91645152D01*
X153046286Y-91311819D02*
X153046286Y-92168961D01*
X153046286Y-92168961D02*
X153093905Y-92264200D01*
X153093905Y-92264200D02*
X153189143Y-92311819D01*
X153189143Y-92311819D02*
X153284381Y-92311819D01*
%TO.C,J2*%
D16*
X110670000Y-114530000D02*
X112000000Y-114530000D01*
X110670000Y-115860000D02*
X110670000Y-114530000D01*
X110670000Y-117130000D02*
X110670000Y-129890000D01*
X110670000Y-117130000D02*
X113270000Y-117130000D01*
X110670000Y-129890000D02*
X115870000Y-129890000D01*
X113270000Y-114530000D02*
X115870000Y-114530000D01*
X113270000Y-117130000D02*
X113270000Y-114530000D01*
X115870000Y-114530000D02*
X115870000Y-129890000D01*
%TO.C,J3*%
X110670000Y-137390000D02*
X112000000Y-137390000D01*
X110670000Y-138720000D02*
X110670000Y-137390000D01*
X110670000Y-139990000D02*
X110670000Y-152750000D01*
X110670000Y-139990000D02*
X113270000Y-139990000D01*
X110670000Y-152750000D02*
X115870000Y-152750000D01*
X113270000Y-137390000D02*
X115870000Y-137390000D01*
X113270000Y-139990000D02*
X113270000Y-137390000D01*
X115870000Y-137390000D02*
X115870000Y-152750000D01*
%TO.C,J9*%
X154140000Y-114820000D02*
X164520000Y-114820000D01*
X154140000Y-117470000D02*
X154140000Y-114820000D01*
X154140000Y-120120000D02*
X154140000Y-118740000D01*
X155520000Y-120120000D02*
X154140000Y-120120000D01*
X156790000Y-117470000D02*
X154140000Y-117470000D01*
X156790000Y-120120000D02*
X156790000Y-117470000D01*
X156790000Y-120120000D02*
X164520000Y-120120000D01*
X164520000Y-120120000D02*
X164520000Y-114820000D01*
%TO.C,J1*%
X110670000Y-91670000D02*
X112000000Y-91670000D01*
X110670000Y-93000000D02*
X110670000Y-91670000D01*
X110670000Y-94270000D02*
X110670000Y-107030000D01*
X110670000Y-94270000D02*
X113270000Y-94270000D01*
X110670000Y-107030000D02*
X115870000Y-107030000D01*
X113270000Y-91670000D02*
X115870000Y-91670000D01*
X113270000Y-94270000D02*
X113270000Y-91670000D01*
X115870000Y-91670000D02*
X115870000Y-107030000D01*
%TO.C,C3*%
X159348000Y-94889000D02*
X159348000Y-98929000D01*
X159973000Y-94889000D02*
X159348000Y-94889000D01*
X159973000Y-98929000D02*
X159348000Y-98929000D01*
X162188000Y-94889000D02*
X161563000Y-94889000D01*
X162188000Y-94889000D02*
X162188000Y-98929000D01*
X162188000Y-98929000D02*
X161563000Y-98929000D01*
%TO.C,U1*%
X123180000Y-92300000D02*
X123180000Y-90700000D01*
X123500000Y-90630000D02*
X123500000Y-140630000D01*
X123840000Y-90083000D02*
X123840000Y-141177000D01*
X124110000Y-90020000D02*
X126600000Y-90020000D01*
X124110000Y-141240000D02*
X127947939Y-141240000D01*
X126600000Y-90020000D02*
X126600000Y-90933520D01*
X126600000Y-90020000D02*
X127947940Y-90020000D01*
X126600000Y-93326480D02*
X126600000Y-137933520D01*
X126600000Y-140326480D02*
X126600000Y-141240000D01*
X128872061Y-90020000D02*
X129875000Y-90020000D01*
X129875000Y-90020000D02*
X138345000Y-90020000D01*
X130000000Y-88720000D02*
X130000000Y-89540000D01*
X130000000Y-88720000D02*
X138220000Y-88720000D01*
X130000000Y-89540000D02*
X130210000Y-89540000D01*
X130210000Y-89540000D02*
X130210000Y-90936000D01*
X130210000Y-93324000D02*
X130210000Y-94540000D01*
X130510000Y-141240000D02*
X128872061Y-141240000D01*
X137710000Y-141240000D02*
X130510000Y-141240000D01*
X138010000Y-89540000D02*
X138010000Y-90936000D01*
X138010000Y-93324000D02*
X138010000Y-94540000D01*
X138010000Y-94540000D02*
X130210000Y-94540000D01*
X138220000Y-88720000D02*
X138220000Y-89540000D01*
X138220000Y-89540000D02*
X138010000Y-89540000D01*
X138345000Y-90020000D02*
X139347939Y-90020000D01*
X139347939Y-141240000D02*
X137710000Y-141240000D01*
X140272061Y-90020000D02*
X141620000Y-90020000D01*
X140272061Y-141240000D02*
X144110000Y-141240000D01*
X141620000Y-90020000D02*
X141620000Y-90933520D01*
X141620000Y-93326480D02*
X141620000Y-137933520D01*
X141620000Y-140326480D02*
X141620000Y-141240000D01*
X144110000Y-90020000D02*
X141620000Y-90020000D01*
X144380000Y-141177000D02*
X144380000Y-90083000D01*
X144720000Y-90630000D02*
X144720000Y-140630000D01*
X123500000Y-90630000D02*
G75*
G02*
X124110000Y-90020000I610000J0D01*
G01*
X124110000Y-141240000D02*
G75*
G02*
X123500000Y-140630000I-99J609901D01*
G01*
X144110000Y-90020000D02*
G75*
G02*
X144720000Y-90630000I0J-610000D01*
G01*
X144720000Y-140630000D02*
G75*
G02*
X144110000Y-141240000I-610000J0D01*
G01*
%TO.C,SW1*%
X149356000Y-95679000D02*
X149356000Y-97179000D01*
X150606000Y-99679000D02*
X155106000Y-99679000D01*
X155106000Y-93179000D02*
X150606000Y-93179000D01*
X156356000Y-97179000D02*
X156356000Y-95679000D01*
%TO.C,J5*%
X129557000Y-150859000D02*
X129557000Y-149479000D01*
X130937000Y-150859000D02*
X129557000Y-150859000D01*
X132207000Y-148099000D02*
X137397000Y-148099000D01*
X132207000Y-150859000D02*
X132207000Y-148099000D01*
X132207000Y-150859000D02*
X137397000Y-150859000D01*
X137397000Y-150859000D02*
X137397000Y-148099000D01*
%TD*%
M02*
