%TF.GenerationSoftware,KiCad,Pcbnew,10.0.1*%
%TF.CreationDate,2026-08-09T09:28:37+09:00*%
%TF.ProjectId,PSCE-MI_Raspberry_PICO,50534345-2d4d-4495-9f52-617370626572,rev?*%
%TF.SameCoordinates,Original*%
%TF.FileFunction,Copper,L1,Top*%
%TF.FilePolarity,Positive*%
%FSLAX46Y46*%
G04 Gerber Fmt 4.6, Leading zero omitted, Abs format (unit mm)*
G04 Created by KiCad (PCBNEW 10.0.1) date 2026-08-09 09:28:37*
%MOMM*%
%LPD*%
G01*
G04 APERTURE LIST*
G04 Aperture macros list*
%AMRoundRect*
0 Rectangle with rounded corners*
0 $1 Rounding radius*
0 $2 $3 $4 $5 $6 $7 $8 $9 X,Y pos of 4 corners*
0 Add a 4 corners polygon primitive as box body*
4,1,4,$2,$3,$4,$5,$6,$7,$8,$9,$2,$3,0*
0 Add four circle primitives for the rounded corners*
1,1,$1+$1,$2,$3*
1,1,$1+$1,$4,$5*
1,1,$1+$1,$6,$7*
1,1,$1+$1,$8,$9*
0 Add four rect primitives between the rounded corners*
20,1,$1+$1,$2,$3,$4,$5,0*
20,1,$1+$1,$4,$5,$6,$7,0*
20,1,$1+$1,$6,$7,$8,$9,0*
20,1,$1+$1,$8,$9,$2,$3,0*%
%AMFreePoly0*
4,1,37,0.603843,0.796157,0.639018,0.796157,0.711114,0.766294,0.766294,0.711114,0.796157,0.639018,0.796157,0.603843,0.800000,0.600000,0.800000,-0.600000,0.796157,-0.603843,0.796157,-0.639018,0.766294,-0.711114,0.711114,-0.766294,0.639018,-0.796157,0.603843,-0.796157,0.600000,-0.800000,0.000000,-0.800000,0.000000,-0.796148,-0.078414,-0.796148,-0.232228,-0.765552,-0.377117,-0.705537,
-0.507515,-0.618408,-0.618408,-0.507515,-0.705537,-0.377117,-0.765552,-0.232228,-0.796148,-0.078414,-0.796148,0.078414,-0.765552,0.232228,-0.705537,0.377117,-0.618408,0.507515,-0.507515,0.618408,-0.377117,0.705537,-0.232228,0.765552,-0.078414,0.796148,0.000000,0.796148,0.000000,0.800000,0.600000,0.800000,0.603843,0.796157,0.603843,0.796157,$1*%
%AMFreePoly1*
4,1,37,0.000000,0.796148,0.078414,0.796148,0.232228,0.765552,0.377117,0.705537,0.507515,0.618408,0.618408,0.507515,0.705537,0.377117,0.765552,0.232228,0.796148,0.078414,0.796148,-0.078414,0.765552,-0.232228,0.705537,-0.377117,0.618408,-0.507515,0.507515,-0.618408,0.377117,-0.705537,0.232228,-0.765552,0.078414,-0.796148,0.000000,-0.796148,0.000000,-0.800000,-0.600000,-0.800000,
-0.603843,-0.796157,-0.639018,-0.796157,-0.711114,-0.766294,-0.766294,-0.711114,-0.796157,-0.639018,-0.796157,-0.603843,-0.800000,-0.600000,-0.800000,0.600000,-0.796157,0.603843,-0.796157,0.639018,-0.766294,0.711114,-0.711114,0.766294,-0.639018,0.796157,-0.603843,0.796157,-0.600000,0.800000,0.000000,0.800000,0.000000,0.796148,0.000000,0.796148,$1*%
G04 Aperture macros list end*
%TA.AperFunction,ComponentPad*%
%ADD10C,5.600000*%
%TD*%
%TA.AperFunction,ComponentPad*%
%ADD11R,1.700000X1.700000*%
%TD*%
%TA.AperFunction,ComponentPad*%
%ADD12O,1.700000X1.700000*%
%TD*%
%TA.AperFunction,ComponentPad*%
%ADD13C,1.700000*%
%TD*%
%TA.AperFunction,ComponentPad*%
%ADD14C,1.600000*%
%TD*%
%TA.AperFunction,ComponentPad*%
%ADD15RoundRect,0.200000X-0.600000X-0.600000X0.600000X-0.600000X0.600000X0.600000X-0.600000X0.600000X0*%
%TD*%
%TA.AperFunction,ComponentPad*%
%ADD16FreePoly0,0.000000*%
%TD*%
%TA.AperFunction,ComponentPad*%
%ADD17FreePoly1,0.000000*%
%TD*%
%TA.AperFunction,ComponentPad*%
%ADD18C,2.000000*%
%TD*%
%TA.AperFunction,ViaPad*%
%ADD19C,0.600000*%
%TD*%
%TA.AperFunction,Conductor*%
%ADD20C,0.300000*%
%TD*%
G04 APERTURE END LIST*
D10*
%TO.P,H3,1*%
%TO.N,N/C*%
X168000000Y-93000000D03*
%TD*%
%TO.P,H4,1*%
%TO.N,N/C*%
X168000000Y-150000000D03*
%TD*%
D11*
%TO.P,J2,1,Pin_1_1*%
%TO.N,/FPGA_8*%
X112000000Y-115860000D03*
D12*
%TO.P,J2,2,Pin_2_2*%
%TO.N,/FPGA_9*%
X114540000Y-115860000D03*
%TO.P,J2,3,Pin_3_3*%
%TO.N,/FPGA_10*%
X112000000Y-118400000D03*
%TO.P,J2,4,Pin_4_4*%
%TO.N,/FPGA_11*%
X114540000Y-118400000D03*
%TO.P,J2,5,Pin_5_5*%
%TO.N,/FPGA_12*%
X112000000Y-120940000D03*
%TO.P,J2,6,Pin_6_6*%
%TO.N,/FPGA_13*%
X114540000Y-120940000D03*
%TO.P,J2,7,Pin_7_7*%
%TO.N,/FPGA_14*%
X112000000Y-123480000D03*
%TO.P,J2,8,Pin_8_8*%
%TO.N,/FPGA_15*%
X114540000Y-123480000D03*
%TO.P,J2,9,Pin_9_9*%
%TO.N,GND*%
X112000000Y-126020000D03*
%TO.P,J2,10,Pin_10_10*%
X114540000Y-126020000D03*
%TO.P,J2,11,Pin_11_11*%
%TO.N,Net-(J1-Pin_11)*%
X112000000Y-128560000D03*
%TO.P,J2,12,Pin_12_12*%
X114540000Y-128560000D03*
%TD*%
D11*
%TO.P,J3,1,Pin_1_1*%
%TO.N,/FPGA_16*%
X112000000Y-138720000D03*
D12*
%TO.P,J3,2,Pin_2_2*%
%TO.N,/FPGA_17*%
X114540000Y-138720000D03*
%TO.P,J3,3,Pin_3_3*%
%TO.N,/FPGA_18*%
X112000000Y-141260000D03*
%TO.P,J3,4,Pin_4_4*%
%TO.N,/FPGA_19*%
X114540000Y-141260000D03*
%TO.P,J3,5,Pin_5_5*%
%TO.N,/FPGA_20*%
X112000000Y-143800000D03*
%TO.P,J3,6,Pin_6_6*%
%TO.N,/FPGA_21*%
X114540000Y-143800000D03*
%TO.P,J3,7,Pin_7_7*%
%TO.N,/FPGA_22*%
X112000000Y-146340000D03*
%TO.P,J3,8,Pin_8_8*%
%TO.N,/FPGA_23*%
X114540000Y-146340000D03*
%TO.P,J3,9,Pin_9_9*%
%TO.N,GND*%
X112000000Y-148880000D03*
%TO.P,J3,10,Pin_10_10*%
X114540000Y-148880000D03*
%TO.P,J3,11,Pin_11_11*%
%TO.N,Net-(J1-Pin_11)*%
X112000000Y-151420000D03*
%TO.P,J3,12,Pin_12_12*%
X114540000Y-151420000D03*
%TD*%
D11*
%TO.P,J9,1,Pin_1_1*%
%TO.N,GND*%
X155520000Y-118740000D03*
D13*
%TO.P,J9,2,Pin_2_2*%
X155520000Y-116200000D03*
%TO.P,J9,3,Pin_3_3*%
%TO.N,+3V3*%
X158060000Y-118740000D03*
%TO.P,J9,4,Pin_4_4*%
X158060000Y-116200000D03*
%TO.P,J9,5,Pin_5_5*%
%TO.N,/SCK*%
X160600000Y-118740000D03*
%TO.P,J9,6,Pin_6_6*%
X160600000Y-116200000D03*
%TO.P,J9,7,Pin_7_7*%
%TO.N,/SDA*%
X163140000Y-118740000D03*
%TO.P,J9,8,Pin_8_8*%
X163140000Y-116200000D03*
%TD*%
D11*
%TO.P,J1,1,Pin_1_1*%
%TO.N,/FPGA_0*%
X112000000Y-93000000D03*
D12*
%TO.P,J1,2,Pin_2_2*%
%TO.N,/FPGA_1*%
X114540000Y-93000000D03*
%TO.P,J1,3,Pin_3_3*%
%TO.N,/FPGA_2*%
X112000000Y-95540000D03*
%TO.P,J1,4,Pin_4_4*%
%TO.N,/FPGA_3*%
X114540000Y-95540000D03*
%TO.P,J1,5,Pin_5_5*%
%TO.N,/FPGA_4*%
X112000000Y-98080000D03*
%TO.P,J1,6,Pin_6_6*%
%TO.N,/FPGA_5*%
X114540000Y-98080000D03*
%TO.P,J1,7,Pin_7_7*%
%TO.N,/FPGA_6*%
X112000000Y-100620000D03*
%TO.P,J1,8,Pin_8_8*%
%TO.N,/FPGA_7*%
X114540000Y-100620000D03*
%TO.P,J1,9,Pin_9_9*%
%TO.N,GND*%
X112000000Y-103160000D03*
%TO.P,J1,10,Pin_10_10*%
X114540000Y-103160000D03*
%TO.P,J1,11,Pin_11_11*%
%TO.N,Net-(J1-Pin_11)*%
X112000000Y-105700000D03*
%TO.P,J1,12,Pin_12_12*%
X114540000Y-105700000D03*
%TD*%
D14*
%TO.P,C3,1*%
%TO.N,Net-(U1-RUN)*%
X160768000Y-95659000D03*
%TO.P,C3,2*%
%TO.N,GND*%
X160768000Y-98159000D03*
%TD*%
D15*
%TO.P,U1,1,GPIO0_1*%
%TO.N,/FPGA_0*%
X125220000Y-91500000D03*
D14*
%TO.P,U1,2,GPIO1_2*%
%TO.N,/FPGA_1*%
X125220000Y-94040000D03*
D16*
%TO.P,U1,3,GND_3*%
%TO.N,GND*%
X125220000Y-96580000D03*
D14*
%TO.P,U1,4,GPIO2_4*%
%TO.N,/FPGA_2*%
X125220000Y-99120000D03*
%TO.P,U1,5,GPIO3_5*%
%TO.N,/FPGA_3*%
X125220000Y-101660000D03*
%TO.P,U1,6,GPIO4_6*%
%TO.N,/SDA*%
X125220000Y-104200000D03*
%TO.P,U1,7,GPIO5_7*%
%TO.N,/SCK*%
X125220000Y-106740000D03*
D16*
%TO.P,U1,8,GND_8*%
%TO.N,GND*%
X125220000Y-109280000D03*
D14*
%TO.P,U1,9,GPIO6_9*%
%TO.N,/FPGA_6*%
X125220000Y-111820000D03*
%TO.P,U1,10,GPIO7_10*%
%TO.N,/FPGA_7*%
X125220000Y-114360000D03*
%TO.P,U1,11,GPIO8_11*%
%TO.N,/FPGA_8*%
X125220000Y-116900000D03*
%TO.P,U1,12,GPIO9_12*%
%TO.N,/FPGA_9*%
X125220000Y-119440000D03*
D16*
%TO.P,U1,13,GND_13*%
%TO.N,GND*%
X125220000Y-121980000D03*
D14*
%TO.P,U1,14,GPIO10_14*%
%TO.N,/FPGA_10*%
X125220000Y-124520000D03*
%TO.P,U1,15,GPIO11_15*%
%TO.N,/FPGA_11*%
X125220000Y-127060000D03*
%TO.P,U1,16,GPIO12_16*%
%TO.N,/FPGA_12*%
X125220000Y-129600000D03*
%TO.P,U1,17,GPIO13_17*%
%TO.N,/FPGA_13*%
X125220000Y-132140000D03*
D16*
%TO.P,U1,18,GND_18*%
%TO.N,GND*%
X125220000Y-134680000D03*
D14*
%TO.P,U1,19,GPIO14_19*%
%TO.N,/FPGA_14*%
X125220000Y-137220000D03*
%TO.P,U1,20,GPIO15_20*%
%TO.N,/FPGA_15*%
X125220000Y-139760000D03*
%TO.P,U1,21,GPIO16_21*%
%TO.N,/FPGA_16*%
X143000000Y-139760000D03*
%TO.P,U1,22,GPIO17_22*%
%TO.N,/FPGA_17*%
X143000000Y-137220000D03*
D17*
%TO.P,U1,23,GND_23*%
%TO.N,GND*%
X143000000Y-134680000D03*
D14*
%TO.P,U1,24,GPIO18_24*%
%TO.N,/FPGA_18*%
X143000000Y-132140000D03*
%TO.P,U1,25,GPIO19_25*%
%TO.N,/FPGA_19*%
X143000000Y-129600000D03*
%TO.P,U1,26,GPIO20_26*%
%TO.N,/FPGA_20*%
X143000000Y-127060000D03*
%TO.P,U1,27,GPIO21_27*%
%TO.N,/FPGA_21*%
X143000000Y-124520000D03*
D17*
%TO.P,U1,28,GND_28*%
%TO.N,GND*%
X143000000Y-121980000D03*
D14*
%TO.P,U1,29,GPIO22_29*%
%TO.N,/FPGA_22*%
X143000000Y-119440000D03*
%TO.P,U1,30,RUN_30*%
%TO.N,Net-(U1-RUN)*%
X143000000Y-116900000D03*
%TO.P,U1,31,GPIO26_ADC0_31*%
%TO.N,/FPGA_23*%
X143000000Y-114360000D03*
%TO.P,U1,32,GPIO27_ADC1_32*%
%TO.N,/FPGA_4*%
X143000000Y-111820000D03*
D17*
%TO.P,U1,33,AGND_33*%
%TO.N,GND*%
X143000000Y-109280000D03*
D14*
%TO.P,U1,34,GPIO28_ADC2_34*%
%TO.N,/FPGA_5*%
X143000000Y-106740000D03*
%TO.P,U1,35,ADC_VREF_35*%
%TO.N,unconnected-(U1-ADC_VREF-Pad35)*%
X143000000Y-104200000D03*
%TO.P,U1,36,3V3_36*%
%TO.N,+3V3*%
X143000000Y-101660000D03*
%TO.P,U1,37,3V3_EN_37*%
%TO.N,unconnected-(U1-3V3_EN-Pad37)*%
X143000000Y-99120000D03*
D17*
%TO.P,U1,38,GND_38*%
%TO.N,GND*%
X143000000Y-96580000D03*
D14*
%TO.P,U1,39,VSYS_39*%
%TO.N,unconnected-(U1-VSYS-Pad39)*%
X143000000Y-94040000D03*
%TO.P,U1,40,VBUS_40*%
%TO.N,+5V*%
X143000000Y-91500000D03*
%TD*%
D18*
%TO.P,SW1,1,1_1*%
%TO.N,Net-(U1-RUN)*%
X149606000Y-94179000D03*
%TO.P,SW1,2,2_2*%
X156106000Y-94179000D03*
%TO.P,SW1,3,K_3*%
%TO.N,GND*%
X149606000Y-98679000D03*
%TO.P,SW1,4,A_4*%
X156106000Y-98679000D03*
%TD*%
D10*
%TO.P,H1,1*%
%TO.N,N/C*%
X113538000Y-85344000D03*
%TD*%
%TO.P,H2,1*%
%TO.N,N/C*%
X113284000Y-158000000D03*
%TD*%
D11*
%TO.P,J5,1,Pin_1_1*%
%TO.N,+3V3*%
X130937000Y-149479000D03*
D13*
%TO.P,J5,2,Pin_2_2*%
%TO.N,Net-(J1-Pin_11)*%
X133477000Y-149479000D03*
%TO.P,J5,3,Pin_3_3*%
%TO.N,+5V*%
X136017000Y-149479000D03*
%TD*%
D19*
%TO.N,GND*%
X122936000Y-138430000D03*
X138938000Y-99949000D03*
X137100000Y-127000000D03*
X122809000Y-117602000D03*
X114554000Y-133096000D03*
X149479000Y-116459000D03*
X130100000Y-117500000D03*
X121500000Y-130000000D03*
X123190000Y-125222000D03*
X121793000Y-126873000D03*
X120396000Y-149225000D03*
X148336000Y-113411000D03*
X111200000Y-110400000D03*
X118491000Y-156718000D03*
X152400000Y-141097000D03*
X143002000Y-142113000D03*
X135890000Y-111760000D03*
X118618000Y-141224000D03*
X148082000Y-121920000D03*
X163322000Y-126746000D03*
%TD*%
%TO.N,/FPGA_8*%
D20*
X112776000Y-113030000D02*
X112000000Y-113806000D01*
X112000000Y-113806000D02*
X112000000Y-115860000D01*
X123504000Y-116900000D02*
X119634000Y-113030000D01*
X125220000Y-116900000D02*
X123504000Y-116900000D01*
X119634000Y-113030000D02*
X112776000Y-113030000D01*
%TO.N,/FPGA_9*%
X122742000Y-119440000D02*
X125220000Y-119440000D01*
X114540000Y-115860000D02*
X119162000Y-115860000D01*
X119162000Y-115860000D02*
X122742000Y-119440000D01*
%TO.N,/FPGA_10*%
X124012000Y-124520000D02*
X125220000Y-124520000D01*
X113306000Y-117094000D02*
X118618000Y-117094000D01*
X122428000Y-122936000D02*
X124012000Y-124520000D01*
X118618000Y-117094000D02*
X122428000Y-120904000D01*
X112000000Y-118400000D02*
X113306000Y-117094000D01*
X122428000Y-120904000D02*
X122428000Y-122936000D01*
%TO.N,/FPGA_11*%
X121666000Y-122174000D02*
X121666000Y-125222000D01*
X117892000Y-118400000D02*
X121666000Y-122174000D01*
X123504000Y-127060000D02*
X125220000Y-127060000D01*
X121666000Y-125222000D02*
X123504000Y-127060000D01*
X114540000Y-118400000D02*
X117892000Y-118400000D01*
%TO.N,/FPGA_12*%
X122996000Y-129600000D02*
X120396000Y-127000000D01*
X120396000Y-127000000D02*
X120396000Y-122428000D01*
X113306000Y-119634000D02*
X112000000Y-120940000D01*
X120396000Y-122428000D02*
X117602000Y-119634000D01*
X125220000Y-129600000D02*
X122996000Y-129600000D01*
X117602000Y-119634000D02*
X113306000Y-119634000D01*
%TO.N,/FPGA_13*%
X114540000Y-120940000D02*
X117384000Y-120940000D01*
X121980000Y-132140000D02*
X125220000Y-132140000D01*
X119380000Y-129540000D02*
X121980000Y-132140000D01*
X117384000Y-120940000D02*
X119380000Y-122936000D01*
X119380000Y-122936000D02*
X119380000Y-129540000D01*
%TO.N,/FPGA_14*%
X118618000Y-124460000D02*
X118618000Y-133604000D01*
X113201000Y-122279000D02*
X116437000Y-122279000D01*
X122234000Y-137220000D02*
X125220000Y-137220000D01*
X112000000Y-123480000D02*
X113201000Y-122279000D01*
X116437000Y-122279000D02*
X118618000Y-124460000D01*
X118618000Y-133604000D02*
X122234000Y-137220000D01*
%TO.N,/FPGA_15*%
X117856000Y-135636000D02*
X121980000Y-139760000D01*
X116368000Y-123480000D02*
X117856000Y-124968000D01*
X114540000Y-123480000D02*
X116368000Y-123480000D01*
X121980000Y-139760000D02*
X125220000Y-139760000D01*
X117856000Y-124968000D02*
X117856000Y-135636000D01*
%TO.N,GND*%
X149606000Y-98679000D02*
X156106000Y-98679000D01*
%TO.N,Net-(J1-Pin_11)*%
X120269000Y-153670000D02*
X122428000Y-151511000D01*
X131445000Y-151511000D02*
X122428000Y-151511000D01*
X133477000Y-149479000D02*
X131445000Y-151511000D01*
X116790000Y-153670000D02*
X120269000Y-153670000D01*
X114540000Y-151420000D02*
X116790000Y-153670000D01*
%TO.N,/FPGA_16*%
X112000000Y-138720000D02*
X113306000Y-137414000D01*
X121878000Y-142833000D02*
X139927000Y-142833000D01*
X116459000Y-137414000D02*
X121878000Y-142833000D01*
X139927000Y-142833000D02*
X143000000Y-139760000D01*
X113306000Y-137414000D02*
X116459000Y-137414000D01*
%TO.N,/FPGA_17*%
X144448000Y-143334000D02*
X146050000Y-141732000D01*
X146050000Y-140270000D02*
X143000000Y-137220000D01*
X119154000Y-143334000D02*
X144448000Y-143334000D01*
X114540000Y-138720000D02*
X119154000Y-143334000D01*
X146050000Y-141732000D02*
X146050000Y-140270000D01*
%TO.N,/FPGA_18*%
X144709000Y-143835000D02*
X118846471Y-143835000D01*
X146812000Y-135952000D02*
X146812000Y-141732000D01*
X113306000Y-139954000D02*
X112000000Y-141260000D01*
X146812000Y-141732000D02*
X144709000Y-143835000D01*
X118846471Y-143835000D02*
X114965471Y-139954000D01*
X143000000Y-132140000D02*
X146812000Y-135952000D01*
X114965471Y-139954000D02*
X113306000Y-139954000D01*
%TO.N,/FPGA_19*%
X147313000Y-141939520D02*
X147313000Y-133913000D01*
X117616000Y-144336000D02*
X144916520Y-144336000D01*
X114540000Y-141260000D02*
X117616000Y-144336000D01*
X147313000Y-133913000D02*
X143000000Y-129600000D01*
X144916520Y-144336000D02*
X147313000Y-141939520D01*
%TO.N,/FPGA_20*%
X145231000Y-144837000D02*
X117408480Y-144837000D01*
X147814000Y-131874000D02*
X147814000Y-142254000D01*
X143000000Y-127060000D02*
X147814000Y-131874000D01*
X115065480Y-142494000D02*
X113306000Y-142494000D01*
X147814000Y-142254000D02*
X145231000Y-144837000D01*
X117408480Y-144837000D02*
X115065480Y-142494000D01*
X113306000Y-142494000D02*
X112000000Y-143800000D01*
%TO.N,/FPGA_21*%
X116078000Y-145338000D02*
X145438520Y-145338000D01*
X145438520Y-145338000D02*
X148315000Y-142461520D01*
X148315000Y-142461520D02*
X148315000Y-129835000D01*
X114540000Y-143800000D02*
X116078000Y-145338000D01*
X148315000Y-129835000D02*
X143000000Y-124520000D01*
%TO.N,/FPGA_22*%
X115032480Y-145001000D02*
X113339000Y-145001000D01*
X115867000Y-145839000D02*
X115538479Y-145510479D01*
X143000000Y-119440000D02*
X148844000Y-125284000D01*
X115538479Y-145507000D02*
X115032480Y-145001000D01*
X145646042Y-145839000D02*
X115867000Y-145839000D01*
X148844000Y-125284000D02*
X148844000Y-142641042D01*
X115538479Y-145510479D02*
X115538479Y-145507000D01*
X113339000Y-145001000D02*
X112000000Y-146340000D01*
X148844000Y-142641042D02*
X145646042Y-145839000D01*
%TO.N,/FPGA_23*%
X114540000Y-146340000D02*
X145853562Y-146340000D01*
X149352000Y-120712000D02*
X143000000Y-114360000D01*
X145853562Y-146340000D02*
X149352000Y-142841562D01*
X149352000Y-142841562D02*
X149352000Y-120712000D01*
%TO.N,+3V3*%
X146460000Y-101660000D02*
X147900000Y-103100000D01*
X130937000Y-149479000D02*
X132842000Y-147574000D01*
X147900000Y-103100000D02*
X147900000Y-109700000D01*
X147900000Y-109700000D02*
X150200000Y-112000000D01*
X150495000Y-147574000D02*
X158060000Y-140009000D01*
X156300000Y-112000000D02*
X158060000Y-113760000D01*
X158060000Y-116200000D02*
X158060000Y-118740000D01*
X143000000Y-101660000D02*
X146460000Y-101660000D01*
X132842000Y-147574000D02*
X150495000Y-147574000D01*
X158060000Y-140009000D02*
X158060000Y-118740000D01*
X150200000Y-112000000D02*
X156300000Y-112000000D01*
X158060000Y-113760000D02*
X158060000Y-116200000D01*
%TO.N,/FPGA_0*%
X112000000Y-93000000D02*
X113500000Y-91500000D01*
X113500000Y-91500000D02*
X125220000Y-91500000D01*
%TO.N,/FPGA_1*%
X125220000Y-94040000D02*
X124180000Y-93000000D01*
X124180000Y-93000000D02*
X114540000Y-93000000D01*
%TO.N,/FPGA_2*%
X113340000Y-94200000D02*
X112000000Y-95540000D01*
X118000000Y-94200000D02*
X113340000Y-94200000D01*
X125220000Y-99120000D02*
X122920000Y-99120000D01*
X122920000Y-99120000D02*
X118000000Y-94200000D01*
%TO.N,/FPGA_3*%
X117384000Y-95540000D02*
X123504000Y-101660000D01*
X123504000Y-101660000D02*
X125220000Y-101660000D01*
X114540000Y-95540000D02*
X117384000Y-95540000D01*
%TO.N,/FPGA_4*%
X117086346Y-99280000D02*
X113200000Y-99280000D01*
X143000000Y-111820000D02*
X140903000Y-111820000D01*
X123156346Y-105350000D02*
X117086346Y-99280000D01*
X140903000Y-111820000D02*
X134433000Y-105350000D01*
X113200000Y-99280000D02*
X112000000Y-98080000D01*
X134433000Y-105350000D02*
X123156346Y-105350000D01*
%TO.N,/FPGA_5*%
X143000000Y-106740000D02*
X140649000Y-106740000D01*
X122443654Y-103050000D02*
X117473654Y-98080000D01*
X140649000Y-106740000D02*
X136959000Y-103050000D01*
X117473654Y-98080000D02*
X114540000Y-98080000D01*
X136959000Y-103050000D02*
X122443654Y-103050000D01*
%TO.N,/FPGA_6*%
X115220000Y-101820000D02*
X113200000Y-101820000D01*
X125220000Y-111820000D02*
X115220000Y-101820000D01*
X113200000Y-101820000D02*
X112000000Y-100620000D01*
%TO.N,/FPGA_7*%
X116100760Y-100620000D02*
X123370761Y-107890000D01*
X125924000Y-107890000D02*
X127254000Y-109220000D01*
X114540000Y-100620000D02*
X116100760Y-100620000D01*
X127254000Y-112326000D02*
X125220000Y-114360000D01*
X127254000Y-109220000D02*
X127254000Y-112326000D01*
X123370761Y-107890000D02*
X125924000Y-107890000D01*
%TO.N,Net-(U1-RUN)*%
X157586000Y-95659000D02*
X160768000Y-95659000D01*
X156106000Y-94179000D02*
X157586000Y-95659000D01*
X149606000Y-94179000D02*
X156106000Y-94179000D01*
%TD*%
%TA.AperFunction,Conductor*%
%TO.N,GND*%
G36*
X111828403Y-82308185D02*
G01*
X111874158Y-82360989D01*
X111884102Y-82430147D01*
X111855077Y-82493703D01*
X111830255Y-82515602D01*
X111569532Y-82689811D01*
X111569518Y-82689821D01*
X111318841Y-82895546D01*
X111089546Y-83124841D01*
X110883821Y-83375518D01*
X110883811Y-83375532D01*
X110703657Y-83645151D01*
X110703646Y-83645169D01*
X110550788Y-83931145D01*
X110550786Y-83931150D01*
X110426686Y-84230752D01*
X110332548Y-84541086D01*
X110332545Y-84541097D01*
X110269287Y-84859125D01*
X110269284Y-84859142D01*
X110237500Y-85181860D01*
X110237500Y-85506139D01*
X110269284Y-85828857D01*
X110269287Y-85828874D01*
X110332545Y-86146902D01*
X110332548Y-86146913D01*
X110426686Y-86457247D01*
X110550786Y-86756849D01*
X110550788Y-86756854D01*
X110703646Y-87042830D01*
X110703657Y-87042848D01*
X110883811Y-87312467D01*
X110883821Y-87312481D01*
X111089546Y-87563158D01*
X111318841Y-87792453D01*
X111318846Y-87792457D01*
X111318847Y-87792458D01*
X111569524Y-87998183D01*
X111839158Y-88178347D01*
X111839167Y-88178352D01*
X111839169Y-88178353D01*
X112125145Y-88331211D01*
X112125147Y-88331211D01*
X112125153Y-88331215D01*
X112424754Y-88455314D01*
X112735077Y-88549449D01*
X112735083Y-88549450D01*
X112735086Y-88549451D01*
X112735097Y-88549454D01*
X112934528Y-88589122D01*
X113053132Y-88612714D01*
X113375857Y-88644500D01*
X113375860Y-88644500D01*
X113700140Y-88644500D01*
X113700143Y-88644500D01*
X114022868Y-88612714D01*
X114180295Y-88581399D01*
X114340902Y-88549454D01*
X114340913Y-88549451D01*
X114340913Y-88549450D01*
X114340923Y-88549449D01*
X114651246Y-88455314D01*
X114950847Y-88331215D01*
X115236842Y-88178347D01*
X115506476Y-87998183D01*
X115757153Y-87792458D01*
X115986458Y-87563153D01*
X116192183Y-87312476D01*
X116372347Y-87042842D01*
X116525215Y-86756847D01*
X116649314Y-86457246D01*
X116743449Y-86146923D01*
X116743451Y-86146913D01*
X116743454Y-86146902D01*
X116775399Y-85986295D01*
X116806714Y-85828868D01*
X116838500Y-85506143D01*
X116838500Y-85181857D01*
X116806714Y-84859132D01*
X116783122Y-84740528D01*
X116743454Y-84541097D01*
X116743451Y-84541086D01*
X116743450Y-84541083D01*
X116743449Y-84541077D01*
X116649314Y-84230754D01*
X116525215Y-83931153D01*
X116372347Y-83645158D01*
X116192183Y-83375524D01*
X115986458Y-83124847D01*
X115986457Y-83124846D01*
X115986453Y-83124841D01*
X115757158Y-82895546D01*
X115506481Y-82689821D01*
X115506480Y-82689820D01*
X115506476Y-82689817D01*
X115245744Y-82515601D01*
X115200940Y-82461990D01*
X115192233Y-82392665D01*
X115222387Y-82329638D01*
X115281830Y-82292918D01*
X115314636Y-82288500D01*
X118999548Y-82288500D01*
X119066587Y-82308185D01*
X119109736Y-82355627D01*
X122974511Y-89843629D01*
X122977608Y-89855186D01*
X123004654Y-89902032D01*
X123029466Y-89950104D01*
X123037518Y-89958953D01*
X123043500Y-89969314D01*
X123081745Y-90007559D01*
X123083705Y-90009713D01*
X123083706Y-90009715D01*
X123118151Y-90047571D01*
X123118157Y-90047576D01*
X123118158Y-90047577D01*
X123128227Y-90054041D01*
X123136686Y-90062500D01*
X123183522Y-90089540D01*
X123185989Y-90091124D01*
X123229052Y-90118770D01*
X123229057Y-90118773D01*
X123240451Y-90122409D01*
X123250814Y-90128392D01*
X123303068Y-90142393D01*
X123354601Y-90158840D01*
X123366552Y-90159403D01*
X123378108Y-90162500D01*
X123432197Y-90162500D01*
X123463827Y-90163991D01*
X123486237Y-90165049D01*
X123486237Y-90165048D01*
X123486238Y-90165049D01*
X123486238Y-90165048D01*
X123492531Y-90164520D01*
X123511290Y-90162500D01*
X124067480Y-90162500D01*
X124134519Y-90182185D01*
X124180274Y-90234989D01*
X124190218Y-90304147D01*
X124161193Y-90367703D01*
X124155161Y-90374181D01*
X124064531Y-90464810D01*
X124064530Y-90464811D01*
X124038401Y-90508034D01*
X123976522Y-90610394D01*
X123929158Y-90762390D01*
X123890422Y-90820538D01*
X123826397Y-90848512D01*
X123810774Y-90849500D01*
X113435929Y-90849500D01*
X113310261Y-90874497D01*
X113310255Y-90874499D01*
X113191870Y-90923535D01*
X113085331Y-90994722D01*
X113085324Y-90994728D01*
X112466871Y-91613181D01*
X112405548Y-91646666D01*
X112379190Y-91649500D01*
X111102129Y-91649500D01*
X111102123Y-91649501D01*
X111042516Y-91655908D01*
X110907671Y-91706202D01*
X110907664Y-91706206D01*
X110792455Y-91792452D01*
X110792452Y-91792455D01*
X110706206Y-91907664D01*
X110706202Y-91907671D01*
X110655908Y-92042517D01*
X110649501Y-92102116D01*
X110649500Y-92102135D01*
X110649500Y-93897870D01*
X110649501Y-93897876D01*
X110655908Y-93957483D01*
X110706202Y-94092328D01*
X110706206Y-94092335D01*
X110792452Y-94207544D01*
X110792455Y-94207547D01*
X110907664Y-94293793D01*
X110907671Y-94293797D01*
X111039082Y-94342810D01*
X111095016Y-94384681D01*
X111119433Y-94450145D01*
X111104582Y-94518418D01*
X111083431Y-94546673D01*
X110969889Y-94660215D01*
X110844951Y-94832179D01*
X110748444Y-95021585D01*
X110682753Y-95223760D01*
X110660076Y-95366937D01*
X110649500Y-95433713D01*
X110649500Y-95646287D01*
X110656489Y-95690415D01*
X110673520Y-95797946D01*
X110682754Y-95856243D01*
X110731998Y-96007801D01*
X110748444Y-96058414D01*
X110844951Y-96247820D01*
X110969890Y-96419786D01*
X111120213Y-96570109D01*
X111292182Y-96695050D01*
X111300946Y-96699516D01*
X111351742Y-96747491D01*
X111368536Y-96815312D01*
X111345998Y-96881447D01*
X111300946Y-96920484D01*
X111292182Y-96924949D01*
X111120213Y-97049890D01*
X110969890Y-97200213D01*
X110844951Y-97372179D01*
X110748444Y-97561585D01*
X110682753Y-97763760D01*
X110649500Y-97973713D01*
X110649500Y-98186286D01*
X110674050Y-98341292D01*
X110682754Y-98396243D01*
X110735637Y-98559000D01*
X110748444Y-98598414D01*
X110844951Y-98787820D01*
X110969890Y-98959786D01*
X111120213Y-99110109D01*
X111292182Y-99235050D01*
X111300946Y-99239516D01*
X111351742Y-99287491D01*
X111368536Y-99355312D01*
X111345998Y-99421447D01*
X111300946Y-99460484D01*
X111292182Y-99464949D01*
X111120213Y-99589890D01*
X110969890Y-99740213D01*
X110844951Y-99912179D01*
X110748444Y-100101585D01*
X110682753Y-100303760D01*
X110658834Y-100454780D01*
X110649500Y-100513713D01*
X110649500Y-100726287D01*
X110682754Y-100936243D01*
X110730612Y-101083535D01*
X110748444Y-101138414D01*
X110844951Y-101327820D01*
X110969890Y-101499786D01*
X111120213Y-101650109D01*
X111292179Y-101775048D01*
X111292181Y-101775049D01*
X111292184Y-101775051D01*
X111301493Y-101779794D01*
X111352290Y-101827766D01*
X111369087Y-101895587D01*
X111346552Y-101961722D01*
X111301502Y-102000762D01*
X111292443Y-102005378D01*
X111120540Y-102130272D01*
X111120535Y-102130276D01*
X110970276Y-102280535D01*
X110970272Y-102280540D01*
X110845379Y-102452442D01*
X110748904Y-102641782D01*
X110683242Y-102843870D01*
X110683242Y-102843873D01*
X110672769Y-102910000D01*
X111566988Y-102910000D01*
X111534075Y-102967007D01*
X111500000Y-103094174D01*
X111500000Y-103225826D01*
X111534075Y-103352993D01*
X111566988Y-103410000D01*
X110672769Y-103410000D01*
X110683242Y-103476126D01*
X110683242Y-103476129D01*
X110748904Y-103678217D01*
X110845379Y-103867557D01*
X110970272Y-104039459D01*
X110970276Y-104039464D01*
X111120535Y-104189723D01*
X111120540Y-104189727D01*
X111292444Y-104314622D01*
X111301495Y-104319234D01*
X111352292Y-104367208D01*
X111369087Y-104435029D01*
X111346550Y-104501164D01*
X111301499Y-104540202D01*
X111292182Y-104544949D01*
X111120213Y-104669890D01*
X110969890Y-104820213D01*
X110844951Y-104992179D01*
X110748444Y-105181585D01*
X110682753Y-105383760D01*
X110649500Y-105593713D01*
X110649500Y-105806286D01*
X110680260Y-106000500D01*
X110682754Y-106016243D01*
X110703811Y-106081051D01*
X110748444Y-106218414D01*
X110844951Y-106407820D01*
X110969890Y-106579786D01*
X111120213Y-106730109D01*
X111292179Y-106855048D01*
X111292181Y-106855049D01*
X111292184Y-106855051D01*
X111481588Y-106951557D01*
X111683757Y-107017246D01*
X111893713Y-107050500D01*
X111893714Y-107050500D01*
X112106286Y-107050500D01*
X112106287Y-107050500D01*
X112316243Y-107017246D01*
X112518412Y-106951557D01*
X112707816Y-106855051D01*
X112729789Y-106839086D01*
X112879786Y-106730109D01*
X112879788Y-106730106D01*
X112879792Y-106730104D01*
X113030104Y-106579792D01*
X113030106Y-106579788D01*
X113030109Y-106579786D01*
X113155048Y-106407820D01*
X113155047Y-106407820D01*
X113155051Y-106407816D01*
X113159514Y-106399054D01*
X113207488Y-106348259D01*
X113275308Y-106331463D01*
X113341444Y-106353999D01*
X113380486Y-106399056D01*
X113384951Y-106407820D01*
X113509890Y-106579786D01*
X113660213Y-106730109D01*
X113832179Y-106855048D01*
X113832181Y-106855049D01*
X113832184Y-106855051D01*
X114021588Y-106951557D01*
X114223757Y-107017246D01*
X114433713Y-107050500D01*
X114433714Y-107050500D01*
X114646286Y-107050500D01*
X114646287Y-107050500D01*
X114856243Y-107017246D01*
X115058412Y-106951557D01*
X115247816Y-106855051D01*
X115269789Y-106839086D01*
X115419786Y-106730109D01*
X115419788Y-106730106D01*
X115419792Y-106730104D01*
X115570104Y-106579792D01*
X115570106Y-106579788D01*
X115570109Y-106579786D01*
X115695048Y-106407820D01*
X115695047Y-106407820D01*
X115695051Y-106407816D01*
X115791557Y-106218412D01*
X115857246Y-106016243D01*
X115890500Y-105806287D01*
X115890500Y-105593713D01*
X115857246Y-105383757D01*
X115791557Y-105181588D01*
X115695051Y-104992184D01*
X115695049Y-104992181D01*
X115695048Y-104992179D01*
X115570109Y-104820213D01*
X115419786Y-104669890D01*
X115247817Y-104544949D01*
X115238504Y-104540204D01*
X115187707Y-104492230D01*
X115170912Y-104424409D01*
X115193449Y-104358274D01*
X115238507Y-104319232D01*
X115247558Y-104314620D01*
X115419459Y-104189727D01*
X115419464Y-104189723D01*
X115569723Y-104039464D01*
X115569727Y-104039459D01*
X115694620Y-103867557D01*
X115791095Y-103678217D01*
X115818611Y-103593532D01*
X115858048Y-103535857D01*
X115922406Y-103508658D01*
X115991253Y-103520572D01*
X116024223Y-103544169D01*
X123912862Y-111432808D01*
X123946347Y-111494131D01*
X123947654Y-111539886D01*
X123919500Y-111717647D01*
X123919500Y-111922351D01*
X123951522Y-112124534D01*
X124014781Y-112319223D01*
X124107715Y-112501613D01*
X124228028Y-112667213D01*
X124372786Y-112811971D01*
X124527749Y-112924556D01*
X124538390Y-112932287D01*
X124629840Y-112978883D01*
X124631080Y-112979515D01*
X124681876Y-113027490D01*
X124698671Y-113095311D01*
X124676134Y-113161446D01*
X124631080Y-113200485D01*
X124538386Y-113247715D01*
X124372786Y-113368028D01*
X124228028Y-113512786D01*
X124107715Y-113678386D01*
X124014781Y-113860776D01*
X123951522Y-114055465D01*
X123919500Y-114257648D01*
X123919500Y-114462351D01*
X123951522Y-114664534D01*
X124014781Y-114859223D01*
X124107715Y-115041613D01*
X124228028Y-115207213D01*
X124372786Y-115351971D01*
X124527749Y-115464556D01*
X124538390Y-115472287D01*
X124595722Y-115501499D01*
X124631080Y-115519515D01*
X124681876Y-115567490D01*
X124698671Y-115635311D01*
X124676134Y-115701446D01*
X124631080Y-115740485D01*
X124538386Y-115787715D01*
X124372786Y-115908028D01*
X124228034Y-116052780D01*
X124228030Y-116052786D01*
X124122246Y-116198386D01*
X124117914Y-116201726D01*
X124115642Y-116206703D01*
X124090545Y-116222831D01*
X124066918Y-116241051D01*
X124060244Y-116242304D01*
X124056864Y-116244477D01*
X124021929Y-116249500D01*
X123824808Y-116249500D01*
X123757769Y-116229815D01*
X123737127Y-116213181D01*
X120048674Y-112524727D01*
X120048673Y-112524726D01*
X120035238Y-112515749D01*
X119942127Y-112453535D01*
X119942122Y-112453533D01*
X119823744Y-112404499D01*
X119823738Y-112404497D01*
X119698071Y-112379500D01*
X119698069Y-112379500D01*
X112711931Y-112379500D01*
X112711929Y-112379500D01*
X112586260Y-112404497D01*
X112586254Y-112404499D01*
X112561703Y-112414669D01*
X112467874Y-112453533D01*
X112361326Y-112524726D01*
X111494726Y-113391326D01*
X111423534Y-113497874D01*
X111374499Y-113616255D01*
X111374497Y-113616261D01*
X111349500Y-113741928D01*
X111349500Y-114385500D01*
X111329815Y-114452539D01*
X111277011Y-114498294D01*
X111225501Y-114509500D01*
X111102130Y-114509500D01*
X111102123Y-114509501D01*
X111042516Y-114515908D01*
X110907671Y-114566202D01*
X110907664Y-114566206D01*
X110792455Y-114652452D01*
X110792452Y-114652455D01*
X110706206Y-114767664D01*
X110706202Y-114767671D01*
X110655908Y-114902517D01*
X110649501Y-114962116D01*
X110649500Y-114962135D01*
X110649500Y-116757870D01*
X110649501Y-116757876D01*
X110655908Y-116817483D01*
X110706202Y-116952328D01*
X110706206Y-116952335D01*
X110792452Y-117067544D01*
X110792455Y-117067547D01*
X110907664Y-117153793D01*
X110907671Y-117153797D01*
X111039082Y-117202810D01*
X111095016Y-117244681D01*
X111119433Y-117310145D01*
X111104582Y-117378418D01*
X111083431Y-117406673D01*
X110969889Y-117520215D01*
X110844951Y-117692179D01*
X110748444Y-117881585D01*
X110682753Y-118083760D01*
X110658834Y-118234780D01*
X110649500Y-118293713D01*
X110649500Y-118506287D01*
X110682754Y-118716243D01*
X110730763Y-118864000D01*
X110748444Y-118918414D01*
X110844951Y-119107820D01*
X110969890Y-119279786D01*
X111120213Y-119430109D01*
X111292182Y-119555050D01*
X111300946Y-119559516D01*
X111351742Y-119607491D01*
X111368536Y-119675312D01*
X111345998Y-119741447D01*
X111300946Y-119780484D01*
X111292182Y-119784949D01*
X111120213Y-119909890D01*
X110969890Y-120060213D01*
X110844951Y-120232179D01*
X110748444Y-120421585D01*
X110682753Y-120623760D01*
X110649500Y-120833713D01*
X110649500Y-121046286D01*
X110673520Y-121197946D01*
X110682754Y-121256243D01*
X110731998Y-121407801D01*
X110748444Y-121458414D01*
X110844951Y-121647820D01*
X110969890Y-121819786D01*
X111120213Y-121970109D01*
X111292182Y-122095050D01*
X111300946Y-122099516D01*
X111351742Y-122147491D01*
X111368536Y-122215312D01*
X111345998Y-122281447D01*
X111300946Y-122320484D01*
X111292182Y-122324949D01*
X111120213Y-122449890D01*
X110969890Y-122600213D01*
X110844951Y-122772179D01*
X110748444Y-122961585D01*
X110682753Y-123163760D01*
X110649500Y-123373713D01*
X110649500Y-123586286D01*
X110676345Y-123755783D01*
X110682754Y-123796243D01*
X110696448Y-123838390D01*
X110748444Y-123998414D01*
X110844951Y-124187820D01*
X110969890Y-124359786D01*
X111120213Y-124510109D01*
X111292179Y-124635048D01*
X111292181Y-124635049D01*
X111292184Y-124635051D01*
X111301493Y-124639794D01*
X111352290Y-124687766D01*
X111369087Y-124755587D01*
X111346552Y-124821722D01*
X111301502Y-124860762D01*
X111292443Y-124865378D01*
X111120540Y-124990272D01*
X111120535Y-124990276D01*
X110970276Y-125140535D01*
X110970272Y-125140540D01*
X110845379Y-125312442D01*
X110748904Y-125501782D01*
X110683242Y-125703870D01*
X110683242Y-125703873D01*
X110672769Y-125770000D01*
X111566988Y-125770000D01*
X111534075Y-125827007D01*
X111500000Y-125954174D01*
X111500000Y-126085826D01*
X111534075Y-126212993D01*
X111566988Y-126270000D01*
X110672769Y-126270000D01*
X110683242Y-126336126D01*
X110683242Y-126336129D01*
X110748904Y-126538217D01*
X110845379Y-126727557D01*
X110970272Y-126899459D01*
X110970276Y-126899464D01*
X111120535Y-127049723D01*
X111120540Y-127049727D01*
X111292444Y-127174622D01*
X111301495Y-127179234D01*
X111352292Y-127227208D01*
X111369087Y-127295029D01*
X111346550Y-127361164D01*
X111301499Y-127400202D01*
X111292182Y-127404949D01*
X111120213Y-127529890D01*
X110969890Y-127680213D01*
X110844951Y-127852179D01*
X110748444Y-128041585D01*
X110682753Y-128243760D01*
X110658834Y-128394780D01*
X110649500Y-128453713D01*
X110649500Y-128666287D01*
X110682754Y-128876243D01*
X110703811Y-128941051D01*
X110748444Y-129078414D01*
X110844951Y-129267820D01*
X110969890Y-129439786D01*
X111120213Y-129590109D01*
X111292179Y-129715048D01*
X111292181Y-129715049D01*
X111292184Y-129715051D01*
X111481588Y-129811557D01*
X111683757Y-129877246D01*
X111893713Y-129910500D01*
X111893714Y-129910500D01*
X112106286Y-129910500D01*
X112106287Y-129910500D01*
X112316243Y-129877246D01*
X112518412Y-129811557D01*
X112707816Y-129715051D01*
X112729789Y-129699086D01*
X112879786Y-129590109D01*
X112879788Y-129590106D01*
X112879792Y-129590104D01*
X113030104Y-129439792D01*
X113030106Y-129439788D01*
X113030109Y-129439786D01*
X113155048Y-129267820D01*
X113155047Y-129267820D01*
X113155051Y-129267816D01*
X113159514Y-129259054D01*
X113207488Y-129208259D01*
X113275308Y-129191463D01*
X113341444Y-129213999D01*
X113380486Y-129259056D01*
X113384951Y-129267820D01*
X113509890Y-129439786D01*
X113660213Y-129590109D01*
X113832179Y-129715048D01*
X113832181Y-129715049D01*
X113832184Y-129715051D01*
X114021588Y-129811557D01*
X114223757Y-129877246D01*
X114433713Y-129910500D01*
X114433714Y-129910500D01*
X114646286Y-129910500D01*
X114646287Y-129910500D01*
X114856243Y-129877246D01*
X115058412Y-129811557D01*
X115247816Y-129715051D01*
X115269789Y-129699086D01*
X115419786Y-129590109D01*
X115419788Y-129590106D01*
X115419792Y-129590104D01*
X115570104Y-129439792D01*
X115570106Y-129439788D01*
X115570109Y-129439786D01*
X115695048Y-129267820D01*
X115695047Y-129267820D01*
X115695051Y-129267816D01*
X115791557Y-129078412D01*
X115857246Y-128876243D01*
X115890500Y-128666287D01*
X115890500Y-128453713D01*
X115857246Y-128243757D01*
X115791557Y-128041588D01*
X115695051Y-127852184D01*
X115695049Y-127852181D01*
X115695048Y-127852179D01*
X115570109Y-127680213D01*
X115419786Y-127529890D01*
X115247817Y-127404949D01*
X115238504Y-127400204D01*
X115187707Y-127352230D01*
X115170912Y-127284409D01*
X115193449Y-127218274D01*
X115238507Y-127179232D01*
X115247558Y-127174620D01*
X115419459Y-127049727D01*
X115419464Y-127049723D01*
X115569723Y-126899464D01*
X115569727Y-126899459D01*
X115694620Y-126727557D01*
X115791095Y-126538217D01*
X115856757Y-126336129D01*
X115856757Y-126336126D01*
X115867231Y-126270000D01*
X114973012Y-126270000D01*
X115005925Y-126212993D01*
X115040000Y-126085826D01*
X115040000Y-125954174D01*
X115005925Y-125827007D01*
X114973012Y-125770000D01*
X115867231Y-125770000D01*
X115856757Y-125703873D01*
X115856757Y-125703870D01*
X115791095Y-125501782D01*
X115694620Y-125312442D01*
X115569727Y-125140540D01*
X115569723Y-125140535D01*
X115419464Y-124990276D01*
X115419459Y-124990272D01*
X115247555Y-124865377D01*
X115238500Y-124860763D01*
X115187706Y-124812788D01*
X115170912Y-124744966D01*
X115193451Y-124678832D01*
X115238508Y-124639793D01*
X115247816Y-124635051D01*
X115327007Y-124577515D01*
X115419786Y-124510109D01*
X115419788Y-124510106D01*
X115419792Y-124510104D01*
X115570104Y-124359792D01*
X115570106Y-124359788D01*
X115570109Y-124359786D01*
X115697915Y-124183875D01*
X115699259Y-124184851D01*
X115701591Y-124182742D01*
X115705905Y-124173297D01*
X115727060Y-124159701D01*
X115745705Y-124142834D01*
X115757508Y-124140133D01*
X115764683Y-124135523D01*
X115799618Y-124130500D01*
X116047192Y-124130500D01*
X116114231Y-124150185D01*
X116134873Y-124166819D01*
X117169181Y-125201127D01*
X117202666Y-125262450D01*
X117205500Y-125288808D01*
X117205500Y-135700069D01*
X117205500Y-135700071D01*
X117205499Y-135700071D01*
X117230497Y-135825738D01*
X117230499Y-135825744D01*
X117279535Y-135944127D01*
X117348464Y-136047288D01*
X117350726Y-136050673D01*
X121565326Y-140265273D01*
X121565329Y-140265275D01*
X121565331Y-140265277D01*
X121668287Y-140334069D01*
X121671873Y-140336465D01*
X121790256Y-140385501D01*
X121790260Y-140385501D01*
X121790261Y-140385502D01*
X121915928Y-140410500D01*
X121915931Y-140410500D01*
X124021929Y-140410500D01*
X124088968Y-140430185D01*
X124122245Y-140461613D01*
X124188049Y-140552184D01*
X124228034Y-140607219D01*
X124372786Y-140751971D01*
X124527749Y-140864556D01*
X124538390Y-140872287D01*
X124654607Y-140931503D01*
X124720776Y-140965218D01*
X124720778Y-140965218D01*
X124720781Y-140965220D01*
X124825137Y-140999127D01*
X124915465Y-141028477D01*
X125016557Y-141044488D01*
X125117648Y-141060500D01*
X125117649Y-141060500D01*
X125322351Y-141060500D01*
X125322352Y-141060500D01*
X125524534Y-141028477D01*
X125719219Y-140965220D01*
X125901610Y-140872287D01*
X125994590Y-140804732D01*
X126067213Y-140751971D01*
X126067215Y-140751968D01*
X126067219Y-140751966D01*
X126211966Y-140607219D01*
X126211968Y-140607215D01*
X126211971Y-140607213D01*
X126264732Y-140534590D01*
X126332287Y-140441610D01*
X126425220Y-140259219D01*
X126488477Y-140064534D01*
X126520500Y-139862352D01*
X126520500Y-139657648D01*
X126488477Y-139455466D01*
X126425220Y-139260781D01*
X126425218Y-139260778D01*
X126425218Y-139260776D01*
X126343833Y-139101051D01*
X126332287Y-139078390D01*
X126301666Y-139036243D01*
X126211971Y-138912786D01*
X126067213Y-138768028D01*
X125901614Y-138647715D01*
X125834881Y-138613713D01*
X125808917Y-138600483D01*
X125758123Y-138552511D01*
X125741328Y-138484690D01*
X125763865Y-138418555D01*
X125808917Y-138379516D01*
X125901610Y-138332287D01*
X125922770Y-138316913D01*
X126067213Y-138211971D01*
X126067215Y-138211968D01*
X126067219Y-138211966D01*
X126211966Y-138067219D01*
X126211968Y-138067215D01*
X126211971Y-138067213D01*
X126264732Y-137994590D01*
X126332287Y-137901610D01*
X126425220Y-137719219D01*
X126488477Y-137524534D01*
X126520500Y-137322352D01*
X126520500Y-137117648D01*
X126497098Y-136969895D01*
X127010000Y-136969895D01*
X131662057Y-140582663D01*
X131702931Y-140639327D01*
X131710000Y-140680597D01*
X131710000Y-141630000D01*
X136510000Y-141630000D01*
X136510000Y-140680597D01*
X136529685Y-140613558D01*
X136557941Y-140582664D01*
X141210000Y-136969895D01*
X141210000Y-132630000D01*
X127010000Y-132630000D01*
X127010000Y-136969895D01*
X126497098Y-136969895D01*
X126488477Y-136915466D01*
X126486287Y-136908727D01*
X126425218Y-136720776D01*
X126343833Y-136561051D01*
X126332287Y-136538390D01*
X126317753Y-136518385D01*
X126211971Y-136372786D01*
X126067217Y-136228032D01*
X125990415Y-136172232D01*
X125947750Y-136116902D01*
X125941771Y-136047288D01*
X125974377Y-135985494D01*
X126032640Y-135951765D01*
X126053022Y-135946563D01*
X126053035Y-135946559D01*
X126109582Y-135923135D01*
X125349409Y-135162962D01*
X125412993Y-135145925D01*
X125527007Y-135080099D01*
X125620099Y-134987007D01*
X125685925Y-134872993D01*
X125702962Y-134809409D01*
X126463135Y-135569582D01*
X126463137Y-135569582D01*
X126486552Y-135513053D01*
X126504544Y-135462053D01*
X126524999Y-135319780D01*
X126525000Y-135319779D01*
X126525000Y-134040214D01*
X126522106Y-133986237D01*
X126522106Y-133986235D01*
X126486558Y-133846960D01*
X126463136Y-133790415D01*
X126463135Y-133790415D01*
X125702962Y-134550589D01*
X125685925Y-134487007D01*
X125620099Y-134372993D01*
X125527007Y-134279901D01*
X125412993Y-134214075D01*
X125349410Y-134197037D01*
X126109583Y-133436863D01*
X126109583Y-133436862D01*
X126053052Y-133413447D01*
X126053013Y-133413432D01*
X126024375Y-133403329D01*
X125967704Y-133362463D01*
X125942122Y-133297444D01*
X125955754Y-133228917D01*
X125992745Y-133186074D01*
X126067215Y-133131969D01*
X126067215Y-133131968D01*
X126067219Y-133131966D01*
X126211966Y-132987219D01*
X126211968Y-132987215D01*
X126211971Y-132987213D01*
X126264732Y-132914590D01*
X126332287Y-132821610D01*
X126425220Y-132639219D01*
X126488477Y-132444534D01*
X126520500Y-132242352D01*
X126520500Y-132037648D01*
X126488477Y-131835466D01*
X126425220Y-131640781D01*
X126425218Y-131640778D01*
X126425218Y-131640776D01*
X126343833Y-131481051D01*
X126332287Y-131458390D01*
X126317753Y-131438385D01*
X126211971Y-131292786D01*
X126067213Y-131148028D01*
X125901614Y-131027715D01*
X125895006Y-131024348D01*
X125808917Y-130980483D01*
X125758123Y-130932511D01*
X125741328Y-130864690D01*
X125763865Y-130798555D01*
X125808917Y-130759516D01*
X125901610Y-130712287D01*
X125922770Y-130696913D01*
X126067213Y-130591971D01*
X126067215Y-130591968D01*
X126067219Y-130591966D01*
X126211966Y-130447219D01*
X126211968Y-130447215D01*
X126211971Y-130447213D01*
X126283728Y-130348446D01*
X126332287Y-130281610D01*
X126425220Y-130099219D01*
X126488477Y-129904534D01*
X126520500Y-129702352D01*
X126520500Y-129497648D01*
X126488477Y-129295466D01*
X126425220Y-129100781D01*
X126425218Y-129100778D01*
X126425218Y-129100776D01*
X126343833Y-128941051D01*
X126332287Y-128918390D01*
X126301663Y-128876239D01*
X126211971Y-128752786D01*
X126067213Y-128608028D01*
X125901614Y-128487715D01*
X125834881Y-128453713D01*
X125808917Y-128440483D01*
X125758123Y-128392511D01*
X125741328Y-128324690D01*
X125763865Y-128258555D01*
X125808917Y-128219516D01*
X125901610Y-128172287D01*
X126003378Y-128098349D01*
X126067213Y-128051971D01*
X126067215Y-128051968D01*
X126067219Y-128051966D01*
X126211966Y-127907219D01*
X126211968Y-127907215D01*
X126211971Y-127907213D01*
X126299477Y-127786769D01*
X126332287Y-127741610D01*
X126425220Y-127559219D01*
X126488477Y-127364534D01*
X126520500Y-127162352D01*
X126520500Y-126957648D01*
X126488477Y-126755466D01*
X126469522Y-126697130D01*
X126458800Y-126664129D01*
X126425220Y-126560781D01*
X126425218Y-126560778D01*
X126425218Y-126560776D01*
X126387079Y-126485925D01*
X126332287Y-126378390D01*
X126301581Y-126336126D01*
X126211971Y-126212786D01*
X126067213Y-126068028D01*
X125901614Y-125947715D01*
X125895006Y-125944348D01*
X125808917Y-125900483D01*
X125758123Y-125852511D01*
X125741328Y-125784690D01*
X125763865Y-125718555D01*
X125808917Y-125679516D01*
X125901610Y-125632287D01*
X125975711Y-125578450D01*
X126067213Y-125511971D01*
X126067215Y-125511968D01*
X126067219Y-125511966D01*
X126211966Y-125367219D01*
X126211968Y-125367215D01*
X126211971Y-125367213D01*
X126268934Y-125288808D01*
X126332287Y-125201610D01*
X126425220Y-125019219D01*
X126488477Y-124824534D01*
X126520500Y-124622352D01*
X126520500Y-124417648D01*
X126488477Y-124215466D01*
X126478212Y-124183875D01*
X126425218Y-124020776D01*
X126374986Y-123922192D01*
X126332287Y-123838390D01*
X126301663Y-123796239D01*
X126211971Y-123672786D01*
X126067217Y-123528032D01*
X125990415Y-123472232D01*
X125947750Y-123416902D01*
X125941771Y-123347288D01*
X125974377Y-123285494D01*
X126032640Y-123251765D01*
X126053022Y-123246563D01*
X126053035Y-123246559D01*
X126109582Y-123223135D01*
X125349409Y-122462962D01*
X125412993Y-122445925D01*
X125527007Y-122380099D01*
X125620099Y-122287007D01*
X125685925Y-122172993D01*
X125702962Y-122109409D01*
X126463135Y-122869582D01*
X126463137Y-122869582D01*
X126486552Y-122813053D01*
X126504544Y-122762053D01*
X126524999Y-122619780D01*
X126525000Y-122619779D01*
X126525000Y-121340224D01*
X126524999Y-121340204D01*
X126522106Y-121286237D01*
X126522106Y-121286235D01*
X126486558Y-121146960D01*
X126463136Y-121090415D01*
X126463135Y-121090415D01*
X125702962Y-121850589D01*
X125685925Y-121787007D01*
X125620099Y-121672993D01*
X125527007Y-121579901D01*
X125412993Y-121514075D01*
X125349410Y-121497037D01*
X126109583Y-120736863D01*
X126109583Y-120736862D01*
X126053052Y-120713447D01*
X126053013Y-120713432D01*
X126024375Y-120703329D01*
X125967704Y-120662463D01*
X125942122Y-120597444D01*
X125955754Y-120528917D01*
X125992745Y-120486074D01*
X126067215Y-120431969D01*
X126067215Y-120431968D01*
X126067219Y-120431966D01*
X126211966Y-120287219D01*
X126211968Y-120287215D01*
X126211971Y-120287213D01*
X126264732Y-120214590D01*
X126332287Y-120121610D01*
X126425220Y-119939219D01*
X126488477Y-119744534D01*
X126520500Y-119542352D01*
X126520500Y-119337648D01*
X126488477Y-119135466D01*
X126425220Y-118940781D01*
X126425218Y-118940778D01*
X126425218Y-118940776D01*
X126377072Y-118846286D01*
X126332287Y-118758390D01*
X126301663Y-118716239D01*
X126211971Y-118592786D01*
X126067213Y-118448028D01*
X125901614Y-118327715D01*
X125834881Y-118293713D01*
X125808917Y-118280483D01*
X125758123Y-118232511D01*
X125741328Y-118164690D01*
X125763865Y-118098555D01*
X125808917Y-118059516D01*
X125901610Y-118012287D01*
X125922770Y-117996913D01*
X126067213Y-117891971D01*
X126067215Y-117891968D01*
X126067219Y-117891966D01*
X126211966Y-117747219D01*
X126211968Y-117747215D01*
X126211971Y-117747213D01*
X126284115Y-117647913D01*
X126332287Y-117581610D01*
X126425220Y-117399219D01*
X126488477Y-117204534D01*
X126520500Y-117002352D01*
X126520500Y-116797648D01*
X126488477Y-116595466D01*
X126425220Y-116400781D01*
X126425218Y-116400778D01*
X126425218Y-116400776D01*
X126377052Y-116306246D01*
X126332287Y-116218390D01*
X126317753Y-116198385D01*
X126211971Y-116052786D01*
X126067213Y-115908028D01*
X125901614Y-115787715D01*
X125895006Y-115784348D01*
X125808917Y-115740483D01*
X125758123Y-115692511D01*
X125741328Y-115624690D01*
X125763865Y-115558555D01*
X125808917Y-115519516D01*
X125901610Y-115472287D01*
X125948414Y-115438282D01*
X126067213Y-115351971D01*
X126067215Y-115351968D01*
X126067219Y-115351966D01*
X126211966Y-115207219D01*
X126211968Y-115207215D01*
X126211971Y-115207213D01*
X126300960Y-115084728D01*
X126332287Y-115041610D01*
X126425220Y-114859219D01*
X126488477Y-114664534D01*
X126520500Y-114462352D01*
X126520500Y-114257648D01*
X126492345Y-114079886D01*
X126501300Y-114010593D01*
X126527134Y-113972810D01*
X127759276Y-112740670D01*
X127830465Y-112634127D01*
X127834039Y-112625500D01*
X127854351Y-112576461D01*
X127879501Y-112515744D01*
X127881583Y-112505276D01*
X127904500Y-112390069D01*
X127904500Y-109155931D01*
X127904500Y-109155928D01*
X127879502Y-109030261D01*
X127879501Y-109030260D01*
X127879501Y-109030256D01*
X127830465Y-108911873D01*
X127759277Y-108805331D01*
X127759275Y-108805329D01*
X127759273Y-108805326D01*
X127759272Y-108805325D01*
X126410596Y-107456650D01*
X126377111Y-107395327D01*
X126382095Y-107325635D01*
X126387793Y-107312673D01*
X126425217Y-107239225D01*
X126425218Y-107239223D01*
X126425220Y-107239219D01*
X126488477Y-107044534D01*
X126520500Y-106842352D01*
X126520500Y-106637648D01*
X126488477Y-106435466D01*
X126425220Y-106240781D01*
X126425218Y-106240778D01*
X126425217Y-106240773D01*
X126394656Y-106180794D01*
X126381760Y-106112125D01*
X126408037Y-106047385D01*
X126465143Y-106007128D01*
X126505141Y-106000500D01*
X134112192Y-106000500D01*
X134179231Y-106020185D01*
X134199873Y-106036819D01*
X140488325Y-112325272D01*
X140488326Y-112325273D01*
X140488329Y-112325275D01*
X140488331Y-112325277D01*
X140569483Y-112379500D01*
X140585301Y-112390069D01*
X140585300Y-112390070D01*
X140585305Y-112390072D01*
X140594873Y-112396465D01*
X140713256Y-112445501D01*
X140713260Y-112445501D01*
X140713261Y-112445502D01*
X140838928Y-112470500D01*
X140838931Y-112470500D01*
X140967069Y-112470500D01*
X141801929Y-112470500D01*
X141868968Y-112490185D01*
X141902245Y-112521613D01*
X141983992Y-112634128D01*
X142008034Y-112667219D01*
X142152786Y-112811971D01*
X142307749Y-112924556D01*
X142318390Y-112932287D01*
X142409840Y-112978883D01*
X142411080Y-112979515D01*
X142461876Y-113027490D01*
X142478671Y-113095311D01*
X142456134Y-113161446D01*
X142411080Y-113200485D01*
X142318386Y-113247715D01*
X142152786Y-113368028D01*
X142008028Y-113512786D01*
X141887715Y-113678386D01*
X141794781Y-113860776D01*
X141731522Y-114055465D01*
X141699500Y-114257648D01*
X141699500Y-114462351D01*
X141731522Y-114664534D01*
X141794781Y-114859223D01*
X141887715Y-115041613D01*
X142008028Y-115207213D01*
X142152786Y-115351971D01*
X142307749Y-115464556D01*
X142318390Y-115472287D01*
X142375722Y-115501499D01*
X142411080Y-115519515D01*
X142461876Y-115567490D01*
X142478671Y-115635311D01*
X142456134Y-115701446D01*
X142411080Y-115740485D01*
X142318386Y-115787715D01*
X142152786Y-115908028D01*
X142008028Y-116052786D01*
X141887715Y-116218386D01*
X141794781Y-116400776D01*
X141731522Y-116595465D01*
X141699500Y-116797648D01*
X141699500Y-117002351D01*
X141731522Y-117204534D01*
X141794781Y-117399223D01*
X141840242Y-117488443D01*
X141887140Y-117580486D01*
X141887715Y-117581613D01*
X142008028Y-117747213D01*
X142152786Y-117891971D01*
X142307749Y-118004556D01*
X142318390Y-118012287D01*
X142409840Y-118058883D01*
X142411080Y-118059515D01*
X142461876Y-118107490D01*
X142478671Y-118175311D01*
X142456134Y-118241446D01*
X142411080Y-118280485D01*
X142318386Y-118327715D01*
X142152786Y-118448028D01*
X142008028Y-118592786D01*
X141887715Y-118758386D01*
X141794781Y-118940776D01*
X141731522Y-119135465D01*
X141699500Y-119337648D01*
X141699500Y-119542351D01*
X141731522Y-119744534D01*
X141794781Y-119939223D01*
X141825554Y-119999617D01*
X141871606Y-120089999D01*
X141887715Y-120121613D01*
X142008028Y-120287213D01*
X142152782Y-120431967D01*
X142152787Y-120431971D01*
X142229583Y-120487767D01*
X142272249Y-120543097D01*
X142278228Y-120612710D01*
X142245622Y-120674505D01*
X142187365Y-120708233D01*
X142166967Y-120713439D01*
X142166956Y-120713442D01*
X142110415Y-120736862D01*
X142870590Y-121497037D01*
X142807007Y-121514075D01*
X142692993Y-121579901D01*
X142599901Y-121672993D01*
X142534075Y-121787007D01*
X142517037Y-121850589D01*
X141756862Y-121090415D01*
X141733449Y-121146940D01*
X141715455Y-121197946D01*
X141695000Y-121340219D01*
X141695000Y-122619785D01*
X141697893Y-122673762D01*
X141697893Y-122673764D01*
X141733438Y-122813030D01*
X141733440Y-122813037D01*
X141756863Y-122869583D01*
X142517037Y-122109409D01*
X142534075Y-122172993D01*
X142599901Y-122287007D01*
X142692993Y-122380099D01*
X142807007Y-122445925D01*
X142870590Y-122462962D01*
X142110415Y-123223135D01*
X142110415Y-123223136D01*
X142166954Y-123246556D01*
X142166961Y-123246558D01*
X142195621Y-123256669D01*
X142252294Y-123297534D01*
X142277876Y-123362552D01*
X142264246Y-123431080D01*
X142227256Y-123473924D01*
X142152782Y-123528032D01*
X142008028Y-123672786D01*
X141887715Y-123838386D01*
X141794781Y-124020776D01*
X141731522Y-124215465D01*
X141699500Y-124417648D01*
X141699500Y-124622351D01*
X141731522Y-124824534D01*
X141794781Y-125019223D01*
X141887715Y-125201613D01*
X142008028Y-125367213D01*
X142152786Y-125511971D01*
X142280568Y-125604808D01*
X142318390Y-125632287D01*
X142409840Y-125678883D01*
X142411080Y-125679515D01*
X142461876Y-125727490D01*
X142478671Y-125795311D01*
X142456134Y-125861446D01*
X142411080Y-125900485D01*
X142318386Y-125947715D01*
X142152786Y-126068028D01*
X142008028Y-126212786D01*
X141887715Y-126378386D01*
X141794781Y-126560776D01*
X141731522Y-126755465D01*
X141699500Y-126957648D01*
X141699500Y-127162351D01*
X141731522Y-127364534D01*
X141794781Y-127559223D01*
X141834139Y-127636466D01*
X141887409Y-127741014D01*
X141887715Y-127741613D01*
X142008028Y-127907213D01*
X142152786Y-128051971D01*
X142307749Y-128164556D01*
X142318390Y-128172287D01*
X142409840Y-128218883D01*
X142411080Y-128219515D01*
X142461876Y-128267490D01*
X142478671Y-128335311D01*
X142456134Y-128401446D01*
X142411080Y-128440485D01*
X142318386Y-128487715D01*
X142152786Y-128608028D01*
X142008028Y-128752786D01*
X141887715Y-128918386D01*
X141794781Y-129100776D01*
X141731522Y-129295465D01*
X141699500Y-129497648D01*
X141699500Y-129702351D01*
X141731522Y-129904534D01*
X141794781Y-130099223D01*
X141887715Y-130281613D01*
X142008028Y-130447213D01*
X142152786Y-130591971D01*
X142307749Y-130704556D01*
X142318390Y-130712287D01*
X142409840Y-130758883D01*
X142411080Y-130759515D01*
X142461876Y-130807490D01*
X142478671Y-130875311D01*
X142456134Y-130941446D01*
X142411080Y-130980485D01*
X142318386Y-131027715D01*
X142152786Y-131148028D01*
X142008028Y-131292786D01*
X141887715Y-131458386D01*
X141794781Y-131640776D01*
X141731522Y-131835465D01*
X141699500Y-132037648D01*
X141699500Y-132242351D01*
X141731522Y-132444534D01*
X141794781Y-132639223D01*
X141887715Y-132821613D01*
X142008028Y-132987213D01*
X142152782Y-133131967D01*
X142152787Y-133131971D01*
X142229583Y-133187767D01*
X142272249Y-133243097D01*
X142278228Y-133312710D01*
X142245622Y-133374505D01*
X142187365Y-133408233D01*
X142166967Y-133413439D01*
X142166956Y-133413442D01*
X142110415Y-133436862D01*
X142870590Y-134197037D01*
X142807007Y-134214075D01*
X142692993Y-134279901D01*
X142599901Y-134372993D01*
X142534075Y-134487007D01*
X142517037Y-134550589D01*
X141756862Y-133790415D01*
X141733449Y-133846940D01*
X141715455Y-133897946D01*
X141695000Y-134040219D01*
X141695000Y-135319785D01*
X141697893Y-135373762D01*
X141697893Y-135373764D01*
X141733438Y-135513030D01*
X141733440Y-135513037D01*
X141756863Y-135569583D01*
X142517037Y-134809409D01*
X142534075Y-134872993D01*
X142599901Y-134987007D01*
X142692993Y-135080099D01*
X142807007Y-135145925D01*
X142870590Y-135162962D01*
X142110415Y-135923135D01*
X142110415Y-135923136D01*
X142166954Y-135946556D01*
X142166961Y-135946558D01*
X142195621Y-135956669D01*
X142252294Y-135997534D01*
X142277876Y-136062552D01*
X142264246Y-136131080D01*
X142227256Y-136173924D01*
X142152782Y-136228032D01*
X142008028Y-136372786D01*
X141887715Y-136538386D01*
X141794781Y-136720776D01*
X141731522Y-136915465D01*
X141699500Y-137117648D01*
X141699500Y-137322351D01*
X141731522Y-137524534D01*
X141794781Y-137719223D01*
X141887715Y-137901613D01*
X142008028Y-138067213D01*
X142152786Y-138211971D01*
X142307749Y-138324556D01*
X142318390Y-138332287D01*
X142409840Y-138378883D01*
X142411080Y-138379515D01*
X142461876Y-138427490D01*
X142478671Y-138495311D01*
X142456134Y-138561446D01*
X142411080Y-138600485D01*
X142318386Y-138647715D01*
X142152786Y-138768028D01*
X142008028Y-138912786D01*
X141887715Y-139078386D01*
X141794781Y-139260776D01*
X141731522Y-139455465D01*
X141699500Y-139657648D01*
X141699500Y-139862351D01*
X141727654Y-140040111D01*
X141718699Y-140109405D01*
X141692862Y-140147190D01*
X139693873Y-142146181D01*
X139632550Y-142179666D01*
X139606192Y-142182500D01*
X122198808Y-142182500D01*
X122131769Y-142162815D01*
X122111127Y-142146181D01*
X116873674Y-136908727D01*
X116873673Y-136908726D01*
X116873669Y-136908723D01*
X116767127Y-136837535D01*
X116648744Y-136788499D01*
X116648738Y-136788497D01*
X116523071Y-136763500D01*
X116523069Y-136763500D01*
X113241931Y-136763500D01*
X113241929Y-136763500D01*
X113116261Y-136788497D01*
X113116255Y-136788499D01*
X112997874Y-136837534D01*
X112891326Y-136908726D01*
X112466871Y-137333181D01*
X112405548Y-137366666D01*
X112379190Y-137369500D01*
X111102129Y-137369500D01*
X111102123Y-137369501D01*
X111042516Y-137375908D01*
X110907671Y-137426202D01*
X110907664Y-137426206D01*
X110792455Y-137512452D01*
X110792452Y-137512455D01*
X110706206Y-137627664D01*
X110706202Y-137627671D01*
X110655908Y-137762517D01*
X110649501Y-137822116D01*
X110649500Y-137822135D01*
X110649500Y-139617870D01*
X110649501Y-139617876D01*
X110655908Y-139677483D01*
X110706202Y-139812328D01*
X110706206Y-139812335D01*
X110792452Y-139927544D01*
X110792455Y-139927547D01*
X110907664Y-140013793D01*
X110907671Y-140013797D01*
X111039082Y-140062810D01*
X111095016Y-140104681D01*
X111119433Y-140170145D01*
X111104582Y-140238418D01*
X111083431Y-140266673D01*
X110969889Y-140380215D01*
X110844951Y-140552179D01*
X110748444Y-140741585D01*
X110682753Y-140943760D01*
X110649500Y-141153713D01*
X110649500Y-141366286D01*
X110682753Y-141576239D01*
X110748444Y-141778414D01*
X110844951Y-141967820D01*
X110969890Y-142139786D01*
X111120213Y-142290109D01*
X111292182Y-142415050D01*
X111300946Y-142419516D01*
X111351742Y-142467491D01*
X111368536Y-142535312D01*
X111345998Y-142601447D01*
X111300946Y-142640484D01*
X111292182Y-142644949D01*
X111120213Y-142769890D01*
X110969890Y-142920213D01*
X110844951Y-143092179D01*
X110748444Y-143281585D01*
X110682753Y-143483760D01*
X110649500Y-143693713D01*
X110649500Y-143906286D01*
X110682753Y-144116239D01*
X110748444Y-144318414D01*
X110844951Y-144507820D01*
X110969890Y-144679786D01*
X111120213Y-144830109D01*
X111292182Y-144955050D01*
X111300946Y-144959516D01*
X111351742Y-145007491D01*
X111368536Y-145075312D01*
X111345998Y-145141447D01*
X111300946Y-145180484D01*
X111292182Y-145184949D01*
X111120213Y-145309890D01*
X110969890Y-145460213D01*
X110844951Y-145632179D01*
X110748444Y-145821585D01*
X110682753Y-146023760D01*
X110649500Y-146233713D01*
X110649500Y-146446287D01*
X110682754Y-146656243D01*
X110746038Y-146851011D01*
X110748444Y-146858414D01*
X110844951Y-147047820D01*
X110969890Y-147219786D01*
X111120213Y-147370109D01*
X111292179Y-147495048D01*
X111292181Y-147495049D01*
X111292184Y-147495051D01*
X111301493Y-147499794D01*
X111352290Y-147547766D01*
X111369087Y-147615587D01*
X111346552Y-147681722D01*
X111301502Y-147720762D01*
X111292443Y-147725378D01*
X111120540Y-147850272D01*
X111120535Y-147850276D01*
X110970276Y-148000535D01*
X110970272Y-148000540D01*
X110845379Y-148172442D01*
X110748904Y-148361782D01*
X110683242Y-148563870D01*
X110683242Y-148563873D01*
X110672769Y-148630000D01*
X111566988Y-148630000D01*
X111534075Y-148687007D01*
X111500000Y-148814174D01*
X111500000Y-148945826D01*
X111534075Y-149072993D01*
X111566988Y-149130000D01*
X110672769Y-149130000D01*
X110683242Y-149196126D01*
X110683242Y-149196129D01*
X110748904Y-149398217D01*
X110845379Y-149587557D01*
X110970272Y-149759459D01*
X110970276Y-149759464D01*
X111120535Y-149909723D01*
X111120540Y-149909727D01*
X111292444Y-150034622D01*
X111301495Y-150039234D01*
X111352292Y-150087208D01*
X111369087Y-150155029D01*
X111346550Y-150221164D01*
X111301499Y-150260202D01*
X111292182Y-150264949D01*
X111120213Y-150389890D01*
X110969890Y-150540213D01*
X110844951Y-150712179D01*
X110748444Y-150901585D01*
X110682753Y-151103760D01*
X110649500Y-151313713D01*
X110649500Y-151526287D01*
X110682754Y-151736243D01*
X110684379Y-151741245D01*
X110748444Y-151938414D01*
X110844951Y-152127820D01*
X110969890Y-152299786D01*
X111120213Y-152450109D01*
X111292179Y-152575048D01*
X111292181Y-152575049D01*
X111292184Y-152575051D01*
X111481588Y-152671557D01*
X111683757Y-152737246D01*
X111893713Y-152770500D01*
X111893714Y-152770500D01*
X112106286Y-152770500D01*
X112106287Y-152770500D01*
X112316243Y-152737246D01*
X112518412Y-152671557D01*
X112707816Y-152575051D01*
X112729789Y-152559086D01*
X112879786Y-152450109D01*
X112879788Y-152450106D01*
X112879792Y-152450104D01*
X113030104Y-152299792D01*
X113030106Y-152299788D01*
X113030109Y-152299786D01*
X113155048Y-152127820D01*
X113155047Y-152127820D01*
X113155051Y-152127816D01*
X113159514Y-152119054D01*
X113207488Y-152068259D01*
X113275308Y-152051463D01*
X113341444Y-152073999D01*
X113380486Y-152119056D01*
X113384951Y-152127820D01*
X113509890Y-152299786D01*
X113660213Y-152450109D01*
X113832179Y-152575048D01*
X113832181Y-152575049D01*
X113832184Y-152575051D01*
X114021588Y-152671557D01*
X114223757Y-152737246D01*
X114433713Y-152770500D01*
X114433714Y-152770500D01*
X114646286Y-152770500D01*
X114646287Y-152770500D01*
X114756111Y-152753105D01*
X114861055Y-152736484D01*
X114861315Y-152738128D01*
X114923852Y-152741250D01*
X114970711Y-152770657D01*
X116375325Y-154175272D01*
X116375331Y-154175277D01*
X116481874Y-154246466D01*
X116551221Y-154275189D01*
X116600256Y-154295501D01*
X116600259Y-154295501D01*
X116600260Y-154295502D01*
X116725928Y-154320500D01*
X116725931Y-154320500D01*
X120333071Y-154320500D01*
X120417615Y-154303682D01*
X120458744Y-154295501D01*
X120577127Y-154246465D01*
X120683669Y-154175277D01*
X122661127Y-152197819D01*
X122722450Y-152164334D01*
X122748808Y-152161500D01*
X131509071Y-152161500D01*
X131593615Y-152144682D01*
X131634744Y-152136501D01*
X131753127Y-152087465D01*
X131797551Y-152057782D01*
X131797551Y-152057781D01*
X131797553Y-152057781D01*
X131828610Y-152037029D01*
X131859669Y-152016277D01*
X133046288Y-150829656D01*
X133107611Y-150796172D01*
X133155754Y-150796688D01*
X133155945Y-150795484D01*
X133260888Y-150812105D01*
X133370713Y-150829500D01*
X133370714Y-150829500D01*
X133583286Y-150829500D01*
X133583287Y-150829500D01*
X133793243Y-150796246D01*
X133995412Y-150730557D01*
X134184816Y-150634051D01*
X134271138Y-150571335D01*
X134356786Y-150509109D01*
X134356788Y-150509106D01*
X134356792Y-150509104D01*
X134507104Y-150358792D01*
X134507106Y-150358788D01*
X134507109Y-150358786D01*
X134632048Y-150186820D01*
X134632047Y-150186820D01*
X134632051Y-150186816D01*
X134636514Y-150178054D01*
X134684488Y-150127259D01*
X134752308Y-150110463D01*
X134818444Y-150132999D01*
X134857486Y-150178056D01*
X134861951Y-150186820D01*
X134986890Y-150358786D01*
X135137213Y-150509109D01*
X135309179Y-150634048D01*
X135309181Y-150634049D01*
X135309184Y-150634051D01*
X135498588Y-150730557D01*
X135700757Y-150796246D01*
X135910713Y-150829500D01*
X135910714Y-150829500D01*
X136123286Y-150829500D01*
X136123287Y-150829500D01*
X136333243Y-150796246D01*
X136535412Y-150730557D01*
X136724816Y-150634051D01*
X136811138Y-150571335D01*
X136896786Y-150509109D01*
X136896788Y-150509106D01*
X136896792Y-150509104D01*
X137047104Y-150358792D01*
X137047106Y-150358788D01*
X137047109Y-150358786D01*
X137172048Y-150186820D01*
X137172047Y-150186820D01*
X137172051Y-150186816D01*
X137268557Y-149997412D01*
X137334246Y-149795243D01*
X137367500Y-149585287D01*
X137367500Y-149372713D01*
X137334246Y-149162757D01*
X137268557Y-148960588D01*
X137172051Y-148771184D01*
X137172049Y-148771181D01*
X137172048Y-148771179D01*
X137047109Y-148599213D01*
X136896792Y-148448896D01*
X136896686Y-148448819D01*
X136896654Y-148448778D01*
X136893079Y-148445724D01*
X136893720Y-148444973D01*
X136854020Y-148393489D01*
X136848041Y-148323876D01*
X136880646Y-148262080D01*
X136941485Y-148227723D01*
X136969571Y-148224500D01*
X150559071Y-148224500D01*
X150643615Y-148207682D01*
X150684744Y-148199501D01*
X150803127Y-148150465D01*
X150909669Y-148079277D01*
X158565277Y-140423669D01*
X158636466Y-140317126D01*
X158685501Y-140198743D01*
X158703272Y-140109405D01*
X158710500Y-140073071D01*
X158710500Y-119999617D01*
X158730185Y-119932578D01*
X158764592Y-119898902D01*
X158763874Y-119897914D01*
X158767811Y-119895053D01*
X158767816Y-119895051D01*
X158939792Y-119770104D01*
X159090104Y-119619792D01*
X159090106Y-119619788D01*
X159090109Y-119619786D01*
X159215048Y-119447820D01*
X159215047Y-119447820D01*
X159215051Y-119447816D01*
X159219514Y-119439054D01*
X159267488Y-119388259D01*
X159335308Y-119371463D01*
X159401444Y-119393999D01*
X159440486Y-119439056D01*
X159444951Y-119447820D01*
X159569890Y-119619786D01*
X159720213Y-119770109D01*
X159892179Y-119895048D01*
X159892181Y-119895049D01*
X159892184Y-119895051D01*
X160081588Y-119991557D01*
X160283757Y-120057246D01*
X160493713Y-120090500D01*
X160493714Y-120090500D01*
X160706286Y-120090500D01*
X160706287Y-120090500D01*
X160916243Y-120057246D01*
X161118412Y-119991557D01*
X161307816Y-119895051D01*
X161394471Y-119832093D01*
X161479786Y-119770109D01*
X161479788Y-119770106D01*
X161479792Y-119770104D01*
X161630104Y-119619792D01*
X161630106Y-119619788D01*
X161630109Y-119619786D01*
X161755048Y-119447820D01*
X161755047Y-119447820D01*
X161755051Y-119447816D01*
X161759514Y-119439054D01*
X161807488Y-119388259D01*
X161875308Y-119371463D01*
X161941444Y-119393999D01*
X161980486Y-119439056D01*
X161984951Y-119447820D01*
X162109890Y-119619786D01*
X162260213Y-119770109D01*
X162432179Y-119895048D01*
X162432181Y-119895049D01*
X162432184Y-119895051D01*
X162621588Y-119991557D01*
X162823757Y-120057246D01*
X163033713Y-120090500D01*
X163033714Y-120090500D01*
X163246286Y-120090500D01*
X163246287Y-120090500D01*
X163456243Y-120057246D01*
X163658412Y-119991557D01*
X163847816Y-119895051D01*
X163934471Y-119832093D01*
X164019786Y-119770109D01*
X164019788Y-119770106D01*
X164019792Y-119770104D01*
X164170104Y-119619792D01*
X164170106Y-119619788D01*
X164170109Y-119619786D01*
X164295048Y-119447820D01*
X164295047Y-119447820D01*
X164295051Y-119447816D01*
X164391557Y-119258412D01*
X164457246Y-119056243D01*
X164490500Y-118846287D01*
X164490500Y-118633713D01*
X164457246Y-118423757D01*
X164391557Y-118221588D01*
X164295051Y-118032184D01*
X164295049Y-118032181D01*
X164295048Y-118032179D01*
X164170109Y-117860213D01*
X164019786Y-117709890D01*
X163847820Y-117584951D01*
X163842195Y-117582085D01*
X163839054Y-117580485D01*
X163788259Y-117532512D01*
X163771463Y-117464692D01*
X163793999Y-117398556D01*
X163839054Y-117359515D01*
X163847816Y-117355051D01*
X163909624Y-117310145D01*
X164019786Y-117230109D01*
X164019788Y-117230106D01*
X164019792Y-117230104D01*
X164170104Y-117079792D01*
X164170106Y-117079788D01*
X164170109Y-117079786D01*
X164295048Y-116907820D01*
X164295050Y-116907817D01*
X164295051Y-116907816D01*
X164391557Y-116718412D01*
X164457246Y-116516243D01*
X164490500Y-116306287D01*
X164490500Y-116093713D01*
X164457246Y-115883757D01*
X164391557Y-115681588D01*
X164295051Y-115492184D01*
X164295049Y-115492181D01*
X164295048Y-115492179D01*
X164170109Y-115320213D01*
X164019786Y-115169890D01*
X163847820Y-115044951D01*
X163658414Y-114948444D01*
X163658413Y-114948443D01*
X163658412Y-114948443D01*
X163456243Y-114882754D01*
X163456241Y-114882753D01*
X163456240Y-114882753D01*
X163294957Y-114857208D01*
X163246287Y-114849500D01*
X163033713Y-114849500D01*
X162985042Y-114857208D01*
X162823760Y-114882753D01*
X162621585Y-114948444D01*
X162432179Y-115044951D01*
X162260213Y-115169890D01*
X162109890Y-115320213D01*
X161984949Y-115492182D01*
X161980484Y-115500946D01*
X161932509Y-115551742D01*
X161864688Y-115568536D01*
X161798553Y-115545998D01*
X161759516Y-115500946D01*
X161755050Y-115492182D01*
X161630109Y-115320213D01*
X161479786Y-115169890D01*
X161307820Y-115044951D01*
X161118414Y-114948444D01*
X161118413Y-114948443D01*
X161118412Y-114948443D01*
X160916243Y-114882754D01*
X160916241Y-114882753D01*
X160916240Y-114882753D01*
X160754957Y-114857208D01*
X160706287Y-114849500D01*
X160493713Y-114849500D01*
X160445042Y-114857208D01*
X160283760Y-114882753D01*
X160081585Y-114948444D01*
X159892179Y-115044951D01*
X159720213Y-115169890D01*
X159569890Y-115320213D01*
X159444949Y-115492182D01*
X159440484Y-115500946D01*
X159392509Y-115551742D01*
X159324688Y-115568536D01*
X159258553Y-115545998D01*
X159219516Y-115500946D01*
X159215050Y-115492182D01*
X159090109Y-115320213D01*
X158939786Y-115169890D01*
X158763875Y-115042085D01*
X158764851Y-115040740D01*
X158722834Y-114994295D01*
X158710500Y-114940382D01*
X158710500Y-113695928D01*
X158685502Y-113570261D01*
X158685501Y-113570260D01*
X158685501Y-113570256D01*
X158636465Y-113451873D01*
X158565277Y-113345331D01*
X158565275Y-113345329D01*
X158565273Y-113345326D01*
X156714673Y-111494726D01*
X156713783Y-111494131D01*
X156608127Y-111423535D01*
X156489744Y-111374499D01*
X156489738Y-111374497D01*
X156364071Y-111349500D01*
X156364069Y-111349500D01*
X150520807Y-111349500D01*
X150453768Y-111329815D01*
X150433126Y-111313181D01*
X148586819Y-109466873D01*
X148553334Y-109405550D01*
X148550500Y-109379192D01*
X148550500Y-103035928D01*
X148525502Y-102910261D01*
X148525501Y-102910260D01*
X148525501Y-102910256D01*
X148504790Y-102860256D01*
X148504085Y-102858555D01*
X148487915Y-102819515D01*
X148476466Y-102791874D01*
X148411119Y-102694075D01*
X148405278Y-102685332D01*
X148405272Y-102685325D01*
X146874673Y-101154726D01*
X146850257Y-101138412D01*
X146768127Y-101083535D01*
X146649744Y-101034499D01*
X146649738Y-101034497D01*
X146524071Y-101009500D01*
X146524069Y-101009500D01*
X144198071Y-101009500D01*
X144131032Y-100989815D01*
X144097754Y-100958386D01*
X143991966Y-100812781D01*
X143847219Y-100668034D01*
X143847213Y-100668028D01*
X143681614Y-100547715D01*
X143614881Y-100513713D01*
X143588917Y-100500483D01*
X143538123Y-100452511D01*
X143521328Y-100384690D01*
X143543865Y-100318555D01*
X143588917Y-100279516D01*
X143681610Y-100232287D01*
X143783378Y-100158349D01*
X143847213Y-100111971D01*
X143847215Y-100111968D01*
X143847219Y-100111966D01*
X143991966Y-99967219D01*
X143991968Y-99967215D01*
X143991971Y-99967213D01*
X144112286Y-99801612D01*
X144114072Y-99798107D01*
X144114072Y-99798106D01*
X144114073Y-99798104D01*
X144128212Y-99770356D01*
X144205220Y-99619219D01*
X144268477Y-99424534D01*
X144300500Y-99222352D01*
X144300500Y-99017648D01*
X144268477Y-98815466D01*
X144205220Y-98620781D01*
X144205216Y-98620773D01*
X144200936Y-98612371D01*
X144200935Y-98612370D01*
X144174733Y-98560947D01*
X148106000Y-98560947D01*
X148106000Y-98797052D01*
X148142934Y-99030247D01*
X148215897Y-99254802D01*
X148323087Y-99465174D01*
X148383338Y-99548104D01*
X148383340Y-99548105D01*
X149082212Y-98849233D01*
X149093482Y-98891292D01*
X149165890Y-99016708D01*
X149268292Y-99119110D01*
X149393708Y-99191518D01*
X149435765Y-99202787D01*
X148736893Y-99901658D01*
X148819828Y-99961914D01*
X149030197Y-100069102D01*
X149254752Y-100142065D01*
X149254751Y-100142065D01*
X149487948Y-100179000D01*
X149724052Y-100179000D01*
X149957247Y-100142065D01*
X150181802Y-100069102D01*
X150392163Y-99961918D01*
X150392169Y-99961914D01*
X150475104Y-99901658D01*
X150475105Y-99901658D01*
X149776233Y-99202787D01*
X149818292Y-99191518D01*
X149943708Y-99119110D01*
X150046110Y-99016708D01*
X150118518Y-98891292D01*
X150129787Y-98849234D01*
X150828658Y-99548105D01*
X150828658Y-99548104D01*
X150888914Y-99465169D01*
X150888918Y-99465163D01*
X150996102Y-99254802D01*
X151069065Y-99030247D01*
X151106000Y-98797052D01*
X151106000Y-98560947D01*
X154606000Y-98560947D01*
X154606000Y-98797052D01*
X154642934Y-99030247D01*
X154715897Y-99254802D01*
X154823087Y-99465174D01*
X154883338Y-99548104D01*
X154883340Y-99548105D01*
X155582212Y-98849233D01*
X155593482Y-98891292D01*
X155665890Y-99016708D01*
X155768292Y-99119110D01*
X155893708Y-99191518D01*
X155935765Y-99202787D01*
X155236893Y-99901658D01*
X155319828Y-99961914D01*
X155530197Y-100069102D01*
X155754752Y-100142065D01*
X155754751Y-100142065D01*
X155987948Y-100179000D01*
X156224052Y-100179000D01*
X156457247Y-100142065D01*
X156681802Y-100069102D01*
X156892163Y-99961918D01*
X156892169Y-99961914D01*
X156975104Y-99901658D01*
X156975105Y-99901658D01*
X156276233Y-99202787D01*
X156318292Y-99191518D01*
X156443708Y-99119110D01*
X156546110Y-99016708D01*
X156618518Y-98891292D01*
X156629787Y-98849234D01*
X157328658Y-99548105D01*
X157328658Y-99548104D01*
X157388914Y-99465169D01*
X157388918Y-99465163D01*
X157496102Y-99254802D01*
X157529214Y-99152897D01*
X157529214Y-99152896D01*
X157569065Y-99030245D01*
X157606000Y-98797052D01*
X157606000Y-98560947D01*
X157569065Y-98327752D01*
X157496102Y-98103197D01*
X157388914Y-97892828D01*
X157328658Y-97809894D01*
X157328658Y-97809893D01*
X156629787Y-98508765D01*
X156618518Y-98466708D01*
X156546110Y-98341292D01*
X156443708Y-98238890D01*
X156318292Y-98166482D01*
X156276234Y-98155212D01*
X156975105Y-97456340D01*
X156975104Y-97456338D01*
X156892174Y-97396087D01*
X156681802Y-97288897D01*
X156457247Y-97215934D01*
X156457248Y-97215934D01*
X156224052Y-97179000D01*
X155987948Y-97179000D01*
X155754752Y-97215934D01*
X155530197Y-97288897D01*
X155319830Y-97396084D01*
X155236894Y-97456340D01*
X155935766Y-98155212D01*
X155893708Y-98166482D01*
X155768292Y-98238890D01*
X155665890Y-98341292D01*
X155593482Y-98466708D01*
X155582212Y-98508766D01*
X154883340Y-97809894D01*
X154823084Y-97892830D01*
X154715897Y-98103197D01*
X154642934Y-98327752D01*
X154606000Y-98560947D01*
X151106000Y-98560947D01*
X151069065Y-98327752D01*
X150996102Y-98103197D01*
X150888914Y-97892828D01*
X150828658Y-97809894D01*
X150828658Y-97809893D01*
X150129787Y-98508765D01*
X150118518Y-98466708D01*
X150046110Y-98341292D01*
X149943708Y-98238890D01*
X149818292Y-98166482D01*
X149776234Y-98155212D01*
X150475105Y-97456340D01*
X150475104Y-97456339D01*
X150392174Y-97396087D01*
X150181802Y-97288897D01*
X149957247Y-97215934D01*
X149957248Y-97215934D01*
X149724052Y-97179000D01*
X149487948Y-97179000D01*
X149254752Y-97215934D01*
X149030197Y-97288897D01*
X148819830Y-97396084D01*
X148736894Y-97456340D01*
X149435766Y-98155212D01*
X149393708Y-98166482D01*
X149268292Y-98238890D01*
X149165890Y-98341292D01*
X149093482Y-98466708D01*
X149082212Y-98508766D01*
X148383340Y-97809894D01*
X148323084Y-97892830D01*
X148215897Y-98103197D01*
X148142934Y-98327752D01*
X148106000Y-98560947D01*
X144174733Y-98560947D01*
X144150075Y-98512553D01*
X144112287Y-98438390D01*
X144081663Y-98396239D01*
X143991971Y-98272786D01*
X143847213Y-98128028D01*
X143681614Y-98007715D01*
X143614881Y-97973713D01*
X143595703Y-97963941D01*
X143544908Y-97915968D01*
X143528113Y-97848147D01*
X143550650Y-97782012D01*
X143593546Y-97744099D01*
X143659493Y-97708849D01*
X143659511Y-97708838D01*
X143728912Y-97662465D01*
X143129409Y-97062962D01*
X143192993Y-97045925D01*
X143307007Y-96980099D01*
X143400099Y-96887007D01*
X143465925Y-96772993D01*
X143482962Y-96709409D01*
X144082465Y-97308912D01*
X144128838Y-97239511D01*
X144128844Y-97239501D01*
X144175509Y-97152198D01*
X144235814Y-97006612D01*
X144264555Y-96911864D01*
X144295298Y-96757302D01*
X144295298Y-96757299D01*
X144305000Y-96658789D01*
X144305000Y-96501210D01*
X144295298Y-96402700D01*
X144295298Y-96402697D01*
X144264555Y-96248135D01*
X144235814Y-96153387D01*
X144175509Y-96007801D01*
X144128841Y-95920493D01*
X144082465Y-95851086D01*
X144082465Y-95851085D01*
X143482962Y-96450589D01*
X143465925Y-96387007D01*
X143400099Y-96272993D01*
X143307007Y-96179901D01*
X143192993Y-96114075D01*
X143129410Y-96097037D01*
X143728913Y-95497534D01*
X143728912Y-95497533D01*
X143659506Y-95451158D01*
X143593545Y-95415900D01*
X143543701Y-95366937D01*
X143528241Y-95298799D01*
X143552073Y-95233119D01*
X143595702Y-95196059D01*
X143681610Y-95152287D01*
X143772745Y-95086074D01*
X143847213Y-95031971D01*
X143847215Y-95031968D01*
X143847219Y-95031966D01*
X143991966Y-94887219D01*
X143991968Y-94887215D01*
X143991971Y-94887213D01*
X144046775Y-94811780D01*
X144112287Y-94721610D01*
X144205220Y-94539219D01*
X144268477Y-94344534D01*
X144300500Y-94142352D01*
X144300500Y-94060902D01*
X148105500Y-94060902D01*
X148105500Y-94297097D01*
X148142446Y-94530368D01*
X148215433Y-94754996D01*
X148282802Y-94887213D01*
X148322657Y-94965433D01*
X148461483Y-95156510D01*
X148628490Y-95323517D01*
X148819567Y-95462343D01*
X148918991Y-95513002D01*
X149030003Y-95569566D01*
X149030005Y-95569566D01*
X149030008Y-95569568D01*
X149109535Y-95595408D01*
X149254631Y-95642553D01*
X149487903Y-95679500D01*
X149487908Y-95679500D01*
X149724097Y-95679500D01*
X149957368Y-95642553D01*
X150181992Y-95569568D01*
X150392433Y-95462343D01*
X150583510Y-95323517D01*
X150750517Y-95156510D01*
X150889343Y-94965433D01*
X150924107Y-94897205D01*
X150972082Y-94846409D01*
X151034592Y-94829500D01*
X154677408Y-94829500D01*
X154744447Y-94849185D01*
X154787893Y-94897205D01*
X154822657Y-94965433D01*
X154961483Y-95156510D01*
X155128490Y-95323517D01*
X155319567Y-95462343D01*
X155418991Y-95513002D01*
X155530003Y-95569566D01*
X155530005Y-95569566D01*
X155530008Y-95569568D01*
X155609535Y-95595408D01*
X155754631Y-95642553D01*
X155987903Y-95679500D01*
X155987908Y-95679500D01*
X156224097Y-95679500D01*
X156415785Y-95649139D01*
X156457368Y-95642553D01*
X156530197Y-95618888D01*
X156600034Y-95616893D01*
X156656193Y-95649139D01*
X157171325Y-96164272D01*
X157171328Y-96164275D01*
X157274228Y-96233030D01*
X157276085Y-96234270D01*
X157277873Y-96235465D01*
X157396256Y-96284501D01*
X157396260Y-96284501D01*
X157396261Y-96284502D01*
X157521928Y-96309500D01*
X157521931Y-96309500D01*
X159569929Y-96309500D01*
X159636968Y-96329185D01*
X159670245Y-96360613D01*
X159713242Y-96419792D01*
X159776034Y-96506219D01*
X159920786Y-96650971D01*
X160086385Y-96771284D01*
X160086387Y-96771285D01*
X160086390Y-96771287D01*
X160140378Y-96798795D01*
X160191174Y-96846769D01*
X160207969Y-96914590D01*
X160185432Y-96980725D01*
X160140378Y-97019765D01*
X160086644Y-97047143D01*
X160042077Y-97079523D01*
X160042077Y-97079524D01*
X160721554Y-97759000D01*
X160715339Y-97759000D01*
X160613606Y-97786259D01*
X160522394Y-97838920D01*
X160447920Y-97913394D01*
X160395259Y-98004606D01*
X160368000Y-98106339D01*
X160368000Y-98112553D01*
X159688524Y-97433077D01*
X159688523Y-97433077D01*
X159656143Y-97477644D01*
X159563244Y-97659968D01*
X159500009Y-97854582D01*
X159468000Y-98056682D01*
X159468000Y-98261317D01*
X159500009Y-98463417D01*
X159563244Y-98658031D01*
X159656141Y-98840350D01*
X159656147Y-98840359D01*
X159688523Y-98884921D01*
X159688524Y-98884922D01*
X160368000Y-98205446D01*
X160368000Y-98211661D01*
X160395259Y-98313394D01*
X160447920Y-98404606D01*
X160522394Y-98479080D01*
X160613606Y-98531741D01*
X160715339Y-98559000D01*
X160721553Y-98559000D01*
X160042076Y-99238474D01*
X160086650Y-99270859D01*
X160268968Y-99363755D01*
X160463582Y-99426990D01*
X160665683Y-99459000D01*
X160870317Y-99459000D01*
X161072417Y-99426990D01*
X161267031Y-99363755D01*
X161449349Y-99270859D01*
X161493921Y-99238474D01*
X160814447Y-98559000D01*
X160820661Y-98559000D01*
X160922394Y-98531741D01*
X161013606Y-98479080D01*
X161088080Y-98404606D01*
X161140741Y-98313394D01*
X161168000Y-98211661D01*
X161168000Y-98205447D01*
X161847474Y-98884921D01*
X161879859Y-98840349D01*
X161972755Y-98658031D01*
X162035990Y-98463417D01*
X162068000Y-98261317D01*
X162068000Y-98056682D01*
X162035990Y-97854582D01*
X161972755Y-97659968D01*
X161879859Y-97477650D01*
X161847474Y-97433077D01*
X161847474Y-97433076D01*
X161168000Y-98112551D01*
X161168000Y-98106339D01*
X161140741Y-98004606D01*
X161088080Y-97913394D01*
X161013606Y-97838920D01*
X160922394Y-97786259D01*
X160820661Y-97759000D01*
X160814446Y-97759000D01*
X161493922Y-97079524D01*
X161493921Y-97079523D01*
X161449359Y-97047147D01*
X161449350Y-97047141D01*
X161395621Y-97019765D01*
X161344825Y-96971791D01*
X161328030Y-96903970D01*
X161350567Y-96837835D01*
X161395621Y-96798795D01*
X161449610Y-96771287D01*
X161554541Y-96695051D01*
X161615213Y-96650971D01*
X161615215Y-96650968D01*
X161615219Y-96650966D01*
X161759966Y-96506219D01*
X161759968Y-96506215D01*
X161759971Y-96506213D01*
X161835176Y-96402700D01*
X161880287Y-96340610D01*
X161973220Y-96158219D01*
X162036477Y-95963534D01*
X162068500Y-95761352D01*
X162068500Y-95556648D01*
X162042606Y-95393164D01*
X162036477Y-95354465D01*
X161992511Y-95219153D01*
X161973220Y-95159781D01*
X161973218Y-95159778D01*
X161973218Y-95159776D01*
X161935664Y-95086074D01*
X161880287Y-94977390D01*
X161865753Y-94957385D01*
X161759971Y-94811786D01*
X161615213Y-94667028D01*
X161449613Y-94546715D01*
X161449612Y-94546714D01*
X161449610Y-94546713D01*
X161377353Y-94509896D01*
X161267223Y-94453781D01*
X161072534Y-94390522D01*
X160897995Y-94362878D01*
X160870352Y-94358500D01*
X160665648Y-94358500D01*
X160641329Y-94362351D01*
X160463465Y-94390522D01*
X160268776Y-94453781D01*
X160086386Y-94546715D01*
X159920786Y-94667028D01*
X159776034Y-94811780D01*
X159747903Y-94850500D01*
X159670246Y-94957386D01*
X159614918Y-95000051D01*
X159569929Y-95008500D01*
X157906808Y-95008500D01*
X157839769Y-94988815D01*
X157819127Y-94972181D01*
X157576139Y-94729193D01*
X157542654Y-94667870D01*
X157545888Y-94603197D01*
X157569553Y-94530368D01*
X157582259Y-94450145D01*
X157606500Y-94297097D01*
X157606500Y-94060902D01*
X157569553Y-93827631D01*
X157496566Y-93603003D01*
X157389342Y-93392566D01*
X157250517Y-93201490D01*
X157083510Y-93034483D01*
X156892433Y-92895657D01*
X156681996Y-92788433D01*
X156457368Y-92715446D01*
X156224097Y-92678500D01*
X156224092Y-92678500D01*
X155987908Y-92678500D01*
X155987903Y-92678500D01*
X155754631Y-92715446D01*
X155530003Y-92788433D01*
X155319566Y-92895657D01*
X155210550Y-92974862D01*
X155128490Y-93034483D01*
X155128488Y-93034485D01*
X155128487Y-93034485D01*
X154961485Y-93201487D01*
X154961485Y-93201488D01*
X154961483Y-93201490D01*
X154901862Y-93283550D01*
X154822657Y-93392566D01*
X154787893Y-93460795D01*
X154739918Y-93511591D01*
X154677408Y-93528500D01*
X151034592Y-93528500D01*
X150967553Y-93508815D01*
X150924107Y-93460795D01*
X150889342Y-93392566D01*
X150750517Y-93201490D01*
X150583510Y-93034483D01*
X150392433Y-92895657D01*
X150181996Y-92788433D01*
X149957368Y-92715446D01*
X149724097Y-92678500D01*
X149724092Y-92678500D01*
X149487908Y-92678500D01*
X149487903Y-92678500D01*
X149254631Y-92715446D01*
X149030003Y-92788433D01*
X148819566Y-92895657D01*
X148710550Y-92974862D01*
X148628490Y-93034483D01*
X148628488Y-93034485D01*
X148628487Y-93034485D01*
X148461485Y-93201487D01*
X148461485Y-93201488D01*
X148461483Y-93201490D01*
X148401862Y-93283550D01*
X148322657Y-93392566D01*
X148215433Y-93603003D01*
X148142446Y-93827631D01*
X148105500Y-94060902D01*
X144300500Y-94060902D01*
X144300500Y-93937648D01*
X144268477Y-93735466D01*
X144205220Y-93540781D01*
X144205218Y-93540778D01*
X144205218Y-93540776D01*
X144164465Y-93460795D01*
X144112287Y-93358390D01*
X144104556Y-93347749D01*
X143991971Y-93192786D01*
X143847213Y-93048028D01*
X143681614Y-92927715D01*
X143675006Y-92924348D01*
X143588917Y-92880483D01*
X143538123Y-92832511D01*
X143521328Y-92764690D01*
X143543865Y-92698555D01*
X143588917Y-92659516D01*
X143681610Y-92612287D01*
X143815320Y-92515142D01*
X143847213Y-92491971D01*
X143847215Y-92491968D01*
X143847219Y-92491966D01*
X143991966Y-92347219D01*
X143991968Y-92347215D01*
X143991971Y-92347213D01*
X144079170Y-92227192D01*
X144112287Y-92181610D01*
X144205220Y-91999219D01*
X144268477Y-91804534D01*
X144300500Y-91602352D01*
X144300500Y-91397648D01*
X144268477Y-91195466D01*
X144205220Y-91000781D01*
X144205218Y-91000778D01*
X144205218Y-91000776D01*
X144140876Y-90874499D01*
X144112287Y-90818390D01*
X144085011Y-90780847D01*
X143991971Y-90652786D01*
X143847213Y-90508028D01*
X143680379Y-90386818D01*
X143637713Y-90331489D01*
X143631734Y-90261875D01*
X143664339Y-90200080D01*
X143725178Y-90165723D01*
X143753264Y-90162500D01*
X165908340Y-90162500D01*
X165975379Y-90182185D01*
X166021134Y-90234989D01*
X166031078Y-90304147D01*
X166002053Y-90367703D01*
X165987005Y-90382353D01*
X165780841Y-90551546D01*
X165551546Y-90780841D01*
X165345821Y-91031518D01*
X165345811Y-91031532D01*
X165165657Y-91301151D01*
X165165646Y-91301169D01*
X165012788Y-91587145D01*
X165012786Y-91587150D01*
X164888686Y-91886752D01*
X164794548Y-92197086D01*
X164794545Y-92197097D01*
X164731287Y-92515125D01*
X164731284Y-92515142D01*
X164711556Y-92715447D01*
X164699500Y-92837857D01*
X164699500Y-93162143D01*
X164709054Y-93259152D01*
X164731284Y-93484857D01*
X164731287Y-93484874D01*
X164794545Y-93802902D01*
X164794548Y-93802913D01*
X164888686Y-94113247D01*
X165012786Y-94412849D01*
X165012788Y-94412854D01*
X165165646Y-94698830D01*
X165165657Y-94698848D01*
X165345811Y-94968467D01*
X165345821Y-94968481D01*
X165551546Y-95219158D01*
X165780841Y-95448453D01*
X165780846Y-95448457D01*
X165780847Y-95448458D01*
X166031524Y-95654183D01*
X166301158Y-95834347D01*
X166301167Y-95834352D01*
X166301169Y-95834353D01*
X166587145Y-95987211D01*
X166587147Y-95987211D01*
X166587153Y-95987215D01*
X166886754Y-96111314D01*
X167197077Y-96205449D01*
X167197083Y-96205450D01*
X167197086Y-96205451D01*
X167197097Y-96205454D01*
X167390258Y-96243875D01*
X167515132Y-96268714D01*
X167837857Y-96300500D01*
X167837860Y-96300500D01*
X168162140Y-96300500D01*
X168162143Y-96300500D01*
X168484868Y-96268714D01*
X168664264Y-96233030D01*
X168802902Y-96205454D01*
X168802913Y-96205451D01*
X168802913Y-96205450D01*
X168802923Y-96205449D01*
X169113246Y-96111314D01*
X169412847Y-95987215D01*
X169698842Y-95834347D01*
X169968476Y-95654183D01*
X170219153Y-95448458D01*
X170251712Y-95415899D01*
X170287819Y-95379793D01*
X170349142Y-95346308D01*
X170418834Y-95351292D01*
X170474767Y-95393164D01*
X170499184Y-95458628D01*
X170499500Y-95467474D01*
X170499500Y-147532526D01*
X170479815Y-147599565D01*
X170427011Y-147645320D01*
X170357853Y-147655264D01*
X170294297Y-147626239D01*
X170287819Y-147620207D01*
X170219158Y-147551546D01*
X169968481Y-147345821D01*
X169968480Y-147345820D01*
X169968476Y-147345817D01*
X169698842Y-147165653D01*
X169698837Y-147165650D01*
X169698830Y-147165646D01*
X169412854Y-147012788D01*
X169412849Y-147012786D01*
X169367493Y-146993999D01*
X169313087Y-146971463D01*
X169113247Y-146888686D01*
X168802913Y-146794548D01*
X168802902Y-146794545D01*
X168484874Y-146731287D01*
X168484857Y-146731284D01*
X168240812Y-146707248D01*
X168162143Y-146699500D01*
X167837857Y-146699500D01*
X167765099Y-146706666D01*
X167515142Y-146731284D01*
X167515125Y-146731287D01*
X167197097Y-146794545D01*
X167197086Y-146794548D01*
X166886752Y-146888686D01*
X166587150Y-147012786D01*
X166587145Y-147012788D01*
X166301169Y-147165646D01*
X166301151Y-147165657D01*
X166031532Y-147345811D01*
X166031518Y-147345821D01*
X165780841Y-147551546D01*
X165551546Y-147780841D01*
X165345821Y-148031518D01*
X165345811Y-148031532D01*
X165165657Y-148301151D01*
X165165646Y-148301169D01*
X165012788Y-148587145D01*
X165012786Y-148587150D01*
X164888686Y-148886752D01*
X164794548Y-149197086D01*
X164794545Y-149197097D01*
X164731287Y-149515125D01*
X164731284Y-149515142D01*
X164707222Y-149759459D01*
X164699500Y-149837857D01*
X164699500Y-150162143D01*
X164701930Y-150186816D01*
X164731284Y-150484857D01*
X164731287Y-150484874D01*
X164794545Y-150802902D01*
X164794548Y-150802913D01*
X164888686Y-151113247D01*
X165012786Y-151412849D01*
X165012788Y-151412854D01*
X165165646Y-151698830D01*
X165165657Y-151698848D01*
X165345811Y-151968467D01*
X165345821Y-151968481D01*
X165551546Y-152219158D01*
X165780841Y-152448453D01*
X165780846Y-152448457D01*
X165780847Y-152448458D01*
X166031524Y-152654183D01*
X166161829Y-152741250D01*
X166208445Y-152772398D01*
X166253250Y-152826010D01*
X166261957Y-152895335D01*
X166231803Y-152958362D01*
X166172360Y-152995082D01*
X166139554Y-152999500D01*
X123155480Y-152999500D01*
X123134415Y-152995725D01*
X123089837Y-152999500D01*
X123045098Y-152999500D01*
X123035073Y-153002186D01*
X123035072Y-153002186D01*
X123024422Y-153005039D01*
X123003101Y-153006845D01*
X122961035Y-153022022D01*
X122955971Y-153023379D01*
X122955964Y-153023382D01*
X122917802Y-153033608D01*
X122908808Y-153038801D01*
X122899266Y-153044310D01*
X122879139Y-153051573D01*
X122842444Y-153077113D01*
X122837907Y-153079733D01*
X122837897Y-153079740D01*
X122803676Y-153099499D01*
X122796329Y-153106846D01*
X122796328Y-153106845D01*
X122788532Y-153114639D01*
X122770978Y-153126860D01*
X122742142Y-153161029D01*
X122738428Y-153164744D01*
X122738429Y-153164744D01*
X122710494Y-153192680D01*
X122710487Y-153192690D01*
X122705297Y-153201679D01*
X122699789Y-153211219D01*
X122685987Y-153227576D01*
X122666970Y-153268062D01*
X122664345Y-153272609D01*
X122644600Y-153306809D01*
X122644597Y-153306817D01*
X122641912Y-153316837D01*
X122634374Y-153337458D01*
X119068964Y-160928218D01*
X119022645Y-160980528D01*
X118956728Y-160999500D01*
X115144446Y-160999500D01*
X115077407Y-160979815D01*
X115031652Y-160927011D01*
X115021708Y-160857853D01*
X115050733Y-160794297D01*
X115075555Y-160772398D01*
X115252476Y-160654183D01*
X115503153Y-160448458D01*
X115732458Y-160219153D01*
X115938183Y-159968476D01*
X116118347Y-159698842D01*
X116271215Y-159412847D01*
X116395314Y-159113246D01*
X116489449Y-158802923D01*
X116489451Y-158802913D01*
X116489454Y-158802902D01*
X116521399Y-158642295D01*
X116552714Y-158484868D01*
X116584500Y-158162143D01*
X116584500Y-157837857D01*
X116552714Y-157515132D01*
X116529122Y-157396528D01*
X116489454Y-157197097D01*
X116489451Y-157197086D01*
X116489450Y-157197083D01*
X116489449Y-157197077D01*
X116395314Y-156886754D01*
X116271215Y-156587153D01*
X116118347Y-156301158D01*
X115938183Y-156031524D01*
X115732458Y-155780847D01*
X115732457Y-155780846D01*
X115732453Y-155780841D01*
X115503158Y-155551546D01*
X115252481Y-155345821D01*
X115252480Y-155345820D01*
X115252476Y-155345817D01*
X114982842Y-155165653D01*
X114982837Y-155165650D01*
X114982830Y-155165646D01*
X114696854Y-155012788D01*
X114696849Y-155012786D01*
X114397247Y-154888686D01*
X114086913Y-154794548D01*
X114086902Y-154794545D01*
X113768874Y-154731287D01*
X113768857Y-154731284D01*
X113524812Y-154707248D01*
X113446143Y-154699500D01*
X113121857Y-154699500D01*
X113049099Y-154706666D01*
X112799142Y-154731284D01*
X112799125Y-154731287D01*
X112481097Y-154794545D01*
X112481086Y-154794548D01*
X112170752Y-154888686D01*
X111871150Y-155012786D01*
X111871145Y-155012788D01*
X111585169Y-155165646D01*
X111585151Y-155165657D01*
X111315532Y-155345811D01*
X111315518Y-155345821D01*
X111064841Y-155551546D01*
X110835546Y-155780841D01*
X110629821Y-156031518D01*
X110629811Y-156031532D01*
X110449657Y-156301151D01*
X110449646Y-156301169D01*
X110296788Y-156587145D01*
X110296786Y-156587150D01*
X110213061Y-156789280D01*
X110169220Y-156843683D01*
X110102926Y-156865748D01*
X110035226Y-156848469D01*
X109987616Y-156797331D01*
X109974500Y-156741827D01*
X109974500Y-82412500D01*
X109994185Y-82345461D01*
X110046989Y-82299706D01*
X110098500Y-82288500D01*
X111761364Y-82288500D01*
X111828403Y-82308185D01*
G37*
%TD.AperFunction*%
%TA.AperFunction,Conductor*%
G36*
X132273230Y-147010185D02*
G01*
X132318985Y-147062989D01*
X132328929Y-147132147D01*
X132299904Y-147195703D01*
X132293872Y-147202181D01*
X131403871Y-148092181D01*
X131342548Y-148125666D01*
X131316190Y-148128500D01*
X130039129Y-148128500D01*
X130039123Y-148128501D01*
X129979516Y-148134908D01*
X129844671Y-148185202D01*
X129844664Y-148185206D01*
X129729455Y-148271452D01*
X129729452Y-148271455D01*
X129643206Y-148386664D01*
X129643202Y-148386671D01*
X129592908Y-148521517D01*
X129586501Y-148581116D01*
X129586500Y-148581135D01*
X129586500Y-150376870D01*
X129586501Y-150376876D01*
X129592908Y-150436483D01*
X129643202Y-150571328D01*
X129643206Y-150571335D01*
X129711220Y-150662189D01*
X129735638Y-150727653D01*
X129720787Y-150795926D01*
X129671382Y-150845332D01*
X129611954Y-150860500D01*
X122363929Y-150860500D01*
X122238261Y-150885497D01*
X122238255Y-150885499D01*
X122119874Y-150934534D01*
X122013326Y-151005726D01*
X122013325Y-151005727D01*
X120035873Y-152983181D01*
X119974550Y-153016666D01*
X119948192Y-153019500D01*
X117110808Y-153019500D01*
X117043769Y-152999815D01*
X117023127Y-152983181D01*
X115890657Y-151850711D01*
X115857172Y-151789388D01*
X115857689Y-151741245D01*
X115856484Y-151741055D01*
X115890500Y-151526286D01*
X115890500Y-151313713D01*
X115858749Y-151113247D01*
X115857246Y-151103757D01*
X115791557Y-150901588D01*
X115695051Y-150712184D01*
X115695049Y-150712181D01*
X115695048Y-150712179D01*
X115570109Y-150540213D01*
X115419786Y-150389890D01*
X115247817Y-150264949D01*
X115238504Y-150260204D01*
X115187707Y-150212230D01*
X115170912Y-150144409D01*
X115193449Y-150078274D01*
X115238507Y-150039232D01*
X115247558Y-150034620D01*
X115419459Y-149909727D01*
X115419464Y-149909723D01*
X115569723Y-149759464D01*
X115569727Y-149759459D01*
X115694620Y-149587557D01*
X115791095Y-149398217D01*
X115856757Y-149196129D01*
X115856757Y-149196126D01*
X115867231Y-149130000D01*
X114973012Y-149130000D01*
X115005925Y-149072993D01*
X115040000Y-148945826D01*
X115040000Y-148814174D01*
X115005925Y-148687007D01*
X114973012Y-148630000D01*
X115867231Y-148630000D01*
X115856757Y-148563873D01*
X115856757Y-148563870D01*
X115791095Y-148361782D01*
X115694620Y-148172442D01*
X115569727Y-148000540D01*
X115569723Y-148000535D01*
X115419464Y-147850276D01*
X115419459Y-147850272D01*
X115247555Y-147725377D01*
X115238500Y-147720763D01*
X115187706Y-147672788D01*
X115170912Y-147604966D01*
X115193451Y-147538832D01*
X115238508Y-147499793D01*
X115247816Y-147495051D01*
X115327007Y-147437515D01*
X115419786Y-147370109D01*
X115419788Y-147370106D01*
X115419792Y-147370104D01*
X115570104Y-147219792D01*
X115570106Y-147219788D01*
X115570109Y-147219786D01*
X115697915Y-147043875D01*
X115699259Y-147044851D01*
X115745705Y-147002834D01*
X115799618Y-146990500D01*
X132206191Y-146990500D01*
X132273230Y-147010185D01*
G37*
%TD.AperFunction*%
%TA.AperFunction,Conductor*%
G36*
X114074075Y-148687007D02*
G01*
X114040000Y-148814174D01*
X114040000Y-148945826D01*
X114074075Y-149072993D01*
X114106988Y-149130000D01*
X112433012Y-149130000D01*
X112465925Y-149072993D01*
X112500000Y-148945826D01*
X112500000Y-148814174D01*
X112465925Y-148687007D01*
X112433012Y-148630000D01*
X114106988Y-148630000D01*
X114074075Y-148687007D01*
G37*
%TD.AperFunction*%
%TA.AperFunction,Conductor*%
G36*
X146206231Y-102330185D02*
G01*
X146226873Y-102346819D01*
X147213181Y-103333127D01*
X147246666Y-103394450D01*
X147249500Y-103420808D01*
X147249500Y-109764070D01*
X147270671Y-109870498D01*
X147270672Y-109870502D01*
X147274499Y-109889743D01*
X147274499Y-109889744D01*
X147323534Y-110008125D01*
X147394726Y-110114673D01*
X147394727Y-110114674D01*
X149694724Y-112414669D01*
X149750555Y-112470500D01*
X149785332Y-112505277D01*
X149891866Y-112576461D01*
X149891872Y-112576464D01*
X149891873Y-112576465D01*
X150010256Y-112625501D01*
X150010260Y-112625501D01*
X150010261Y-112625502D01*
X150135928Y-112650500D01*
X150135931Y-112650500D01*
X155979192Y-112650500D01*
X156046231Y-112670185D01*
X156066873Y-112686819D01*
X157373181Y-113993127D01*
X157406666Y-114054450D01*
X157409500Y-114080808D01*
X157409500Y-114940382D01*
X157389815Y-115007421D01*
X157355408Y-115041099D01*
X157356125Y-115042085D01*
X157180213Y-115169890D01*
X157029890Y-115320213D01*
X156904949Y-115492182D01*
X156900202Y-115501499D01*
X156852227Y-115552293D01*
X156784405Y-115569087D01*
X156718271Y-115546548D01*
X156679234Y-115501495D01*
X156674626Y-115492452D01*
X156635270Y-115438282D01*
X156635269Y-115438282D01*
X156002962Y-116070590D01*
X155985925Y-116007007D01*
X155920099Y-115892993D01*
X155827007Y-115799901D01*
X155712993Y-115734075D01*
X155649409Y-115717037D01*
X156281716Y-115084728D01*
X156227550Y-115045375D01*
X156038217Y-114948904D01*
X155836129Y-114883242D01*
X155626246Y-114850000D01*
X155413754Y-114850000D01*
X155203872Y-114883242D01*
X155203869Y-114883242D01*
X155001782Y-114948904D01*
X154812439Y-115045380D01*
X154758282Y-115084727D01*
X154758282Y-115084728D01*
X155390591Y-115717037D01*
X155327007Y-115734075D01*
X155212993Y-115799901D01*
X155119901Y-115892993D01*
X155054075Y-116007007D01*
X155037037Y-116070591D01*
X154404728Y-115438282D01*
X154404727Y-115438282D01*
X154365380Y-115492439D01*
X154268904Y-115681782D01*
X154203242Y-115883869D01*
X154203242Y-115883872D01*
X154170000Y-116093753D01*
X154170000Y-116306246D01*
X154203242Y-116516127D01*
X154203242Y-116516130D01*
X154268904Y-116718217D01*
X154365375Y-116907550D01*
X154404728Y-116961716D01*
X155037037Y-116329408D01*
X155054075Y-116392993D01*
X155119901Y-116507007D01*
X155212993Y-116600099D01*
X155327007Y-116665925D01*
X155390590Y-116682962D01*
X154721195Y-117352356D01*
X154659872Y-117385841D01*
X154645167Y-117384924D01*
X154645444Y-117387497D01*
X154562626Y-117396401D01*
X154562619Y-117396403D01*
X154427913Y-117446645D01*
X154427906Y-117446649D01*
X154312812Y-117532809D01*
X154312809Y-117532812D01*
X154226649Y-117647906D01*
X154226645Y-117647913D01*
X154176403Y-117782620D01*
X154176401Y-117782627D01*
X154170000Y-117842155D01*
X154170000Y-118490000D01*
X155086988Y-118490000D01*
X155054075Y-118547007D01*
X155020000Y-118674174D01*
X155020000Y-118805826D01*
X155054075Y-118932993D01*
X155086988Y-118990000D01*
X154170000Y-118990000D01*
X154170000Y-119637844D01*
X154176401Y-119697372D01*
X154176403Y-119697379D01*
X154226645Y-119832086D01*
X154226649Y-119832093D01*
X154312809Y-119947187D01*
X154312812Y-119947190D01*
X154427906Y-120033350D01*
X154427913Y-120033354D01*
X154562620Y-120083596D01*
X154562627Y-120083598D01*
X154622155Y-120089999D01*
X154622172Y-120090000D01*
X155270000Y-120090000D01*
X155270000Y-119173012D01*
X155327007Y-119205925D01*
X155454174Y-119240000D01*
X155585826Y-119240000D01*
X155712993Y-119205925D01*
X155770000Y-119173012D01*
X155770000Y-120090000D01*
X156417828Y-120090000D01*
X156417844Y-120089999D01*
X156477372Y-120083598D01*
X156477379Y-120083596D01*
X156612086Y-120033354D01*
X156612093Y-120033350D01*
X156727187Y-119947190D01*
X156727190Y-119947187D01*
X156813350Y-119832093D01*
X156813354Y-119832086D01*
X156862422Y-119700529D01*
X156904293Y-119644595D01*
X156969757Y-119620178D01*
X157038030Y-119635030D01*
X157066285Y-119656181D01*
X157180208Y-119770104D01*
X157352184Y-119895051D01*
X157352188Y-119895053D01*
X157356126Y-119897914D01*
X157355146Y-119899262D01*
X157397160Y-119945690D01*
X157409500Y-119999617D01*
X157409500Y-139688192D01*
X157389815Y-139755231D01*
X157373181Y-139775873D01*
X150261873Y-146887181D01*
X150200550Y-146920666D01*
X150174192Y-146923500D01*
X146489371Y-146923500D01*
X146422332Y-146903815D01*
X146376577Y-146851011D01*
X146366633Y-146781853D01*
X146395658Y-146718297D01*
X146401690Y-146711819D01*
X149857271Y-143256237D01*
X149857276Y-143256232D01*
X149928465Y-143149689D01*
X149977501Y-143031306D01*
X149990333Y-142966796D01*
X150002500Y-142905631D01*
X150002500Y-120647931D01*
X150002500Y-120647928D01*
X149983475Y-120552287D01*
X149977501Y-120522256D01*
X149954235Y-120466086D01*
X149928466Y-120403874D01*
X149857277Y-120297331D01*
X149857272Y-120297325D01*
X148586266Y-119026319D01*
X145736508Y-116176562D01*
X144307137Y-114747191D01*
X144273652Y-114685868D01*
X144272345Y-114640112D01*
X144284051Y-114566204D01*
X144300500Y-114462352D01*
X144300500Y-114257648D01*
X144268477Y-114055466D01*
X144205220Y-113860781D01*
X144205218Y-113860778D01*
X144205218Y-113860776D01*
X144171503Y-113794607D01*
X144112287Y-113678390D01*
X144067148Y-113616261D01*
X143991971Y-113512786D01*
X143847213Y-113368028D01*
X143681614Y-113247715D01*
X143675006Y-113244348D01*
X143588917Y-113200483D01*
X143538123Y-113152511D01*
X143521328Y-113084690D01*
X143543865Y-113018555D01*
X143588917Y-112979516D01*
X143681610Y-112932287D01*
X143702770Y-112916913D01*
X143847213Y-112811971D01*
X143847215Y-112811968D01*
X143847219Y-112811966D01*
X143991966Y-112667219D01*
X143991968Y-112667215D01*
X143991971Y-112667213D01*
X144057905Y-112576461D01*
X144112287Y-112501610D01*
X144205220Y-112319219D01*
X144268477Y-112124534D01*
X144300500Y-111922352D01*
X144300500Y-111717648D01*
X144268477Y-111515466D01*
X144205220Y-111320781D01*
X144205218Y-111320778D01*
X144205218Y-111320776D01*
X144154489Y-111221216D01*
X144112287Y-111138390D01*
X144097753Y-111118385D01*
X143991971Y-110972786D01*
X143847213Y-110828028D01*
X143681614Y-110707715D01*
X143673410Y-110703535D01*
X143595703Y-110663941D01*
X143544908Y-110615968D01*
X143528113Y-110548147D01*
X143550650Y-110482012D01*
X143593546Y-110444099D01*
X143659493Y-110408849D01*
X143659511Y-110408838D01*
X143728912Y-110362465D01*
X143129409Y-109762962D01*
X143192993Y-109745925D01*
X143307007Y-109680099D01*
X143400099Y-109587007D01*
X143465925Y-109472993D01*
X143482962Y-109409409D01*
X144082465Y-110008912D01*
X144128838Y-109939511D01*
X144128844Y-109939501D01*
X144175509Y-109852198D01*
X144235814Y-109706612D01*
X144264555Y-109611864D01*
X144295298Y-109457302D01*
X144295298Y-109457299D01*
X144305000Y-109358789D01*
X144305000Y-109201210D01*
X144295298Y-109102700D01*
X144295298Y-109102697D01*
X144264555Y-108948135D01*
X144235814Y-108853387D01*
X144175509Y-108707801D01*
X144128841Y-108620493D01*
X144082465Y-108551086D01*
X144082465Y-108551085D01*
X143482962Y-109150589D01*
X143465925Y-109087007D01*
X143400099Y-108972993D01*
X143307007Y-108879901D01*
X143192993Y-108814075D01*
X143129410Y-108797037D01*
X143728913Y-108197534D01*
X143728912Y-108197533D01*
X143659506Y-108151158D01*
X143593545Y-108115900D01*
X143543701Y-108066937D01*
X143528241Y-107998799D01*
X143552073Y-107933119D01*
X143595702Y-107896059D01*
X143681610Y-107852287D01*
X143770415Y-107787767D01*
X143847213Y-107731971D01*
X143847215Y-107731968D01*
X143847219Y-107731966D01*
X143991966Y-107587219D01*
X143991968Y-107587215D01*
X143991971Y-107587213D01*
X144086829Y-107456650D01*
X144112287Y-107421610D01*
X144205220Y-107239219D01*
X144268477Y-107044534D01*
X144300500Y-106842352D01*
X144300500Y-106637648D01*
X144268477Y-106435466D01*
X144205220Y-106240781D01*
X144205218Y-106240778D01*
X144205218Y-106240776D01*
X144123833Y-106081051D01*
X144112287Y-106058390D01*
X144081663Y-106016239D01*
X143991971Y-105892786D01*
X143847213Y-105748028D01*
X143681614Y-105627715D01*
X143614881Y-105593713D01*
X143588917Y-105580483D01*
X143538123Y-105532511D01*
X143521328Y-105464690D01*
X143543865Y-105398555D01*
X143588917Y-105359516D01*
X143681610Y-105312287D01*
X143783378Y-105238349D01*
X143847213Y-105191971D01*
X143847215Y-105191968D01*
X143847219Y-105191966D01*
X143991966Y-105047219D01*
X143991968Y-105047215D01*
X143991971Y-105047213D01*
X144044732Y-104974590D01*
X144112287Y-104881610D01*
X144205220Y-104699219D01*
X144268477Y-104504534D01*
X144300500Y-104302352D01*
X144300500Y-104097648D01*
X144291284Y-104039459D01*
X144268477Y-103895465D01*
X144224613Y-103760466D01*
X144205220Y-103700781D01*
X144205218Y-103700778D01*
X144205218Y-103700776D01*
X144167079Y-103625925D01*
X144112287Y-103518390D01*
X144081581Y-103476126D01*
X143991971Y-103352786D01*
X143847213Y-103208028D01*
X143681614Y-103087715D01*
X143675006Y-103084348D01*
X143588917Y-103040483D01*
X143538123Y-102992511D01*
X143521328Y-102924690D01*
X143543865Y-102858555D01*
X143588917Y-102819516D01*
X143681610Y-102772287D01*
X143702770Y-102756913D01*
X143847213Y-102651971D01*
X143847215Y-102651968D01*
X143847219Y-102651966D01*
X143991966Y-102507219D01*
X144097753Y-102361613D01*
X144153082Y-102318949D01*
X144198071Y-102310500D01*
X146139192Y-102310500D01*
X146206231Y-102330185D01*
G37*
%TD.AperFunction*%
%TA.AperFunction,Conductor*%
G36*
X116205231Y-138084185D02*
G01*
X116225873Y-138100819D01*
X120596873Y-142471819D01*
X120630358Y-142533142D01*
X120625374Y-142602834D01*
X120583502Y-142658767D01*
X120518038Y-142683184D01*
X120509192Y-142683500D01*
X119474808Y-142683500D01*
X119407769Y-142663815D01*
X119387127Y-142647181D01*
X115890657Y-139150711D01*
X115857172Y-139089388D01*
X115857689Y-139041245D01*
X115856484Y-139041055D01*
X115890500Y-138826286D01*
X115890500Y-138613713D01*
X115888405Y-138600485D01*
X115857246Y-138403757D01*
X115799753Y-138226815D01*
X115798950Y-138198697D01*
X115794947Y-138170853D01*
X115797966Y-138164241D01*
X115797759Y-138156977D01*
X115812285Y-138132887D01*
X115823972Y-138107297D01*
X115830085Y-138103367D01*
X115833839Y-138097144D01*
X115859085Y-138084731D01*
X115882750Y-138069523D01*
X115893020Y-138068046D01*
X115896540Y-138066316D01*
X115917685Y-138064500D01*
X116138192Y-138064500D01*
X116205231Y-138084185D01*
G37*
%TD.AperFunction*%
%TA.AperFunction,Conductor*%
G36*
X144505703Y-139646095D02*
G01*
X144512181Y-139652127D01*
X145363181Y-140503127D01*
X145396666Y-140564450D01*
X145399500Y-140590808D01*
X145399500Y-141411192D01*
X145379815Y-141478231D01*
X145363181Y-141498873D01*
X144214873Y-142647181D01*
X144153550Y-142680666D01*
X144127192Y-142683500D01*
X141295808Y-142683500D01*
X141228769Y-142663815D01*
X141183014Y-142611011D01*
X141173070Y-142541853D01*
X141202095Y-142478297D01*
X141208127Y-142471819D01*
X141540160Y-142139786D01*
X142612809Y-141067135D01*
X142674130Y-141033652D01*
X142719886Y-141032345D01*
X142816719Y-141047681D01*
X142897648Y-141060500D01*
X142897649Y-141060500D01*
X143102351Y-141060500D01*
X143102352Y-141060500D01*
X143304534Y-141028477D01*
X143499219Y-140965220D01*
X143681610Y-140872287D01*
X143774590Y-140804732D01*
X143847213Y-140751971D01*
X143847215Y-140751968D01*
X143847219Y-140751966D01*
X143991966Y-140607219D01*
X143991968Y-140607215D01*
X143991971Y-140607213D01*
X144044732Y-140534590D01*
X144112287Y-140441610D01*
X144205220Y-140259219D01*
X144268477Y-140064534D01*
X144300500Y-139862352D01*
X144300500Y-139739808D01*
X144320185Y-139672769D01*
X144372989Y-139627014D01*
X144442147Y-139617070D01*
X144505703Y-139646095D01*
G37*
%TD.AperFunction*%
%TA.AperFunction,Conductor*%
G36*
X144510203Y-134570595D02*
G01*
X144516681Y-134576627D01*
X146125181Y-136185127D01*
X146158666Y-136246450D01*
X146161500Y-136272808D01*
X146161500Y-139162192D01*
X146141815Y-139229231D01*
X146089011Y-139274986D01*
X146019853Y-139284930D01*
X145956297Y-139255905D01*
X145949819Y-139249873D01*
X144307137Y-137607191D01*
X144273652Y-137545868D01*
X144272345Y-137500112D01*
X144284051Y-137426204D01*
X144300500Y-137322352D01*
X144300500Y-137117648D01*
X144268477Y-136915466D01*
X144266287Y-136908727D01*
X144205218Y-136720776D01*
X144123833Y-136561051D01*
X144112287Y-136538390D01*
X144097753Y-136518385D01*
X143991971Y-136372786D01*
X143847213Y-136228028D01*
X143681614Y-136107715D01*
X143673410Y-136103535D01*
X143595703Y-136063941D01*
X143544908Y-136015968D01*
X143528113Y-135948147D01*
X143550650Y-135882012D01*
X143593546Y-135844099D01*
X143659493Y-135808849D01*
X143659511Y-135808838D01*
X143728912Y-135762465D01*
X143129409Y-135162962D01*
X143192993Y-135145925D01*
X143307007Y-135080099D01*
X143400099Y-134987007D01*
X143465925Y-134872993D01*
X143482962Y-134809409D01*
X144082465Y-135408912D01*
X144128838Y-135339511D01*
X144128844Y-135339501D01*
X144175509Y-135252198D01*
X144235814Y-135106612D01*
X144264555Y-135011864D01*
X144295298Y-134857302D01*
X144295298Y-134857299D01*
X144305000Y-134758789D01*
X144305000Y-134664308D01*
X144324685Y-134597269D01*
X144377489Y-134551514D01*
X144446647Y-134541570D01*
X144510203Y-134570595D01*
G37*
%TD.AperFunction*%
%TA.AperFunction,Conductor*%
G36*
X118711703Y-134618095D02*
G01*
X118718181Y-134624127D01*
X121819324Y-137725271D01*
X121819327Y-137725274D01*
X121819330Y-137725276D01*
X121875066Y-137762517D01*
X121925873Y-137796465D01*
X122044256Y-137845501D01*
X122044260Y-137845501D01*
X122044261Y-137845502D01*
X122169928Y-137870500D01*
X122169931Y-137870500D01*
X124021929Y-137870500D01*
X124088968Y-137890185D01*
X124122245Y-137921613D01*
X124226059Y-138064500D01*
X124228034Y-138067219D01*
X124372786Y-138211971D01*
X124527749Y-138324556D01*
X124538390Y-138332287D01*
X124629840Y-138378883D01*
X124631080Y-138379515D01*
X124681876Y-138427490D01*
X124698671Y-138495311D01*
X124676134Y-138561446D01*
X124631080Y-138600485D01*
X124538386Y-138647715D01*
X124372786Y-138768028D01*
X124228034Y-138912780D01*
X124228030Y-138912786D01*
X124122246Y-139058386D01*
X124066918Y-139101051D01*
X124021929Y-139109500D01*
X122300808Y-139109500D01*
X122233769Y-139089815D01*
X122213127Y-139073181D01*
X118542819Y-135402873D01*
X118509334Y-135341550D01*
X118506500Y-135315192D01*
X118506500Y-134711808D01*
X118526185Y-134644769D01*
X118578989Y-134599014D01*
X118648147Y-134589070D01*
X118711703Y-134618095D01*
G37*
%TD.AperFunction*%
%TA.AperFunction,Conductor*%
G36*
X119473703Y-130554095D02*
G01*
X119480181Y-130560127D01*
X121565324Y-132645271D01*
X121565331Y-132645277D01*
X121671871Y-132716464D01*
X121671870Y-132716464D01*
X121706544Y-132730826D01*
X121790256Y-132765501D01*
X121790260Y-132765501D01*
X121790261Y-132765502D01*
X121915928Y-132790500D01*
X121915931Y-132790500D01*
X124021929Y-132790500D01*
X124088968Y-132810185D01*
X124122245Y-132841613D01*
X124228030Y-132987213D01*
X124228034Y-132987219D01*
X124372786Y-133131971D01*
X124538388Y-133252286D01*
X124538390Y-133252287D01*
X124624294Y-133296057D01*
X124675090Y-133344031D01*
X124691886Y-133411852D01*
X124669349Y-133477987D01*
X124626455Y-133515899D01*
X124560494Y-133551157D01*
X124560489Y-133551160D01*
X124491086Y-133597532D01*
X124491085Y-133597533D01*
X125090590Y-134197037D01*
X125027007Y-134214075D01*
X124912993Y-134279901D01*
X124819901Y-134372993D01*
X124754075Y-134487007D01*
X124737037Y-134550589D01*
X124137533Y-133951085D01*
X124137532Y-133951086D01*
X124091161Y-134020488D01*
X124044490Y-134107801D01*
X123984185Y-134253387D01*
X123955444Y-134348135D01*
X123924701Y-134502697D01*
X123924701Y-134502700D01*
X123915000Y-134601210D01*
X123915000Y-134758789D01*
X123924701Y-134857299D01*
X123924701Y-134857302D01*
X123955444Y-135011864D01*
X123984185Y-135106612D01*
X124044490Y-135252198D01*
X124091158Y-135339506D01*
X124137533Y-135408912D01*
X124137534Y-135408913D01*
X124737037Y-134809409D01*
X124754075Y-134872993D01*
X124819901Y-134987007D01*
X124912993Y-135080099D01*
X125027007Y-135145925D01*
X125090590Y-135162962D01*
X124491085Y-135762465D01*
X124560493Y-135808841D01*
X124626454Y-135844099D01*
X124676298Y-135893062D01*
X124691758Y-135961200D01*
X124667926Y-136026879D01*
X124624295Y-136063942D01*
X124538386Y-136107715D01*
X124372786Y-136228028D01*
X124228034Y-136372780D01*
X124228030Y-136372786D01*
X124122246Y-136518386D01*
X124066918Y-136561051D01*
X124021929Y-136569500D01*
X122554808Y-136569500D01*
X122487769Y-136549815D01*
X122467127Y-136533181D01*
X119304819Y-133370873D01*
X119271334Y-133309550D01*
X119268500Y-133283192D01*
X119268500Y-130647808D01*
X119288185Y-130580769D01*
X119340989Y-130535014D01*
X119410147Y-130525070D01*
X119473703Y-130554095D01*
G37*
%TD.AperFunction*%
%TA.AperFunction,Conductor*%
G36*
X120235703Y-127760095D02*
G01*
X120242181Y-127766127D01*
X122581324Y-130105271D01*
X122581327Y-130105274D01*
X122637980Y-130143128D01*
X122687866Y-130176461D01*
X122687872Y-130176464D01*
X122687873Y-130176465D01*
X122806256Y-130225501D01*
X122806260Y-130225501D01*
X122806261Y-130225502D01*
X122931928Y-130250500D01*
X122931931Y-130250500D01*
X124021929Y-130250500D01*
X124088968Y-130270185D01*
X124122245Y-130301613D01*
X124156272Y-130348446D01*
X124228034Y-130447219D01*
X124372786Y-130591971D01*
X124527749Y-130704556D01*
X124538390Y-130712287D01*
X124629840Y-130758883D01*
X124631080Y-130759515D01*
X124681876Y-130807490D01*
X124698671Y-130875311D01*
X124676134Y-130941446D01*
X124631080Y-130980485D01*
X124538386Y-131027715D01*
X124372786Y-131148028D01*
X124228034Y-131292780D01*
X124228030Y-131292786D01*
X124122246Y-131438386D01*
X124066918Y-131481051D01*
X124021929Y-131489500D01*
X122300808Y-131489500D01*
X122233769Y-131469815D01*
X122213127Y-131453181D01*
X120066819Y-129306873D01*
X120033334Y-129245550D01*
X120030500Y-129219192D01*
X120030500Y-127853808D01*
X120050185Y-127786769D01*
X120102989Y-127741014D01*
X120172147Y-127731070D01*
X120235703Y-127760095D01*
G37*
%TD.AperFunction*%
%TA.AperFunction,Conductor*%
G36*
X121251703Y-125728096D02*
G01*
X121258181Y-125734128D01*
X123089325Y-127565272D01*
X123089332Y-127565278D01*
X123195863Y-127636459D01*
X123195865Y-127636460D01*
X123195874Y-127636466D01*
X123229756Y-127650500D01*
X123314256Y-127685501D01*
X123314260Y-127685501D01*
X123314261Y-127685502D01*
X123439928Y-127710500D01*
X123439931Y-127710500D01*
X123439932Y-127710500D01*
X123568069Y-127710500D01*
X124021929Y-127710500D01*
X124088968Y-127730185D01*
X124122245Y-127761613D01*
X124188048Y-127852182D01*
X124228034Y-127907219D01*
X124372786Y-128051971D01*
X124527749Y-128164556D01*
X124538390Y-128172287D01*
X124629840Y-128218883D01*
X124631080Y-128219515D01*
X124681876Y-128267490D01*
X124698671Y-128335311D01*
X124676134Y-128401446D01*
X124631080Y-128440485D01*
X124538386Y-128487715D01*
X124372786Y-128608028D01*
X124228034Y-128752780D01*
X124228030Y-128752786D01*
X124122246Y-128898386D01*
X124066918Y-128941051D01*
X124021929Y-128949500D01*
X123316808Y-128949500D01*
X123249769Y-128929815D01*
X123229127Y-128913181D01*
X121082819Y-126766873D01*
X121049334Y-126705550D01*
X121046500Y-126679192D01*
X121046500Y-125821809D01*
X121066185Y-125754770D01*
X121118989Y-125709015D01*
X121188147Y-125699071D01*
X121251703Y-125728096D01*
G37*
%TD.AperFunction*%
%TA.AperFunction,Conductor*%
G36*
X144510203Y-121870595D02*
G01*
X144516681Y-121876627D01*
X148157181Y-125517127D01*
X148190666Y-125578450D01*
X148193500Y-125604808D01*
X148193500Y-128494192D01*
X148173815Y-128561231D01*
X148121011Y-128606986D01*
X148051853Y-128616930D01*
X147988297Y-128587905D01*
X147981819Y-128581873D01*
X144307137Y-124907191D01*
X144273652Y-124845868D01*
X144272345Y-124800112D01*
X144279397Y-124755587D01*
X144300500Y-124622352D01*
X144300500Y-124417648D01*
X144268477Y-124215466D01*
X144258212Y-124183875D01*
X144205218Y-124020776D01*
X144154986Y-123922192D01*
X144112287Y-123838390D01*
X144081663Y-123796239D01*
X143991971Y-123672786D01*
X143847213Y-123528028D01*
X143681614Y-123407715D01*
X143614881Y-123373713D01*
X143595703Y-123363941D01*
X143544908Y-123315968D01*
X143528113Y-123248147D01*
X143550650Y-123182012D01*
X143593546Y-123144099D01*
X143659493Y-123108849D01*
X143659511Y-123108838D01*
X143728912Y-123062465D01*
X143129409Y-122462962D01*
X143192993Y-122445925D01*
X143307007Y-122380099D01*
X143400099Y-122287007D01*
X143465925Y-122172993D01*
X143482962Y-122109409D01*
X144082465Y-122708912D01*
X144128838Y-122639511D01*
X144128844Y-122639501D01*
X144175509Y-122552198D01*
X144235814Y-122406612D01*
X144264555Y-122311864D01*
X144295298Y-122157302D01*
X144295298Y-122157299D01*
X144305000Y-122058789D01*
X144305000Y-121964308D01*
X144324685Y-121897269D01*
X144377489Y-121851514D01*
X144446647Y-121841570D01*
X144510203Y-121870595D01*
G37*
%TD.AperFunction*%
%TA.AperFunction,Conductor*%
G36*
X122521703Y-123950095D02*
G01*
X122528181Y-123956127D01*
X123597324Y-125025271D01*
X123597327Y-125025274D01*
X123687465Y-125085502D01*
X123687464Y-125085502D01*
X123703871Y-125096464D01*
X123703872Y-125096464D01*
X123703873Y-125096465D01*
X123822256Y-125145501D01*
X123822260Y-125145501D01*
X123822261Y-125145502D01*
X123947928Y-125170500D01*
X123947931Y-125170500D01*
X124021929Y-125170500D01*
X124088968Y-125190185D01*
X124122245Y-125221613D01*
X124171066Y-125288808D01*
X124228034Y-125367219D01*
X124372786Y-125511971D01*
X124500568Y-125604808D01*
X124538390Y-125632287D01*
X124629840Y-125678883D01*
X124631080Y-125679515D01*
X124681876Y-125727490D01*
X124698671Y-125795311D01*
X124676134Y-125861446D01*
X124631080Y-125900485D01*
X124538386Y-125947715D01*
X124372786Y-126068028D01*
X124228034Y-126212780D01*
X124186462Y-126270000D01*
X124122246Y-126358386D01*
X124117914Y-126361726D01*
X124115642Y-126366703D01*
X124090545Y-126382831D01*
X124066918Y-126401051D01*
X124060244Y-126402304D01*
X124056864Y-126404477D01*
X124021929Y-126409500D01*
X123824808Y-126409500D01*
X123757769Y-126389815D01*
X123737127Y-126373181D01*
X122352819Y-124988873D01*
X122319334Y-124927550D01*
X122316500Y-124901192D01*
X122316500Y-124043808D01*
X122336185Y-123976769D01*
X122388989Y-123931014D01*
X122458147Y-123921070D01*
X122521703Y-123950095D01*
G37*
%TD.AperFunction*%
%TA.AperFunction,Conductor*%
G36*
X114074075Y-125827007D02*
G01*
X114040000Y-125954174D01*
X114040000Y-126085826D01*
X114074075Y-126212993D01*
X114106988Y-126270000D01*
X112433012Y-126270000D01*
X112465925Y-126212993D01*
X112500000Y-126085826D01*
X112500000Y-125954174D01*
X112465925Y-125827007D01*
X112433012Y-125770000D01*
X114106988Y-125770000D01*
X114074075Y-125827007D01*
G37*
%TD.AperFunction*%
%TA.AperFunction,Conductor*%
G36*
X144505703Y-116786095D02*
G01*
X144512181Y-116792127D01*
X148665181Y-120945127D01*
X148698666Y-121006450D01*
X148701500Y-121032808D01*
X148701500Y-123922192D01*
X148681815Y-123989231D01*
X148629011Y-124034986D01*
X148559853Y-124044930D01*
X148496297Y-124015905D01*
X148489819Y-124009873D01*
X144307137Y-119827191D01*
X144273652Y-119765868D01*
X144272345Y-119720112D01*
X144288173Y-119620178D01*
X144300500Y-119542352D01*
X144300500Y-119337648D01*
X144268477Y-119135466D01*
X144205220Y-118940781D01*
X144205218Y-118940778D01*
X144205218Y-118940776D01*
X144157072Y-118846286D01*
X144112287Y-118758390D01*
X144081663Y-118716239D01*
X143991971Y-118592786D01*
X143847213Y-118448028D01*
X143681614Y-118327715D01*
X143614881Y-118293713D01*
X143588917Y-118280483D01*
X143538123Y-118232511D01*
X143521328Y-118164690D01*
X143543865Y-118098555D01*
X143588917Y-118059516D01*
X143681610Y-118012287D01*
X143702770Y-117996913D01*
X143847213Y-117891971D01*
X143847215Y-117891968D01*
X143847219Y-117891966D01*
X143991966Y-117747219D01*
X143991968Y-117747215D01*
X143991971Y-117747213D01*
X144064115Y-117647913D01*
X144112287Y-117581610D01*
X144205220Y-117399219D01*
X144268477Y-117204534D01*
X144300500Y-117002352D01*
X144300500Y-116879808D01*
X144320185Y-116812769D01*
X144372989Y-116767014D01*
X144442147Y-116757070D01*
X144505703Y-116786095D01*
G37*
%TD.AperFunction*%
%TA.AperFunction,Conductor*%
G36*
X124088968Y-120110185D02*
G01*
X124122245Y-120141613D01*
X124188049Y-120232184D01*
X124228034Y-120287219D01*
X124372786Y-120431971D01*
X124538388Y-120552286D01*
X124538390Y-120552287D01*
X124624294Y-120596057D01*
X124675090Y-120644031D01*
X124691886Y-120711852D01*
X124669349Y-120777987D01*
X124626455Y-120815899D01*
X124560494Y-120851157D01*
X124560489Y-120851160D01*
X124491086Y-120897532D01*
X124491085Y-120897533D01*
X125090590Y-121497037D01*
X125027007Y-121514075D01*
X124912993Y-121579901D01*
X124819901Y-121672993D01*
X124754075Y-121787007D01*
X124737037Y-121850590D01*
X124137533Y-121251085D01*
X124137532Y-121251086D01*
X124091161Y-121320488D01*
X124044490Y-121407801D01*
X123984185Y-121553387D01*
X123955444Y-121648135D01*
X123924701Y-121802697D01*
X123924701Y-121802700D01*
X123915000Y-121901210D01*
X123915000Y-122058789D01*
X123924701Y-122157299D01*
X123924701Y-122157302D01*
X123955444Y-122311864D01*
X123984185Y-122406612D01*
X124044490Y-122552198D01*
X124091155Y-122639501D01*
X124091167Y-122639521D01*
X124178704Y-122770530D01*
X124178708Y-122770536D01*
X124241514Y-122847064D01*
X124352935Y-122958485D01*
X124429463Y-123021291D01*
X124429469Y-123021295D01*
X124560478Y-123108832D01*
X124560498Y-123108844D01*
X124626454Y-123144099D01*
X124676298Y-123193062D01*
X124691758Y-123261200D01*
X124667926Y-123326879D01*
X124624295Y-123363942D01*
X124538386Y-123407715D01*
X124372788Y-123528027D01*
X124244061Y-123656754D01*
X124182738Y-123690238D01*
X124113046Y-123685254D01*
X124068699Y-123656753D01*
X123114819Y-122702873D01*
X123081334Y-122641550D01*
X123078500Y-122615192D01*
X123078500Y-120839928D01*
X123053502Y-120714261D01*
X123053501Y-120714260D01*
X123053501Y-120714256D01*
X123004465Y-120595873D01*
X122975342Y-120552287D01*
X122955280Y-120522262D01*
X122933275Y-120489328D01*
X122746128Y-120302181D01*
X122712643Y-120240858D01*
X122717627Y-120171166D01*
X122759499Y-120115233D01*
X122824963Y-120090816D01*
X122833809Y-120090500D01*
X124021929Y-120090500D01*
X124088968Y-120110185D01*
G37*
%TD.AperFunction*%
%TA.AperFunction,Conductor*%
G36*
X119380231Y-113700185D02*
G01*
X119400873Y-113716819D01*
X123089326Y-117405273D01*
X123089334Y-117405279D01*
X123158594Y-117451557D01*
X123158595Y-117451557D01*
X123195873Y-117476465D01*
X123314256Y-117525501D01*
X123314260Y-117525501D01*
X123314261Y-117525502D01*
X123439928Y-117550500D01*
X123439931Y-117550500D01*
X124021929Y-117550500D01*
X124088968Y-117570185D01*
X124122245Y-117601613D01*
X124226059Y-117744500D01*
X124228034Y-117747219D01*
X124372786Y-117891971D01*
X124527749Y-118004556D01*
X124538390Y-118012287D01*
X124629840Y-118058883D01*
X124631080Y-118059515D01*
X124681876Y-118107490D01*
X124698671Y-118175311D01*
X124676134Y-118241446D01*
X124631080Y-118280485D01*
X124538386Y-118327715D01*
X124372786Y-118448028D01*
X124228034Y-118592780D01*
X124198295Y-118633713D01*
X124122246Y-118738386D01*
X124066918Y-118781051D01*
X124021929Y-118789500D01*
X123062808Y-118789500D01*
X122995769Y-118769815D01*
X122975127Y-118753181D01*
X119576674Y-115354727D01*
X119576673Y-115354726D01*
X119572550Y-115351971D01*
X119470127Y-115283535D01*
X119351744Y-115234499D01*
X119351738Y-115234497D01*
X119226071Y-115209500D01*
X119226069Y-115209500D01*
X115799618Y-115209500D01*
X115732579Y-115189815D01*
X115698900Y-115155408D01*
X115697915Y-115156125D01*
X115570109Y-114980213D01*
X115419786Y-114829890D01*
X115247820Y-114704951D01*
X115058414Y-114608444D01*
X115058413Y-114608443D01*
X115058412Y-114608443D01*
X114856243Y-114542754D01*
X114856241Y-114542753D01*
X114856240Y-114542753D01*
X114694957Y-114517208D01*
X114646287Y-114509500D01*
X114433713Y-114509500D01*
X114385042Y-114517208D01*
X114223760Y-114542753D01*
X114021585Y-114608444D01*
X113832179Y-114704951D01*
X113660215Y-114829889D01*
X113546673Y-114943431D01*
X113485350Y-114976915D01*
X113415658Y-114971931D01*
X113359725Y-114930059D01*
X113342810Y-114899082D01*
X113293797Y-114767671D01*
X113293793Y-114767664D01*
X113207547Y-114652455D01*
X113207544Y-114652452D01*
X113092335Y-114566206D01*
X113092328Y-114566202D01*
X112957482Y-114515908D01*
X112957483Y-114515908D01*
X112897883Y-114509501D01*
X112897881Y-114509500D01*
X112897873Y-114509500D01*
X112897865Y-114509500D01*
X112774500Y-114509500D01*
X112707461Y-114489815D01*
X112661706Y-114437011D01*
X112650500Y-114385500D01*
X112650500Y-114126808D01*
X112670185Y-114059769D01*
X112686819Y-114039127D01*
X113009127Y-113716819D01*
X113070450Y-113683334D01*
X113096808Y-113680500D01*
X119313192Y-113680500D01*
X119380231Y-113700185D01*
G37*
%TD.AperFunction*%
%TA.AperFunction,Conductor*%
G36*
X156635270Y-116961717D02*
G01*
X156635270Y-116961716D01*
X156674622Y-116907555D01*
X156679232Y-116898507D01*
X156727205Y-116847709D01*
X156795025Y-116830912D01*
X156861161Y-116853447D01*
X156900204Y-116898504D01*
X156904949Y-116907817D01*
X157029890Y-117079786D01*
X157029896Y-117079792D01*
X157180208Y-117230104D01*
X157352184Y-117355051D01*
X157352188Y-117355053D01*
X157356126Y-117357914D01*
X157355146Y-117359262D01*
X157357250Y-117361587D01*
X157366703Y-117365904D01*
X157380293Y-117387050D01*
X157397160Y-117405690D01*
X157399863Y-117417502D01*
X157404477Y-117424682D01*
X157409500Y-117459617D01*
X157409500Y-117480382D01*
X157389815Y-117547421D01*
X157355408Y-117581099D01*
X157356125Y-117582085D01*
X157180215Y-117709889D01*
X157066285Y-117823819D01*
X157004962Y-117857303D01*
X156935270Y-117852319D01*
X156879337Y-117810447D01*
X156862422Y-117779470D01*
X156813354Y-117647913D01*
X156813350Y-117647906D01*
X156727190Y-117532812D01*
X156727187Y-117532809D01*
X156612093Y-117446649D01*
X156612086Y-117446645D01*
X156477380Y-117396403D01*
X156477373Y-117396401D01*
X156394555Y-117387497D01*
X156394884Y-117384431D01*
X156377875Y-117385330D01*
X156318803Y-117352356D01*
X155649408Y-116682962D01*
X155712993Y-116665925D01*
X155827007Y-116600099D01*
X155920099Y-116507007D01*
X155985925Y-116392993D01*
X156002962Y-116329408D01*
X156635270Y-116961717D01*
G37*
%TD.AperFunction*%
%TA.AperFunction,Conductor*%
G36*
X136705231Y-103720185D02*
G01*
X136725873Y-103736819D01*
X140234325Y-107245272D01*
X140234332Y-107245278D01*
X140336484Y-107313533D01*
X140340870Y-107316463D01*
X140340873Y-107316465D01*
X140459256Y-107365501D01*
X140459260Y-107365501D01*
X140459261Y-107365502D01*
X140584928Y-107390500D01*
X140584931Y-107390500D01*
X141801929Y-107390500D01*
X141868968Y-107410185D01*
X141902245Y-107441613D01*
X141913171Y-107456650D01*
X142008034Y-107587219D01*
X142152782Y-107731967D01*
X142152787Y-107731971D01*
X142229583Y-107787767D01*
X142272249Y-107843097D01*
X142278228Y-107912710D01*
X142245622Y-107974505D01*
X142187365Y-108008233D01*
X142166967Y-108013439D01*
X142166956Y-108013442D01*
X142110415Y-108036862D01*
X142870590Y-108797037D01*
X142807007Y-108814075D01*
X142692993Y-108879901D01*
X142599901Y-108972993D01*
X142534075Y-109087007D01*
X142517037Y-109150589D01*
X141756862Y-108390415D01*
X141733449Y-108446940D01*
X141715455Y-108497946D01*
X141695000Y-108640219D01*
X141695000Y-109919785D01*
X141697893Y-109973762D01*
X141697893Y-109973764D01*
X141733438Y-110113030D01*
X141733440Y-110113037D01*
X141756863Y-110169583D01*
X142517037Y-109409409D01*
X142534075Y-109472993D01*
X142599901Y-109587007D01*
X142692993Y-109680099D01*
X142807007Y-109745925D01*
X142870590Y-109762962D01*
X142110415Y-110523135D01*
X142110415Y-110523136D01*
X142166954Y-110546556D01*
X142166961Y-110546558D01*
X142195621Y-110556669D01*
X142252294Y-110597534D01*
X142277876Y-110662552D01*
X142264246Y-110731080D01*
X142227256Y-110773924D01*
X142152782Y-110828032D01*
X142008034Y-110972780D01*
X142008030Y-110972786D01*
X141902246Y-111118386D01*
X141846918Y-111161051D01*
X141801929Y-111169500D01*
X141223808Y-111169500D01*
X141156769Y-111149815D01*
X141136127Y-111133181D01*
X138726416Y-108723470D01*
X134847674Y-104844727D01*
X134847673Y-104844726D01*
X134847669Y-104844723D01*
X134741127Y-104773535D01*
X134622744Y-104724499D01*
X134622738Y-104724497D01*
X134497071Y-104699500D01*
X134497069Y-104699500D01*
X126595801Y-104699500D01*
X126528762Y-104679815D01*
X126483007Y-104627011D01*
X126473063Y-104557853D01*
X126477870Y-104537183D01*
X126488475Y-104504542D01*
X126488475Y-104504538D01*
X126488477Y-104504534D01*
X126520500Y-104302352D01*
X126520500Y-104097648D01*
X126488477Y-103895466D01*
X126488475Y-103895462D01*
X126488475Y-103895457D01*
X126477870Y-103862817D01*
X126475875Y-103792976D01*
X126511956Y-103733143D01*
X126574657Y-103702316D01*
X126595801Y-103700500D01*
X136638192Y-103700500D01*
X136705231Y-103720185D01*
G37*
%TD.AperFunction*%
%TA.AperFunction,Conductor*%
G36*
X142313775Y-90182185D02*
G01*
X142359530Y-90234989D01*
X142369474Y-90304147D01*
X142340449Y-90367703D01*
X142319621Y-90386818D01*
X142152786Y-90508028D01*
X142008028Y-90652786D01*
X141887715Y-90818386D01*
X141794781Y-91000776D01*
X141731522Y-91195465D01*
X141699500Y-91397648D01*
X141699500Y-91602351D01*
X141731522Y-91804534D01*
X141794781Y-91999223D01*
X141816841Y-92042517D01*
X141874976Y-92156613D01*
X141887715Y-92181613D01*
X142008028Y-92347213D01*
X142152786Y-92491971D01*
X142307749Y-92604556D01*
X142318390Y-92612287D01*
X142403139Y-92655469D01*
X142411080Y-92659515D01*
X142461876Y-92707490D01*
X142478671Y-92775311D01*
X142456134Y-92841446D01*
X142411080Y-92880485D01*
X142318386Y-92927715D01*
X142152786Y-93048028D01*
X142008028Y-93192786D01*
X141887715Y-93358386D01*
X141794781Y-93540776D01*
X141731522Y-93735465D01*
X141699500Y-93937648D01*
X141699500Y-94142351D01*
X141731522Y-94344534D01*
X141794781Y-94539223D01*
X141887715Y-94721613D01*
X142008028Y-94887213D01*
X142152782Y-95031967D01*
X142152787Y-95031971D01*
X142229583Y-95087767D01*
X142272249Y-95143097D01*
X142278228Y-95212710D01*
X142245622Y-95274505D01*
X142187365Y-95308233D01*
X142166967Y-95313439D01*
X142166956Y-95313442D01*
X142110415Y-95336862D01*
X142870590Y-96097037D01*
X142807007Y-96114075D01*
X142692993Y-96179901D01*
X142599901Y-96272993D01*
X142534075Y-96387007D01*
X142517037Y-96450589D01*
X141756862Y-95690415D01*
X141733449Y-95746940D01*
X141715455Y-95797946D01*
X141695000Y-95940219D01*
X141695000Y-97219785D01*
X141697893Y-97273762D01*
X141697893Y-97273764D01*
X141733438Y-97413030D01*
X141733440Y-97413037D01*
X141756863Y-97469583D01*
X142517037Y-96709409D01*
X142534075Y-96772993D01*
X142599901Y-96887007D01*
X142692993Y-96980099D01*
X142807007Y-97045925D01*
X142870590Y-97062962D01*
X142110415Y-97823135D01*
X142110415Y-97823136D01*
X142166954Y-97846556D01*
X142166961Y-97846558D01*
X142195621Y-97856669D01*
X142252294Y-97897534D01*
X142277876Y-97962552D01*
X142264246Y-98031080D01*
X142227256Y-98073924D01*
X142152782Y-98128032D01*
X142008028Y-98272786D01*
X141887715Y-98438386D01*
X141794781Y-98620776D01*
X141731522Y-98815465D01*
X141699500Y-99017648D01*
X141699500Y-99222351D01*
X141731522Y-99424534D01*
X141794781Y-99619223D01*
X141856427Y-99740208D01*
X141885928Y-99798107D01*
X141887715Y-99801613D01*
X142008028Y-99967213D01*
X142152786Y-100111971D01*
X142307749Y-100224556D01*
X142318390Y-100232287D01*
X142409840Y-100278883D01*
X142411080Y-100279515D01*
X142461876Y-100327490D01*
X142478671Y-100395311D01*
X142456134Y-100461446D01*
X142411080Y-100500485D01*
X142318386Y-100547715D01*
X142152786Y-100668028D01*
X142008028Y-100812786D01*
X141887715Y-100978386D01*
X141794781Y-101160776D01*
X141731522Y-101355465D01*
X141699500Y-101557648D01*
X141699500Y-101762351D01*
X141731522Y-101964534D01*
X141794781Y-102159223D01*
X141856594Y-102280535D01*
X141880274Y-102327011D01*
X141887715Y-102341613D01*
X142008028Y-102507213D01*
X142152786Y-102651971D01*
X142301342Y-102759901D01*
X142318390Y-102772287D01*
X142409840Y-102818883D01*
X142411080Y-102819515D01*
X142461876Y-102867490D01*
X142478671Y-102935311D01*
X142456134Y-103001446D01*
X142411080Y-103040485D01*
X142318386Y-103087715D01*
X142152786Y-103208028D01*
X142008028Y-103352786D01*
X141887715Y-103518386D01*
X141794781Y-103700776D01*
X141731522Y-103895465D01*
X141699500Y-104097648D01*
X141699500Y-104302351D01*
X141731522Y-104504534D01*
X141794781Y-104699223D01*
X141887715Y-104881613D01*
X142008028Y-105047213D01*
X142152786Y-105191971D01*
X142307749Y-105304556D01*
X142318390Y-105312287D01*
X142409840Y-105358883D01*
X142411080Y-105359515D01*
X142461876Y-105407490D01*
X142478671Y-105475311D01*
X142456134Y-105541446D01*
X142411080Y-105580485D01*
X142318386Y-105627715D01*
X142152786Y-105748028D01*
X142008034Y-105892780D01*
X142008030Y-105892786D01*
X141902246Y-106038386D01*
X141846918Y-106081051D01*
X141801929Y-106089500D01*
X140969808Y-106089500D01*
X140902769Y-106069815D01*
X140882127Y-106053181D01*
X137373674Y-102544727D01*
X137373673Y-102544726D01*
X137317530Y-102507213D01*
X137267127Y-102473535D01*
X137148744Y-102424499D01*
X137148738Y-102424497D01*
X137023071Y-102399500D01*
X137023069Y-102399500D01*
X126505141Y-102399500D01*
X126438102Y-102379815D01*
X126392347Y-102327011D01*
X126382403Y-102257853D01*
X126394656Y-102219206D01*
X126425217Y-102159226D01*
X126425217Y-102159222D01*
X126425220Y-102159219D01*
X126488477Y-101964534D01*
X126520500Y-101762352D01*
X126520500Y-101557648D01*
X126488477Y-101355466D01*
X126488392Y-101355205D01*
X126425218Y-101160776D01*
X126360876Y-101034499D01*
X126332287Y-100978390D01*
X126301663Y-100936239D01*
X126211971Y-100812786D01*
X126067213Y-100668028D01*
X125901614Y-100547715D01*
X125834881Y-100513713D01*
X125808917Y-100500483D01*
X125758123Y-100452511D01*
X125741328Y-100384690D01*
X125763865Y-100318555D01*
X125808917Y-100279516D01*
X125901610Y-100232287D01*
X126003378Y-100158349D01*
X126067213Y-100111971D01*
X126067215Y-100111968D01*
X126067219Y-100111966D01*
X126211966Y-99967219D01*
X126211968Y-99967215D01*
X126211971Y-99967213D01*
X126264732Y-99894590D01*
X126332287Y-99801610D01*
X126425220Y-99619219D01*
X126488477Y-99424534D01*
X126520500Y-99222352D01*
X126520500Y-99017648D01*
X126488477Y-98815466D01*
X126425220Y-98620781D01*
X126425218Y-98620778D01*
X126425218Y-98620776D01*
X126370075Y-98512553D01*
X126332287Y-98438390D01*
X126301663Y-98396239D01*
X126211971Y-98272786D01*
X126067217Y-98128032D01*
X125990415Y-98072232D01*
X125947750Y-98016902D01*
X125941771Y-97947288D01*
X125974377Y-97885494D01*
X126032640Y-97851765D01*
X126053022Y-97846563D01*
X126053035Y-97846559D01*
X126109582Y-97823135D01*
X125349409Y-97062962D01*
X125412993Y-97045925D01*
X125527007Y-96980099D01*
X125620099Y-96887007D01*
X125685925Y-96772993D01*
X125702962Y-96709409D01*
X126463135Y-97469582D01*
X126463137Y-97469582D01*
X126486552Y-97413053D01*
X126504544Y-97362053D01*
X126524999Y-97219780D01*
X126525000Y-97219779D01*
X126525000Y-95940224D01*
X126524999Y-95940204D01*
X126522106Y-95886237D01*
X126522106Y-95886235D01*
X126486558Y-95746960D01*
X126463136Y-95690415D01*
X126463135Y-95690415D01*
X125702962Y-96450589D01*
X125685925Y-96387007D01*
X125620099Y-96272993D01*
X125527007Y-96179901D01*
X125412993Y-96114075D01*
X125349410Y-96097037D01*
X126109583Y-95336863D01*
X126109583Y-95336862D01*
X126053052Y-95313447D01*
X126053013Y-95313432D01*
X126024375Y-95303329D01*
X125967704Y-95262463D01*
X125942122Y-95197444D01*
X125955754Y-95128917D01*
X125992745Y-95086074D01*
X126067215Y-95031969D01*
X126067215Y-95031968D01*
X126067219Y-95031966D01*
X126211966Y-94887219D01*
X126211968Y-94887215D01*
X126211971Y-94887213D01*
X126266775Y-94811780D01*
X126332287Y-94721610D01*
X126425220Y-94539219D01*
X126488477Y-94344534D01*
X126520500Y-94142352D01*
X126520500Y-93937648D01*
X126488477Y-93735466D01*
X126425220Y-93540781D01*
X126425218Y-93540778D01*
X126425218Y-93540776D01*
X126384465Y-93460795D01*
X126332287Y-93358390D01*
X126324556Y-93347749D01*
X126211971Y-93192786D01*
X126067217Y-93048032D01*
X126067212Y-93048028D01*
X125986440Y-92989344D01*
X125943774Y-92934015D01*
X125937795Y-92864401D01*
X125970400Y-92802606D01*
X126022433Y-92770641D01*
X126109606Y-92743478D01*
X126255185Y-92655472D01*
X126375472Y-92535185D01*
X126463478Y-92389606D01*
X126514086Y-92227196D01*
X126520500Y-92156616D01*
X126520500Y-90843384D01*
X126514086Y-90772804D01*
X126463478Y-90610394D01*
X126375472Y-90464815D01*
X126375470Y-90464813D01*
X126375469Y-90464811D01*
X126284839Y-90374181D01*
X126251354Y-90312858D01*
X126256338Y-90243166D01*
X126298210Y-90187233D01*
X126363674Y-90162816D01*
X126372520Y-90162500D01*
X142246736Y-90162500D01*
X142313775Y-90182185D01*
G37*
%TD.AperFunction*%
%TA.AperFunction,Conductor*%
G36*
X114074075Y-102967007D02*
G01*
X114040000Y-103094174D01*
X114040000Y-103225826D01*
X114074075Y-103352993D01*
X114106988Y-103410000D01*
X112433012Y-103410000D01*
X112465925Y-103352993D01*
X112500000Y-103225826D01*
X112500000Y-103094174D01*
X112465925Y-102967007D01*
X112433012Y-102910000D01*
X114106988Y-102910000D01*
X114074075Y-102967007D01*
G37*
%TD.AperFunction*%
%TA.AperFunction,Conductor*%
G36*
X123886834Y-93670185D02*
G01*
X123932589Y-93722989D01*
X123942533Y-93792147D01*
X123942268Y-93793898D01*
X123919500Y-93937648D01*
X123919500Y-94142351D01*
X123951522Y-94344534D01*
X124014781Y-94539223D01*
X124107715Y-94721613D01*
X124228028Y-94887213D01*
X124372786Y-95031971D01*
X124538388Y-95152286D01*
X124538390Y-95152287D01*
X124624294Y-95196057D01*
X124675090Y-95244031D01*
X124691886Y-95311852D01*
X124669349Y-95377987D01*
X124626455Y-95415899D01*
X124560494Y-95451157D01*
X124560489Y-95451160D01*
X124491086Y-95497532D01*
X124491085Y-95497533D01*
X125090590Y-96097037D01*
X125027007Y-96114075D01*
X124912993Y-96179901D01*
X124819901Y-96272993D01*
X124754075Y-96387007D01*
X124737037Y-96450589D01*
X124137533Y-95851085D01*
X124137532Y-95851086D01*
X124091161Y-95920488D01*
X124044490Y-96007801D01*
X123984185Y-96153387D01*
X123955444Y-96248135D01*
X123924701Y-96402697D01*
X123924701Y-96402700D01*
X123915000Y-96501210D01*
X123915000Y-96658789D01*
X123924701Y-96757299D01*
X123924701Y-96757302D01*
X123955444Y-96911864D01*
X123984185Y-97006612D01*
X124044490Y-97152198D01*
X124091158Y-97239506D01*
X124137533Y-97308912D01*
X124137534Y-97308913D01*
X124737037Y-96709409D01*
X124754075Y-96772993D01*
X124819901Y-96887007D01*
X124912993Y-96980099D01*
X125027007Y-97045925D01*
X125090590Y-97062962D01*
X124491085Y-97662465D01*
X124560493Y-97708841D01*
X124626454Y-97744099D01*
X124676298Y-97793062D01*
X124691758Y-97861200D01*
X124667926Y-97926879D01*
X124624295Y-97963942D01*
X124538386Y-98007715D01*
X124372786Y-98128028D01*
X124228034Y-98272780D01*
X124178258Y-98341292D01*
X124122246Y-98418386D01*
X124066918Y-98461051D01*
X124021929Y-98469500D01*
X123240808Y-98469500D01*
X123173769Y-98449815D01*
X123153127Y-98433181D01*
X121305790Y-96585844D01*
X118582128Y-93862181D01*
X118548643Y-93800858D01*
X118553627Y-93731166D01*
X118595499Y-93675233D01*
X118660963Y-93650816D01*
X118669809Y-93650500D01*
X123819795Y-93650500D01*
X123886834Y-93670185D01*
G37*
%TD.AperFunction*%
%TD*%
M02*
