%TF.GenerationSoftware,KiCad,Pcbnew,10.0.1*%
%TF.CreationDate,2026-08-09T09:28:38+09:00*%
%TF.ProjectId,PSCE-MI_Raspberry_PICO,50534345-2d4d-4495-9f52-617370626572,rev?*%
%TF.SameCoordinates,Original*%
%TF.FileFunction,Soldermask,Top*%
%TF.FilePolarity,Negative*%
%FSLAX46Y46*%
G04 Gerber Fmt 4.6, Leading zero omitted, Abs format (unit mm)*
G04 Created by KiCad (PCBNEW 10.0.1) date 2026-08-09 09:28:38*
%MOMM*%
%LPD*%
G01*
G04 APERTURE LIST*
G04 Aperture macros list*
%AMRoundRect*
0 Rectangle with rounded corners*
0 $1 Rounding radius*
0 $2 $3 $4 $5 $6 $7 $8 $9 X,Y pos of 4 corners*
0 Add a 4 corners polygon primitive as box body*
4,1,4,$2,$3,$4,$5,$6,$7,$8,$9,$2,$3,0*
0 Add four circle primitives for the rounded corners*
1,1,$1+$1,$2,$3*
1,1,$1+$1,$4,$5*
1,1,$1+$1,$6,$7*
1,1,$1+$1,$8,$9*
0 Add four rect primitives between the rounded corners*
20,1,$1+$1,$2,$3,$4,$5,0*
20,1,$1+$1,$4,$5,$6,$7,0*
20,1,$1+$1,$6,$7,$8,$9,0*
20,1,$1+$1,$8,$9,$2,$3,0*%
%AMFreePoly0*
4,1,37,0.603843,0.796157,0.639018,0.796157,0.711114,0.766294,0.766294,0.711114,0.796157,0.639018,0.796157,0.603843,0.800000,0.600000,0.800000,-0.600000,0.796157,-0.603843,0.796157,-0.639018,0.766294,-0.711114,0.711114,-0.766294,0.639018,-0.796157,0.603843,-0.796157,0.600000,-0.800000,0.000000,-0.800000,0.000000,-0.796148,-0.078414,-0.796148,-0.232228,-0.765552,-0.377117,-0.705537,
-0.507515,-0.618408,-0.618408,-0.507515,-0.705537,-0.377117,-0.765552,-0.232228,-0.796148,-0.078414,-0.796148,0.078414,-0.765552,0.232228,-0.705537,0.377117,-0.618408,0.507515,-0.507515,0.618408,-0.377117,0.705537,-0.232228,0.765552,-0.078414,0.796148,0.000000,0.796148,0.000000,0.800000,0.600000,0.800000,0.603843,0.796157,0.603843,0.796157,$1*%
%AMFreePoly1*
4,1,37,0.000000,0.796148,0.078414,0.796148,0.232228,0.765552,0.377117,0.705537,0.507515,0.618408,0.618408,0.507515,0.705537,0.377117,0.765552,0.232228,0.796148,0.078414,0.796148,-0.078414,0.765552,-0.232228,0.705537,-0.377117,0.618408,-0.507515,0.507515,-0.618408,0.377117,-0.705537,0.232228,-0.765552,0.078414,-0.796148,0.000000,-0.796148,0.000000,-0.800000,-0.600000,-0.800000,
-0.603843,-0.796157,-0.639018,-0.796157,-0.711114,-0.766294,-0.766294,-0.711114,-0.796157,-0.639018,-0.796157,-0.603843,-0.800000,-0.600000,-0.800000,0.600000,-0.796157,0.603843,-0.796157,0.639018,-0.766294,0.711114,-0.711114,0.766294,-0.639018,0.796157,-0.603843,0.796157,-0.600000,0.800000,0.000000,0.800000,0.000000,0.796148,0.000000,0.796148,$1*%
G04 Aperture macros list end*
%ADD10C,5.600000*%
%ADD11R,1.700000X1.700000*%
%ADD12O,1.700000X1.700000*%
%ADD13C,1.700000*%
%ADD14C,1.600000*%
%ADD15RoundRect,0.200000X-0.600000X-0.600000X0.600000X-0.600000X0.600000X0.600000X-0.600000X0.600000X0*%
%ADD16FreePoly0,0.000000*%
%ADD17FreePoly1,0.000000*%
%ADD18C,2.000000*%
G04 APERTURE END LIST*
D10*
%TO.C,H3*%
X168000000Y-93000000D03*
%TD*%
%TO.C,H4*%
X168000000Y-150000000D03*
%TD*%
D11*
%TO.C,J2*%
X112000000Y-115860000D03*
D12*
X114540000Y-115860000D03*
X112000000Y-118400000D03*
X114540000Y-118400000D03*
X112000000Y-120940000D03*
X114540000Y-120940000D03*
X112000000Y-123480000D03*
X114540000Y-123480000D03*
X112000000Y-126020000D03*
X114540000Y-126020000D03*
X112000000Y-128560000D03*
X114540000Y-128560000D03*
%TD*%
D11*
%TO.C,J3*%
X112000000Y-138720000D03*
D12*
X114540000Y-138720000D03*
X112000000Y-141260000D03*
X114540000Y-141260000D03*
X112000000Y-143800000D03*
X114540000Y-143800000D03*
X112000000Y-146340000D03*
X114540000Y-146340000D03*
X112000000Y-148880000D03*
X114540000Y-148880000D03*
X112000000Y-151420000D03*
X114540000Y-151420000D03*
%TD*%
D11*
%TO.C,J9*%
X155520000Y-118740000D03*
D13*
X155520000Y-116200000D03*
X158060000Y-118740000D03*
X158060000Y-116200000D03*
X160600000Y-118740000D03*
X160600000Y-116200000D03*
X163140000Y-118740000D03*
X163140000Y-116200000D03*
%TD*%
D11*
%TO.C,J1*%
X112000000Y-93000000D03*
D12*
X114540000Y-93000000D03*
X112000000Y-95540000D03*
X114540000Y-95540000D03*
X112000000Y-98080000D03*
X114540000Y-98080000D03*
X112000000Y-100620000D03*
X114540000Y-100620000D03*
X112000000Y-103160000D03*
X114540000Y-103160000D03*
X112000000Y-105700000D03*
X114540000Y-105700000D03*
%TD*%
D14*
%TO.C,C3*%
X160768000Y-95659000D03*
X160768000Y-98159000D03*
%TD*%
D15*
%TO.C,U1*%
X125220000Y-91500000D03*
D14*
X125220000Y-94040000D03*
D16*
X125220000Y-96580000D03*
D14*
X125220000Y-99120000D03*
X125220000Y-101660000D03*
X125220000Y-104200000D03*
X125220000Y-106740000D03*
D16*
X125220000Y-109280000D03*
D14*
X125220000Y-111820000D03*
X125220000Y-114360000D03*
X125220000Y-116900000D03*
X125220000Y-119440000D03*
D16*
X125220000Y-121980000D03*
D14*
X125220000Y-124520000D03*
X125220000Y-127060000D03*
X125220000Y-129600000D03*
X125220000Y-132140000D03*
D16*
X125220000Y-134680000D03*
D14*
X125220000Y-137220000D03*
X125220000Y-139760000D03*
X143000000Y-139760000D03*
X143000000Y-137220000D03*
D17*
X143000000Y-134680000D03*
D14*
X143000000Y-132140000D03*
X143000000Y-129600000D03*
X143000000Y-127060000D03*
X143000000Y-124520000D03*
D17*
X143000000Y-121980000D03*
D14*
X143000000Y-119440000D03*
X143000000Y-116900000D03*
X143000000Y-114360000D03*
X143000000Y-111820000D03*
D17*
X143000000Y-109280000D03*
D14*
X143000000Y-106740000D03*
X143000000Y-104200000D03*
X143000000Y-101660000D03*
X143000000Y-99120000D03*
D17*
X143000000Y-96580000D03*
D14*
X143000000Y-94040000D03*
X143000000Y-91500000D03*
%TD*%
D18*
%TO.C,SW1*%
X149606000Y-94179000D03*
X156106000Y-94179000D03*
X149606000Y-98679000D03*
X156106000Y-98679000D03*
%TD*%
D10*
%TO.C,H1*%
X113538000Y-85344000D03*
%TD*%
%TO.C,H2*%
X113284000Y-158000000D03*
%TD*%
D11*
%TO.C,J5*%
X130937000Y-149479000D03*
D13*
X133477000Y-149479000D03*
X136017000Y-149479000D03*
%TD*%
M02*
