%TF.GenerationSoftware,KiCad,Pcbnew,10.0.1*%
%TF.CreationDate,2026-08-09T09:28:39+09:00*%
%TF.ProjectId,PSCE-MI_Raspberry_PICO,50534345-2d4d-4495-9f52-617370626572,rev?*%
%TF.SameCoordinates,Original*%
%TF.FileFunction,Other,User*%
%FSLAX46Y46*%
G04 Gerber Fmt 4.6, Leading zero omitted, Abs format (unit mm)*
G04 Created by KiCad (PCBNEW 10.0.1) date 2026-08-09 09:28:39*
%MOMM*%
%LPD*%
G01*
G04 APERTURE LIST*
%ADD10C,0.050000*%
G04 APERTURE END LIST*
%TO.C,H3*%
D10*
X171050000Y-93000000D02*
G75*
G02*
X164950000Y-93000000I-3050000J0D01*
G01*
X164950000Y-93000000D02*
G75*
G02*
X171050000Y-93000000I3050000J0D01*
G01*
%TO.C,H4*%
X171050000Y-150000000D02*
G75*
G02*
X164950000Y-150000000I-3050000J0D01*
G01*
X164950000Y-150000000D02*
G75*
G02*
X171050000Y-150000000I3050000J0D01*
G01*
%TO.C,J2*%
X110200000Y-114060000D02*
X110200000Y-130360000D01*
X110200000Y-130360000D02*
X116350000Y-130360000D01*
X116350000Y-114060000D02*
X110200000Y-114060000D01*
X116350000Y-130360000D02*
X116350000Y-114060000D01*
%TO.C,J3*%
X110200000Y-136920000D02*
X110200000Y-153220000D01*
X110200000Y-153220000D02*
X116350000Y-153220000D01*
X116350000Y-136920000D02*
X110200000Y-136920000D01*
X116350000Y-153220000D02*
X116350000Y-136920000D01*
%TO.C,J9*%
X153750000Y-114420000D02*
X164910000Y-114420000D01*
X164910000Y-120510000D01*
X153750000Y-120510000D01*
X153750000Y-114420000D01*
%TO.C,J1*%
X110200000Y-91200000D02*
X110200000Y-107500000D01*
X110200000Y-107500000D02*
X116350000Y-107500000D01*
X116350000Y-91200000D02*
X110200000Y-91200000D01*
X116350000Y-107500000D02*
X116350000Y-91200000D01*
%TO.C,C3*%
X159218000Y-94609000D02*
X159218000Y-99209000D01*
X159218000Y-99209000D02*
X162318000Y-99209000D01*
X162318000Y-94609000D02*
X159218000Y-94609000D01*
X162318000Y-99209000D02*
X162318000Y-94609000D01*
%TO.C,U1*%
X138610000Y-89880000D02*
X145650000Y-89880000D01*
X145650000Y-142180000D01*
X122570000Y-142180000D01*
X122570000Y-89880000D01*
X129610000Y-89880000D01*
X129610000Y-88330000D01*
X138610000Y-88330000D01*
X138610000Y-89880000D01*
%TO.C,SW1*%
X148106000Y-92679000D02*
X148356000Y-92679000D01*
X148106000Y-92929000D02*
X148106000Y-92679000D01*
X148106000Y-99929000D02*
X148106000Y-92929000D01*
X148106000Y-99929000D02*
X148106000Y-100179000D01*
X148106000Y-100179000D02*
X148356000Y-100179000D01*
X148356000Y-92679000D02*
X157356000Y-92679000D01*
X157356000Y-92679000D02*
X157606000Y-92679000D01*
X157356000Y-100179000D02*
X148356000Y-100179000D01*
X157356000Y-100179000D02*
X157606000Y-100179000D01*
X157606000Y-92679000D02*
X157606000Y-92929000D01*
X157606000Y-92929000D02*
X157606000Y-99929000D01*
X157606000Y-100179000D02*
X157606000Y-99929000D01*
%TO.C,H1*%
X116588000Y-85344000D02*
G75*
G02*
X110488000Y-85344000I-3050000J0D01*
G01*
X110488000Y-85344000D02*
G75*
G02*
X116588000Y-85344000I3050000J0D01*
G01*
%TO.C,H2*%
X116334000Y-158000000D02*
G75*
G02*
X110234000Y-158000000I-3050000J0D01*
G01*
X110234000Y-158000000D02*
G75*
G02*
X116334000Y-158000000I3050000J0D01*
G01*
%TO.C,J5*%
X129167000Y-147709000D02*
X137787000Y-147709000D01*
X137787000Y-151249000D01*
X129167000Y-151249000D01*
X129167000Y-147709000D01*
%TD*%
M02*
