%TF.GenerationSoftware,KiCad,Pcbnew,10.0.1*%
%TF.CreationDate,2026-08-09T09:28:38+09:00*%
%TF.ProjectId,PSCE-MI_Raspberry_PICO,50534345-2d4d-4495-9f52-617370626572,rev?*%
%TF.SameCoordinates,Original*%
%TF.FileFunction,Other,Comment*%
%FSLAX46Y46*%
G04 Gerber Fmt 4.6, Leading zero omitted, Abs format (unit mm)*
G04 Created by KiCad (PCBNEW 10.0.1) date 2026-08-09 09:28:38*
%MOMM*%
%LPD*%
G01*
G04 APERTURE LIST*
%ADD10C,0.150000*%
G04 APERTURE END LIST*
D10*
X130371904Y-77619819D02*
X130371904Y-78429342D01*
X130371904Y-78429342D02*
X130419523Y-78524580D01*
X130419523Y-78524580D02*
X130467142Y-78572200D01*
X130467142Y-78572200D02*
X130562380Y-78619819D01*
X130562380Y-78619819D02*
X130752856Y-78619819D01*
X130752856Y-78619819D02*
X130848094Y-78572200D01*
X130848094Y-78572200D02*
X130895713Y-78524580D01*
X130895713Y-78524580D02*
X130943332Y-78429342D01*
X130943332Y-78429342D02*
X130943332Y-77619819D01*
X131371904Y-78572200D02*
X131514761Y-78619819D01*
X131514761Y-78619819D02*
X131752856Y-78619819D01*
X131752856Y-78619819D02*
X131848094Y-78572200D01*
X131848094Y-78572200D02*
X131895713Y-78524580D01*
X131895713Y-78524580D02*
X131943332Y-78429342D01*
X131943332Y-78429342D02*
X131943332Y-78334104D01*
X131943332Y-78334104D02*
X131895713Y-78238866D01*
X131895713Y-78238866D02*
X131848094Y-78191247D01*
X131848094Y-78191247D02*
X131752856Y-78143628D01*
X131752856Y-78143628D02*
X131562380Y-78096009D01*
X131562380Y-78096009D02*
X131467142Y-78048390D01*
X131467142Y-78048390D02*
X131419523Y-78000771D01*
X131419523Y-78000771D02*
X131371904Y-77905533D01*
X131371904Y-77905533D02*
X131371904Y-77810295D01*
X131371904Y-77810295D02*
X131419523Y-77715057D01*
X131419523Y-77715057D02*
X131467142Y-77667438D01*
X131467142Y-77667438D02*
X131562380Y-77619819D01*
X131562380Y-77619819D02*
X131800475Y-77619819D01*
X131800475Y-77619819D02*
X131943332Y-77667438D01*
X132705237Y-78096009D02*
X132848094Y-78143628D01*
X132848094Y-78143628D02*
X132895713Y-78191247D01*
X132895713Y-78191247D02*
X132943332Y-78286485D01*
X132943332Y-78286485D02*
X132943332Y-78429342D01*
X132943332Y-78429342D02*
X132895713Y-78524580D01*
X132895713Y-78524580D02*
X132848094Y-78572200D01*
X132848094Y-78572200D02*
X132752856Y-78619819D01*
X132752856Y-78619819D02*
X132371904Y-78619819D01*
X132371904Y-78619819D02*
X132371904Y-77619819D01*
X132371904Y-77619819D02*
X132705237Y-77619819D01*
X132705237Y-77619819D02*
X132800475Y-77667438D01*
X132800475Y-77667438D02*
X132848094Y-77715057D01*
X132848094Y-77715057D02*
X132895713Y-77810295D01*
X132895713Y-77810295D02*
X132895713Y-77905533D01*
X132895713Y-77905533D02*
X132848094Y-78000771D01*
X132848094Y-78000771D02*
X132800475Y-78048390D01*
X132800475Y-78048390D02*
X132705237Y-78096009D01*
X132705237Y-78096009D02*
X132371904Y-78096009D01*
X134705237Y-78524580D02*
X134657618Y-78572200D01*
X134657618Y-78572200D02*
X134514761Y-78619819D01*
X134514761Y-78619819D02*
X134419523Y-78619819D01*
X134419523Y-78619819D02*
X134276666Y-78572200D01*
X134276666Y-78572200D02*
X134181428Y-78476961D01*
X134181428Y-78476961D02*
X134133809Y-78381723D01*
X134133809Y-78381723D02*
X134086190Y-78191247D01*
X134086190Y-78191247D02*
X134086190Y-78048390D01*
X134086190Y-78048390D02*
X134133809Y-77857914D01*
X134133809Y-77857914D02*
X134181428Y-77762676D01*
X134181428Y-77762676D02*
X134276666Y-77667438D01*
X134276666Y-77667438D02*
X134419523Y-77619819D01*
X134419523Y-77619819D02*
X134514761Y-77619819D01*
X134514761Y-77619819D02*
X134657618Y-77667438D01*
X134657618Y-77667438D02*
X134705237Y-77715057D01*
X135562380Y-78619819D02*
X135562380Y-78096009D01*
X135562380Y-78096009D02*
X135514761Y-78000771D01*
X135514761Y-78000771D02*
X135419523Y-77953152D01*
X135419523Y-77953152D02*
X135229047Y-77953152D01*
X135229047Y-77953152D02*
X135133809Y-78000771D01*
X135562380Y-78572200D02*
X135467142Y-78619819D01*
X135467142Y-78619819D02*
X135229047Y-78619819D01*
X135229047Y-78619819D02*
X135133809Y-78572200D01*
X135133809Y-78572200D02*
X135086190Y-78476961D01*
X135086190Y-78476961D02*
X135086190Y-78381723D01*
X135086190Y-78381723D02*
X135133809Y-78286485D01*
X135133809Y-78286485D02*
X135229047Y-78238866D01*
X135229047Y-78238866D02*
X135467142Y-78238866D01*
X135467142Y-78238866D02*
X135562380Y-78191247D01*
X136038571Y-78619819D02*
X136038571Y-77619819D01*
X136038571Y-78000771D02*
X136133809Y-77953152D01*
X136133809Y-77953152D02*
X136324285Y-77953152D01*
X136324285Y-77953152D02*
X136419523Y-78000771D01*
X136419523Y-78000771D02*
X136467142Y-78048390D01*
X136467142Y-78048390D02*
X136514761Y-78143628D01*
X136514761Y-78143628D02*
X136514761Y-78429342D01*
X136514761Y-78429342D02*
X136467142Y-78524580D01*
X136467142Y-78524580D02*
X136419523Y-78572200D01*
X136419523Y-78572200D02*
X136324285Y-78619819D01*
X136324285Y-78619819D02*
X136133809Y-78619819D01*
X136133809Y-78619819D02*
X136038571Y-78572200D01*
X137086190Y-78619819D02*
X136990952Y-78572200D01*
X136990952Y-78572200D02*
X136943333Y-78476961D01*
X136943333Y-78476961D02*
X136943333Y-77619819D01*
X137848095Y-78572200D02*
X137752857Y-78619819D01*
X137752857Y-78619819D02*
X137562381Y-78619819D01*
X137562381Y-78619819D02*
X137467143Y-78572200D01*
X137467143Y-78572200D02*
X137419524Y-78476961D01*
X137419524Y-78476961D02*
X137419524Y-78096009D01*
X137419524Y-78096009D02*
X137467143Y-78000771D01*
X137467143Y-78000771D02*
X137562381Y-77953152D01*
X137562381Y-77953152D02*
X137752857Y-77953152D01*
X137752857Y-77953152D02*
X137848095Y-78000771D01*
X137848095Y-78000771D02*
X137895714Y-78096009D01*
X137895714Y-78096009D02*
X137895714Y-78191247D01*
X137895714Y-78191247D02*
X137419524Y-78286485D01*
X127871904Y-135769819D02*
X127871904Y-134769819D01*
X127871904Y-134769819D02*
X128252856Y-134769819D01*
X128252856Y-134769819D02*
X128348094Y-134817438D01*
X128348094Y-134817438D02*
X128395713Y-134865057D01*
X128395713Y-134865057D02*
X128443332Y-134960295D01*
X128443332Y-134960295D02*
X128443332Y-135103152D01*
X128443332Y-135103152D02*
X128395713Y-135198390D01*
X128395713Y-135198390D02*
X128348094Y-135246009D01*
X128348094Y-135246009D02*
X128252856Y-135293628D01*
X128252856Y-135293628D02*
X127871904Y-135293628D01*
X129014761Y-135769819D02*
X128919523Y-135722200D01*
X128919523Y-135722200D02*
X128871904Y-135674580D01*
X128871904Y-135674580D02*
X128824285Y-135579342D01*
X128824285Y-135579342D02*
X128824285Y-135293628D01*
X128824285Y-135293628D02*
X128871904Y-135198390D01*
X128871904Y-135198390D02*
X128919523Y-135150771D01*
X128919523Y-135150771D02*
X129014761Y-135103152D01*
X129014761Y-135103152D02*
X129157618Y-135103152D01*
X129157618Y-135103152D02*
X129252856Y-135150771D01*
X129252856Y-135150771D02*
X129300475Y-135198390D01*
X129300475Y-135198390D02*
X129348094Y-135293628D01*
X129348094Y-135293628D02*
X129348094Y-135579342D01*
X129348094Y-135579342D02*
X129300475Y-135674580D01*
X129300475Y-135674580D02*
X129252856Y-135722200D01*
X129252856Y-135722200D02*
X129157618Y-135769819D01*
X129157618Y-135769819D02*
X129014761Y-135769819D01*
X129729047Y-135722200D02*
X129824285Y-135769819D01*
X129824285Y-135769819D02*
X130014761Y-135769819D01*
X130014761Y-135769819D02*
X130109999Y-135722200D01*
X130109999Y-135722200D02*
X130157618Y-135626961D01*
X130157618Y-135626961D02*
X130157618Y-135579342D01*
X130157618Y-135579342D02*
X130109999Y-135484104D01*
X130109999Y-135484104D02*
X130014761Y-135436485D01*
X130014761Y-135436485D02*
X129871904Y-135436485D01*
X129871904Y-135436485D02*
X129776666Y-135388866D01*
X129776666Y-135388866D02*
X129729047Y-135293628D01*
X129729047Y-135293628D02*
X129729047Y-135246009D01*
X129729047Y-135246009D02*
X129776666Y-135150771D01*
X129776666Y-135150771D02*
X129871904Y-135103152D01*
X129871904Y-135103152D02*
X130014761Y-135103152D01*
X130014761Y-135103152D02*
X130109999Y-135150771D01*
X130538571Y-135722200D02*
X130633809Y-135769819D01*
X130633809Y-135769819D02*
X130824285Y-135769819D01*
X130824285Y-135769819D02*
X130919523Y-135722200D01*
X130919523Y-135722200D02*
X130967142Y-135626961D01*
X130967142Y-135626961D02*
X130967142Y-135579342D01*
X130967142Y-135579342D02*
X130919523Y-135484104D01*
X130919523Y-135484104D02*
X130824285Y-135436485D01*
X130824285Y-135436485D02*
X130681428Y-135436485D01*
X130681428Y-135436485D02*
X130586190Y-135388866D01*
X130586190Y-135388866D02*
X130538571Y-135293628D01*
X130538571Y-135293628D02*
X130538571Y-135246009D01*
X130538571Y-135246009D02*
X130586190Y-135150771D01*
X130586190Y-135150771D02*
X130681428Y-135103152D01*
X130681428Y-135103152D02*
X130824285Y-135103152D01*
X130824285Y-135103152D02*
X130919523Y-135150771D01*
X131395714Y-135769819D02*
X131395714Y-135103152D01*
X131395714Y-134769819D02*
X131348095Y-134817438D01*
X131348095Y-134817438D02*
X131395714Y-134865057D01*
X131395714Y-134865057D02*
X131443333Y-134817438D01*
X131443333Y-134817438D02*
X131395714Y-134769819D01*
X131395714Y-134769819D02*
X131395714Y-134865057D01*
X131871904Y-135769819D02*
X131871904Y-134769819D01*
X131871904Y-135150771D02*
X131967142Y-135103152D01*
X131967142Y-135103152D02*
X132157618Y-135103152D01*
X132157618Y-135103152D02*
X132252856Y-135150771D01*
X132252856Y-135150771D02*
X132300475Y-135198390D01*
X132300475Y-135198390D02*
X132348094Y-135293628D01*
X132348094Y-135293628D02*
X132348094Y-135579342D01*
X132348094Y-135579342D02*
X132300475Y-135674580D01*
X132300475Y-135674580D02*
X132252856Y-135722200D01*
X132252856Y-135722200D02*
X132157618Y-135769819D01*
X132157618Y-135769819D02*
X131967142Y-135769819D01*
X131967142Y-135769819D02*
X131871904Y-135722200D01*
X132919523Y-135769819D02*
X132824285Y-135722200D01*
X132824285Y-135722200D02*
X132776666Y-135626961D01*
X132776666Y-135626961D02*
X132776666Y-134769819D01*
X133681428Y-135722200D02*
X133586190Y-135769819D01*
X133586190Y-135769819D02*
X133395714Y-135769819D01*
X133395714Y-135769819D02*
X133300476Y-135722200D01*
X133300476Y-135722200D02*
X133252857Y-135626961D01*
X133252857Y-135626961D02*
X133252857Y-135246009D01*
X133252857Y-135246009D02*
X133300476Y-135150771D01*
X133300476Y-135150771D02*
X133395714Y-135103152D01*
X133395714Y-135103152D02*
X133586190Y-135103152D01*
X133586190Y-135103152D02*
X133681428Y-135150771D01*
X133681428Y-135150771D02*
X133729047Y-135246009D01*
X133729047Y-135246009D02*
X133729047Y-135341247D01*
X133729047Y-135341247D02*
X133252857Y-135436485D01*
X134871905Y-135484104D02*
X135348095Y-135484104D01*
X134776667Y-135769819D02*
X135110000Y-134769819D01*
X135110000Y-134769819D02*
X135443333Y-135769819D01*
X135776667Y-135103152D02*
X135776667Y-135769819D01*
X135776667Y-135198390D02*
X135824286Y-135150771D01*
X135824286Y-135150771D02*
X135919524Y-135103152D01*
X135919524Y-135103152D02*
X136062381Y-135103152D01*
X136062381Y-135103152D02*
X136157619Y-135150771D01*
X136157619Y-135150771D02*
X136205238Y-135246009D01*
X136205238Y-135246009D02*
X136205238Y-135769819D01*
X136538572Y-135103152D02*
X136919524Y-135103152D01*
X136681429Y-134769819D02*
X136681429Y-135626961D01*
X136681429Y-135626961D02*
X136729048Y-135722200D01*
X136729048Y-135722200D02*
X136824286Y-135769819D01*
X136824286Y-135769819D02*
X136919524Y-135769819D01*
X137633810Y-135722200D02*
X137538572Y-135769819D01*
X137538572Y-135769819D02*
X137348096Y-135769819D01*
X137348096Y-135769819D02*
X137252858Y-135722200D01*
X137252858Y-135722200D02*
X137205239Y-135626961D01*
X137205239Y-135626961D02*
X137205239Y-135246009D01*
X137205239Y-135246009D02*
X137252858Y-135150771D01*
X137252858Y-135150771D02*
X137348096Y-135103152D01*
X137348096Y-135103152D02*
X137538572Y-135103152D01*
X137538572Y-135103152D02*
X137633810Y-135150771D01*
X137633810Y-135150771D02*
X137681429Y-135246009D01*
X137681429Y-135246009D02*
X137681429Y-135341247D01*
X137681429Y-135341247D02*
X137205239Y-135436485D01*
X138110001Y-135103152D02*
X138110001Y-135769819D01*
X138110001Y-135198390D02*
X138157620Y-135150771D01*
X138157620Y-135150771D02*
X138252858Y-135103152D01*
X138252858Y-135103152D02*
X138395715Y-135103152D01*
X138395715Y-135103152D02*
X138490953Y-135150771D01*
X138490953Y-135150771D02*
X138538572Y-135246009D01*
X138538572Y-135246009D02*
X138538572Y-135769819D01*
X139014763Y-135103152D02*
X139014763Y-135769819D01*
X139014763Y-135198390D02*
X139062382Y-135150771D01*
X139062382Y-135150771D02*
X139157620Y-135103152D01*
X139157620Y-135103152D02*
X139300477Y-135103152D01*
X139300477Y-135103152D02*
X139395715Y-135150771D01*
X139395715Y-135150771D02*
X139443334Y-135246009D01*
X139443334Y-135246009D02*
X139443334Y-135769819D01*
X140348096Y-135769819D02*
X140348096Y-135246009D01*
X140348096Y-135246009D02*
X140300477Y-135150771D01*
X140300477Y-135150771D02*
X140205239Y-135103152D01*
X140205239Y-135103152D02*
X140014763Y-135103152D01*
X140014763Y-135103152D02*
X139919525Y-135150771D01*
X140348096Y-135722200D02*
X140252858Y-135769819D01*
X140252858Y-135769819D02*
X140014763Y-135769819D01*
X140014763Y-135769819D02*
X139919525Y-135722200D01*
X139919525Y-135722200D02*
X139871906Y-135626961D01*
X139871906Y-135626961D02*
X139871906Y-135531723D01*
X139871906Y-135531723D02*
X139919525Y-135436485D01*
X139919525Y-135436485D02*
X140014763Y-135388866D01*
X140014763Y-135388866D02*
X140252858Y-135388866D01*
X140252858Y-135388866D02*
X140348096Y-135341247D01*
X130895714Y-137674819D02*
X130895714Y-136674819D01*
X131467142Y-137674819D02*
X131038571Y-137103390D01*
X131467142Y-136674819D02*
X130895714Y-137246247D01*
X132276666Y-137627200D02*
X132181428Y-137674819D01*
X132181428Y-137674819D02*
X131990952Y-137674819D01*
X131990952Y-137674819D02*
X131895714Y-137627200D01*
X131895714Y-137627200D02*
X131848095Y-137531961D01*
X131848095Y-137531961D02*
X131848095Y-137151009D01*
X131848095Y-137151009D02*
X131895714Y-137055771D01*
X131895714Y-137055771D02*
X131990952Y-137008152D01*
X131990952Y-137008152D02*
X132181428Y-137008152D01*
X132181428Y-137008152D02*
X132276666Y-137055771D01*
X132276666Y-137055771D02*
X132324285Y-137151009D01*
X132324285Y-137151009D02*
X132324285Y-137246247D01*
X132324285Y-137246247D02*
X131848095Y-137341485D01*
X133133809Y-137627200D02*
X133038571Y-137674819D01*
X133038571Y-137674819D02*
X132848095Y-137674819D01*
X132848095Y-137674819D02*
X132752857Y-137627200D01*
X132752857Y-137627200D02*
X132705238Y-137531961D01*
X132705238Y-137531961D02*
X132705238Y-137151009D01*
X132705238Y-137151009D02*
X132752857Y-137055771D01*
X132752857Y-137055771D02*
X132848095Y-137008152D01*
X132848095Y-137008152D02*
X133038571Y-137008152D01*
X133038571Y-137008152D02*
X133133809Y-137055771D01*
X133133809Y-137055771D02*
X133181428Y-137151009D01*
X133181428Y-137151009D02*
X133181428Y-137246247D01*
X133181428Y-137246247D02*
X132705238Y-137341485D01*
X133610000Y-137008152D02*
X133610000Y-138008152D01*
X133610000Y-137055771D02*
X133705238Y-137008152D01*
X133705238Y-137008152D02*
X133895714Y-137008152D01*
X133895714Y-137008152D02*
X133990952Y-137055771D01*
X133990952Y-137055771D02*
X134038571Y-137103390D01*
X134038571Y-137103390D02*
X134086190Y-137198628D01*
X134086190Y-137198628D02*
X134086190Y-137484342D01*
X134086190Y-137484342D02*
X134038571Y-137579580D01*
X134038571Y-137579580D02*
X133990952Y-137627200D01*
X133990952Y-137627200D02*
X133895714Y-137674819D01*
X133895714Y-137674819D02*
X133705238Y-137674819D01*
X133705238Y-137674819D02*
X133610000Y-137627200D01*
X135467143Y-136674819D02*
X135657619Y-136674819D01*
X135657619Y-136674819D02*
X135752857Y-136722438D01*
X135752857Y-136722438D02*
X135848095Y-136817676D01*
X135848095Y-136817676D02*
X135895714Y-137008152D01*
X135895714Y-137008152D02*
X135895714Y-137341485D01*
X135895714Y-137341485D02*
X135848095Y-137531961D01*
X135848095Y-137531961D02*
X135752857Y-137627200D01*
X135752857Y-137627200D02*
X135657619Y-137674819D01*
X135657619Y-137674819D02*
X135467143Y-137674819D01*
X135467143Y-137674819D02*
X135371905Y-137627200D01*
X135371905Y-137627200D02*
X135276667Y-137531961D01*
X135276667Y-137531961D02*
X135229048Y-137341485D01*
X135229048Y-137341485D02*
X135229048Y-137008152D01*
X135229048Y-137008152D02*
X135276667Y-136817676D01*
X135276667Y-136817676D02*
X135371905Y-136722438D01*
X135371905Y-136722438D02*
X135467143Y-136674819D01*
X136752857Y-137008152D02*
X136752857Y-137674819D01*
X136324286Y-137008152D02*
X136324286Y-137531961D01*
X136324286Y-137531961D02*
X136371905Y-137627200D01*
X136371905Y-137627200D02*
X136467143Y-137674819D01*
X136467143Y-137674819D02*
X136610000Y-137674819D01*
X136610000Y-137674819D02*
X136705238Y-137627200D01*
X136705238Y-137627200D02*
X136752857Y-137579580D01*
X137086191Y-137008152D02*
X137467143Y-137008152D01*
X137229048Y-136674819D02*
X137229048Y-137531961D01*
X137229048Y-137531961D02*
X137276667Y-137627200D01*
X137276667Y-137627200D02*
X137371905Y-137674819D01*
X137371905Y-137674819D02*
X137467143Y-137674819D01*
%TO.C,H3*%
X170800000Y-93000000D02*
G75*
G02*
X165200000Y-93000000I-2800000J0D01*
G01*
X165200000Y-93000000D02*
G75*
G02*
X170800000Y-93000000I2800000J0D01*
G01*
%TO.C,H4*%
X170800000Y-150000000D02*
G75*
G02*
X165200000Y-150000000I-2800000J0D01*
G01*
X165200000Y-150000000D02*
G75*
G02*
X170800000Y-150000000I2800000J0D01*
G01*
%TO.C,H1*%
X116338000Y-85344000D02*
G75*
G02*
X110738000Y-85344000I-2800000J0D01*
G01*
X110738000Y-85344000D02*
G75*
G02*
X116338000Y-85344000I2800000J0D01*
G01*
%TO.C,H2*%
X116084000Y-158000000D02*
G75*
G02*
X110484000Y-158000000I-2800000J0D01*
G01*
X110484000Y-158000000D02*
G75*
G02*
X116084000Y-158000000I2800000J0D01*
G01*
%TD*%
M02*
